<svg xmlns="http://www.w3.org/2000/svg" xmlns:xlink="http://www.w3.org/1999/xlink" viewBox="0 0 1000 1000"><defs><style>.cls-1{isolation:isolate;}.cls-10,.cls-11,.cls-12,.cls-13,.cls-14,.cls-15,.cls-17,.cls-18,.cls-19,.cls-2,.cls-20,.cls-21,.cls-22,.cls-23,.cls-24,.cls-25,.cls-26,.cls-27,.cls-28,.cls-3,.cls-31,.cls-32,.cls-33,.cls-34,.cls-35,.cls-36,.cls-37,.cls-38,.cls-39,.cls-4,.cls-40,.cls-41,.cls-42,.cls-43,.cls-44,.cls-5,.cls-6,.cls-7,.cls-8,.cls-9{fill-rule:evenodd;}.cls-2{fill:url(#linear-gradient);}.cls-3{fill:url(#_ÂÁ_Ï_ÌÌ_È_ËÂÌÚ_92);}.cls-4{fill:url(#_ÂÁ_Ï_ÌÌ_È_ËÂÌÚ_77);}.cls-5{fill:url(#_ÂÁ_Ï_ÌÌ_È_ËÂÌÚ_91);}.cls-6{fill:url(#_ÂÁ_Ï_ÌÌ_È_ËÂÌÚ_101);}.cls-10,.cls-12,.cls-13,.cls-15,.cls-17,.cls-36,.cls-38,.cls-40,.cls-41,.cls-7{mix-blend-mode:multiply;}.cls-10,.cls-17,.cls-38,.cls-41,.cls-7{opacity:0.79;}.cls-7{fill:url(#_ÂÁ_Ï_ÌÌ_È_ËÂÌÚ_146);}.cls-8{fill:url(#_ÂÁ_Ï_ÌÌ_È_ËÂÌÚ_2);}.cls-9{fill:url(#_ÂÁ_Ï_ÌÌ_È_ËÂÌÚ_101-2);}.cls-10{fill:url(#_ÂÁ_Ï_ÌÌ_È_ËÂÌÚ_139);}.cls-11{fill:url(#_ÂÁ_Ï_ÌÌ_È_ËÂÌÚ_4);}.cls-12{fill:#7c4f90;opacity:0.5;}.cls-13,.cls-15,.cls-36,.cls-37,.cls-40{opacity:0.58;}.cls-13{fill:url(#_ÂÁ_Ï_ÌÌ_È_ËÂÌÚ_139-2);}.cls-14{fill:url(#_ÂÁ_Ï_ÌÌ_È_ËÂÌÚ_5);}.cls-15{fill:url(#_ÂÁ_Ï_ÌÌ_È_ËÂÌÚ_127);}.cls-16{fill:url(#_ÂÁ_Ï_ÌÌ_È_ËÂÌÚ_213);}.cls-17{fill:url(#_ÂÁ_Ï_ÌÌ_È_ËÂÌÚ_156);}.cls-18{fill:url(#_ÂÁ_Ï_ÌÌ_È_ËÂÌÚ_4-2);}.cls-19{fill:url(#_ÂÁ_Ï_ÌÌ_È_ËÂÌÚ_56);}.cls-20{fill:url(#_ÂÁ_Ï_ÌÌ_È_ËÂÌÚ_46);}.cls-21{fill:url(#_ÂÁ_Ï_ÌÌ_È_ËÂÌÚ_77-2);}.cls-22{fill:url(#_ÂÁ_Ï_ÌÌ_È_ËÂÌÚ_77-3);}.cls-23{fill:#4f5195;}.cls-24{fill:url(#_ÂÁ_Ï_ÌÌ_È_ËÂÌÚ_91-2);}.cls-25{fill:url(#_ÂÁ_Ï_ÌÌ_È_ËÂÌÚ_101-3);}.cls-26{fill:url(#_ÂÁ_Ï_ÌÌ_È_ËÂÌÚ_92-2);}.cls-27{fill:#a19ddd;}.cls-28{fill:url(#_ÂÁ_Ï_ÌÌ_È_ËÂÌÚ_118);}.cls-29{fill:url(#_ÂÁ_Ï_ÌÌ_È_ËÂÌÚ_109);}.cls-30{fill:#180833;}.cls-31{fill:#220d33;}.cls-32{fill:#b64f6d;}.cls-33,.cls-44,.cls-45{fill:#fff;}.cls-34{fill:url(#_ÂÁ_Ï_ÌÌ_È_ËÂÌÚ_101-4);}.cls-35{fill:#b5526f;}.cls-36{fill:url(#_ÂÁ_Ï_ÌÌ_È_ËÂÌÚ_29);}.cls-37{mix-blend-mode:screen;fill:url(#_ÂÁ_Ï_ÌÌ_È_ËÂÌÚ_132);}.cls-38{fill:url(#_ÂÁ_Ï_ÌÌ_È_ËÂÌÚ_139-3);}.cls-39{fill:url(#_ÂÁ_Ï_ÌÌ_È_ËÂÌÚ_3);}.cls-40{fill:url(#_ÂÁ_Ï_ÌÌ_È_ËÂÌÚ_127-2);}.cls-41{fill:url(#_ÂÁ_Ï_ÌÌ_È_ËÂÌÚ_139-4);}.cls-42{fill:url(#_ÂÁ_Ï_ÌÌ_È_ËÂÌÚ_2-2);}.cls-43{fill:#ff63b8;}.cls-44,.cls-45{mix-blend-mode:soft-light;}</style><linearGradient id="linear-gradient" x1="750.04" y1="933.09" x2="249.96" y2="66.91" gradientUnits="userSpaceOnUse"><stop offset="0" stop-color="#00cdb8"/><stop offset="1" stop-color="#2ae59d"/></linearGradient><linearGradient id="_ÂÁ_Ï_ÌÌ_È_ËÂÌÚ_92" x1="395.02" y1="994.3" x2="395.02" y2="878.58" gradientUnits="userSpaceOnUse"><stop offset="0.03" stop-color="#84a1ff"/><stop offset="0.98" stop-color="#5b72ec"/></linearGradient><linearGradient id="_ÂÁ_Ï_ÌÌ_È_ËÂÌÚ_77" x1="400.64" y1="920.93" x2="400.64" y2="704.14" gradientUnits="userSpaceOnUse"><stop offset="0.02" stop-color="#ffa451"/><stop offset="0.97" stop-color="#ff515e"/></linearGradient><linearGradient id="_ÂÁ_Ï_ÌÌ_È_ËÂÌÚ_91" x1="390.69" y1="992.57" x2="390.69" y2="803.9" gradientUnits="userSpaceOnUse"><stop offset="0.03" stop-color="#d36fff"/><stop offset="0.98" stop-color="#a240ec"/></linearGradient><linearGradient id="_ÂÁ_Ï_ÌÌ_È_ËÂÌÚ_101" x1="395.58" y1="963.51" x2="395.58" y2="760.79" gradientUnits="userSpaceOnUse"><stop offset="0.02" stop-color="#ff7288"/><stop offset="0.97" stop-color="#ff11a1"/></linearGradient><linearGradient id="_ÂÁ_Ï_ÌÌ_È_ËÂÌÚ_146" x1="431.67" y1="994.3" x2="431.67" y2="721.89" gradientUnits="userSpaceOnUse"><stop offset="0" stop-color="#fff"/><stop offset="0.99" stop-color="#943bac"/></linearGradient><linearGradient id="_ÂÁ_Ï_ÌÌ_È_ËÂÌÚ_2" x1="465.24" y1="998.63" x2="465.24" y2="846.65" gradientUnits="userSpaceOnUse"><stop offset="0.02" stop-color="#5bc9ec"/><stop offset="0.97" stop-color="#84a1ff"/></linearGradient><linearGradient id="_ÂÁ_Ï_ÌÌ_È_ËÂÌÚ_101-2" x1="361.91" y1="478.87" x2="361.91" y2="313.29" xlink:href="#_ÂÁ_Ï_ÌÌ_È_ËÂÌÚ_101"/><linearGradient id="_ÂÁ_Ï_ÌÌ_È_ËÂÌÚ_139" x1="365.15" y1="478.87" x2="365.15" y2="317.87" gradientUnits="userSpaceOnUse"><stop offset="0" stop-color="#fff"/><stop offset="0.99" stop-color="#8259ac"/></linearGradient><linearGradient id="_ÂÁ_Ï_ÌÌ_È_ËÂÌÚ_4" x1="668.2" y1="1000" x2="668.2" y2="524.36" gradientUnits="userSpaceOnUse"><stop offset="0.02" stop-color="#e4deec"/><stop offset="1" stop-color="#cfbfeb"/></linearGradient><linearGradient id="_ÂÁ_Ï_ÌÌ_È_ËÂÌÚ_139-2" x1="688.9" y1="969.8" x2="688.9" y2="524.36" xlink:href="#_ÂÁ_Ï_ÌÌ_È_ËÂÌÚ_139"/><linearGradient id="_ÂÁ_Ï_ÌÌ_È_ËÂÌÚ_5" x1="536.14" y1="801.12" x2="536.14" y2="304.51" gradientUnits="userSpaceOnUse"><stop offset="0" stop-color="#cfbfeb"/><stop offset="0.98" stop-color="#e4deec"/></linearGradient><linearGradient id="_ÂÁ_Ï_ÌÌ_È_ËÂÌÚ_127" x1="555.4" y1="801.12" x2="555.4" y2="304.51" gradientUnits="userSpaceOnUse"><stop offset="0" stop-color="#cad6ff"/><stop offset="0.99" stop-color="#9775ba"/></linearGradient><linearGradient id="_ÂÁ_Ï_ÌÌ_È_ËÂÌÚ_213" x1="403.63" y1="405.92" x2="403.63" y2="69.02" gradientTransform="matrix(0.99, 0.15, -0.14, 0.93, 41.1, -43.44)" gradientUnits="userSpaceOnUse"><stop offset="0" stop-color="#ff8757"/><stop offset="0.98" stop-color="#ffb34c"/></linearGradient><linearGradient id="_ÂÁ_Ï_ÌÌ_È_ËÂÌÚ_156" x1="404.15" y1="405.92" x2="404.15" y2="69.58" gradientTransform="matrix(0.99, 0.15, -0.14, 0.93, 41.1, -43.44)" gradientUnits="userSpaceOnUse"><stop offset="0" stop-color="#fff"/><stop offset="0.99" stop-color="#b10bac"/></linearGradient><linearGradient id="_ÂÁ_Ï_ÌÌ_È_ËÂÌÚ_4-2" x1="734.22" y1="504.18" x2="734.22" y2="293.19" gradientTransform="translate(-45.2 0.65) rotate(-6.21)" xlink:href="#_ÂÁ_Ï_ÌÌ_È_ËÂÌÚ_4"/><linearGradient id="_ÂÁ_Ï_ÌÌ_È_ËÂÌÚ_56" x1="594.02" y1="439.73" x2="594.02" y2="184.14" gradientUnits="userSpaceOnUse"><stop offset="0.02" stop-color="#a272ec"/><stop offset="0.97" stop-color="#d36fff"/></linearGradient><linearGradient id="_ÂÁ_Ï_ÌÌ_È_ËÂÌÚ_46" x1="630.59" y1="398.64" x2="630.59" y2="225.93" gradientUnits="userSpaceOnUse"><stop offset="0.02" stop-color="#5b72ec"/><stop offset="0.97" stop-color="#84a1ff"/></linearGradient><linearGradient id="_ÂÁ_Ï_ÌÌ_È_ËÂÌÚ_77-2" x1="310.13" y1="442.89" x2="310.13" y2="320.98" xlink:href="#_ÂÁ_Ï_ÌÌ_È_ËÂÌÚ_77"/><linearGradient id="_ÂÁ_Ï_ÌÌ_È_ËÂÌÚ_77-3" x1="895.13" y1="808.04" x2="895.13" y2="801.09" xlink:href="#_ÂÁ_Ï_ÌÌ_È_ËÂÌÚ_77"/><linearGradient id="_ÂÁ_Ï_ÌÌ_È_ËÂÌÚ_91-2" x1="774.61" y1="976.07" x2="774.61" y2="576.97" xlink:href="#_ÂÁ_Ï_ÌÌ_È_ËÂÌÚ_91"/><linearGradient id="_ÂÁ_Ï_ÌÌ_È_ËÂÌÚ_101-3" x1="794.24" y1="926.84" x2="794.24" y2="633.06" xlink:href="#_ÂÁ_Ï_ÌÌ_È_ËÂÌÚ_101"/><linearGradient id="_ÂÁ_Ï_ÌÌ_È_ËÂÌÚ_92-2" x1="759.52" y1="823.24" x2="759.52" y2="398.63" xlink:href="#_ÂÁ_Ï_ÌÌ_È_ËÂÌÚ_92"/><linearGradient id="_ÂÁ_Ï_ÌÌ_È_ËÂÌÚ_118" x1="548.55" y1="620.09" x2="548.55" y2="510.04" gradientUnits="userSpaceOnUse"><stop offset="0" stop-color="#fff"/><stop offset="1" stop-color="#bdbfff"/></linearGradient><linearGradient id="_ÂÁ_Ï_ÌÌ_È_ËÂÌÚ_109" x1="561.17" y1="609.91" x2="561.17" y2="507.24" gradientTransform="translate(559.33 -233.21) rotate(45)" gradientUnits="userSpaceOnUse"><stop offset="0.01" stop-color="#634f90"/><stop offset="1" stop-color="#3b0643"/></linearGradient><linearGradient id="_ÂÁ_Ï_ÌÌ_È_ËÂÌÚ_101-4" x1="481.31" y1="445.98" x2="585.82" y2="445.98" xlink:href="#_ÂÁ_Ï_ÌÌ_È_ËÂÌÚ_101"/><linearGradient id="_ÂÁ_Ï_ÌÌ_È_ËÂÌÚ_29" x1="386.23" y1="696.35" x2="417.82" y2="696.35" gradientUnits="userSpaceOnUse"><stop offset="0.01" stop-color="#9775ba"/><stop offset="1" stop-color="#ffeadb"/></linearGradient><linearGradient id="_ÂÁ_Ï_ÌÌ_È_ËÂÌÚ_132" x1="306.47" y1="650.42" x2="459.48" y2="650.42" gradientUnits="userSpaceOnUse"><stop offset="0" stop-color="#ffeadb"/><stop offset="0.99"/></linearGradient><linearGradient id="_ÂÁ_Ï_ÌÌ_È_ËÂÌÚ_139-3" x1="594.87" y1="439.73" x2="594.87" y2="184.62" xlink:href="#_ÂÁ_Ï_ÌÌ_È_ËÂÌÚ_139"/><linearGradient id="_ÂÁ_Ï_ÌÌ_È_ËÂÌÚ_3" x1="725.3" y1="427.52" x2="725.3" y2="229.47" gradientUnits="userSpaceOnUse"><stop offset="0.02" stop-color="#ff9fa6"/><stop offset="1" stop-color="#ff88c7"/></linearGradient><linearGradient id="_ÂÁ_Ï_ÌÌ_È_ËÂÌÚ_127-2" x1="727.67" y1="386" x2="727.67" y2="229.47" xlink:href="#_ÂÁ_Ï_ÌÌ_È_ËÂÌÚ_127"/><linearGradient id="_ÂÁ_Ï_ÌÌ_È_ËÂÌÚ_139-4" x1="801.23" y1="926.68" x2="801.23" y2="398.63" xlink:href="#_ÂÁ_Ï_ÌÌ_È_ËÂÌÚ_139"/><linearGradient id="_ÂÁ_Ï_ÌÌ_È_ËÂÌÚ_2-2" x1="795.7" y1="728.23" x2="795.7" y2="491.46" xlink:href="#_ÂÁ_Ï_ÌÌ_È_ËÂÌÚ_2"/></defs><g class="cls-1"><g id="Layer_1" data-name="Layer 1"><path class="cls-2" d="M1000,500A497.79,497.79,0,0,1,896.4,804.78c-.39.52-.79,1-1.2,1.54s-.88,1.15-1.34,1.72h0q-10.43,13.32-21.72,25.88c-.23.27-.47.54-.72.8q-5.4,6-11,11.82-3.3,3.47-6.7,6.85a501.55,501.55,0,0,1-82.57,66.76c-1.82,1.19-3.66,2.36-5.5,3.51-1.61,1-3.22,2-4.85,3l-.25.16a498.07,498.07,0,0,1-89,43q-9,3.32-18.25,6.27A499.58,499.58,0,0,1,500,1000q-8.53,0-17-.28-10.15-.35-20.21-1.09-9.24-.68-18.38-1.69-10.12-1.11-20.12-2.64-5.34-.79-10.64-1.73A496.32,496.32,0,0,1,327,969.27q-7.49-2.76-14.86-5.76-5.23-2.12-10.4-4.35-10.74-4.63-21.2-9.77-8.37-4.08-16.57-8.49c-1.36-.72-2.73-1.46-4.08-2.21s-2.87-1.58-4.29-2.38q-12.92-7.24-25.34-15.23a1.14,1.14,0,0,1-.23-.15q-3.94-2.52-7.83-5.14C88.22,826.11,0,673.36,0,500,0,223.86,223.85,0,500,0S1000,223.86,1000,500Z"/><path class="cls-3" d="M463,878.58c-.07.06-.07.06-.07.13-1,2.06-12.19,24.9-23.87,61.11-5.1,15.81-10.3,34.18-14.79,54.48q-5.34-.79-10.64-1.73A496.32,496.32,0,0,1,327,969.27q5.58-4.14,10.68-8.68c3.87-3.4,7.61-6.74,11.35-9.87a509.49,509.49,0,0,1,70.2-50.45c19.42-11.48,33.5-17.62,39.91-20.16l.06-.06c2.16-.88,3.46-1.35,3.75-1.45Z"/><path class="cls-4" d="M579.07,704.14l-12.46,18.64,0,0-1.27,1.88-4.7,7-1.24,1.86-6,9-2.18,3.26-25,37.39-.07.06,0,0c-1.26,1.56-20,23.89-52.1,28.88-9.14,1.4-24.56,2.07-43.11,3.2-16.88,1.07-36.43,2.47-56.12,5.21-.47.06-.93.13-1.33.2,8.25-8.62,16.28-15.91,24.09-21-10.35.44-19.3,0-24.32-1.24-9.51,7.32-59.79,16.35-86.33,39-24,20.58-46.7,62.85-56.8,83.33q-3.94-2.52-7.83-5.14c9.94-28.86,27.12-64,56.42-93,12.95-12.81,28-22.09,44.05-29a.48.48,0,0,0,.2-.07,206.38,206.38,0,0,1,30.59-10.11c33.12-8.34,68.14-10.14,98.16-13.57,5.51-.63,10.84-1.31,16-2.1h0c2.88-.44,5.67-.92,8.41-1.44h0a128.71,128.71,0,0,0,23.22-6.35,210.81,210.81,0,0,0,58.61-35.07q1.95-1.65,3.72-3.23A157.06,157.06,0,0,0,579.07,704.14Z"/><path class="cls-5" d="M517.4,803.9c-2.44,5.81-4.9,11.67-7.32,17.4L509,823.86h0l-.06,0-5.87,14h0a83.3,83.3,0,0,0-11.73,8.76l-.18.15L491,847l-.41.35-.54.47c-.38.34-.84.74-1.36,1.22l-.52.47c-.74.68-1.6,1.49-2.55,2.4l-1.18,1.16-.78.78-.82.82-.2.2-.8.82c-3.48,3.57-7.22,7.76-11.1,12.61l-.1.12-1.82,2.31c-.63.82-1.27,1.65-1.91,2.51Q465,875.8,463,878.58c-.07.06-.07.06-.07.13-3.67,5.27-7.41,11.08-11.08,17.55-1.14,2-2.27,4-3.41,6.17-.07.14-.14.29-.22.43l-1.17,2.21A273.49,273.49,0,0,0,430.59,945c-6,18.17-11.14,34-16.94,47.59A496.32,496.32,0,0,1,327,969.27q-7.49-2.76-14.86-5.76-5.23-2.12-10.4-4.35-10.74-4.63-21.2-9.77-8.37-4.08-16.57-8.49c24.68-12.83,50.24-26.35,75.22-39.7,35.57-19,69.95-37.7,98.86-53.52C484.91,822.06,517.4,803.9,517.4,803.9Z"/><path class="cls-6" d="M535.56,760.79l-9.41,22.43-.07.06-.7,1.65-.69,1.64c-2.37,5.64-4.82,11.47-7.29,17.33s-4.9,11.67-7.32,17.4L509,823.86h0l-.06,0c-1.87.87-29.56,14.35-49.72,56.13l-.06.06c-1.61,3.21-3.07,6.54-4.54,10.08-.74,1.75-1.47,3.46-2.29,5.15l-.45.92c-1.14,2-2.27,4-3.41,6.17-.07.14-.14.29-.22.43l-1.17,2.21c-19.62,32-55.12,47.85-109.38,55.52q-12.12,1.71-25.54,2.92-5.23-2.12-10.4-4.35-10.74-4.63-21.2-9.77-8.37-4.08-16.57-8.49c-1.36-.72-2.73-1.46-4.08-2.21s-2.87-1.58-4.29-2.38c3.38-2.13,6.77-4.3,10.15-6.48,41.57-26.83,74.94-74.21,104.5-105.77h.07c1-1.14,2-2.2,3.07-3.27,8.25-8.62,16.28-15.91,24.09-21h0c.78-.51,1.55-1,2.32-1.45l.39-.23c1.36-.81,2.73-1.61,4.11-2.38,19.08-10.77,39.34-18.23,58.09-23.39h0q5.65-1.56,11.09-2.84a346.73,346.73,0,0,1,40-7h0c13-1.5,21.27-1.69,22-1.71Z"/><path class="cls-7" d="M561.58,721.89l-.57,3.05-.72,3.78-.63,3.35-.28,1.5-6,9-2.18,3.26-25,37.39-.07.06-.7,1.65-.69,1.64c-2.37,5.64-4.82,11.47-7.29,17.33l-.06.07-7.26,17.33L509,823.86h0l-.06,0-5.87,14h0a83.3,83.3,0,0,0-11.73,8.76l-.18.15L491,847l-.41.35-.54.47c-.38.34-.84.74-1.36,1.22l-.52.47c-.74.68-1.6,1.49-2.55,2.4l-1.18,1.16-.78.78-.82.82-.2.2-.8.82c-3.48,3.57-7.22,7.76-11.1,12.61l-.1.12-1.82,2.31c-.63.82-1.27,1.65-1.91,2.51Q465,875.8,463,878.58c-.07.06-.07.06-.07.13-1,2.06-12.19,24.9-23.87,61.11-5.1,15.81-10.3,34.18-14.79,54.48q-5.34-.79-10.64-1.73A496.32,496.32,0,0,1,327,969.27q-7.49-2.76-14.86-5.76-5.23-2.12-10.4-4.35c17.35-2.6,33.22-5,47.29-8.44,15.08-3.61,28-8.35,38.5-15.42,12.88-8.67,23.49-21.22,31.7-35,10.34-17.35,16.75-36.64,18.82-52.59,1.93-14.95,0-27-6.21-31.63a7.59,7.59,0,0,0-1-.67c-18.48-12.21-56.12,5.21-56.12,5.21a33.35,33.35,0,0,1-4.4,3.47c1-1.14,2-2.2,3.07-3.27,8.25-8.62,16.28-15.91,24.09-21-10.35.44-19.3,0-24.32-1.24l.29-.24a4.51,4.51,0,0,0,.81-.84,2.4,2.4,0,0,0,.41-.79c.29-1-.29-1.92-1.89-2.89-3.22-2-7.53-3-12.27-3.52-15.47-1.61-35.55,3-37.64,3.45a206.38,206.38,0,0,1,30.59-10.11c33.12-8.34,68.14-10.14,98.16-13.57,5.51-.63,10.84-1.31,16-2.1h0c2.88-.44,5.67-.92,8.41-1.44h0a128.71,128.71,0,0,0,23.22-6.35,210.81,210.81,0,0,0,58.61-35.07Q559.81,723.47,561.58,721.89Z"/><path class="cls-8" d="M455,960.6c2.51,12.66,5.65,25.56,7.79,38q-9.24-.68-18.38-1.69c-.52-22.26-5.29-39.66-5.33-57.12a74.71,74.71,0,0,1,8.27-35.2c.3-.59.59-1.18.89-1.76.08-.14.15-.29.22-.43q1.91-3.66,3.86-7.09c3.49-6.14,7.1-11.73,10.64-16.74q2-2.8,3.93-5.37c.64-.86,1.28-1.69,1.91-2.51l1.82-2.31.1-.12c4.1-5.08,7.91-9.29,11.1-12.61l.8-.82.2-.2.82-.82.78-.78,1.18-1.16c.95-.91,1.81-1.72,2.55-2.4l.52-.47c.52-.48,1-.88,1.36-1.22l.54-.47L491,847l.16-.13.18-.15.08-.06C490.11,848.27,444.19,906.16,455,960.6Z"/><path class="cls-9" d="M408.92,373.9c-45.69,36.39-64.15,105-64.15,105a.91.91,0,0,1-.14-.3,4.63,4.63,0,0,0-.3-.51c-5-7.83-44.73-72.64-23-105.94a32.74,32.74,0,0,1,7.83-8.48c28.27-22,42.08-38.24,47.61-45.77a50.15,50.15,0,0,0,3.18-4.58L397.7,350.5Z"/><path class="cls-10" d="M408.92,373.9c-45.69,36.39-64.15,105-64.15,105a.91.91,0,0,1-.14-.3,4.63,4.63,0,0,0-.3-.51c-1.55-3.55-6.79-18.68.67-51,8.63-37.5,31.22-72.72,13.5-71.31s-37.13,16.38-37.13,16.38a32.74,32.74,0,0,1,7.83-8.48c28.27-22,42.08-38.24,47.61-45.77L397.7,350.5Z"/><path class="cls-11" d="M860.41,846.55q-3.3,3.47-6.7,6.85a501.55,501.55,0,0,1-82.57,66.76c-1.82,1.19-3.66,2.36-5.5,3.51-1.61,1-3.22,2-4.85,3l-.25.16a498.07,498.07,0,0,1-89,43q-9,3.32-18.25,6.27A499.58,499.58,0,0,1,500,1000q-8.53,0-17-.28c-7.19-29.27-8.22-59.27-5.9-79,3.2-27.16,8.27-41.1,25.95-82.8h0c1.9-4.51,3.9-9.23,5.93-14.07h0l1.08-2.56c2.42-5.73,4.88-11.59,7.32-17.4s4.92-11.69,7.29-17.33l.69-1.64c.23-.55.46-1.09.68-1.63,3.43-8.16,6.65-15.84,9.45-22.51,2.51-6,4.68-11.16,6.35-15.16,2.34-5.57,3.71-8.86,3.71-8.86q4.73-1.38,9.34-3h0q2.39-.82,4.74-1.71l1-.36c6.33-2.39,12.48-5.07,18.5-8h0C620.61,703.54,655,671.45,682,638.86h0a513.53,513.53,0,0,0,48.45-70.22h0c15-26,22.67-44.26,22.67-44.26s2.33,6.2,6.33,17c.45,1.24.93,2.54,1.43,3.9,0,0,0,0,0,0,.51,1.36,1,2.78,1.58,4.27,6.67,18.07,16.33,44.53,27.11,74.86q1.8,5,3.63,10.21h0c2.51,7.1,5.06,14.37,7.65,21.76.18.52.36,1,.55,1.57,1.34,3.86,2.7,7.75,4.05,11.67.18.52.37,1,.55,1.58q2.73,7.9,5.47,15.92c5.5,16.08,11,32.37,16.23,48.39,5,15.17,9.73,30.1,14.11,44.34,7.14,23.2,13.25,44.59,17.57,62.34C859.73,843.67,860.08,845.12,860.41,846.55Z"/><path class="cls-12" d="M542.61,745.36s96.73,5.94,163.27,0,91-125.27,91-125.27l-31-84.75Z"/><path class="cls-13" d="M860.41,846.55q-3.3,3.47-6.7,6.85a501.55,501.55,0,0,1-82.57,66.76c-1.82,1.19-3.66,2.36-5.5,3.51-1.61,1-3.22,2-4.85,3l-.25.16a498.07,498.07,0,0,1-89,43c10.12-21.41,21-43.23,30.88-62.44,17.73-34.61,32-60.75,32-60.75-103.7,23-217-42.71-217-42.71,2.47-5.86,4.92-11.69,7.29-17.33l.69-1.64c.23-.55.46-1.09.68-1.63,3.43-8.16,6.65-15.84,9.45-22.51,2.51-6,4.68-11.16,6.35-15.16,2.34-5.57,3.71-8.86,3.71-8.86q4.73-1.38,9.34-3h0q2.39-.82,4.74-1.71l1-.36c6.33-2.39,12.48-5.07,18.5-8h0C620.61,703.54,655,671.45,682,638.86h0a513.53,513.53,0,0,0,48.45-70.22h0c15-26,22.67-44.26,22.67-44.26s2.33,6.2,6.33,17c.45,1.24.93,2.54,1.43,3.9,0,0,0,0,0,0,.51,1.36,1,2.78,1.58,4.27,6.67,18.07,16.33,44.53,27.11,74.86q1.8,5,3.63,10.21h0c2.51,7.1,5.06,14.37,7.65,21.76.18.52.36,1,.55,1.57,1.34,3.86,2.7,7.75,4.05,11.67.18.52.37,1,.55,1.58q2.73,7.9,5.47,15.92c5.5,16.08,11,32.37,16.23,48.39,5,15.17,9.73,30.1,14.11,44.34,7.14,23.2,13.25,44.59,17.57,62.34C859.73,843.67,860.08,845.12,860.41,846.55Z"/><path class="cls-14" d="M692.61,705.86c-43.4,26.87-127,31.45-150,39.5s-64.74,48.27-87.48,53.74-47.61-1.85-47.61-1.85-28.49,4.21-37.79,0-60.83-54-63.19-96.33c-2.07-37.73,47.54-74.78,49.68-93S340.79,518.44,345,475s64.22-132,151.1-158c118.41-35.43,234.23,5.61,261.25,111S742.22,675.08,692.61,705.86Z"/><path class="cls-15" d="M692.61,705.86c-43.4,26.87-127,31.45-150,39.5s-64.74,48.27-87.48,53.74-47.61-1.85-47.61-1.85-28.49,4.21-37.79,0c78.76-7.45,112.35-53.67,129.62-65.33s137.31,1.92,161.74-35.65,46.88-153.4-6.27-203.45S452,432.64,404.46,439.7C368.38,445.06,345,475,345,475c4.2-43.33,64.22-132,151.1-158,118.41-35.43,234.23,5.61,261.25,111S742.22,675.08,692.61,705.86Z"/><path class="cls-16" d="M504.57,360.24S468.66,415.11,399.65,399c0,0-31.07-30.31-25.13-76.63l.93-6.12S331.1,291.75,346,217c0,0-42.13-76.33-29.77-152.5,0,0,.34.22.94.68,7.33,4.86,55.06,38.51,54.25,78.13,0,0,83,40.52,61.19,104.12C432.61,247.42,503.67,305.91,504.57,360.24Z"/><path class="cls-17" d="M504.57,360.24S468.66,415.11,399.65,399c0,0,79.64-37.45,75.31-76.68s-38-55.12-52-51.84-48.46,51.89-48.46,51.89l.93-6.12s49.94-61.61,45-94-37.35-63.1-47.91-58.5c-10,4.36-24.61,47.33-26.4,52.68,1.92-6.72,19.59-70.19,14.44-96.71-4.86-25.4-37.38-50.15-43.43-54.55,7.33,4.86,55.06,38.51,54.25,78.13,0,0,83,40.52,61.19,104.12C432.61,247.42,503.67,305.91,504.57,360.24Z"/><path class="cls-18" d="M635.55,346.12s12-6.22,24.34-35,73.22-102.93,152.78-108.76c0,0-15.13,93.8-27.29,143.66s-62.1,78.2-79.48,80.09S630.59,426.36,635.55,346.12Z"/><path class="cls-19" d="M705.9,431c-61.57,26.58-200-11.88-214.52-59.94-3.4-11.29-6-25.69-7.53-41.41-5.09-50.86.59-115.16,24.8-130.15,31.75-19.56,72.27-14.91,72.27-14.91,36.54,43.11,77.51,84.08,81.94,88.59-4.43-3.84-40.52-34.48-45.1-33.81-4.87.66-38.46,37-10.48,113.31S705.9,431,705.9,431Z"/><path class="cls-20" d="M675.37,286s-31-32.6-59-57.07-59.53,108.7,19.19,169.74c0,0-24.35-101.86-5-120.09s39.36,15,39.36,15Z"/><path class="cls-21" d="M374.45,321s-5.43,12.47-68,25.06-65,58.39-58,96.85c0,0,8.39-46.85,46.51-66.08S367.87,349.08,374.45,321Z"/><path class="cls-22" d="M896.4,804.78c-.39.52-.79,1-1.2,1.54s-.88,1.15-1.34,1.72c.73-2.33,1.27-4.14,1.61-5.33.29-1,.44-1.62.44-1.62S896.07,802.38,896.4,804.78Z"/><path class="cls-23" d="M675.37,286s-25.63-26.13-43.45-26.13c-24.08,0-1.86,112.28-1.86,112.28S653.89,316,675.37,286Z"/><path class="cls-24" d="M895.47,802.71c-.08,1.2-.17,2.41-.27,3.61-.43.58-.88,1.15-1.34,1.72h0q-10.43,13.32-21.72,25.88c-.23.27-.47.54-.72.8q-5.4,6-11,11.82-3.3,3.47-6.7,6.85a501.55,501.55,0,0,1-82.57,66.76c-1.82,1.19-3.66,2.36-5.5,3.51-1.61,1-3.22,2-4.85,3l-.25.16a498.07,498.07,0,0,1-89,43q-9,3.32-18.25,6.27c2.86-6.42,6.1-12.91,9.74-19.37,9.36-16.57,23.53-32.81,39.39-49.34,19.05-19.87,40.56-40.15,59.09-61.9l0-.05c19.91-23.25,36.35-48.25,42.7-76.14a299.64,299.64,0,0,0,7.6-60c.2-8,0-15.4-.37-22.14a233.47,233.47,0,0,0-3.16-27.28.06.06,0,0,1,0,0c-.15-.81-.3-1.55-.45-2.29s-.27-1.4-.4-2.06a121,121,0,0,0-3.21-13l3.09-28.21h0L811.39,577s0,.08.07.08c.95,1.21,8.13,10.44,17.88,25,7.25,10.79,15.93,24.51,24.54,40,15.78,28.44,31.32,62.91,37.38,96.47C895.1,759.53,896.87,781.31,895.47,802.71Z"/><path class="cls-25" d="M827.69,735.51c-3.48,82.5-41.88,155.3-62.05,188.16-1.61,1-3.22,2-4.85,3l-.25.16c3.32-11,5.91-28.28,2.73-53.15a236.89,236.89,0,0,1-1.74-28.28c-.29-42.24,8.07-84.81,8.07-84.81.14-.24.29-.48.41-.72l0,0a2.39,2.39,0,0,1,.13-.21l.09-.14c1.07-1.77,2.1-3.53,3.11-5.28h0l.29-.52c1-1.81,2-3.62,3-5.41l.2-.37q2.55-4.73,4.87-9.34c.22-.42.42-.84.63-1.26,0,0,0,0,0,0,.22-.44.43-.88.64-1.31l.06-.13A297.88,297.88,0,0,0,806,671.2c.92-4.05,1.68-7.85,2.31-11.36.32-1.76.6-3.45.86-5.05a174,174,0,0,0,2.21-21v0c0-.35,0-.58,0-.68v0c2.44,6.24,4.57,12.46,6.42,18.71A255.81,255.81,0,0,1,827.69,735.51Z"/><path class="cls-26" d="M811.39,633.08v.51c-.89,7.75-2,15.8-3.55,23.92a311.34,311.34,0,0,1-24.58,78c-.29.67-.59,1.26-.88,1.85-1.7,3.47-3.55,7-5.47,10.56-1.18,2.06-2.36,4.2-3.54,6.34-1,1.7-1.92,3.4-3,5.1l-.08.07a11.07,11.07,0,0,0-.73,1.18c-15.88,25.47-36.69,47.69-63.27,62.53-.15.07-.22.15-.29.15H706c1.92-4.14,69.25-146.68,59.87-234.9-2.51-23.4-5.39-46.87-8.19-68.72l-.67-4.88c-6.72-51.67-13.28-93.6-14.91-103.71l-.37-2.29,12.11-10.11s28.57,118.7,50.42,154.2c3.24,5.25,5.75,13.59,7.23,24.22C813.53,592,813.68,611.52,811.39,633.08Z"/><path class="cls-27" d="M503.82,617.87s29.32,10.86,67.09,2.22,45.17-50.66,45.17-50.66S566.46,606.12,503.82,617.87Z"/><path class="cls-27" d="M482.11,546.4s6-28.44,33.55-46.63,90.21.7,101.05,40.68C616.71,540.45,527.36,531.94,482.11,546.4Z"/><path class="cls-28" d="M489.78,611c8.14,9.07,39.17,13.38,73.43,3.24s46.51-29,50.71-37.23,3.84-33,2.79-36.55S594,513.29,561.47,510.38c-27.35-2.45-68.19,8-79.36,36C475.91,561.93,482.79,603.2,489.78,611Z"/><circle class="cls-29" cx="561.17" cy="558.57" r="51.34" transform="translate(-230.61 560.41) rotate(-45)"/><circle class="cls-30" cx="562.92" cy="558.57" r="36.54" transform="translate(-172.14 260.97) rotate(-22.74)"/><path class="cls-31" d="M480.47,552.83s5.53-28.11,55.68-36.15,80.56,23.77,80.56,23.77S638,533.11,651,515.63c0,0-23.73,12-38.81,7.69,0,0-34.62-24.47-78.33-16.08S480.47,552.83,480.47,552.83Z"/><path class="cls-32" d="M483.85,596.43s.57,22.51,4.53,23.66,26.52.72,26.52.72S490.27,618.48,483.85,596.43Z"/><path class="cls-33" d="M518.13,574.18a5.88,5.88,0,1,1-5.87-5.87A5.87,5.87,0,0,1,518.13,574.18Z"/><path class="cls-34" d="M490,433c-9.13.71-13,17.81-1.63,23.38s56.65-.37,68.06,0,26.9,4.42,29.34,2.39S537.83,429.27,490,433Z"/><path class="cls-35" d="M499.35,732A249.12,249.12,0,0,1,476,766.54h0c-.82,1-1.66,2-2.51,3-6.16,7.14-13,13.7-19.86,17.91-9.3,5.68-25.14,9.31-40.63,11.14-5.3.62-10.57,1-15.52,1.24h0c-10.35.44-19.3,0-24.32-1.24a10.76,10.76,0,0,1-3.37-1.31l0,0,0,0h.09c.39,0,1.94.18,4.45.27a165.73,165.73,0,0,0,30.05-1.75,172.14,172.14,0,0,0,30.23-7.22c9.88-3.35,19.36-9.32,27.86-16.17h0q2.65-2.14,5.18-4.39h0A209.67,209.67,0,0,0,499.35,732Z"/><path class="cls-35" d="M386.23,709.24s-3.79-13.9,3.79-20.54,27.8-5.37,27.8-5.37S392.86,684.6,386.23,709.24Z"/><path class="cls-36" d="M386.23,709.24s30.64,3.63,31.59-25.91C417.82,683.33,387.33,683.65,386.23,709.24Z"/><path class="cls-37" d="M306.47,691.86s59.3-8,95.08-23.08,58.94-54,57.89-57.79-97.57-1.08-97.57-1.08S314.08,660,306.47,691.86Z"/><path class="cls-38" d="M705.9,431c-61.57,26.58-200-11.88-214.52-59.94-3.4-11.29-6-25.69-7.53-41.41C496.54,432.64,594,414.94,594,414.94s-38.24-30.78-34-99,21-131.33,21-131.33c36.54,43.11,77.51,84.08,81.94,88.59-4.43-3.84-44.08-43-48.59-42-12.59,2.79-40.8,46.13-12.83,122.38S705.9,431,705.9,431Z"/><path class="cls-39" d="M794.56,294.69c-5.24,28.64-11.74,58.24-15.51,69.24-7.89,23.47-53.74,68.73-94.56,63.12-32.92-4.51-36.47-23.7-36.47-23.7s1.48-6.5,4.51-16.76a4.7,4.7,0,0,0,.22-.59c7.9-26.42,26.13-76.92,56.4-107.18,42.44-42.45,86.07-51.31,92.27-49C804.74,231,800.46,262.21,794.56,294.69Z"/><path class="cls-40" d="M794.56,294.69c-3-7.75-11.67-27.09-23.63-28.72-15-2.14-88.36,41.27-118.18,120,7.9-26.42,26.13-76.92,56.4-107.18,42.44-42.45,86.07-51.31,92.27-49C804.74,231,800.46,262.21,794.56,294.69Z"/><path class="cls-41" d="M896.4,804.78c-.39.52-.79,1-1.2,1.54s-.88,1.15-1.34,1.72h0q-10.43,13.32-21.72,25.88c11.15-42.15,13-83.08.15-82.89-10,.17-21.33,14.2-30.49,28.81a295.25,295.25,0,0,0-17.42,32.76,375,375,0,0,1-53.24,107.55c-1.82,1.19-3.66,2.36-5.5,3.51-1.61,1-3.22,2-4.85,3,9.87-21.67,27.87-63.56,41.59-110.24,20.08-67.91,20.08-108.73,9.45-107.18-9.3,1.25-34.77,39.86-40.9,49.24,0,.07-.11.15-.15.22s-.25.42-.36.59l-.08.07-.09.12-.09.14a2.39,2.39,0,0,0-.13.21l0,0c-.11.16-.19.3-.25.4l-.1.18,0,.1c-20.84,39-56.19,58.86-62.69,62.2l-.06,0,0,0a4,4,0,0,1-.37.21l-.11.06c-.15.07-.22.15-.29.15,45-34.4,84.22-104,94.47-164.91.12-.65.22-1.3.32-2a161.55,161.55,0,0,0,1.76-39.54v0c-4.46-49-26.24-78.15-37.78-90.4h0a68.67,68.67,0,0,0-7.17-6.78l-.67-4.88L742.48,413.6l0-.28-.74-4.58.42-.35h0l6.61-5.51,3.7-3.09,0,0,0,0,1.29-1.08a.15.15,0,0,1,0,.06.19.19,0,0,1,0,.08l0,.11s0,.06,0,.09l0,.1a.29.29,0,0,0,0,.09.44.44,0,0,0,0,.1s0,0,0,.06,0,.22.08.34.07.29.11.46a1.17,1.17,0,0,1,.05.2l.06.22a1,1,0,0,0,0,.17c0,.13.06.27.1.42s.13.53.2.83.11.44.17.67c.14.55.29,1.16.45,1.81.11.43.22.89.34,1.37l.38,1.51c.24.95.5,2,.77,3.06.09.36.19.73.28,1.11a.74.74,0,0,0,0,.14c.07.31.15.63.24.95a.13.13,0,0,0,0,.06c.2.78.4,1.58.62,2.42l.33,1.27.36,1.38.39,1.53c.13.5.26,1,.4,1.51s.26,1,.4,1.55c.73,2.78,1.51,5.74,2.34,8.86l.73,2.71q.74,2.75,1.52,5.62c.26,1,.53,1.92.8,2.9.4,1.47.81,3,1.23,4.46q.41,1.5.84,3c.22.79.45,1.59.67,2.4s.42,1.49.64,2.24q.87,3.12,1.8,6.3c.27.95.55,1.91.83,2.87s.53,1.84.8,2.76c.2.69.4,1.38.61,2.07q.76,2.6,1.55,5.22l.49,1.63c.44,1.47.89,2.93,1.34,4.4l.15.5c.34,1.09.67,2.18,1,3.27l1.17,3.76.66,2.08.66,2.08a.16.16,0,0,0,0,0,.64.64,0,0,1,0,.07s0,.08,0,.12l.12.36c0,.1.07.21.11.33.1.31.19.62.29.93.18.55.35,1.09.52,1.62l1,3.21.27.82c.31.93.61,1.86.92,2.78l.93,2.76c.18.53.36,1.05.53,1.57l.66,1.92c.33,1,.66,1.91,1,2.85.17.52.35,1,.54,1.55.51,1.45,1,2.88,1.54,4.3a.19.19,0,0,1,0,.07q.46,1.28.93,2.52l.36,1c.29.79.59,1.56.88,2.33.54,1.43,1.08,2.84,1.62,4.22s1.09,2.74,1.63,4.06c.36.88.72,1.76,1.08,2.61l.54,1.28,1.08,2.49c.36.81.71,1.62,1.07,2.4.27.59.53,1.17.8,1.74.4.86.8,1.7,1.2,2.51s.8,1.62,1.19,2.39c.17.35.35.69.53,1s.34.67.52,1c.26.5.53,1,.8,1.46s.51.91.76,1.35l0,0,.49.82.51.85c.41.66.8,1.36,1.18,2.11.19.38.38.77.56,1.17s.32.7.48,1.07h0c.14.32.27.64.4,1s.27.67.39,1l.19.52c.07.17.13.35.19.53.13.36.25.72.37,1.08s.19.58.28.88a.56.56,0,0,1,0,.12l.21.67c.12.43.25.87.38,1.32,0,.06,0,.13.05.19.14.52.28,1.06.42,1.61s.31,1.24.45,1.88.23,1,.34,1.55q.75,3.54,1.3,7.53c.95,1.21,8.13,10.44,17.88,25,7.25,10.79,15.93,24.51,24.54,40,15.78,28.44,31.32,62.91,37.38,96.47,3.84,21,5.61,42.82,4.21,64.22.29-1,.44-1.62.44-1.62S896.07,802.38,896.4,804.78Z"/><path class="cls-42" d="M779.64,491.46s15.76,52.14,68.21,75.92,52.45,67.13-14.69,80.42-127.28,80.43-127.28,80.43,28.48-63.37,71-95.21c31-23.18,69.94-33.12,65-48.51C837.87,571.84,792.56,575,779.64,491.46Z"/><path class="cls-43" d="M582.15,646.06c-8.64-8.36,42.13-54.72,59.52-50.37s8.69,42.29-11.83,50.37S588.57,652.28,582.15,646.06Z"/><path class="cls-44" d="M373.13,829.5S362.51,868,339.2,901.2A140.69,140.69,0,0,1,314.12,929a149.81,149.81,0,0,1-33.57,20.42q-8.37-4.08-16.57-8.49c-1.36-.72-2.73-1.46-4.08-2.21,9.83-6.44,20.57-13.79,31.68-22C335.21,884.71,373.13,829.5,373.13,829.5Z"/><path class="cls-44" d="M367,176.7a428.52,428.52,0,0,0-9.27,60.83c-2.85,34.75,15.34,72,15.34,72s-31.88-30.4-26.42-70S367,176.7,367,176.7Z"/><path class="cls-44" d="M317.17,65.17s-8.63,86.42,29,151.26C346.16,216.43,335.93,112.68,317.17,65.17Z"/><path class="cls-44" d="M410.53,289s-23.1,24.11-29.37,41.65,8.25,44.47,8.25,44.47S388.44,330.6,410.53,289Z"/><path class="cls-44" d="M536.14,192.56s-22.6,3.89-34.46,20.86-32.41,116.72,7,168.52c0,0-21.63-57.62-7-122.1S536.14,192.56,536.14,192.56Z"/><path class="cls-44" d="M345,363.25s-19.93,3.53-23.63,29.08,11.81,55.95,11.81,55.95S321.39,405.61,345,363.25Z"/><path class="cls-44" d="M352.68,478.87s-1.49,14.92,0,40.74,11,81.86,9.19,90.3-47.31,55.58-51.74,82,46.56,85.38,46.56,85.38-33.3-60.69-27.82-89.35,48.05-61.95,49.74-79.23S351.19,543,352.68,478.87Z"/><path class="cls-31" d="M599.46,527.81s23.24-6,35.79-26.73c0,0-23.17,14.69-49.43,20.37Z"/><path class="cls-44" d="M881.18,774.74a417.86,417.86,0,0,1-9.76,60q-5.4,6-11,11.82-3.3,3.47-6.7,6.85c2-3.81,3.92-7.56,5.66-11.21C876.9,805.57,880.8,777.69,881.18,774.74Z"/><path class="cls-33" d="M351,217.17s-7,28.7-4.36,40.83C346.68,258,368.52,248,351,217.17Z"/><path class="cls-33" d="M380.81,331.81s4.55-16.24,15.25-21.93C396.06,309.88,400.14,332.24,380.81,331.81Z"/><path class="cls-33" d="M320.82,67s14.36,27.43,13.74,49.77S326.13,153,326.13,153,310.5,107.08,320.82,67Z"/><path class="cls-45" d="M533.56,524.36l2.58,26.43s29.58,14.27,63.12,11.61l4.68-27.06S578.79,509.65,533.56,524.36Z"/></g></g></svg>