<svg xmlns="http://www.w3.org/2000/svg" xmlns:xlink="http://www.w3.org/1999/xlink" viewBox="0 0 500 432.47"><defs><style>.cls-1{isolation:isolate;}.cls-2,.cls-3,.cls-4,.cls-5,.cls-6{fill:none;stroke-miterlimit:10;}.cls-2{stroke:#64c7c4;}.cls-2,.cls-3,.cls-5,.cls-6{stroke-width:11.7px;}.cls-3{stroke:#8781bd;}.cls-4{stroke:#f49ac0;stroke-width:10.92px;}.cls-5{stroke:#fffac2;}.cls-6{stroke:#fccfb2;}.cls-25,.cls-26,.cls-27,.cls-7{fill:#fff;}.cls-8{opacity:0.14;}.cls-10,.cls-9{fill:#8781bd;}.cls-10{opacity:0.3;}.cls-11,.cls-12,.cls-13,.cls-14,.cls-15,.cls-16,.cls-17,.cls-18,.cls-19,.cls-20,.cls-21,.cls-22,.cls-23,.cls-24,.cls-25,.cls-26,.cls-28,.cls-29,.cls-30,.cls-31,.cls-32,.cls-33,.cls-34,.cls-35,.cls-36,.cls-37,.cls-38,.cls-39,.cls-40,.cls-42,.cls-43,.cls-44,.cls-45,.cls-46,.cls-47,.cls-48,.cls-49,.cls-50,.cls-51,.cls-52,.cls-53,.cls-54,.cls-55,.cls-56,.cls-57,.cls-59,.cls-60,.cls-61,.cls-62,.cls-63,.cls-64,.cls-65,.cls-66,.cls-67,.cls-68,.cls-69,.cls-70,.cls-73,.cls-74,.cls-75,.cls-76,.cls-77,.cls-78,.cls-79,.cls-80,.cls-81,.cls-82,.cls-83,.cls-84,.cls-85,.cls-86,.cls-89,.cls-91,.cls-92,.cls-93,.cls-96,.cls-97,.cls-98{fill-rule:evenodd;}.cls-11{fill:url(#_ÂÁ_Ï_ÌÌ_È_ËÂÌÚ_92);}.cls-12{fill:url(#_ÂÁ_Ï_ÌÌ_È_ËÂÌÚ_2);}.cls-13{fill:#694aa1;}.cls-14{fill:#cf3151;}.cls-15{fill:url(#_ÂÁ_Ï_ÌÌ_È_ËÂÌÚ_143);}.cls-16{fill:url(#_ÂÁ_Ï_ÌÌ_È_ËÂÌÚ_98);}.cls-17{fill:#9272cc;}.cls-100,.cls-17,.cls-20,.cls-23,.cls-24,.cls-28,.cls-30,.cls-32,.cls-36,.cls-38,.cls-46,.cls-49,.cls-53,.cls-54,.cls-56,.cls-57,.cls-59,.cls-77,.cls-79,.cls-80,.cls-81,.cls-83,.cls-84{mix-blend-mode:multiply;}.cls-17,.cls-53{opacity:0.5;}.cls-18{fill:url(#_ÂÁ_Ï_ÌÌ_È_ËÂÌÚ_4);}.cls-19{fill:url(#_ÂÁ_Ï_ÌÌ_È_ËÂÌÚ_4-2);}.cls-20,.cls-23,.cls-24,.cls-36,.cls-38,.cls-54,.cls-56,.cls-57,.cls-77,.cls-78,.cls-79,.cls-80,.cls-83{opacity:0.58;}.cls-20{fill:url(#_ÂÁ_Ï_ÌÌ_È_ËÂÌÚ_139);}.cls-21{fill:url(#_ÂÁ_Ï_ÌÌ_È_ËÂÌÚ_4-3);}.cls-22{fill:url(#_ÂÁ_Ï_ÌÌ_È_ËÂÌÚ_4-4);}.cls-23{fill:url(#_ÂÁ_Ï_ÌÌ_È_ËÂÌÚ_139-2);}.cls-24{fill:url(#_ÂÁ_Ï_ÌÌ_È_ËÂÌÚ_127);}.cls-26,.cls-27{mix-blend-mode:soft-light;}.cls-28,.cls-30,.cls-32,.cls-46,.cls-49,.cls-59,.cls-81,.cls-84{opacity:0.79;}.cls-28{fill:url(#_ÂÁ_Ï_ÌÌ_È_ËÂÌÚ_146);}.cls-29{fill:url(#_ÂÁ_Ï_ÌÌ_È_ËÂÌÚ_91);}.cls-30{fill:url(#_ÂÁ_Ï_ÌÌ_È_ËÂÌÚ_146-2);}.cls-31{fill:url(#_ÂÁ_Ï_ÌÌ_È_ËÂÌÚ_2-2);}.cls-32{fill:url(#_ÂÁ_Ï_ÌÌ_È_ËÂÌÚ_146-3);}.cls-33,.cls-39,.cls-41,.cls-78,.cls-87,.cls-88,.cls-89,.cls-90,.cls-91,.cls-92,.cls-93,.cls-94,.cls-95,.cls-96,.cls-97,.cls-98{mix-blend-mode:screen;}.cls-33{fill:url(#_ÂÁ_Ï_ÌÌ_È_ËÂÌÚ_122);}.cls-34{fill:url(#_ÂÁ_Ï_ÌÌ_È_ËÂÌÚ_101);}.cls-35{fill:url(#_ÂÁ_Ï_ÌÌ_È_ËÂÌÚ_92-2);}.cls-36{fill:url(#_ÂÁ_Ï_ÌÌ_È_ËÂÌÚ_139-3);}.cls-37{fill:url(#_ÂÁ_Ï_ÌÌ_È_ËÂÌÚ_77);}.cls-38{fill:url(#_ÂÁ_Ï_ÌÌ_È_ËÂÌÚ_139-4);}.cls-39{fill:url(#_ÂÁ_Ï_ÌÌ_È_ËÂÌÚ_122-2);}.cls-40{fill:url(#_ÂÁ_Ï_ÌÌ_È_ËÂÌÚ_2-3);}.cls-41{fill:url(#_ÂÁ_Ï_ÌÌ_È_ËÂÌÚ_122-3);}.cls-42{fill:url(#_ÂÁ_Ï_ÌÌ_È_ËÂÌÚ_92-3);}.cls-43{fill:url(#_ÂÁ_Ï_ÌÌ_È_ËÂÌÚ_77-2);}.cls-44{fill:url(#_ÂÁ_Ï_ÌÌ_È_ËÂÌÚ_91-2);}.cls-45{fill:url(#_ÂÁ_Ï_ÌÌ_È_ËÂÌÚ_101-2);}.cls-46{fill:url(#_ÂÁ_Ï_ÌÌ_È_ËÂÌÚ_146-4);}.cls-47{fill:url(#_ÂÁ_Ï_ÌÌ_È_ËÂÌÚ_2-4);}.cls-48{fill:url(#_ÂÁ_Ï_ÌÌ_È_ËÂÌÚ_101-3);}.cls-49{fill:url(#_ÂÁ_Ï_ÌÌ_È_ËÂÌÚ_139-5);}.cls-50{fill:url(#_ÂÁ_Ï_ÌÌ_È_ËÂÌÚ_143-2);}.cls-51{fill:url(#_ÂÁ_Ï_ÌÌ_È_ËÂÌÚ_98-2);}.cls-52{fill:url(#_ÂÁ_Ï_ÌÌ_È_ËÂÌÚ_4-5);}.cls-53{fill:#7c4f90;}.cls-54{fill:url(#_ÂÁ_Ï_ÌÌ_È_ËÂÌÚ_139-6);}.cls-55{fill:url(#_ÂÁ_Ï_ÌÌ_È_ËÂÌÚ_5);}.cls-56{fill:#9743ba;}.cls-57{fill:url(#_ÂÁ_Ï_ÌÌ_È_ËÂÌÚ_127-2);}.cls-58{fill:url(#_ÂÁ_Ï_ÌÌ_È_ËÂÌÚ_213);}.cls-59{fill:url(#_ÂÁ_Ï_ÌÌ_È_ËÂÌÚ_156);}.cls-60{fill:url(#_ÂÁ_Ï_ÌÌ_È_ËÂÌÚ_4-6);}.cls-61{fill:url(#_ÂÁ_Ï_ÌÌ_È_ËÂÌÚ_56);}.cls-62{fill:url(#_ÂÁ_Ï_ÌÌ_È_ËÂÌÚ_46);}.cls-63{fill:url(#_ÂÁ_Ï_ÌÌ_È_ËÂÌÚ_77-3);}.cls-64{fill:url(#_ÂÁ_Ï_ÌÌ_È_ËÂÌÚ_77-4);}.cls-65{fill:#4f5195;}.cls-66{fill:url(#_ÂÁ_Ï_ÌÌ_È_ËÂÌÚ_91-3);}.cls-67{fill:url(#_ÂÁ_Ï_ÌÌ_È_ËÂÌÚ_101-4);}.cls-68{fill:url(#_ÂÁ_Ï_ÌÌ_È_ËÂÌÚ_92-4);}.cls-69{fill:#a19ddd;}.cls-70{fill:url(#_ÂÁ_Ï_ÌÌ_È_ËÂÌÚ_118);}.cls-71{fill:url(#_ÂÁ_Ï_ÌÌ_È_ËÂÌÚ_109);}.cls-72{fill:#180833;}.cls-73{fill:#220d33;}.cls-74{fill:#b64f6d;}.cls-75{fill:url(#_ÂÁ_Ï_ÌÌ_È_ËÂÌÚ_101-5);}.cls-76{fill:#b5526f;}.cls-77{fill:url(#_ÂÁ_Ï_ÌÌ_È_ËÂÌÚ_29);}.cls-78{fill:url(#_ÂÁ_Ï_ÌÌ_È_ËÂÌÚ_132);}.cls-79{fill:url(#_ÂÁ_Ï_ÌÌ_È_ËÂÌÚ_127-3);}.cls-80{fill:url(#_ÂÁ_Ï_ÌÌ_È_ËÂÌÚ_127-4);}.cls-81{fill:url(#_ÂÁ_Ï_ÌÌ_È_ËÂÌÚ_139-7);}.cls-82{fill:url(#_ÂÁ_Ï_ÌÌ_È_ËÂÌÚ_3);}.cls-83{fill:url(#_ÂÁ_Ï_ÌÌ_È_ËÂÌÚ_127-5);}.cls-84{fill:url(#_ÂÁ_Ï_ÌÌ_È_ËÂÌÚ_139-8);}.cls-85{fill:url(#_ÂÁ_Ï_ÌÌ_È_ËÂÌÚ_2-5);}.cls-86{fill:#ff63b8;}.cls-87{fill:url(#_ÂÁ_Ï_ÌÌ_È_ËÂÌÚ_122-4);}.cls-88{fill:url(#_ÂÁ_Ï_ÌÌ_È_ËÂÌÚ_122-5);}.cls-89{fill:url(#_ÂÁ_Ï_ÌÌ_È_ËÂÌÚ_122-6);}.cls-90{fill:url(#_ÂÁ_Ï_ÌÌ_È_ËÂÌÚ_122-7);}.cls-91{fill:url(#_ÂÁ_Ï_ÌÌ_È_ËÂÌÚ_122-8);}.cls-92{fill:url(#_ÂÁ_Ï_ÌÌ_È_ËÂÌÚ_122-9);}.cls-93{fill:url(#_ÂÁ_Ï_ÌÌ_È_ËÂÌÚ_122-10);}.cls-94{fill:url(#_ÂÁ_Ï_ÌÌ_È_ËÂÌÚ_122-11);}.cls-95{fill:url(#_ÂÁ_Ï_ÌÌ_È_ËÂÌÚ_122-12);}.cls-96{fill:url(#_ÂÁ_Ï_ÌÌ_È_ËÂÌÚ_122-13);}.cls-97{fill:url(#_ÂÁ_Ï_ÌÌ_È_ËÂÌÚ_122-14);}.cls-98{fill:url(#_ÂÁ_Ï_ÌÌ_È_ËÂÌÚ_122-15);}.cls-99{mix-blend-mode:color;opacity:0.2;fill:url(#linear-gradient);}.cls-100{opacity:0.9;fill:url(#radial-gradient);}</style><linearGradient id="_ÂÁ_Ï_ÌÌ_È_ËÂÌÚ_92" x1="620.61" y1="91.04" x2="620.61" y2="13.26" gradientTransform="translate(117.11 799.48) rotate(-71.74)" gradientUnits="userSpaceOnUse"><stop offset="0.03" stop-color="#84a1ff"/><stop offset="0.98" stop-color="#5b72ec"/></linearGradient><linearGradient id="_ÂÁ_Ï_ÌÌ_È_ËÂÌÚ_2" x1="632.61" y1="70.95" x2="632.61" y2="-1.09" gradientTransform="translate(117.11 799.48) rotate(-71.74)" gradientUnits="userSpaceOnUse"><stop offset="0.02" stop-color="#5bc9ec"/><stop offset="0.97" stop-color="#84a1ff"/></linearGradient><linearGradient id="_ÂÁ_Ï_ÌÌ_È_ËÂÌÚ_143" x1="284.82" y1="324.13" x2="284.82" y2="222.25" gradientUnits="userSpaceOnUse"><stop offset="0" stop-color="#c0c9ec"/><stop offset="1" stop-color="#bdabeb"/></linearGradient><linearGradient id="_ÂÁ_Ï_ÌÌ_È_ËÂÌÚ_98" x1="289.01" y1="333.64" x2="315.37" y2="333.64" gradientUnits="userSpaceOnUse"><stop offset="0.02" stop-color="#ff7740"/><stop offset="0.97" stop-color="#ff515e"/></linearGradient><linearGradient id="_ÂÁ_Ï_ÌÌ_È_ËÂÌÚ_4" x1="199.14" y1="184.62" x2="199.14" y2="183.54" gradientUnits="userSpaceOnUse"><stop offset="0.02" stop-color="#e4deec"/><stop offset="1" stop-color="#cfbfeb"/></linearGradient><linearGradient id="_ÂÁ_Ï_ÌÌ_È_ËÂÌÚ_4-2" x1="267.93" y1="328.12" x2="267.93" y2="176.61" xlink:href="#_ÂÁ_Ï_ÌÌ_È_ËÂÌÚ_4"/><linearGradient id="_ÂÁ_Ï_ÌÌ_È_ËÂÌÚ_139" x1="305.29" y1="344.22" x2="305.29" y2="135.11" gradientUnits="userSpaceOnUse"><stop offset="0" stop-color="#fff"/><stop offset="0.99" stop-color="#8259ac"/></linearGradient><linearGradient id="_ÂÁ_Ï_ÌÌ_È_ËÂÌÚ_4-3" x1="313.52" y1="179.58" x2="313.52" y2="178.83" xlink:href="#_ÂÁ_Ï_ÌÌ_È_ËÂÌÚ_4"/><linearGradient id="_ÂÁ_Ï_ÌÌ_È_ËÂÌÚ_4-4" x1="331.83" y1="237.44" x2="331.83" y2="181.66" xlink:href="#_ÂÁ_Ï_ÌÌ_È_ËÂÌÚ_4"/><linearGradient id="_ÂÁ_Ï_ÌÌ_È_ËÂÌÚ_139-2" x1="319.19" y1="237.44" x2="319.19" y2="154" xlink:href="#_ÂÁ_Ï_ÌÌ_È_ËÂÌÚ_139"/><linearGradient id="_ÂÁ_Ï_ÌÌ_È_ËÂÌÚ_127" x1="282.78" y1="290.2" x2="282.78" y2="244.46" gradientUnits="userSpaceOnUse"><stop offset="0" stop-color="#cad6ff"/><stop offset="0.99" stop-color="#9775ba"/></linearGradient><linearGradient id="_ÂÁ_Ï_ÌÌ_È_ËÂÌÚ_146" x1="327.41" y1="262.31" x2="327.41" y2="163.38" gradientTransform="matrix(1, 0, -0.04, 1, 14.88, -0.73)" gradientUnits="userSpaceOnUse"><stop offset="0" stop-color="#fff"/><stop offset="0.99" stop-color="#943bac"/></linearGradient><linearGradient id="_ÂÁ_Ï_ÌÌ_È_ËÂÌÚ_91" x1="333.93" y1="274.25" x2="333.93" y2="160.33" gradientUnits="userSpaceOnUse"><stop offset="0.03" stop-color="#d36fff"/><stop offset="0.98" stop-color="#a240ec"/></linearGradient><linearGradient id="_ÂÁ_Ï_ÌÌ_È_ËÂÌÚ_146-2" x1="672.95" y1="19.95" x2="717.97" y2="19.95" gradientTransform="matrix(0.18, -0.91, 0.98, 0.12, 194.19, 830.35)" xlink:href="#_ÂÁ_Ï_ÌÌ_È_ËÂÌÚ_146"/><linearGradient id="_ÂÁ_Ï_ÌÌ_È_ËÂÌÚ_2-2" x1="668.49" y1="24.06" x2="713.27" y2="24.06" gradientTransform="matrix(0.12, -0.99, 0.99, 0.12, 227.94, 882.37)" xlink:href="#_ÂÁ_Ï_ÌÌ_È_ËÂÌÚ_2"/><linearGradient id="_ÂÁ_Ï_ÌÌ_È_ËÂÌÚ_146-3" x1="330.78" y1="250.36" x2="330.78" y2="160.33" gradientTransform="matrix(1, 0, 0, 1, 0, 0)" xlink:href="#_ÂÁ_Ï_ÌÌ_È_ËÂÌÚ_146"/><radialGradient id="_ÂÁ_Ï_ÌÌ_È_ËÂÌÚ_122" cx="597.3" cy="54.43" r="5.83" gradientTransform="translate(117.11 799.48) rotate(-71.74)" gradientUnits="userSpaceOnUse"><stop offset="0" stop-color="#ff4300"/><stop offset="0.08" stop-color="#e03b00"/><stop offset="0.28" stop-color="#9d2900"/><stop offset="0.46" stop-color="#651b00"/><stop offset="0.63" stop-color="#390f00"/><stop offset="0.78" stop-color="#1a0700"/><stop offset="0.91" stop-color="#070200"/><stop offset="1"/></radialGradient><linearGradient id="_ÂÁ_Ï_ÌÌ_È_ËÂÌÚ_101" x1="310.47" y1="185.68" x2="310.47" y2="155.4" gradientUnits="userSpaceOnUse"><stop offset="0.02" stop-color="#ff7288"/><stop offset="0.97" stop-color="#ff11a1"/></linearGradient><linearGradient id="_ÂÁ_Ï_ÌÌ_È_ËÂÌÚ_92-2" x1="328.06" y1="189.88" x2="328.06" y2="165.46" gradientTransform="matrix(1, 0, 0, 1, 0, 0)" xlink:href="#_ÂÁ_Ï_ÌÌ_È_ËÂÌÚ_92"/><linearGradient id="_ÂÁ_Ï_ÌÌ_È_ËÂÌÚ_139-3" x1="261.83" y1="148.35" x2="380.85" y2="199.33" xlink:href="#_ÂÁ_Ï_ÌÌ_È_ËÂÌÚ_139"/><linearGradient id="_ÂÁ_Ï_ÌÌ_È_ËÂÌÚ_77" x1="318.54" y1="185.65" x2="318.54" y2="159.24" gradientUnits="userSpaceOnUse"><stop offset="0.02" stop-color="#ffa451"/><stop offset="0.97" stop-color="#ff515e"/></linearGradient><linearGradient id="_ÂÁ_Ï_ÌÌ_È_ËÂÌÚ_139-4" x1="312.46" y1="198.31" x2="312.46" y2="138.54" xlink:href="#_ÂÁ_Ï_ÌÌ_È_ËÂÌÚ_139"/><radialGradient id="_ÂÁ_Ï_ÌÌ_È_ËÂÌÚ_122-2" cx="656.26" cy="-1.92" r="5.83" xlink:href="#_ÂÁ_Ï_ÌÌ_È_ËÂÌÚ_122"/><linearGradient id="_ÂÁ_Ï_ÌÌ_È_ËÂÌÚ_2-3" x1="668.49" y1="35.73" x2="713.27" y2="35.73" gradientTransform="matrix(0.12, -0.99, 0.99, 0.12, 227.94, 882.37)" xlink:href="#_ÂÁ_Ï_ÌÌ_È_ËÂÌÚ_2"/><radialGradient id="_ÂÁ_Ï_ÌÌ_È_ËÂÌÚ_122-3" cx="610" cy="41.09" r="15.42" gradientTransform="matrix(0.97, -0.25, 0.25, 0.97, -253.6, 346.21)" xlink:href="#_ÂÁ_Ï_ÌÌ_È_ËÂÌÚ_122"/><linearGradient id="_ÂÁ_Ï_ÌÌ_È_ËÂÌÚ_92-3" x1="102.38" y1="285.28" x2="102.38" y2="201.26" gradientTransform="matrix(1, 0, 0, 1, 0, 0)" xlink:href="#_ÂÁ_Ï_ÌÌ_È_ËÂÌÚ_92"/><linearGradient id="_ÂÁ_Ï_ÌÌ_È_ËÂÌÚ_77-2" x1="132.21" y1="221.4" x2="132.21" y2="163.29" xlink:href="#_ÂÁ_Ï_ÌÌ_È_ËÂÌÚ_77"/><linearGradient id="_ÂÁ_Ï_ÌÌ_È_ËÂÌÚ_91-2" x1="107.34" y1="266.55" x2="107.34" y2="185.01" xlink:href="#_ÂÁ_Ï_ÌÌ_È_ËÂÌÚ_91"/><linearGradient id="_ÂÁ_Ï_ÌÌ_È_ËÂÌÚ_101-2" x1="121.33" y1="226.83" x2="121.33" y2="175.62" xlink:href="#_ÂÁ_Ï_ÌÌ_È_ËÂÌÚ_101"/><linearGradient id="_ÂÁ_Ï_ÌÌ_È_ËÂÌÚ_146-4" x1="113.21" y1="264.05" x2="113.21" y2="167.15" gradientTransform="matrix(1, 0, 0, 1, 0, 0)" xlink:href="#_ÂÁ_Ï_ÌÌ_È_ËÂÌÚ_146"/><linearGradient id="_ÂÁ_Ï_ÌÌ_È_ËÂÌÚ_2-4" x1="113.49" y1="263.58" x2="113.49" y2="194.31" gradientTransform="matrix(1, 0, 0, 1, 0, 0)" xlink:href="#_ÂÁ_Ï_ÌÌ_È_ËÂÌÚ_2"/><linearGradient id="_ÂÁ_Ï_ÌÌ_È_ËÂÌÚ_101-3" x1="125.19" y1="114.25" x2="125.19" y2="78.2" xlink:href="#_ÂÁ_Ï_ÌÌ_È_ËÂÌÚ_101"/><linearGradient id="_ÂÁ_Ï_ÌÌ_È_ËÂÌÚ_139-5" x1="125.9" y1="114.25" x2="125.9" y2="79.2" xlink:href="#_ÂÁ_Ï_ÌÌ_È_ËÂÌÚ_139"/><linearGradient id="_ÂÁ_Ï_ÌÌ_È_ËÂÌÚ_143-2" x1="172.5" y1="327.18" x2="172.5" y2="217.14" xlink:href="#_ÂÁ_Ï_ÌÌ_È_ËÂÌÚ_143"/><linearGradient id="_ÂÁ_Ï_ÌÌ_È_ËÂÌÚ_98-2" x1="177.02" y1="337.45" x2="205.5" y2="337.45" xlink:href="#_ÂÁ_Ï_ÌÌ_È_ËÂÌÚ_98"/><linearGradient id="_ÂÁ_Ï_ÌÌ_È_ËÂÌÚ_4-5" x1="192.58" y1="331.48" x2="192.58" y2="124.15" xlink:href="#_ÂÁ_Ï_ÌÌ_È_ËÂÌÚ_4"/><linearGradient id="_ÂÁ_Ï_ÌÌ_È_ËÂÌÚ_139-6" x1="197.06" y1="331.48" x2="197.06" y2="124.15" xlink:href="#_ÂÁ_Ï_ÌÌ_È_ËÂÌÚ_139"/><linearGradient id="_ÂÁ_Ï_ÌÌ_È_ËÂÌÚ_5" x1="163.12" y1="184.4" x2="163.12" y2="76.29" gradientUnits="userSpaceOnUse"><stop offset="0" stop-color="#cfbfeb"/><stop offset="0.98" stop-color="#e4deec"/></linearGradient><linearGradient id="_ÂÁ_Ï_ÌÌ_È_ËÂÌÚ_127-2" x1="167.32" y1="184.4" x2="167.32" y2="76.29" xlink:href="#_ÂÁ_Ï_ÌÌ_È_ËÂÌÚ_127"/><linearGradient id="_ÂÁ_Ï_ÌÌ_È_ËÂÌÚ_213" x1="132.02" y1="96.78" x2="132.02" gradientUnits="userSpaceOnUse"><stop offset="0" stop-color="#ff8757"/><stop offset="0.98" stop-color="#ffb34c"/></linearGradient><linearGradient id="_ÂÁ_Ï_ÌÌ_È_ËÂÌÚ_156" x1="132.14" y1="96.78" x2="132.14" y2="0.16" gradientUnits="userSpaceOnUse"><stop offset="0" stop-color="#fff"/><stop offset="0.99" stop-color="#b10bac"/></linearGradient><linearGradient id="_ÂÁ_Ï_ÌÌ_È_ËÂÌÚ_4-6" x1="207.97" y1="153.4" x2="207.97" y2="107.47" gradientTransform="translate(-16 -28.05) rotate(-6.21)" xlink:href="#_ÂÁ_Ï_ÌÌ_È_ËÂÌÚ_4"/><linearGradient id="_ÂÁ_Ï_ÌÌ_È_ËÂÌÚ_56" x1="175.73" y1="105.72" x2="175.73" y2="50.08" gradientUnits="userSpaceOnUse"><stop offset="0.02" stop-color="#a272ec"/><stop offset="0.97" stop-color="#d36fff"/></linearGradient><linearGradient id="_ÂÁ_Ï_ÌÌ_È_ËÂÌÚ_46" x1="183.69" y1="96.78" x2="183.69" y2="59.18" gradientUnits="userSpaceOnUse"><stop offset="0.02" stop-color="#5b72ec"/><stop offset="0.97" stop-color="#84a1ff"/></linearGradient><linearGradient id="_ÂÁ_Ï_ÌÌ_È_ËÂÌÚ_77-3" x1="113.92" y1="106.41" x2="113.92" y2="79.87" xlink:href="#_ÂÁ_Ï_ÌÌ_È_ËÂÌÚ_77"/><linearGradient id="_ÂÁ_Ï_ÌÌ_È_ËÂÌÚ_77-4" x1="225.89" y1="225.46" x2="225.89" y2="184.39" xlink:href="#_ÂÁ_Ï_ÌÌ_È_ËÂÌÚ_77"/><linearGradient id="_ÂÁ_Ï_ÌÌ_È_ËÂÌÚ_91-3" x1="212.57" y1="243.84" x2="212.57" y2="135.6" xlink:href="#_ÂÁ_Ï_ÌÌ_È_ËÂÌÚ_91"/><linearGradient id="_ÂÁ_Ï_ÌÌ_È_ËÂÌÚ_101-4" x1="218.54" y1="215.12" x2="218.54" y2="147.81" xlink:href="#_ÂÁ_Ï_ÌÌ_È_ËÂÌÚ_101"/><linearGradient id="_ÂÁ_Ï_ÌÌ_È_ËÂÌÚ_92-4" x1="211.75" y1="189.22" x2="211.75" y2="96.78" gradientTransform="matrix(1, 0, 0, 1, 0, 0)" xlink:href="#_ÂÁ_Ï_ÌÌ_È_ËÂÌÚ_92"/><linearGradient id="_ÂÁ_Ï_ÌÌ_È_ËÂÌÚ_118" x1="165.83" y1="144.99" x2="165.83" y2="121.03" gradientUnits="userSpaceOnUse"><stop offset="0" stop-color="#fff"/><stop offset="1" stop-color="#bdbfff"/></linearGradient><linearGradient id="_ÂÁ_Ï_ÌÌ_È_ËÂÌÚ_109" x1="168.57" y1="142.77" x2="168.57" y2="120.42" gradientTransform="translate(142.43 -80.66) rotate(45)" gradientUnits="userSpaceOnUse"><stop offset="0.01" stop-color="#634f90"/><stop offset="1" stop-color="#3b0643"/></linearGradient><linearGradient id="_ÂÁ_Ï_ÌÌ_È_ËÂÌÚ_101-5" x1="151.19" y1="107.09" x2="173.94" y2="107.09" xlink:href="#_ÂÁ_Ï_ÌÌ_È_ËÂÌÚ_101"/><linearGradient id="_ÂÁ_Ï_ÌÌ_È_ËÂÌÚ_29" x1="130.49" y1="161.59" x2="137.37" y2="161.59" gradientUnits="userSpaceOnUse"><stop offset="0.01" stop-color="#9775ba"/><stop offset="1" stop-color="#ffeadb"/></linearGradient><linearGradient id="_ÂÁ_Ï_ÌÌ_È_ËÂÌÚ_132" x1="113.13" y1="151.59" x2="146.44" y2="151.59" gradientUnits="userSpaceOnUse"><stop offset="0" stop-color="#ffeadb"/><stop offset="0.99"/></linearGradient><linearGradient id="_ÂÁ_Ï_ÌÌ_È_ËÂÌÚ_127-3" x1="172.38" y1="285.28" x2="172.38" y2="239.46" xlink:href="#_ÂÁ_Ï_ÌÌ_È_ËÂÌÚ_127"/><linearGradient id="_ÂÁ_Ï_ÌÌ_È_ËÂÌÚ_127-4" x1="159.45" y1="251.28" x2="194.83" y2="251.28" xlink:href="#_ÂÁ_Ï_ÌÌ_È_ËÂÌÚ_127"/><linearGradient id="_ÂÁ_Ï_ÌÌ_È_ËÂÌÚ_139-7" x1="175.91" y1="105.72" x2="175.91" y2="50.19" xlink:href="#_ÂÁ_Ï_ÌÌ_È_ËÂÌÚ_139"/><linearGradient id="_ÂÁ_Ï_ÌÌ_È_ËÂÌÚ_3" x1="204.31" y1="103.07" x2="204.31" y2="59.95" gradientUnits="userSpaceOnUse"><stop offset="0.02" stop-color="#ff9fa6"/><stop offset="1" stop-color="#ff88c7"/></linearGradient><linearGradient id="_ÂÁ_Ï_ÌÌ_È_ËÂÌÚ_127-5" x1="204.82" y1="94.03" x2="204.82" y2="59.95" xlink:href="#_ÂÁ_Ï_ÌÌ_È_ËÂÌÚ_127"/><linearGradient id="_ÂÁ_Ï_ÌÌ_È_ËÂÌÚ_139-8" x1="214.34" y1="243.78" x2="214.34" y2="96.78" xlink:href="#_ÂÁ_Ï_ÌÌ_È_ËÂÌÚ_139"/><linearGradient id="_ÂÁ_Ï_ÌÌ_È_ËÂÌÚ_2-5" x1="219.63" y1="168.53" x2="219.63" y2="116.99" gradientTransform="matrix(1, 0, 0, 1, 0, 0)" xlink:href="#_ÂÁ_Ï_ÌÌ_È_ËÂÌÚ_2"/><radialGradient id="_ÂÁ_Ï_ÌÌ_È_ËÂÌÚ_122-4" cx="197.42" cy="124.9" r="8.77" gradientTransform="translate(293.32 -88.12) rotate(81.92)" xlink:href="#_ÂÁ_Ï_ÌÌ_È_ËÂÌÚ_122"/><radialGradient id="_ÂÁ_Ï_ÌÌ_È_ËÂÌÚ_122-5" cx="165.83" cy="201.26" r="8.77" gradientTransform="matrix(1, 0, 0, 1, 0, 0)" xlink:href="#_ÂÁ_Ï_ÌÌ_È_ËÂÌÚ_122"/><radialGradient id="_ÂÁ_Ï_ÌÌ_È_ËÂÌÚ_122-6" cx="77.2" cy="245.74" r="6.3" gradientTransform="matrix(1, 0, 0, 1, 0, 0)" xlink:href="#_ÂÁ_Ï_ÌÌ_È_ËÂÌÚ_122"/><radialGradient id="_ÂÁ_Ï_ÌÌ_È_ËÂÌÚ_122-7" cx="98.14" cy="228.94" r="16.66" gradientTransform="matrix(1, 0, 0, 1, 0, 0)" xlink:href="#_ÂÁ_Ï_ÌÌ_È_ËÂÌÚ_122"/><radialGradient id="_ÂÁ_Ï_ÌÌ_È_ËÂÌÚ_122-8" cx="200.08" cy="135.6" r="5.7" gradientTransform="matrix(1, 0, 0, 1, 0, 0)" xlink:href="#_ÂÁ_Ï_ÌÌ_È_ËÂÌÚ_122"/><radialGradient id="_ÂÁ_Ï_ÌÌ_È_ËÂÌÚ_122-9" cx="191.26" cy="232.06" r="10.24" gradientTransform="matrix(1, 0, 0, 1, 0, 0)" xlink:href="#_ÂÁ_Ï_ÌÌ_È_ËÂÌÚ_122"/><radialGradient id="_ÂÁ_Ï_ÌÌ_È_ËÂÌÚ_122-10" cx="212.29" cy="215.6" r="10.71" gradientTransform="matrix(1, 0, 0, 1, 0, 0)" xlink:href="#_ÂÁ_Ï_ÌÌ_È_ËÂÌÚ_122"/><radialGradient id="_ÂÁ_Ï_ÌÌ_È_ËÂÌÚ_122-11" cx="161" cy="54.05" r="10.71" gradientTransform="translate(25.49 -48.32) rotate(18.51)" xlink:href="#_ÂÁ_Ï_ÌÌ_È_ËÂÌÚ_122"/><radialGradient id="_ÂÁ_Ï_ÌÌ_È_ËÂÌÚ_122-12" cx="163.12" cy="89.08" r="10.71" gradientTransform="translate(212.21 -90.19) rotate(76.68)" xlink:href="#_ÂÁ_Ï_ÌÌ_È_ËÂÌÚ_122"/><radialGradient id="_ÂÁ_Ï_ÌÌ_È_ËÂÌÚ_122-13" cx="234.92" cy="195.26" r="5.7" gradientTransform="matrix(1, 0, 0, 1, 0, 0)" xlink:href="#_ÂÁ_Ï_ÌÌ_È_ËÂÌÚ_122"/><radialGradient id="_ÂÁ_Ï_ÌÌ_È_ËÂÌÚ_122-14" cx="197.42" cy="220.83" r="4.16" gradientTransform="matrix(1, 0, 0, 1, 0, 0)" xlink:href="#_ÂÁ_Ï_ÌÌ_È_ËÂÌÚ_122"/><radialGradient id="_ÂÁ_Ï_ÌÌ_È_ËÂÌÚ_122-15" cx="204.82" cy="109.99" r="3.08" gradientTransform="matrix(1, 0, 0, 1, 0, 0)" xlink:href="#_ÂÁ_Ï_ÌÌ_È_ËÂÌÚ_122"/><linearGradient id="linear-gradient" x1="397.16" y1="417.97" x2="98.56" y2="119.37" gradientUnits="userSpaceOnUse"><stop offset="0" stop-color="#0bc59f"/><stop offset="0.16" stop-color="#0cae9c"/><stop offset="0.51" stop-color="#0f7393"/><stop offset="1" stop-color="#131586"/></linearGradient><radialGradient id="radial-gradient" cx="-0.15" cy="137.47" r="433.21" gradientUnits="userSpaceOnUse"><stop offset="0.37" stop-color="#fff"/><stop offset="0.45" stop-color="#fafafd"/><stop offset="0.53" stop-color="#ededf6"/><stop offset="0.61" stop-color="#d6d6ea"/><stop offset="0.7" stop-color="#b6b6d9"/><stop offset="0.79" stop-color="#8d8ec4"/><stop offset="0.89" stop-color="#5b5cab"/><stop offset="0.98" stop-color="#20228d"/><stop offset="1" stop-color="#131586"/></radialGradient></defs><g class="cls-1"><g id="Layer_1" data-name="Layer 1"><path class="cls-2" d="M17.38,250.14A247.57,247.57,0,0,1,34.88,163,237.32,237.32,0,0,1,82.83,87.9a223.86,223.86,0,0,1,73.33-51.6,212.56,212.56,0,0,1,176.09,3.13A223.75,223.75,0,0,1,403.7,93.6,237.22,237.22,0,0,1,449,170.4a247.59,247.59,0,0,1,14.39,87.66"/><path class="cls-3" d="M29.09,250.35a235.66,235.66,0,0,1,16.65-83A225.71,225.71,0,0,1,91.32,96,212.07,212.07,0,0,1,160.8,47a201,201,0,0,1,166.43,3,212.22,212.22,0,0,1,67.7,51.34,225.78,225.78,0,0,1,43,73,235.8,235.8,0,0,1,13.7,83.5"/><path class="cls-4" d="M40.4,250.55a224.17,224.17,0,0,1,15.85-79,214.19,214.19,0,0,1,43.28-67.86,200.73,200.73,0,0,1,65.77-46.3,189.68,189.68,0,0,1,157.07,2.79,200.89,200.89,0,0,1,64.08,48.6,214.39,214.39,0,0,1,40.84,69.36,224.44,224.44,0,0,1,13,79.47"/><path class="cls-5" d="M51.71,250.75a213.21,213.21,0,0,1,15-75,203.23,203.23,0,0,1,41-64.27,189.52,189.52,0,0,1,62.05-43.7,178.41,178.41,0,0,1,147.72,2.62A189.44,189.44,0,0,1,378,116.31,202.79,202.79,0,0,1,416.64,182,213,213,0,0,1,429,257.45"/><path class="cls-6" d="M63.38,251a201.38,201.38,0,0,1,14.21-70.84,191.22,191.22,0,0,1,38.63-60.58,177.77,177.77,0,0,1,58.2-41A166.71,166.71,0,0,1,312.5,81,177.7,177.7,0,0,1,369.21,124a191.5,191.5,0,0,1,36.45,61.91,201.46,201.46,0,0,1,11.69,71.3"/><circle class="cls-7" cx="85.75" cy="228.53" r="58.61" transform="translate(-136.48 127.57) rotate(-45)"/><circle class="cls-7" cx="170.02" cy="234.15" r="51.4" transform="translate(-71.05 74.09) rotate(-20.43)"/><circle class="cls-7" cx="40.51" cy="277.45" r="40.51" transform="translate(-231.21 208.26) rotate(-67.41)"/><circle class="cls-7" cx="235.17" cy="262.64" r="40.51" transform="translate(-9.16 8.5) rotate(-2.03)"/><circle class="cls-7" cx="291.17" cy="223.55" r="40.51" transform="translate(-8.56 11.61) rotate(-2.25)"/><circle class="cls-7" cx="343.46" cy="246.03" r="51.53" transform="translate(-17.15 25.9) rotate(-4.21)"/><circle class="cls-7" cx="421.08" cy="262.54" r="51.53" transform="translate(-62.31 374.65) rotate(-45)"/><circle class="cls-7" cx="448.46" cy="320.02" r="51.53" transform="translate(-96.54 239.4) rotate(-27.1)"/><circle class="cls-7" cx="409.16" cy="363.48" r="35.18" transform="translate(-115.28 206.99) rotate(-25)"/><circle class="cls-7" cx="358.37" cy="385.28" r="35.18" transform="translate(-167.47 366.26) rotate(-45)"/><circle class="cls-7" cx="146.65" cy="373.49" r="35.18" transform="translate(-221.14 213.09) rotate(-45)"/><circle class="cls-7" cx="294.41" cy="352.37" r="51.53" transform="translate(-138.28 506.07) rotate(-69.68)"/><circle class="cls-7" cx="74.9" cy="341.85" r="51.53" transform="translate(-87.39 31.79) rotate(-15.27)"/><circle class="cls-7" cx="222.17" cy="368.1" r="64.37" transform="translate(-190.95 487.19) rotate(-74.97)"/><circle class="cls-7" cx="138.12" cy="303.38" r="64.37" transform="translate(-174.06 186.53) rotate(-45)"/><circle class="cls-7" cx="254.32" cy="306.56" r="64.37" transform="translate(-142.28 269.62) rotate(-45)"/><circle class="cls-7" cx="360.84" cy="316.79" r="64.37" transform="translate(-118.31 347.93) rotate(-45)"/><g class="cls-8"><path class="cls-9" d="M55.8,210c.94.1,1.87.24,2.79.41a46,46,0,0,1,.18-4.71A51.26,51.26,0,0,0,55.8,210Z"/><path class="cls-9" d="M499.93,317.37a51.52,51.52,0,0,0-28.56-43.52,51.58,51.58,0,0,0-33.53-60.05,46.42,46.42,0,0,1,4,16.67,46.94,46.94,0,0,1-1.06,12.6,46.54,46.54,0,0,1-18.3,88.17,48.07,48.07,0,0,1-6.91-.15,31.78,31.78,0,0,1-46.15,20.84,31.77,31.77,0,0,1-61.4-.08,46.64,46.64,0,0,1-42.35,6.09,58.14,58.14,0,0,1-99.41.77A31.75,31.75,0,0,1,116,337a46.54,46.54,0,0,1-73.84-55.35,36.58,36.58,0,0,1-27-33.45c0-.78-.05-1.56,0-2.33A40.52,40.52,0,0,0,30,316.58a51.53,51.53,0,0,0,81.77,61.29,35.16,35.16,0,0,0,55.63,24,64.39,64.39,0,0,0,110.09-.86,51.56,51.56,0,0,0,46.89-6.74,35.19,35.19,0,0,0,68,.08,35.17,35.17,0,0,0,51.1-23.07,52.54,52.54,0,0,0,7.65.17A51.54,51.54,0,0,0,499.93,317.37Z"/></g><path class="cls-10" d="M198.29,242s-62.15,19.9-58.21,28.78,10.16,19.9,23.86,27.1,41.83,17.63,41.83,17.63S223,301,215,295.7s.76-9.25,11.21-9.25,32.78-2,34.19,0-8.76,7.38-4.69,14.45c4.69,8.15,20.85,29.29,29.56,25.11,6.54-3.15-3.67-22.33,15.54-18.37,7.48,1.54,25.43,10.17,25.43,10.17l26.56-13.28,11.87-9.32,17.78-19.71-15.24-26.07L292.35,241Z"/><path class="cls-7" d="M362.06,270h0a2.64,2.64,0,0,0,.29.15c1,.56,2.12,1.07,3.19,1.52v0a62.3,62.3,0,0,0,19.26,4.45s-10.44-4.19-15.23-18.53h0c-3.85-17.25-3.17-35.72.93-55.5s-9.48-21-20.75-22.41c-5.91-.73-12.61-5.65-17.65-10.18l0-.06a20.53,20.53,0,0,0-4.69-4.53s0,0-.05,0h0c-1.86-1.92-3-3.25-3-3.25s.78,1.05,2,2.65a13.86,13.86,0,0,0-1.28-.64h0a14.36,14.36,0,0,0-3.94-2.29h0c-6.89-5.29-12.86-4.13-12.86-4.13s-9.1,2.67-13.12,9.37a11,11,0,0,0-1.05,2.31,7.63,7.63,0,0,0-.28,3.81c0,.22.1.44.16.64s0,.14.06.22a3.66,3.66,0,0,0,.15.43,8.79,8.79,0,0,0,1.69,2.72,74.6,74.6,0,0,0-15.45.75c-1,.15-2,.32-3.08.49l-.41.08c-1,.18-2,.37-3.07.58l-.19,0c-10.25,2.07-20.67,5.17-33.86,6.71l-.14-1s0,.13-.09.36a58.06,58.06,0,0,0-1.07-14c-1.4-7.31-4.87-14.82-8.37-21,9.9-3.77,8.65-11.67-1.49-16.24-11.47-5.18-15-16.53-15-16.53h0c-3.18-9.64-5.84-20.21-5.84-20.21l-.43.36a26.42,26.42,0,0,0,2-2.07,18,18,0,0,0,3.82-5.83,20.56,20.56,0,0,0,1.34-3.92c2.53-10.85,5.6-31.27,5.6-31.27-13.39,1-24.25,10.87-29.69,18.2h0s-1.72-1.78-4.21-4.23l-1.91-1.94a35.24,35.24,0,0,1-12.83,2.49c-9.18,0,6.55-12.57.6-18.44-13-4.36-24.81,7.06-22.34,13.51,1.2,3.11-.74.57-.95,2.37a73.32,73.32,0,0,0-14.09-16.38c2.39-20.11-16.89-28.48-16.89-28.48-.85-8-6.27-14.2-10.29-17.75-1.48-.12.8-3.1-.61-3.4-4.16,4.5-3.27,20.47,3.35,34.09,1.13,2.32,1.93,4.81,3.08,7.09,1,2.09,1.67,3.27,1.67,3.27-.51,23.14,9.9,28.46,9.9,28.46l0,1.88a38.72,38.72,0,0,0,.41,4.62c-.19.26-.43.57-.7.9-.93.88-4.07,2.94-14.38,5C96.67,88.07,98.37,94,100,102.38c0,0-.41-6.17,7.84-10.35,3.31-1.68,6.49-3,9.22-4.34-.57.48-1.17,1-1.81,1.47A7,7,0,0,0,113.56,91c-4.67,7.25,4.13,21.36,5.24,23.06a.9.9,0,0,1,.07.11.1.1,0,0,0,0,.06c-.54,9.5,3.19,24.26,2.8,28.1-.37,3.47-8.63,10.09-10.32,17.2-.12.37-.23.73-.31,1.08l.14,0a9.46,9.46,0,0,0-.11,2c.44,6.59,6.35,14,10.43,18a43.86,43.86,0,0,0-6.65,2.19s21-8.26,0,0c-20.57,8.1-24.86,37.58-22.77,36.76a2.51,2.51,0,0,0,1.24-1.82c-.19.14,9.58-18.13,17.1-23.06s10.57-5.31,15.53-6l-.66.71h0c-5.29,5.71-11.12,13.79-18.1,19.71-10.18,5.3-20.1,12.75-27.89,17.21l-1,.52,0,0h0l-.08,0h0c-24.11,11-22.51,39.63-22.51,39.63.54-2.41.49-4.62,1.68-6.62,0,.11,0,.23-.06.35-.2,1.26-.35,2.52-.44,3.77v0a57.44,57.44,0,0,0,2.87,21.21s-.06-12.09,13-21.69l0,0C89,254,108.2,248.63,129.93,246.37s16.62-15.23,14.11-27.25,7.66-24.81,7.66-24.81l-.17.14a18,18,0,0,1,2.68-2l1.25-3v0l1.78-4.34c-1,2.53-2.09,5.1-3,7.41-3.75,9.08-4.82,12.11-5.46,18a45.82,45.82,0,0,0,.16,8.87c.46,5.24,1.75,19.16,3.75,33,2.53,17.48,16.79,51.23,17.27,57.56s.17,15.69.17,15.69l.66.18s-.38,11.52.2,18a44.92,44.92,0,0,0,6.21.77c-.1,1.28-.17,2.56-.17,3.82,0,0,2.43,3.3,11.68,1.92s13.65-10,15-13.49,1.54-12.4,1.54-12.4h0c2.12-1.4,3.66-2.66,4-3.38,1-2.3-.58-20.5.92-25.45s6.68-10.78,9-18.12c.64-2,1.34-5,2.08-8.37a86.15,86.15,0,0,0,16.62,1.17c10.5-.24,21.58-2.76,30.79-5.48,4.5,16.65,13.46,38.57,13.82,43.38.45,5.86.16,14.52.16,14.52l.61.18h0s-.36,10.66.18,16.65a42.72,42.72,0,0,0,5.76.71c-.1,1.19-.16,2.38-.16,3.53,0,0,2.24,3.06,10.81,1.79s12.64-9.26,13.88-12.49,1.43-11.48,1.43-11.48h0c2-1.29,3.39-2.46,3.68-3.13.92-2.12-.54-19,.85-23.56s6.19-10,8.32-16.78c1.5-4.8,3.37-15.14,5.28-22.86,1.28-3,2.49-5.81,3.59-8.21.19-.42.37-.84.55-1.26a15.12,15.12,0,0,0,2.62,1.45,33.51,33.51,0,0,0,1.05,3.21c6.7,17.44,25.31,23.63,26.14,23.89A21.58,21.58,0,0,1,362.06,270ZM141.69,231.45c-.68,7.37-9.7,10.06-20.49,12,8.35-3.93,14.57-8.62,15.88-15.25a129.76,129.76,0,0,1,3.45-13.62C140.59,219.47,142.35,224.33,141.69,231.45Zm5.36-32.17a36.51,36.51,0,0,1,3.33-3.76A38.83,38.83,0,0,0,147.05,199.28ZM187.11,77.73c-.23.54-.46,1-.68,1.51l-.13,0,.9-1.68Zm37.57,63.32c-2.15-3.15-3.74-5.17-4-5.43a17.14,17.14,0,0,0-1.14-4.33c3.55,3.89,7.25,4.32,7.79,6C227.83,138.62,226.66,139.79,224.68,141.05Zm131.85,49.32a122.19,122.19,0,0,1-11-7.11c4.32,1.41,9.09,1.32,15.16,4,6.29,2.8,6.13,11.54,4.8,21.61C364.37,200.39,362,193.51,356.53,190.37Z"/><path class="cls-11" d="M337.14,174.82s0,0,0,0a111.08,111.08,0,0,0,21.1,15.53c13.08,7.55,8.08,36.85,10.45,58.38a44.91,44.91,0,0,0,1.85,8.84l0,0c4.64,14.34,15,18.53,15,18.53a61.85,61.85,0,0,1-19.21-4.45v0c-1.07-.45-2.14-1-3.19-1.52l-.28-.15a28.65,28.65,0,0,1-9-7.35c-8.81-11.24-2.87-35.32-7.12-52.91a33.76,33.76,0,0,0-1.88-5.76c-.41-1-.81-1.88-1.17-2.8a102.54,102.54,0,0,1-5.23-16.62,58.86,58.86,0,0,1-1.33-8.91v0C337.14,175.11,337.14,174.82,337.14,174.82Z"/><path class="cls-12" d="M326.37,161.64s14,16.67,25.23,18.06,24.83,2.61,20.51,22.41-5.2,38.27-1.53,55.51a59.36,59.36,0,0,1-5.71-34.78c2-15,6.65-31.49-2.42-35.55s-15.29-1.81-21.32-7.83S326.37,161.64,326.37,161.64Z"/><path class="cls-13" d="M342.73,212.8a56,56,0,0,1-4.84,31.26c-7.68,16.47-21.17,50.54-22.95,60.17s-16.18,11.24-25.93.43-18.26-65.2-18.26-65.2S331.13,204.82,342.73,212.8Z"/><path class="cls-13" d="M342.73,214.25a56,56,0,0,1-4.84,31.26c-7.68,16.47-21.17,50.54-22.95,60.17s-16.18,11.24-25.93.43-18.26-65.2-18.26-65.2S331.13,206.27,342.73,214.25Z"/><path class="cls-13" d="M342.73,215.7A56,56,0,0,1,337.89,247c-7.68,16.47-21.17,50.54-22.95,60.17s-16.18,11.24-25.93.43-18.26-65.2-18.26-65.2S331.13,207.73,342.73,215.7Z"/><path class="cls-14" d="M283.46,322.79s-.48,10.66,0,16.65c0,0,8.12,1.72,13.22,0s8.81-16.65,8.81-16.65S289.23,322.89,283.46,322.79Z"/><path class="cls-15" d="M264.15,222.25s1.12,16.36,3.28,32.54,15,47.44,15.42,53.3,0,14.52,0,14.52S297.09,327,303.41,321a44.75,44.75,0,0,1,1.87-9.18c1.4-3.95-4.46-14.17-7-28.57s-3.22-24.54-3.22-24.54Z"/><path class="cls-16" d="M292.43,324.73S289.1,335,289,343.68c0,0,2.21,3.06,10.79,1.79s12.74-9.26,14-12.49,1.55-11.48,1.55-11.48S308.17,327.35,292.43,324.73Z"/><path class="cls-17" d="M291.7,327.22s-.6,2.35,7,4.27,16.54-7.36,16.54-7.36l.15-2.63-22.94,3.23Z"/><path class="cls-18" d="M195.73,183.54a44.18,44.18,0,0,1,6.83,1.08C200.35,184.31,198.08,184,195.73,183.54Z"/><path class="cls-19" d="M338.2,243a31.84,31.84,0,0,1-1.53,4.46c-2.71,5.77-5.78,23.77-8,30.58s-7.05,12.2-8.5,16.78-.16,21.44-1.1,23.56-13.17,9.08-17.92,9.69-9.09-3.65-9.09-3.65c.52-3.07,2.2-7.82,3.56-13.61s3.37-13.1,2.05-16.38c-1.48-3.67-2.51-32-8.37-36.38-5.8,1.9-29.48,11.66-50.66,12.15s-38.15-6.55-37.51-12-10.91-7.88-7.36-16.29c.92-2.13,15-48,15.94-50.35,1.6-3.8-2.87-5.85-7.16-6.89,39.38,5.54,58.75-4.12,79.71-7.14a74.83,74.83,0,0,1,15.47-.75l.46,0a79,79,0,0,1,16.8,2.83c1.28.37,2.5.77,3.69,1.21l.61.23a46.82,46.82,0,0,1,8.74,4.32,34.85,34.85,0,0,1,8.47,7.42,27,27,0,0,1,5.74,11.82c.17,1,.3,1.91.37,2.68C343.42,216.72,340.69,234,338.2,243Z"/><path class="cls-20" d="M342.62,207.26c-.07-.77-.2-1.67-.37-2.68a27,27,0,0,0-5.74-11.82,34.85,34.85,0,0,0-8.47-7.42,50.36,50.36,0,0,0-13-5.76,79,79,0,0,0-16.8-2.83l-.46,0a74.83,74.83,0,0,0-15.47.75c-4.81.69-9.54,1.74-14.45,2.87,15.44-3.9,81.83-3.74,65.27,60.24a42.2,42.2,0,0,1-3.2,8.45c-.25,3.11-.52,6.23-.58,9.36-.34,18.36-14.68,32-32.11,34a11.84,11.84,0,0,0,.48,2.05c1.32,3.28-.68,10.6-2.05,16.38s-3,10.54-3.56,13.61c0,0,4.33,4.25,9.09,3.65s17-7.57,17.92-9.69-.34-19,1.1-23.56,6.3-10,8.5-16.78,5.28-24.81,8-30.58S343.59,218.72,342.62,207.26Z"/><path class="cls-21" d="M314.87,179.55l.13,0-2.65-.33-.31,0s0-.06,0-.09a1.63,1.63,0,0,1,.07-.3,3.3,3.3,0,0,1,.52.13C313.41,179.13,314.15,179.34,314.87,179.55Z"/><path class="cls-22" d="M339.55,237.44c-.34-2.59-.73-5.4-1.16-8.39,0,0,0-.09,0-.13,4.5-17.83,1.31-31.62-9.18-42.42l-8.3-4.84a43.69,43.69,0,0,1,6.56,3.32l.59.36.48.32a34,34,0,0,1,8,7.1,27,27,0,0,1,5.74,11.82c.17,1,.3,1.91.37,2.68C343.28,215,341.56,228.05,339.55,237.44Z"/><path class="cls-23" d="M339.55,237.44c-.34-2.59-.73-5.4-1.16-8.39,0,0,0-.09,0-.13,4.5-17.83,1.31-31.62-9.18-42.42l-8.3-4.84a54.79,54.79,0,0,0-5.89-2.08l-2.65-.33-.31,0s0-.06,0-.09a1.63,1.63,0,0,1,.07-.3c-.49-.13-1-.25-1.5-.35-1.21-.28-2.46-.52-3.77-.72-1.67-.3-3.41-.53-5.22-.7-1.12-.13-2.26-.23-3.44-.31l-.46,0a8.6,8.6,0,0,1-1.67-2.72c-.06-.14-.1-.29-.15-.43s0-.15-.05-.22-.1-.42-.15-.64a7.57,7.57,0,0,1,.32-3.81c.47-.4.93-.79,1.38-1.19a5.58,5.58,0,0,0,.58.18c.68.24,1.36.45,2.07.64s1.34.37,2,.53,1.64.36,2.48.52,1.81.3,2.74.42c1.84.23,3.85.55,5.88.81l1.62.19c.47,0,.93.1,1.4.13.11,0,.23,0,.34,0s0,0,.05.06c1.24,1.51,2.68,3.39,4,5.07,1.72,2.28,3.15,4.23,3.39,4.53.06.06.1.13.16.19q1.89,2.28,3.93,4.32c.35.35.7.7,1,1h0a85.1,85.1,0,0,0,7.41,6.39c1.15.89,2.33,1.77,3.52,2.64,1,3.58,1.77,6.73,2.22,9.18.17,1,.3,1.91.37,2.68C343.28,215,341.56,228.05,339.55,237.44Z"/><path class="cls-24" d="M269.5,264.71c18.55-5.56,21.5,4.64,26.57,25.49-1.08-34.33-8.26-29.32-14.18-45.74C283.43,260,283.62,258.39,269.5,264.71Z"/><path class="cls-25" d="M278.51,208.19a62.82,62.82,0,0,0,.21,28c3.62,15.33,17.72,24.13,17.72,24.13a25,25,0,0,1-17.75-16C273.73,230.6,274.05,219.19,278.51,208.19Z"/><path class="cls-26" d="M325.26,282.53s-5.26,6.71-6.71,10.79-.42,17.46-1.1,22.34-12.83,10.28-12.83,10.28,8.58-4.84,9.43-12.66-.9-15.39,1.32-20S325.26,282.53,325.26,282.53Z"/><path class="cls-26" d="M271.53,263.77l-.91.22c1.09,4.23,2.89,10.2,5.84,18.54,7.9,22.3,8.61,29.18,8.25,38.35a40.73,40.73,0,0,0,2-19C285.36,293.09,277.65,282.73,271.53,263.77Z"/><path class="cls-27" d="M289.84,342.93s9.09,1.7,14.78-1.79,9-11.12,9-11.12-1.74,9.09-9.43,13.63C297.68,347.5,289.84,342.93,289.84,342.93Z"/><path class="cls-28" d="M338.2,243c-.08-.59-.12-1.2-.17-1.81v-.05s0,0,0-.08v0l0,0a1.61,1.61,0,0,0,0-.22.39.39,0,0,1,0-.14,1.81,1.81,0,0,0,0-.32q0-.18,0-.39c-.07-1-.14-2-.22-3.12-.22-2.59-.48-5.41-.78-8.4a.57.57,0,0,1,0-.13c5.28-17.85,2.71-31.66-7.28-42.47l0,0a14,14,0,0,0-1.64-1.5,27.11,27.11,0,0,0-5.9-3.34,44.93,44.93,0,0,1,8.55,4.33,32.61,32.61,0,0,1,8.13,7.42A25.74,25.74,0,0,1,344,204.53c.13,1,.22,1.92.26,2.69C344.59,216.69,341.09,234,338.2,243Z"/><path class="cls-29" d="M368,274.25c-.83-.26-19.37-6.45-25.88-23.89a35.19,35.19,0,0,1-2-8.56v0s0-.06,0-.09v0h0a.82.82,0,0,0,0-.22,1.21,1.21,0,0,1,0-.14,2.11,2.11,0,0,0,0-.32c0-.12,0-.25,0-.39-.12-1-.23-2-.36-3.12-.34-2.59-.73-5.4-1.16-8.39,0,0,0-.09,0-.13,4.5-17.83,1.31-31.62-9.18-42.42l0,0a14.61,14.61,0,0,0-1.71-1.49,29.88,29.88,0,0,0-7.68-4c-.21-.1-.43-.17-.65-.26h-.06c-1.07-.38-2.14-.73-3.23-1l-.84-.24c-.76-.22-1.53-.42-2.27-.6l-.56-.14-1.54-.36c-1.35-.29-2.65-.56-3.84-.76-1.73-.32-3.24-.54-4.4-.7-1.54-.2-2.47-.29-2.47-.29a14.53,14.53,0,0,1,.34-2.35,19.59,19.59,0,0,1,.77-2.74,16.86,16.86,0,0,1,1.07-2.43,14.52,14.52,0,0,1,7.34-6.84,23.7,23.7,0,0,1,8.56-1.9c.81,0,1.1.16,1,.45a1.45,1.45,0,0,1-.46.67,10.33,10.33,0,0,1-1,.8,60.17,60.17,0,0,1-5.63,3.39c.41-.07,4.5-.94,8.11-1.61l2.15-.39a26.74,26.74,0,0,1,3.13-.39,5,5,0,0,1,1.76.4h0c.41.18.84.4,1.31.66.3.17.6.37.92.59,0,0,0,0,.05,0a20,20,0,0,1,4.64,4.53,22.16,22.16,0,0,1,2.29,3.62c.29.56.57,1.14.83,1.74v0c.79,1,1.66,2.12,2.67,3.23.42.45.86.93,1.31,1.4l.07.07q1.46,1.49,3.24,3l.71.58.48.39c.69.58,1.42,1.13,2.17,1.7,13.81,10.19,19.57,14.42,13,37.5-5.26,18.55-6.5,35.09.53,45.27l0,.05s0,0,.05.05a16.17,16.17,0,0,0,1.49,1.92A21.31,21.31,0,0,0,368,274.25Z"/><path class="cls-30" d="M346.93,222.18c-.15,0-.36-.08-.62-.16-2.91-.78-11.74-3.66-17.21-10.72a15.91,15.91,0,0,1-2.82-5.9v0c-2-7.83.93-17-.26-22.32a18.32,18.32,0,0,0-.5-1.81,23.74,23.74,0,0,0,1.65-3.31l2.58,2.17h0a10.09,10.09,0,0,1,2.61,6.9c0,1.15-.31,3.07-.6,5.38-.27,2.1-.55,4.54-.65,7a1,1,0,0,0,0,.17c-.19,4.63.23,9.4,2.44,12.43a30.84,30.84,0,0,0,8.9,7.71,41.88,41.88,0,0,0,3.77,2.06l.7.33.33.15A1.37,1.37,0,0,1,346.93,222.18Z"/><path class="cls-31" d="M349.55,223.62c-.16,0-.38-.09-.64-.17-3-.83-12-3.87-17.93-11.5a19,19,0,0,1-3.2-6.4v0c-2.48-8.51-1.24-15.31-1.64-21.29-.08-1.27-10-4.51-10.3-4.56.57-1.16-1-2.78,4-4.05S329.6,178,329.6,178h0a12.06,12.06,0,0,1,3.06,7.48c0,1.26-.11,3.35-.26,5.87-.12,2.29-.25,5-.19,7.65v.18c.12,5,.84,10.23,3.25,13.51a34.14,34.14,0,0,0,9.42,8.31,43.46,43.46,0,0,0,3.9,2.21l.73.35.34.16Z"/><path class="cls-32" d="M359.46,216.59c4-11.24-12.27-26.08-15.3-21.89s1.49,10.65,1.26,19.66c-3.87,13.68-5.55,26.25-3.35,36a35.19,35.19,0,0,1-2-8.56v0s0-.06,0-.09v0h0a.82.82,0,0,0,0-.22,1.21,1.21,0,0,1,0-.14,2.11,2.11,0,0,0,0-.32c0-.12,0-.25,0-.39-.12-1-.23-2-.36-3.12-.34-2.59-.73-5.4-1.16-8.39,0,0,0-.09,0-.13,4.5-17.83,1.31-31.62-9.18-42.42l0,0a14.61,14.61,0,0,0-1.71-1.49,29.88,29.88,0,0,0-7.68-4c-.21-.1-.43-.17-.65-.26h-.06c-1.07-.38-2.14-.73-3.23-1l-.84-.24c-.39-.44-.8-.87-1.22-1.31-.18-.17-.35-.35-.54-.52s-.45-.41-.69-.59a17.39,17.39,0,0,0-2-1.43,26.79,26.79,0,0,0-2.48-1.37c-.63-.32-1.29-.61-2-.89-.83-.36-1.7-.7-2.57-1s-1.68-.58-2.52-.84a16.86,16.86,0,0,1,1.07-2.43,14.52,14.52,0,0,1,7.34-6.84,23.7,23.7,0,0,1,8.56-1.9l.26.54c.09.19.19.38.31.58q.31.63.72,1.32c.23.41.49.83.77,1.26s.48.73.74,1.1a13.7,13.7,0,0,0,.87,1.22.23.23,0,0,0,.07.1s0,0,0,0,.07.09.1.15a2.34,2.34,0,0,1,.27.42c.16.25.32.52.51.81a12.64,12.64,0,0,0,1.34,2c.2.22.34.28.4,0a.44.44,0,0,0,0-.21c0-1.19,2-.55,5.08,1.38a79.6,79.6,0,0,1,10.24,8C351.31,189.65,364.44,206.12,359.46,216.59Z"/><path class="cls-26" d="M342.39,231.33s-3.76,13.08,1.56,22.43,16.33,16.8,16.33,16.8-11-10.63-15.37-20.51A34.11,34.11,0,0,1,342.39,231.33Z"/><path class="cls-33" d="M357.76,243.74a5.83,5.83,0,1,1-7.37,3.71A5.82,5.82,0,0,1,357.76,243.74Z"/><path class="cls-25" d="M356.2,248.46a1.09,1.09,0,0,1,.69,1.38,1.08,1.08,0,0,1-1.37.69,1.09,1.09,0,0,1-.7-1.37A1.11,1.11,0,0,1,356.2,248.46Z"/><path class="cls-34" d="M325.33,163.25a15.27,15.27,0,0,0-2.19.67,11.5,11.5,0,0,0-2.35,1.21,9.45,9.45,0,0,0-2.35,2.22,10.21,10.21,0,0,0-.7,1.06,9.65,9.65,0,0,0-.81,1.8,7.57,7.57,0,0,0-.33,1,21.3,21.3,0,0,0-.66,4.28c-.07,1.45-.05,2.87,0,4.19l-.07,0-.83-.1-2.65-.33-.31,0s0-.06,0-.09a1.63,1.63,0,0,1,.07-.3c-.49-.13-1-.25-1.5-.35-1.21-.28-2.46-.52-3.77-.72-1.67-.3-3.41-.53-5.22-.7-1.12-.13-2.26-.23-3.44-.31l-.46,0a8.6,8.6,0,0,1-1.67-2.72c-.06-.14-.1-.29-.15-.43s0-.15-.05-.22-.1-.42-.15-.64a7.57,7.57,0,0,1,.32-3.81,10.69,10.69,0,0,1,1.07-2.31c4.1-6.7,13.22-9.37,13.22-9.37s6-1.16,12.82,4.13h0C323.88,161.93,324.6,162.55,325.33,163.25Z"/><path class="cls-35" d="M345.65,183.57l-.5-.43-.71-.58a57.77,57.77,0,0,0-4.72-3.44c-6.83-4.4-13.27-5.82-19.16-2.82a15.06,15.06,0,0,0-1.5.85,19.53,19.53,0,0,0-3.16,2.55l-.07,0-1-.13-2.39-.36h0l-.4-.06a1.63,1.63,0,0,1,.07-.3c-.49-.13-1-.25-1.5-.35,0,0,0-.09,0-.14s-.06-.35-.09-.56a8.49,8.49,0,0,1,0-2.19,6.76,6.76,0,0,1,.35-1.43,7.09,7.09,0,0,1,2.29-3.34,3.87,3.87,0,0,1,.48-.39,10.1,10.1,0,0,1,2.22-1.26l.42-.18c.5-.21,1-.42,1.43-.58.74-.3,1.41-.55,2-.74a17.25,17.25,0,0,1,2.35-.62c2.76-.52,4.49,0,6.89,1a22,22,0,0,1,4.46,2.68c.9.66,1.86,1.44,2.84,2.32a64,64,0,0,1,8.21,9c.37.48.73,1,1.11,1.48C345.64,183.54,345.64,183.56,345.65,183.57Z"/><path class="cls-36" d="M330.39,166.06l-.74-.11a.18.18,0,0,1-.1,0,16.55,16.55,0,0,0-6.63.35,11.17,11.17,0,0,0-1.07.35,11.57,11.57,0,0,0-4.92,3.58c-.26.31-.49.63-.72.93a20.4,20.4,0,0,0-2,3.71c-.42,1.05-.74,2-1,2.76a9.64,9.64,0,0,1-.51,1.23.24.24,0,0,1-.07.12.76.76,0,0,1-.17.23h0s-.07.06-.11.06l-.31,0s0-.06,0-.09a1.63,1.63,0,0,1,.07-.3c-.49-.13-1-.25-1.5-.35-1.21-.28-2.46-.52-3.77-.72-1.67-.3-3.41-.53-5.22-.7l.74-.18c.91-.21,1.65-.5,1.61-.82s-.17-.73-.29-1.22a6.39,6.39,0,0,1-.16-2.5,5.18,5.18,0,0,1,.31-1.13,15.65,15.65,0,0,1,.72-1.62c2.18-4.34,6-7.55,9.56-8.27a7.79,7.79,0,0,1,1.38.35c.56.14,1.26.35,2.06.58l1.71.52,2.92.87.94.28c2.52.78,4.95,1.5,6.28,1.88a.37.37,0,0,0,.16,0C330,166,330.25,166,330.39,166.06Z"/><path class="cls-37" d="M331.09,167.72a.1.1,0,0,0-.07,0,25,25,0,0,0-8.1-1.42c-.43,0-.85,0-1.26.07a9.36,9.36,0,0,0-3.22,1,8.09,8.09,0,0,0-2.13,1.64,9.73,9.73,0,0,0-1.5,2,18.43,18.43,0,0,0-1.56,3.57c-.27.77-.5,1.58-.71,2.44-.14.53-.27,1.1-.38,1.68a.31.31,0,0,0,0,.13c-.49-.13-1-.25-1.5-.35-1.21-.28-2.46-.52-3.77-.72l-.08-.18a6,6,0,0,1-.79-2.93,6.89,6.89,0,0,1,.12-1.32,11.23,11.23,0,0,1,1.2-3.32c2.4-4.48,5.11-7.07,8.2-8.34a12.32,12.32,0,0,1,2.23-.71,2.38,2.38,0,0,1,.51-.09,5,5,0,0,1,.77-.09,9.29,9.29,0,0,1,4.13.58h0a14.13,14.13,0,0,1,3.92,2.29h0a21.58,21.58,0,0,1,2.32,2.15l.13.13c.22.23.42.47.65.71S330.78,167.34,331.09,167.72Z"/><path class="cls-38" d="M329.19,186.5l-8.3-4.84-1.12-.66-.21-.13-.44-.13h-.06L315,179.58l-2.65-.33-.31,0s0-.06,0-.09a1.63,1.63,0,0,1,.07-.3c-.49-.13-1-.25-1.5-.35-1.21-.28-2.46-.52-3.77-.72-1.67-.3-3.41-.53-5.22-.7-1.12-.13-2.26-.23-3.44-.31l-.46,0a8.6,8.6,0,0,1-1.67-2.72c-.06-.14-.1-.29-.15-.43s0-.15-.05-.22-.1-.42-.15-.64c.64.22,1.28.47,1.95.7.05,0,.13,0,.18.07.79.28,1.59.54,2.4.75a13.22,13.22,0,0,0,3.45.6,9.33,9.33,0,0,0,2.29-.19,4.54,4.54,0,0,0,.5-.12,12.25,12.25,0,0,1,1.58-.31,11.67,11.67,0,0,1,2.83-.06,12.59,12.59,0,0,1,2.35.42c.33.07.66.17,1,.27a17.74,17.74,0,0,1,1.71.66,22.1,22.1,0,0,1,3.12,1.64,34.08,34.08,0,0,1,5.05,3.87,45.48,45.48,0,0,1,4.41,4.64c.26.32.45.57.57.7h0s0,.07.06.1Z"/><path class="cls-39" d="M322.72,170.09a5.83,5.83,0,1,1-7.37,3.71A5.83,5.83,0,0,1,322.72,170.09Z"/><path class="cls-25" d="M321.16,174.82a1.09,1.09,0,1,1-1.38.69A1.08,1.08,0,0,1,321.16,174.82Z"/><path class="cls-26" d="M297.8,173.65s-2-2.87.67-6.46,8.3-5.41,8.3-5.41A21.28,21.28,0,0,0,297.8,173.65Z"/><path class="cls-26" d="M319,170.12s1.61-3,5.83-2.18,8.19,4.82,8.19,4.82A20.42,20.42,0,0,0,319,170.12Z"/><path class="cls-40" d="M348.79,223.18a43.46,43.46,0,0,1-3.9-2.21,37.66,37.66,0,0,1-7.39-5.91c-.82.39-1.64.75-2.48,1.08a38.31,38.31,0,0,0,13.89,7.31c.26.08.48.13.64.17l.31.07-.34-.16Z"/><circle class="cls-41" cx="347.24" cy="233.03" r="15.42" transform="translate(-36.68 398.82) rotate(-57.22)"/><path class="cls-25" d="M348,230.88a2.89,2.89,0,1,1-3.64,1.84A2.88,2.88,0,0,1,348,230.88Z"/><path class="cls-42" d="M147.21,201.26l0,0a121.07,121.07,0,0,0-8.79,26.91c-3.31,16-35.05,20.74-56.34,30.46a48.89,48.89,0,0,0-8.44,4.9l0,0c-13.13,9.6-13.91,21.69-13.91,21.69a67,67,0,0,1-1.94-21.21l0,0c.1-1.25.26-2.51.48-3.77,0-.12,0-.24.06-.35a31,31,0,0,1,4.49-11.73C71.34,235.36,98,233.31,114.65,223a36.93,36.93,0,0,0,5.27-3.88c.85-.74,1.66-1.47,2.47-2.15a110.87,110.87,0,0,1,15.29-11,63.54,63.54,0,0,1,8.68-4.39l0,0Z"/><path class="cls-43" d="M172.47,163.29l-4.29,6.4L161,180.5l0,0a19.33,19.33,0,0,1-11.34,6.29c-2,.3-5.35.45-9.39.7-3.67.23-7.93.53-12.21,1.13l-.29,0c-8,1.14-16.15,3.27-20.91,7.73-5.26,4.9-9,11.41-11.46,16.56-1.31,2.75-2.23,5.12-2.78,6.64-.17.51-.32.92-.42,1.22l-.19.57a4.62,4.62,0,0,1,.06-.51c0-.26.07-.61.15-1C92.9,215,96,200,107.07,189.12a30.38,30.38,0,0,1,9.58-6.31h0c13.07-5.57,29.45-3.78,38.39-7.31a45.87,45.87,0,0,0,13.57-8.34A33.31,33.31,0,0,0,172.47,163.29Z"/><path class="cls-44" d="M159.05,185l-1.83,4.34,0,0-1.28,3s-4.2,2.38-8.71,8.84l0,0c-.8,1.15-1.61,2.41-2.41,3.82q-.53.91-1.05,1.92a60.06,60.06,0,0,0-3.58,8.69c-5.79,17.62-8.18,25-34.06,26.06-20.82.89-38.19,5.22-46.27,15.87,0,0,0,0,0,0l0,.06a17.19,17.19,0,0,0-1.45,2.18,22.58,22.58,0,0,0-2.66,6.62s-.38-28.62,23.85-39.63h.05l.08,0h0l0,0,.21-.08.13-.08.32-.14.4-.18C84,224.83,87.86,223,92,220.89l.13-.06c15.57-7.8,35.58-18.59,49.64-26.29C152,189,159.05,185,159.05,185Z"/><path class="cls-45" d="M163,175.62,161,180.5l0,0L159.05,185l-1.83,4.34,0,0c-.41.18-6.43,3.12-10.82,12.21l0,0c-.35.7-.66,1.42-1,2.19-.19.45-.38.89-.6,1.32q-.53.91-1.05,1.92c-4.27,7-12,10.42-23.81,12.09-3,.42-6.26.74-9.79,1a101.89,101.89,0,0,0-23.56,4.18c-.24.06-.47.15-.7.22a1.52,1.52,0,0,0-.2.06c-2.24.74-3.91,1.38-4.94,1.81l-.4.18-.32.14-.13.08-.21.08c1-.52,6-3.21,12.48-7l.4-.23c3.63-2.13,7.69-4.59,11.71-7.19,9-5.84,16.32-16.15,22.75-23h0c.21-.24.43-.47.67-.71a29,29,0,0,1,5.75-4.88C146.65,175.9,163,175.62,163,175.62Z"/><path class="cls-46" d="M168.66,167.15l-.48,2.54L161,180.5l0,0L159.05,185h0l-1.81,4.33,0,0-1.28,3s-4.2,2.38-8.71,8.84l0,0a121.07,121.07,0,0,0-8.79,26.91c-3.31,16-35.05,20.74-56.34,30.46a48.89,48.89,0,0,0-8.44,4.9c.55-.64,9.63-10.81,18.31-15,8.93-4.3,21-6,0-3.94-16.42,1.64-29.28,14.05-34.17,19.42.1-1.25.26-2.51.48-3.77.46-.86,1-1.7,1.51-2.53l0-.06s0,0,0,0c5.65-8.56,15.82-16,29.67-18.19,18.48-3,36.58-13.66,25.16-16.46a.42.42,0,0,0-.12,0c-11.34-2.67-33.83,3.62-35,3.94l.08,0h0l0,0,.21-.08c2-.82,3.88-1.56,5.79-2.21a1.52,1.52,0,0,1,.2-.06c.23-.07.46-.16.7-.22,14.16-4.71,26.73-5.1,35.82-7.29a25.62,25.62,0,0,0,8.39-3.36,23.86,23.86,0,0,0,6.9-7.62,31.18,31.18,0,0,0,4.09-11.45c.42-3.26,0-5.87-1.35-6.89a1,1,0,0,0-.22-.14c-4-2.66-12.21,1.13-12.21,1.13a7,7,0,0,1-1,.75c.21-.24.43-.47.67-.71-8,1.14-16.15,3.27-20.91,7.73-5.26,4.9-9,11.41-11.46,16.56l0,.05s6.51-14.63,13.57-20.68,21.84-7.62,18.71-9.53-10.27-.14-10.86,0c13.07-5.57,29.45-3.78,38.39-7.31A45.87,45.87,0,0,0,168.66,167.15Z"/><path class="cls-47" d="M153.39,194.31s-10.31,12.79-7.93,24.81,7.36,25-14.4,27.25S90,254,73.59,263.58A64.14,64.14,0,0,1,107.34,246c16-3,34.54-3.84,35.64-14.51s-3.31-16.3.81-24.52A41,41,0,0,1,153.39,194.31Z"/><path class="cls-48" d="M135.43,91.39c-10,7.93-14,22.86-14,22.86l0-.07a.64.64,0,0,0-.06-.11c-1.09-1.7-9.74-15.81-5-23.06a7.22,7.22,0,0,1,1.7-1.85c6.16-4.79,9.16-8.32,10.37-10a9.92,9.92,0,0,0,.69-1L133,86.3Z"/><path class="cls-49" d="M135.43,91.39c-10,7.93-14,22.86-14,22.86l0-.07a.64.64,0,0,0-.06-.11c-.34-.77-1.48-4.07.14-11.11,1.88-8.16,6.8-15.82,2.94-15.52S116.37,91,116.37,91a7.22,7.22,0,0,1,1.7-1.85c6.16-4.79,9.16-8.32,10.37-10L133,86.3Z"/><path class="cls-13" d="M235.05,206.93a60.46,60.46,0,0,1-5.24,33.76c-8.28,17.79-22.85,54.59-24.78,65s-17.47,12.13-28,.45-19.72-70.41-19.72-70.41S222.51,198.32,235.05,206.93Z"/><path class="cls-14" d="M171,325.72s-.51,11.52,0,18c0,0,8.77,1.86,14.28,0s9.52-18,9.52-18S177.26,325.84,171,325.72Z"/><path class="cls-50" d="M150.17,217.14s1.21,17.67,3.55,35.15,16.24,51.23,16.65,57.56,0,15.69,0,15.69,15.38,4.68,22.21-1.79a47.78,47.78,0,0,1,2-9.91c1.51-4.27-4.82-15.31-7.57-30.86s-3.48-26.5-3.48-26.5Z"/><path class="cls-51" d="M180.72,327.82s-3.6,11.12-3.7,20.48c0,0,2.39,3.3,11.66,1.92s13.76-10,15.14-13.49,1.68-12.4,1.68-12.4S197.72,330.65,180.72,327.82Z"/><path class="cls-17" d="M179.93,330.52s-.64,2.53,7.54,4.61,17.87-7.95,17.87-7.95l.16-2.85-24.78,3.49Z"/><path class="cls-52" d="M228.5,244.35c-2.93,6.24-6.24,25.69-8.63,33s-7.61,13.16-9.18,18.12-.17,23.15-1.19,25.45-14.22,9.8-19.35,10.46-9.82-3.95-9.82-3.95c.55-3.3,2.38-8.44,3.85-14.69s1.47-13.95,2.21-17.7,6.42-33.7,6.42-33.7-33.87-17.07-38-24.92-5.23-20.09-4.55-26,1.8-8.95,5.65-18c1-2.31,2.07-4.88,3.13-7.41,3.12-7.43,6.13-14.62,6.13-14.62,29.36-8.61,45.18-46.24,45.18-46.24S233.63,186,234.92,201C236,213.34,231.44,238.11,228.5,244.35Z"/><path class="cls-53" d="M164.53,172.26s21.06,1.29,35.55,0S219.88,145,219.88,145l-6.76-18.45Z"/><path class="cls-54" d="M228.5,244.35c-2.93,6.24-6.24,25.69-8.63,33s-7.61,13.16-9.18,18.12-.17,23.15-1.19,25.45-14.22,9.8-19.35,10.46-9.82-3.95-9.82-3.95c.55-3.3,2.38-8.44,3.85-14.69s1.47-13.95,2.21-17.7c0,0,24.3.43,29.87-17.33s9.79-39.16,9.42-43.56-1.4-9-15.25-6.38-25.65,13.38-25.65,13.38c1.7-10.64,21.51-46.88,21.51-46.88-22.58,5-47.24-9.3-47.24-9.3,3.12-7.43,6.13-14.62,6.13-14.62,29.36-8.61,45.18-46.24,45.18-46.24S233.63,186,234.92,201C236,213.34,231.44,238.11,228.5,244.35Z"/><path class="cls-55" d="M197.19,163.66c-9.45,5.85-27.64,6.85-32.66,8.6s-14.09,10.51-19,11.7a23.12,23.12,0,0,1-10.37-.4s-6.2.92-8.22,0-13.25-11.75-13.76-21c-.45-8.22,10.35-16.28,10.82-20.25s-3.36-19.48-2.45-28.93,14-28.73,32.9-34.41c25.78-7.71,51,1.22,56.87,24.17S208,157,197.19,163.66Z"/><path class="cls-56" d="M184.78,241.19s20.58-19.34,48.12-14.36c0,0,2.71-11.16,2.54-14.72s-12-.49-12-.49S189.44,229.93,184.78,241.19Z"/><path class="cls-57" d="M197.19,163.66c-9.45,5.85-27.64,6.85-32.66,8.6s-14.09,10.51-19,11.7a23.12,23.12,0,0,1-10.37-.4s-6.2.92-8.22,0c17.14-1.62,24.46-11.68,28.22-14.22s29.89.41,35.21-7.77,10.2-33.39-1.37-44.29-44.15-13.1-54.5-11.56c-7.86,1.17-13,7.69-13,7.69.92-9.43,14-28.73,32.9-34.41,25.78-7.71,51,1.22,56.87,24.17S208,157,197.19,163.66Z"/><path class="cls-58" d="M157.14,80.22s-5.93,18.13-21.31,16.44c0,0-7.68-7.68-7.92-21.87V72.91s-10.35-5.32-9.6-28.46c0,0-11.57-21-11.41-44.45l.23.16c1.74,1.13,13.11,9.05,14.24,21,0,0,19.19,8.37,16.58,28.48C138,49.63,155.16,64,157.14,80.22Z"/><path class="cls-59" d="M157.14,80.22s-5.93,18.13-21.31,16.44c0,0,15.91-14.89,13.69-26.48s-10-14.82-12.88-13.19-8.73,17.8-8.73,17.8V72.91s8.73-20.79,6.6-30.29-10.1-17.24-12.23-15.38-3.74,15.35-4,17c.19-2.1,1.91-22-.06-29.71-1.88-7.41-9.69-13.35-11.14-14.4,1.74,1.13,13.11,9.05,14.24,21,0,0,19.19,8.37,16.58,28.48C138,49.63,155.16,64,157.14,80.22Z"/><path class="cls-60" d="M184.77,85.35s2.61-1.36,5.29-7.62S206,55.32,223.33,54.05c0,0-3.3,20.42-6,31.27s-13.51,17-17.3,17.44S183.69,102.81,184.77,85.35Z"/><path class="cls-61" d="M200.08,103.83c-13.4,5.79-43.55-2.58-46.7-13a49.3,49.3,0,0,1-1.64-9c-1.11-11.08.13-25.07,5.4-28.34,6.91-4.25,15.73-3.24,15.73-3.24,8,9.38,16.88,18.3,17.84,19.28-1-.83-8.82-7.5-9.82-7.36s-8.37,8.07-2.28,24.67S200.08,103.83,200.08,103.83Z"/><path class="cls-62" d="M193.43,72.25s-6.75-7.09-12.84-12.42-13,23.66,4.18,37c0,0-5.3-22.17-1.08-26.14s8.56,3.26,8.56,3.26Z"/><path class="cls-63" d="M127.93,79.87s-1.19,2.72-14.8,5.46S99,98,100.51,106.41c0,0,1.82-10.2,10.12-14.38S126.49,86,127.93,79.87Z"/><path class="cls-64" d="M217.37,221.05l-.4.15a64.78,64.78,0,0,0-10.17,4.26,16.44,16.44,0,0,1,1.78-2.34l0,0a37.27,37.27,0,0,1,3-3.08,58.91,58.91,0,0,1,6.83-5.31q2.19-1.51,4.92-3.08a28.22,28.22,0,0,0,7.2-6.14c6.87-8,10.14-18.66,10.73-20.73.07-.23.1-.36.1-.36s1.11,8.81,3.39,19.77C246.59,212.58,230.55,216.5,217.37,221.05Z"/><path class="cls-65" d="M193.43,72.25s-5.57-5.69-9.45-5.69c-5.25,0-.41,24.45-.41,24.45S188.76,78.79,193.43,72.25Z"/><path class="cls-66" d="M241.35,184.75c-.82,12.65-6.72,24.76-22.59,31.9-2.51,1.12-4.87,2.23-7.09,3.36-17,8.48-25.73,16.6-28,23.77a.15.15,0,0,0,0,.06,57.48,57.48,0,0,1,7.05-25.57c4.49-7.94,14-15.54,21.44-24.22,4.34-5.06,7.93-10.51,9.31-16.58a65,65,0,0,0,1.65-13.07,53.16,53.16,0,0,0-.77-10.76c0-.18-.06-.34-.09-.5a29.9,29.9,0,0,0-.79-3.28l1.56-14.26s0,0,0,0c.65.82,14.37,18.5,17.38,35.15A57.46,57.46,0,0,1,241.35,184.75Z"/><path class="cls-67" d="M214,175.58s-2.74,14-1.38,24.62-2.14,14.92-2.14,14.92,25.42-34.5,12.62-67.31C223.05,147.81,223,160.7,214,175.58Z"/><path class="cls-68" d="M223.05,147.82v.11c-.2,1.69-.44,3.44-.77,5.21a68,68,0,0,1-5.36,17c-.06.14-.12.27-.19.4-.37.75-.77,1.53-1.19,2.3-.26.45-.51.91-.77,1.38s-.42.74-.64,1.11h0l-.16.26a38.62,38.62,0,0,1-13.77,13.61s-.05,0-.07,0h0c.42-.9,15.07-31.94,13-51.14-.55-5.1-1.17-10.21-1.78-15l-.15-1.06c-1.46-11.25-2.89-20.38-3.24-22.58l-.08-.5,2.63-2.2s6.22,25.84,11,33.57a14.11,14.11,0,0,1,1.57,5.27A52.07,52.07,0,0,1,223.05,147.82Z"/><path class="cls-69" d="M156.09,144.51a27.87,27.87,0,0,0,14.6.48c8.23-1.88,9.84-11,9.84-11A66.83,66.83,0,0,1,156.09,144.51Z"/><path class="cls-69" d="M151.36,129a17.82,17.82,0,0,1,7.31-10.15c6-4,19.64.15,22,8.85C180.67,127.65,161.21,125.8,151.36,129Z"/><path class="cls-70" d="M153,143c1.78,2,8.53,2.91,16,.71s10.12-6.32,11-8.11.83-7.2.61-8-4.95-5.91-12-6.54c-5.95-.54-14.85,1.75-17.28,7.84C150,132.33,151.51,141.31,153,143Z"/><circle class="cls-71" cx="168.57" cy="131.6" r="11.18" transform="translate(-43.68 157.74) rotate(-45)"/><circle class="cls-72" cx="168.95" cy="131.6" r="7.95" transform="translate(-37.73 75.53) rotate(-22.74)"/><path class="cls-73" d="M151,130.35s1.2-6.12,12.12-7.87a20.72,20.72,0,0,1,17.54,5.17,17.51,17.51,0,0,0,7.46-5.4s-5.17,2.62-8.45,1.67a24.21,24.21,0,0,0-17.06-3.5A14.71,14.71,0,0,0,151,130.35Z"/><path class="cls-74" d="M151.74,139.84s.13,4.9,1,5.15a48.55,48.55,0,0,0,5.77.16S153.14,144.64,151.74,139.84Z"/><path class="cls-25" d="M159.2,135a1.28,1.28,0,1,1-1.27-1.28A1.28,1.28,0,0,1,159.2,135Z"/><path class="cls-75" d="M153.07,104.26c-2,.15-2.84,3.87-.35,5.09s12.33-.08,14.81,0,5.86,1,6.39.52S163.49,103.45,153.07,104.26Z"/><path class="cls-76" d="M126.9,183.55A36.55,36.55,0,0,0,141,181.66c7.61-2.57,14.11-12.32,14.11-12.32s-4.87,9-10,12.08C140.55,184.24,128.53,184.74,126.9,183.55Z"/><path class="cls-76" d="M130.49,164.4s-.83-3,.82-4.47,6.06-1.17,6.06-1.17A7.76,7.76,0,0,0,130.49,164.4Z"/><path class="cls-77" d="M130.49,164.4s6.67.79,6.88-5.64C137.37,158.76,130.73,158.83,130.49,164.4Z"/><path class="cls-78" d="M113.13,160.62s12.9-1.76,20.69-5,12.84-11.76,12.61-12.58-21.24-.24-21.24-.24S114.78,153.69,113.13,160.62Z"/><path class="cls-79" d="M157.3,239.46l30.17,45.82-3.92-28.8S164.64,245.76,157.3,239.46Z"/><path class="cls-80" d="M192.81,261.38l2-10s-2.24,3.21-7.36,3c-8.69-.31-28-13.16-28-13.16S178,255,192.81,261.38Z"/><path class="cls-81" d="M200.08,103.83c-13.4,5.79-43.55-2.58-46.7-13a49.3,49.3,0,0,1-1.64-9c2.76,22.41,24,18.56,24,18.56s-8.33-6.7-7.41-21.55a167.38,167.38,0,0,1,4.56-28.59c8,9.38,16.88,18.3,17.84,19.28-1-.83-9.59-9.35-10.58-9.14-2.74.61-8.88,10-2.79,26.65S200.08,103.83,200.08,103.83Z"/><path class="cls-82" d="M219.38,74.15A145.47,145.47,0,0,1,216,89.22c-1.72,5.11-11.7,15-20.59,13.74-7.17-1-7.94-5.15-7.94-5.15s.32-1.42,1-3.65a.39.39,0,0,0,0-.13c1.72-5.75,5.69-16.75,12.28-23.34C210,61.45,219.53,59.53,220.88,60,221.6,60.28,220.67,67.08,219.38,74.15Z"/><path class="cls-83" d="M219.38,74.15c-.66-1.69-2.54-5.9-5.14-6.25C211,67.43,195,76.88,188.51,94c1.72-5.75,5.69-16.75,12.28-23.34C210,61.45,219.53,59.53,220.88,60,221.6,60.28,220.67,67.08,219.38,74.15Z"/><path class="cls-84" d="M217.37,221.05c4.66-1.7,23.26-8.72,24.88-12.28s.61-8.27-.4-8.37-5.24,7.67-13.81,11.83-19.42,10.86-19.42,10.86a37.27,37.27,0,0,1,3-3.08c-17,8.48-25.73,16.6-28,23.77.27-1.23,4.88-20.88,11-22.78,4.18-1.28,14.9-2.65,23.8-6.3,4.5-1.84,8.53-4.29,11-7.6q.57-.75,1.11-1.62c6.68-10.61,10-32,5.69-32-4.55.08-10.43,13.4-10.43,13.4A77.13,77.13,0,0,1,210.54,215h0s0,0-.06.07l0,0v0c.11-.21.64-1.27,1.44-3a.21.21,0,0,1,0-.1,189.27,189.27,0,0,0,9.16-24.23c4.37-14.79,4.37-23.67,2-23.34-2,.28-7.57,8.68-8.9,10.72-.05.07-.08.13-.11.18h0l-.16.26a34.6,34.6,0,0,1-13.66,13.55l-.11.06s-.05,0-.07,0c12.12-9.28,22.34-30.3,21-44.94s-9.78-21.16-9.78-21.16l-.15-1.06L208,100l-.16-1,2.63-2.2s6.22,25.84,11,33.57a14.11,14.11,0,0,1,1.57,5.27c.65.82,14.37,18.5,17.38,35.15a57.46,57.46,0,0,1,.91,14c.07-.23.1-.36.1-.36s1.11,8.81,3.39,19.77C246.59,212.58,230.55,216.5,217.37,221.05Z"/><path class="cls-85" d="M216.14,117s3.43,11.35,14.84,16.53,11.42,14.61-3.19,17.5-27.71,17.51-27.71,17.51,6.2-13.79,15.45-20.72c6.74-5.05,15.23-7.22,14.16-10.56C228.81,134.49,219,135.17,216.14,117Z"/><path class="cls-86" d="M173.14,150.65c-1.88-1.83,9.17-11.92,13-11s1.89,9.21-2.58,11S174.54,152,173.14,150.65Z"/><path class="cls-25" d="M159.45,189.22s-7.33,13.47-6.06,28.75,13.93,25.81,13.93,25.81a24.63,24.63,0,0,1-15.18-18C149.29,211.87,153.36,199.14,159.45,189.22Z"/><path class="cls-26" d="M216.18,282.24s-5.69,7.25-7.25,11.66-.46,18.85-1.19,24.13-13.86,11.1-13.86,11.1,9.27-5.23,10.19-13.67-1-16.63,1.43-21.56S216.18,282.24,216.18,282.24Z"/><path class="cls-26" d="M155.35,252.24s-.42,5.92,8.12,30,9.3,31.52,8.91,41.43a43.92,43.92,0,0,0,2.14-20.51C172.87,292.24,162.14,279.12,155.35,252.24Z"/><path class="cls-26" d="M91,225.78s-14.69.57-22.47,9.19S56.84,257.4,56.84,257.4,64,242.47,72.67,234.69A36.75,36.75,0,0,1,91,225.78Z"/><path class="cls-26" d="M92.13,220.83s13.76-1.26,22.66-8.6,12.85-21.65,12.85-21.65-8.26,12-17.76,19A150,150,0,0,1,92.13,220.83Z"/><path class="cls-26" d="M121.51,31.39a183.78,183.78,0,0,0,0,18.69C122,60.66,127.18,71,127.18,71a30.08,30.08,0,0,1-8-19.82C119.07,39.06,121.51,31.39,121.51,31.39Z"/><path class="cls-26" d="M107.13.16s1,26.36,11.2,44.11C118.33,44.27,112.73,13.57,107.13.16Z"/><path class="cls-26" d="M134.56,63.13s-4.18,8.3-4.95,13.86,3.23,13,3.23,13A82.7,82.7,0,0,1,134.56,63.13Z"/><path class="cls-26" d="M163.12,51.92s-4.92.84-7.5,4.54-7.05,25.41,1.52,36.68a51.28,51.28,0,0,1-1.52-26.58C158.81,52.53,163.12,51.92,163.12,51.92Z"/><path class="cls-26" d="M121.51,89.08s-4.33.77-5.14,6.33,2.57,12.18,2.57,12.18A26.67,26.67,0,0,1,121.51,89.08Z"/><path class="cls-26" d="M123.18,114.25a63.54,63.54,0,0,0,0,8.87c.33,5.62,2.4,17.82,2,19.65s-10.3,12.1-11.27,17.85,10.14,18.58,10.14,18.58S116.81,166,118,159.75s10.46-13.49,10.83-17.25S122.86,128.2,123.18,114.25Z"/><path class="cls-27" d="M177.92,347.48s9.82,1.83,16-1.93,9.73-12,9.73-12-1.88,9.82-10.19,14.73C186.39,352.42,177.92,347.48,177.92,347.48Z"/><path class="cls-73" d="M176.91,124.9a14.1,14.1,0,0,0,7.79-5.82,37.86,37.86,0,0,1-10.76,4.44Z"/><path class="cls-26" d="M213.12,215.6s11.82-7.12,18-17.73,7.15-19.27,7.15-19.27S237.12,193.78,232,203,213.12,215.6,213.12,215.6Z"/><circle class="cls-87" cx="197.42" cy="124.9" r="8.77" transform="translate(46 302.8) rotate(-81.92)"/><path class="cls-25" d="M198.7,124.9a1.64,1.64,0,1,1-1.64-1.64A1.63,1.63,0,0,1,198.7,124.9Z"/><circle class="cls-88" cx="165.83" cy="201.26" r="8.77"/><path class="cls-25" d="M167.11,201.26a1.64,1.64,0,1,1-1.64-1.64A1.63,1.63,0,0,1,167.11,201.26Z"/><path class="cls-89" d="M83.5,245.74a6.3,6.3,0,1,1-6.3-6.3A6.3,6.3,0,0,1,83.5,245.74Z"/><path class="cls-25" d="M78.12,245.74a1.18,1.18,0,1,1-1.18-1.18A1.18,1.18,0,0,1,78.12,245.74Z"/><circle class="cls-90" cx="98.14" cy="228.94" r="16.66"/><circle class="cls-7" cx="97.46" cy="228.94" r="3.11"/><path class="cls-91" d="M205.78,135.6a5.7,5.7,0,1,1-5.7-5.7A5.7,5.7,0,0,1,205.78,135.6Z"/><path class="cls-25" d="M200.91,135.6a1.07,1.07,0,1,1-1.06-1.06A1.06,1.06,0,0,1,200.91,135.6Z"/><path class="cls-92" d="M201.5,232.06a10.24,10.24,0,1,1-10.24-10.25A10.23,10.23,0,0,1,201.5,232.06Z"/><path class="cls-25" d="M192.76,232.06a1.92,1.92,0,1,1-1.91-1.92A1.91,1.91,0,0,1,192.76,232.06Z"/><path class="cls-93" d="M223,215.6a10.71,10.71,0,1,1-10.7-10.7A10.7,10.7,0,0,1,223,215.6Z"/><path class="cls-25" d="M213.86,215.6a2,2,0,1,1-2-2A2,2,0,0,1,213.86,215.6Z"/><circle class="cls-94" cx="161" cy="54.05" r="10.71" transform="translate(-8.83 53.91) rotate(-18.51)"/><path class="cls-25" d="M162.57,54.05a2,2,0,1,1-2-2A2,2,0,0,1,162.57,54.05Z"/><circle class="cls-95" cx="163.12" cy="89.08" r="10.71" transform="translate(38.85 227.28) rotate(-76.68)"/><path class="cls-25" d="M164.69,89.08a2,2,0,1,1-2-2A2,2,0,0,1,164.69,89.08Z"/><path class="cls-96" d="M240.63,195.26a5.71,5.71,0,1,1-5.71-5.7A5.71,5.71,0,0,1,240.63,195.26Z"/><path class="cls-25" d="M235.76,195.26a1.07,1.07,0,1,1-1.07-1.07A1.06,1.06,0,0,1,235.76,195.26Z"/><path class="cls-97" d="M201.58,220.83a4.17,4.17,0,1,1-4.16-4.16A4.17,4.17,0,0,1,201.58,220.83Z"/><path class="cls-25" d="M198,220.83a.78.78,0,1,1-.78-.78A.78.78,0,0,1,198,220.83Z"/><path class="cls-98" d="M207.9,110a3.08,3.08,0,1,1-3.08-3.08A3.08,3.08,0,0,1,207.9,110Z"/><path class="cls-25" d="M205.27,110a.58.58,0,1,1-.57-.58A.58.58,0,0,1,205.27,110Z"/><path class="cls-25" d="M119.41,44.27s-.57,8.95.4,12.47C119.81,56.74,124.18,52.74,119.41,44.27Z"/><path class="cls-25" d="M129.57,77.35s.45-5.09,2.57-7.28C132.14,70.07,133.75,76.59,129.57,77.35Z"/><path class="cls-25" d="M108,.55s4,7.59,4.6,14.32a35.56,35.56,0,0,1-.63,11.27S107.07,13.06,108,.55Z"/><path class="cls-27" d="M162.56,124.15l.56,5.75a30,30,0,0,0,13.75,2.53l1-5.89S172.41,121,162.56,124.15Z"/><path class="cls-99" d="M362.93,270h0l.28.15c1.05.56,2.12,1.07,3.19,1.52v0a61.85,61.85,0,0,0,19.21,4.45s-10.4-4.19-15-18.53h0c-3.66-17.25-2.78-35.72,1.54-55.5s-9.25-21-20.51-22.41c-5.9-.73-12.55-5.65-17.53-10.18l-.05-.06a20,20,0,0,0-4.64-4.53s0,0-.05,0h0c-1.84-1.92-2.95-3.25-2.95-3.25s.78,1.05,2,2.65a13.76,13.76,0,0,0-1.27-.64h0a14.13,14.13,0,0,0-3.92-2.29h0c-6.83-5.29-12.82-4.13-12.82-4.13s-9.12,2.67-13.22,9.37a10.69,10.69,0,0,0-1.07,2.31,7.57,7.57,0,0,0-.32,3.81c0,.22.09.44.15.64s0,.14.05.22.09.29.15.43a8.6,8.6,0,0,0,1.67,2.72,74.83,74.83,0,0,0-15.47.75c-1,.15-2,.32-3.08.49l-.41.08c-1,.18-2,.37-3.07.58l-.2,0c-10.27,2.07-20.72,5.17-33.93,6.71-.09-.63-.13-1-.13-1s0,.13-.1.36a57.46,57.46,0,0,0-.91-14c-1.32-7.31-4.71-14.82-8.15-21,10-3.77,8.78-11.67-1.31-16.24C219.57,128.34,216.14,117,216.14,117h0c-3.08-9.64-5.63-20.21-5.63-20.21l-.43.36a28.55,28.55,0,0,0,2-2.07A18.18,18.18,0,0,0,216,89.24a20.65,20.65,0,0,0,1.38-3.92c2.65-10.85,6-31.27,6-31.27-13.41,1-24.38,10.87-29.9,18.2h0s-1.69-1.78-4.16-4.23c-3-3.07-10-10.3-16.4-17.83,0,0-.74-.08-1.93-.1a10.7,10.7,0,1,0-18.12,10.85,40.12,40.12,0,0,0-.95,5.07A72.19,72.19,0,0,0,138,49.63c2.61-20.11-16.58-28.48-16.58-28.48-1-10.53-10-17.93-13.24-20.3L108,.55V.74c-.36-.26-.66-.46-.84-.58L106.9,0c-.09,13.27,3.58,25.75,6.78,34.09a69.48,69.48,0,0,0,3,7.09c1,2.09,1.62,3.27,1.62,3.27-.75,23.14,9.6,28.46,9.6,28.46v1.88a39,39,0,0,0,.36,4.62c-.19.26-.44.57-.72.9-.93.88-4.1,2.94-14.42,5C99.52,88.07,99,98,100.51,106.41c0,0,1.82-10.2,10.12-14.38,3.33-1.68,6.53-3,9.27-4.34-.58.48-1.18,1-1.83,1.47a7.22,7.22,0,0,0-1.7,1.85c-4.74,7.25,3.91,21.36,5,23.06a.64.64,0,0,1,.06.11l0,.06c-.64,9.5,2.93,24.26,2.5,28.1-.41,3.47-8.75,10.09-10.51,17.2-.12.37-.24.73-.32,1.08l.13,0a9.47,9.47,0,0,0-.12,2c.37,6.59,6.2,14,10.24,18a43.86,43.86,0,0,0-6.68,2.19h0a30.38,30.38,0,0,0-9.58,6.31c-7.65,7.55-11.5,17-13.39,23.79A16.66,16.66,0,0,0,81.8,225.68l-2.13,1.15,0,0h0l-.08,0h-.05c-24.23,11-23.85,39.63-23.85,39.63a22.58,22.58,0,0,1,2.66-6.62c0,.11,0,.23-.06.35-.22,1.26-.38,2.52-.48,3.77l0,0a67,67,0,0,0,1.94,21.21s.78-12.09,13.91-21.69l0,0c16.44-9.59,35.69-14.94,57.45-17.2s16.79-15.23,14.4-27.25,7.93-24.81,7.93-24.81l-.17.14a18,18,0,0,1,2.7-2l1.28-3,0,0,1.83-4.34c-1.06,2.53-2.15,5.1-3.13,7.41-3.85,9.08-4.95,12.11-5.65,18a45.49,45.49,0,0,0,.06,8.87c.4,5.24,1.54,19.16,3.39,33,2.34,17.48,16.24,51.23,16.65,57.56s0,15.69,0,15.69l.66.18h0s-.51,11.52,0,18a44.92,44.92,0,0,0,6.21.77c-.12,1.28-.2,2.56-.22,3.82,0,0,2.39,3.3,11.66,1.92s13.76-10,15.14-13.49,1.68-12.4,1.68-12.4h0c2.13-1.4,3.69-2.66,4-3.38,1-2.3-.36-20.5,1.19-25.45s6.8-10.78,9.18-18.12c.66-2,1.4-5,2.17-8.37a86,86,0,0,0,16.61,1.17c10.5-.24,21.6-2.76,30.85-5.48,4.31,16.65,13,38.57,13.35,43.38.38,5.86,0,14.52,0,14.52l.61.18h0s-.48,10.66,0,16.65a42.42,42.42,0,0,0,5.75.71c-.12,1.19-.19,2.38-.2,3.53,0,0,2.21,3.06,10.79,1.79s12.74-9.26,14-12.49,1.55-11.48,1.55-11.48h0c2-1.29,3.42-2.46,3.72-3.13.94-2.12-.34-19,1.1-23.56s6.3-10,8.5-16.78c1.56-4.8,3.54-15.14,5.53-22.86,1.31-3,2.56-5.81,3.68-8.21.19-.42.38-.84.56-1.26a15,15,0,0,0,2.61,1.45c.3,1.11.63,2.19,1,3.21C348.58,267.8,367.12,274,368,274.25A21.31,21.31,0,0,1,362.93,270Zm-42-88.36,0,0-.33-.14Zm-10.26-3.18.21.05c-1.06-.24-2.15-.45-3.26-.65C308.62,178.06,309.64,178.26,310.63,178.48Zm1.5.35h0l-.44-.11Zm-5.42-1.1c-1.06-.17-2.15-.33-3.26-.46C304.56,177.4,305.65,177.55,306.71,177.73Zm55.74,9.56c6.26,2.8,6,11.54,4.57,21.61-1-8.51-3.33-15.39-8.76-18.53a121.45,121.45,0,0,1-10.93-7.11C351.63,184.67,356.41,184.58,362.45,187.29Zm-60.81-10.23.37,0c-1.25-.13-2.5-.26-3.81-.35C299.38,176.83,300.52,176.93,301.64,177.06ZM127,189.39h0c-6.43,6.88-13.7,17.19-22.75,23l-1,.67a16.42,16.42,0,0,0-5.08-.8,17.08,17.08,0,0,0-2.59.22c2.44-5.08,6.13-11.35,11.24-16.1,4.76-4.46,12.89-6.59,20.91-7.73C127.46,188.92,127.24,189.15,127,189.39Zm102.66-52.14c.44,1.37-.75,2.54-2.74,3.8-2.12-3.15-3.68-5.17-3.89-5.43a17.32,17.32,0,0,0-1.09-4.33C225.47,135.18,229.17,135.61,229.69,137.25ZM190.06,77.73c-.23.54-.46,1-.69,1.51l-.13,0c.3-.56.61-1.12.92-1.68ZM143,231.45c-.76,7.37-9.81,10.06-20.62,12,8.39-3.93,14.67-8.62,16-15.25a132.44,132.44,0,0,1,3.6-13.62C142,219.47,143.72,224.33,143,231.45Zm5.71-32.17a37.59,37.59,0,0,1,3.37-3.76A39.6,39.6,0,0,0,148.69,199.28Zm-.69.89c.14-.19.27-.36.41-.53C148.27,199.81,148.14,200,148,200.17Z"/><path class="cls-100" d="M362.93,270h0l.28.15c1.05.56,2.12,1.07,3.19,1.52v0a61.85,61.85,0,0,0,19.21,4.45s-10.4-4.19-15-18.53h0c-3.66-17.25-2.78-35.72,1.54-55.5s-9.25-21-20.51-22.41c-5.9-.73-12.55-5.65-17.53-10.18l-.05-.06a20,20,0,0,0-4.64-4.53s0,0-.05,0h0c-1.84-1.92-2.95-3.25-2.95-3.25s.78,1.05,2,2.65a13.76,13.76,0,0,0-1.27-.64h0a14.13,14.13,0,0,0-3.92-2.29h0c-6.83-5.29-12.82-4.13-12.82-4.13s-9.12,2.67-13.22,9.37a10.69,10.69,0,0,0-1.07,2.31,7.57,7.57,0,0,0-.32,3.81c0,.22.09.44.15.64s0,.14.05.22.09.29.15.43a8.6,8.6,0,0,0,1.67,2.72,74.83,74.83,0,0,0-15.47.75c-1,.15-2,.32-3.08.49l-.41.08c-1,.18-2,.37-3.07.58l-.2,0c-10.27,2.07-20.72,5.17-33.93,6.71-.09-.63-.13-1-.13-1s0,.13-.1.36a57.46,57.46,0,0,0-.91-14c-1.32-7.31-4.71-14.82-8.15-21,10-3.77,8.78-11.67-1.31-16.24C219.57,128.34,216.14,117,216.14,117h0c-3.08-9.64-5.63-20.21-5.63-20.21l-.43.36a28.55,28.55,0,0,0,2-2.07A18.18,18.18,0,0,0,216,89.24a20.65,20.65,0,0,0,1.38-3.92c2.65-10.85,6-31.27,6-31.27-13.41,1-24.38,10.87-29.9,18.2h0s-1.69-1.78-4.16-4.23c-3-3.07-10-10.3-16.4-17.83,0,0-.74-.08-1.93-.1a10.7,10.7,0,1,0-18.12,10.85,40.12,40.12,0,0,0-.95,5.07A72.19,72.19,0,0,0,138,49.63c2.61-20.11-16.58-28.48-16.58-28.48-1-10.53-10-17.93-13.24-20.3L108,.55V.74c-.36-.26-.66-.46-.84-.58L106.9,0c-.09,13.27,3.58,25.75,6.78,34.09a69.48,69.48,0,0,0,3,7.09c1,2.09,1.62,3.27,1.62,3.27-.75,23.14,9.6,28.46,9.6,28.46v1.88a39,39,0,0,0,.36,4.62c-.19.26-.44.57-.72.9-.93.88-4.1,2.94-14.42,5C99.52,88.07,99,98,100.51,106.41c0,0,1.82-10.2,10.12-14.38,3.33-1.68,6.53-3,9.27-4.34-.58.48-1.18,1-1.83,1.47a7.22,7.22,0,0,0-1.7,1.85c-4.74,7.25,3.91,21.36,5,23.06a.64.64,0,0,1,.06.11l0,.06c-.64,9.5,2.93,24.26,2.5,28.1-.41,3.47-8.75,10.09-10.51,17.2-.12.37-.24.73-.32,1.08l.13,0a9.47,9.47,0,0,0-.12,2c.37,6.59,6.2,14,10.24,18a43.86,43.86,0,0,0-6.68,2.19h0a30.38,30.38,0,0,0-9.58,6.31c-7.65,7.55-11.5,17-13.39,23.79A16.66,16.66,0,0,0,81.8,225.68l-2.13,1.15,0,0h0l-.08,0h-.05c-24.23,11-23.85,39.63-23.85,39.63a22.58,22.58,0,0,1,2.66-6.62c0,.11,0,.23-.06.35-.22,1.26-.38,2.52-.48,3.77l0,0a67,67,0,0,0,1.94,21.21s.78-12.09,13.91-21.69l0,0c16.44-9.59,35.69-14.94,57.45-17.2s16.79-15.23,14.4-27.25,7.93-24.81,7.93-24.81l-.17.14a18,18,0,0,1,2.7-2l1.28-3,0,0,1.83-4.34c-1.06,2.53-2.15,5.1-3.13,7.41-3.85,9.08-4.95,12.11-5.65,18a45.49,45.49,0,0,0,.06,8.87c.4,5.24,1.54,19.16,3.39,33,2.34,17.48,16.24,51.23,16.65,57.56s0,15.69,0,15.69l.66.18h0s-.51,11.52,0,18a44.92,44.92,0,0,0,6.21.77c-.12,1.28-.2,2.56-.22,3.82,0,0,2.39,3.3,11.66,1.92s13.76-10,15.14-13.49,1.68-12.4,1.68-12.4h0c2.13-1.4,3.69-2.66,4-3.38,1-2.3-.36-20.5,1.19-25.45s6.8-10.78,9.18-18.12c.66-2,1.4-5,2.17-8.37a86,86,0,0,0,16.61,1.17c10.5-.24,21.6-2.76,30.85-5.48,4.31,16.65,13,38.57,13.35,43.38.38,5.86,0,14.52,0,14.52l.61.18h0s-.48,10.66,0,16.65a42.42,42.42,0,0,0,5.75.71c-.12,1.19-.19,2.38-.2,3.53,0,0,2.21,3.06,10.79,1.79s12.74-9.26,14-12.49,1.55-11.48,1.55-11.48h0c2-1.29,3.42-2.46,3.72-3.13.94-2.12-.34-19,1.1-23.56s6.3-10,8.5-16.78c1.56-4.8,3.54-15.14,5.53-22.86,1.31-3,2.56-5.81,3.68-8.21.19-.42.38-.84.56-1.26a15,15,0,0,0,2.61,1.45c.3,1.11.63,2.19,1,3.21C348.58,267.8,367.12,274,368,274.25A21.31,21.31,0,0,1,362.93,270Zm-42-88.36,0,0-.33-.14Zm-10.26-3.18.21.05c-1.06-.24-2.15-.45-3.26-.65C308.62,178.06,309.64,178.26,310.63,178.48Zm1.5.35h0l-.44-.11Zm-5.42-1.1c-1.06-.17-2.15-.33-3.26-.46C304.56,177.4,305.65,177.55,306.71,177.73Zm55.74,9.56c6.26,2.8,6,11.54,4.57,21.61-1-8.51-3.33-15.39-8.76-18.53a121.45,121.45,0,0,1-10.93-7.11C351.63,184.67,356.41,184.58,362.45,187.29Zm-60.81-10.23.37,0c-1.25-.13-2.5-.26-3.81-.35C299.38,176.83,300.52,176.93,301.64,177.06ZM127,189.39h0c-6.43,6.88-13.7,17.19-22.75,23l-1,.67a16.42,16.42,0,0,0-5.08-.8,17.08,17.08,0,0,0-2.59.22c2.44-5.08,6.13-11.35,11.24-16.1,4.76-4.46,12.89-6.59,20.91-7.73C127.46,188.92,127.24,189.15,127,189.39Zm102.66-52.14c.44,1.37-.75,2.54-2.74,3.8-2.12-3.15-3.68-5.17-3.89-5.43a17.32,17.32,0,0,0-1.09-4.33C225.47,135.18,229.17,135.61,229.69,137.25ZM190.06,77.73c-.23.54-.46,1-.69,1.51l-.13,0c.3-.56.61-1.12.92-1.68ZM143,231.45c-.76,7.37-9.81,10.06-20.62,12,8.39-3.93,14.67-8.62,16-15.25a132.44,132.44,0,0,1,3.6-13.62C142,219.47,143.72,224.33,143,231.45Zm5.71-32.17a37.59,37.59,0,0,1,3.37-3.76A39.6,39.6,0,0,0,148.69,199.28Zm-.69.89c.14-.19.27-.36.41-.53C148.27,199.81,148.14,200,148,200.17Z"/><circle class="cls-7" cx="60.62" cy="246.26" r="28.86" transform="translate(-192.53 261.59) rotate(-79.64)"/><circle class="cls-7" cx="101.36" cy="239.26" r="22.32" transform="translate(-156.86 210.21) rotate(-60.62)"/><circle class="cls-7" cx="397.49" cy="220.05" r="22.32" transform="translate(-49.39 138.1) rotate(-18.58)"/><circle class="cls-7" cx="423.23" cy="237.86" r="19.51" transform="translate(-44.23 368.94) rotate(-45)"/><circle class="cls-7" cx="447.71" cy="236.9" r="15.11" transform="translate(112.85 616.95) rotate(-76.5)"/><circle class="cls-10" cx="126.63" cy="295.68" r="35.61" transform="translate(-193.09 330.93) rotate(-73.11)"/><circle class="cls-7" cx="122.96" cy="299.35" r="35.61" transform="translate(-181.67 190.13) rotate(-47.94)"/><circle class="cls-10" cx="161.41" cy="311.58" r="26.32" transform="translate(-36.44 21.77) rotate(-6.93)"/><circle class="cls-7" cx="158.69" cy="314.3" r="26.32" transform="translate(-119.17 98.06) rotate(-25.32)"/><circle class="cls-10" cx="78.05" cy="227.49" r="26.32" transform="translate(-158.21 182.49) rotate(-60.28)"/><circle class="cls-7" cx="75.33" cy="230.2" r="26.32"/><circle class="cls-10" cx="443.8" cy="300.2" r="26.32" transform="translate(15.11 621.6) rotate(-70.94)"/><circle class="cls-7" cx="441.09" cy="302.91" r="26.32" transform="translate(-53.04 508.23) rotate(-57.04)"/><circle class="cls-10" cx="73.27" cy="316.36" r="26.32" transform="translate(-250.29 288.85) rotate(-72.1)"/><circle class="cls-7" cx="70.56" cy="319.07" r="26.32" transform="translate(-129.67 60.82) rotate(-25.32)"/></g></g></svg>