<svg xmlns="http://www.w3.org/2000/svg" xmlns:xlink="http://www.w3.org/1999/xlink" viewBox="0 0 500 444.87"><defs><style>.cls-1{fill:none;}.cls-2{isolation:isolate;}.cls-3{fill:url(#linear-gradient);}.cls-10,.cls-11,.cls-18,.cls-21,.cls-22,.cls-23,.cls-25,.cls-26,.cls-29,.cls-31,.cls-32,.cls-34,.cls-4,.cls-42,.cls-44,.cls-49,.cls-6,.cls-7,.cls-9{mix-blend-mode:multiply;}.cls-12,.cls-13,.cls-23,.cls-28,.cls-4,.cls-45,.cls-48,.cls-52,.cls-53,.cls-54,.cls-55{opacity:0.72;}.cls-4{fill:url(#linear-gradient-2);}.cls-5{fill:url(#linear-gradient-3);}.cls-10,.cls-11,.cls-18,.cls-21,.cls-22,.cls-25,.cls-26,.cls-29,.cls-33,.cls-34,.cls-41,.cls-44,.cls-49,.cls-6,.cls-7,.cls-9{opacity:0.36;}.cls-6{fill:url(#linear-gradient-4);}.cls-42,.cls-7{fill:#8486ea;}.cls-8{fill:#ae4ff9;}.cls-9{fill:url(#linear-gradient-5);}.cls-10{fill:url(#linear-gradient-6);}.cls-11{fill:url(#linear-gradient-7);}.cls-12,.cls-13,.cls-33,.cls-41,.cls-45,.cls-52,.cls-53,.cls-54,.cls-55,.cls-56,.cls-57,.cls-58,.cls-59,.cls-60,.cls-61,.cls-62,.cls-63,.cls-64,.cls-65,.cls-66,.cls-67,.cls-68,.cls-69,.cls-70,.cls-71,.cls-72,.cls-73,.cls-74,.cls-75,.cls-76,.cls-77,.cls-78,.cls-79,.cls-80{mix-blend-mode:screen;}.cls-12{fill:url(#linear-gradient-8);}.cls-13{fill:url(#linear-gradient-9);}.cls-14,.cls-43{fill:#fff;}.cls-14{opacity:0.76;}.cls-15{fill:url(#linear-gradient-10);}.cls-16{fill:#5e51ff;opacity:0.74;}.cls-16,.cls-28,.cls-48{mix-blend-mode:color-dodge;}.cls-17{fill:url(#linear-gradient-11);}.cls-18{fill:url(#linear-gradient-12);}.cls-19{fill:url(#linear-gradient-13);}.cls-20{fill:url(#linear-gradient-14);}.cls-21{fill:url(#linear-gradient-15);}.cls-22{fill:url(#linear-gradient-16);}.cls-23{fill:url(#linear-gradient-17);}.cls-24{fill:url(#linear-gradient-18);}.cls-25{fill:url(#linear-gradient-19);}.cls-26{fill:url(#linear-gradient-20);}.cls-27{fill:url(#linear-gradient-21);}.cls-28{fill:url(#linear-gradient-22);}.cls-29{fill:url(#linear-gradient-23);}.cls-30{fill:url(#linear-gradient-24);}.cls-31{fill:#c90027;opacity:0.23;}.cls-32{fill:#f01b47;opacity:0.13;}.cls-33{fill:url(#linear-gradient-25);}.cls-34{fill:url(#linear-gradient-26);}.cls-35{fill:#311851;}.cls-36{clip-path:url(#clip-path);}.cls-37{fill:url(#linear-gradient-27);}.cls-38{fill:url(#linear-gradient-28);}.cls-39{fill:url(#linear-gradient-29);}.cls-40{fill:url(#linear-gradient-30);}.cls-41{fill:url(#linear-gradient-31);}.cls-42{opacity:0.63;}.cls-44{fill:#ae009c;}.cls-45{fill:url(#linear-gradient-32);}.cls-46{fill:#c1b7f2;}.cls-47{fill:#9c93ec;opacity:0.46;}.cls-48{fill:url(#linear-gradient-33);}.cls-49{fill:url(#linear-gradient-34);}.cls-50{fill:url(#linear-gradient-35);}.cls-51{fill:url(#linear-gradient-36);}.cls-52{fill:url(#linear-gradient-37);}.cls-53{fill:url(#linear-gradient-38);}.cls-54{fill:url(#linear-gradient-39);}.cls-55{fill:url(#linear-gradient-40);}.cls-56{fill:url(#radial-gradient);}.cls-57{fill:url(#radial-gradient-2);}.cls-58{fill:url(#radial-gradient-3);}.cls-59{fill:url(#radial-gradient-4);}.cls-60{fill:url(#radial-gradient-5);}.cls-61{fill:url(#radial-gradient-6);}.cls-62{fill:url(#radial-gradient-7);}.cls-63{fill:url(#radial-gradient-8);}.cls-64{fill:url(#radial-gradient-9);}.cls-65{fill:url(#radial-gradient-10);}.cls-66{fill:url(#radial-gradient-11);}.cls-67{fill:url(#radial-gradient-12);}.cls-68{fill:url(#radial-gradient-13);}.cls-69{fill:url(#radial-gradient-14);}.cls-70{fill:url(#radial-gradient-15);}.cls-71{fill:url(#radial-gradient-16);}.cls-72{fill:url(#radial-gradient-17);}.cls-73{fill:url(#radial-gradient-18);}.cls-74{fill:url(#radial-gradient-19);}.cls-75{fill:url(#radial-gradient-20);}.cls-76{fill:url(#radial-gradient-21);}.cls-77{fill:url(#radial-gradient-22);}.cls-78{fill:url(#radial-gradient-23);}.cls-79{fill:url(#radial-gradient-24);}.cls-80{fill:url(#radial-gradient-25);}</style><linearGradient id="linear-gradient" x1="205.95" y1="183.99" x2="61.33" y2="328.61" gradientTransform="matrix(-0.78, 0, 0, 1, 489.57, 0)" gradientUnits="userSpaceOnUse"><stop offset="0" stop-color="#ae4ff9"/><stop offset="1" stop-color="#861db3"/></linearGradient><linearGradient id="linear-gradient-2" x1="176.39" y1="246.93" x2="176.39" y2="181.88" gradientTransform="matrix(-0.78, 0, 0, 1, 489.57, 0)" gradientUnits="userSpaceOnUse"><stop offset="0" stop-color="#fff"/><stop offset="1" stop-color="#ae009c"/></linearGradient><linearGradient id="linear-gradient-3" x1="302.14" y1="198.45" x2="559.5" y2="-76.46" gradientTransform="matrix(-0.78, 0, 0, 1, 489.57, 0)" gradientUnits="userSpaceOnUse"><stop offset="0.02" stop-color="#9288ff"/><stop offset="0.08" stop-color="#998ffd"/><stop offset="0.48" stop-color="#beb4f3"/><stop offset="0.8" stop-color="#d5cbed"/><stop offset="1" stop-color="#ddd3eb"/></linearGradient><linearGradient id="linear-gradient-4" x1="25.03" y1="415.03" x2="138.6" y2="373.05" gradientTransform="matrix(-0.78, 0, 0, 1, 489.57, 0)" gradientUnits="userSpaceOnUse"><stop offset="0" stop-color="#fff"/><stop offset="0.15" stop-color="#efeffc"/><stop offset="0.43" stop-color="#c6c7f5"/><stop offset="0.82" stop-color="#8486ea"/></linearGradient><linearGradient id="linear-gradient-5" x1="578.97" y1="286.37" x2="608.91" y2="101.08" gradientTransform="matrix(-0.75, -0.26, -0.21, 0.96, 578.74, 246.67)" gradientUnits="userSpaceOnUse"><stop offset="0" stop-color="#ae009c"/><stop offset="0.12" stop-color="#b71ea7"/><stop offset="0.39" stop-color="#cf69c5"/><stop offset="0.78" stop-color="#f5e1f3"/><stop offset="0.88" stop-color="#fff"/></linearGradient><linearGradient id="linear-gradient-6" x1="627.88" y1="116.87" x2="525.22" y2="269.4" gradientTransform="matrix(-0.75, -0.26, -0.21, 0.96, 578.74, 246.67)" gradientUnits="userSpaceOnUse"><stop offset="0" stop-color="#fff"/><stop offset="0.09" stop-color="#fdf9fd"/><stop offset="0.22" stop-color="#f7e7f6"/><stop offset="0.36" stop-color="#eecaea"/><stop offset="0.52" stop-color="#e1a1db"/><stop offset="0.7" stop-color="#d16dc6"/><stop offset="0.88" stop-color="#bd2eae"/><stop offset="1" stop-color="#ae009c"/></linearGradient><linearGradient id="linear-gradient-7" x1="570.31" y1="166.43" x2="506.59" y2="262.54" gradientTransform="matrix(-0.75, -0.26, -0.21, 0.96, 578.74, 246.67)" gradientUnits="userSpaceOnUse"><stop offset="0" stop-color="#fff"/><stop offset="0.09" stop-color="#fdf9fd"/><stop offset="0.22" stop-color="#f8e8f6"/><stop offset="0.36" stop-color="#efcdeb"/><stop offset="0.52" stop-color="#e3a6dc"/><stop offset="0.68" stop-color="#d375c9"/><stop offset="0.85" stop-color="#c039b2"/><stop offset="1" stop-color="#ae009c"/></linearGradient><linearGradient id="linear-gradient-8" x1="499.86" y1="17.81" x2="555.91" y2="73.86" gradientTransform="matrix(-0.75, -0.26, -0.21, 0.96, 578.74, 246.67)" gradientUnits="userSpaceOnUse"><stop offset="0" stop-color="#ff0"/><stop offset="0.09" stop-color="#dbdb00"/><stop offset="0.32" stop-color="#7e7e00"/><stop offset="0.51" stop-color="#3a3a00"/><stop offset="0.65" stop-color="#101000"/><stop offset="0.72"/></linearGradient><linearGradient id="linear-gradient-9" x1="518.95" y1="-5.46" x2="677.04" y2="152.63" xlink:href="#linear-gradient-8"/><linearGradient id="linear-gradient-10" x1="83.9" y1="459.13" x2="493.23" y2="21.86" xlink:href="#linear-gradient-3"/><linearGradient id="linear-gradient-11" x1="1298.45" y1="-39.82" x2="1383.14" y2="44.86" gradientTransform="matrix(0.78, 0.08, -0.06, 1, -703.14, -54.55)" gradientUnits="userSpaceOnUse"><stop offset="0" stop-color="#ddd3eb"/><stop offset="0.2" stop-color="#d5cbed"/><stop offset="0.52" stop-color="#beb4f3"/><stop offset="0.92" stop-color="#998ffd"/><stop offset="0.98" stop-color="#9288ff"/></linearGradient><linearGradient id="linear-gradient-12" x1="1348.99" y1="-25.22" x2="1322.79" y2="32.14" gradientTransform="matrix(0.78, 0.08, -0.06, 1, -703.14, -54.55)" gradientUnits="userSpaceOnUse"><stop offset="0" stop-color="#8486ea"/><stop offset="1" stop-color="#fff"/></linearGradient><linearGradient id="linear-gradient-13" x1="144.53" y1="441.65" x2="415.47" y2="152.21" gradientTransform="matrix(-0.78, 0, 0, 1, 489.57, 0)" gradientUnits="userSpaceOnUse"><stop offset="0.02" stop-color="#9288ff"/><stop offset="0.65" stop-color="#c6bcf1"/><stop offset="1" stop-color="#ddd3eb"/></linearGradient><linearGradient id="linear-gradient-14" x1="281.44" y1="443.83" x2="611.37" y2="91.39" gradientTransform="matrix(-0.78, 0, 0, 1, 489.57, 0)" gradientUnits="userSpaceOnUse"><stop offset="0.02" stop-color="#9288ff"/><stop offset="0.12" stop-color="#a197fb"/><stop offset="0.33" stop-color="#bbb1f4"/><stop offset="0.54" stop-color="#cec4ef"/><stop offset="0.76" stop-color="#d9cfec"/><stop offset="1" stop-color="#ddd3eb"/></linearGradient><linearGradient id="linear-gradient-15" x1="218.55" y1="719.56" x2="218.55" y2="86.78" gradientTransform="matrix(-0.78, 0, 0, 1, 489.57, 0)" gradientUnits="userSpaceOnUse"><stop offset="0.37" stop-color="#fff"/><stop offset="0.41" stop-color="#f1f1fd"/><stop offset="0.51" stop-color="#cacbf6"/><stop offset="0.62" stop-color="#abadf1"/><stop offset="0.72" stop-color="#9697ed"/><stop offset="0.82" stop-color="#888aeb"/><stop offset="0.91" stop-color="#8486ea"/></linearGradient><linearGradient id="linear-gradient-16" x1="249.15" y1="432.08" x2="249.15" y2="193.02" gradientTransform="matrix(-0.78, 0, 0, 1, 489.57, 0)" gradientUnits="userSpaceOnUse"><stop offset="0" stop-color="#fff"/><stop offset="0.06" stop-color="#f1f1fd"/><stop offset="0.24" stop-color="#cacbf6"/><stop offset="0.42" stop-color="#abadf1"/><stop offset="0.59" stop-color="#9697ed"/><stop offset="0.76" stop-color="#888aeb"/><stop offset="0.91" stop-color="#8486ea"/></linearGradient><linearGradient id="linear-gradient-17" x1="104.83" y1="317.85" x2="104.83" y2="94.36" xlink:href="#linear-gradient-2"/><linearGradient id="linear-gradient-18" x1="1575.61" y1="275.95" x2="1492.26" y2="165.72" gradientTransform="matrix(0.76, -0.22, 0.18, 0.97, -802.78, 188.45)" xlink:href="#linear-gradient-3"/><linearGradient id="linear-gradient-19" x1="1489.32" y1="186.94" x2="1559.7" y2="257.32" gradientTransform="matrix(0.76, -0.22, 0.18, 0.97, -802.78, 188.45)" xlink:href="#linear-gradient-12"/><linearGradient id="linear-gradient-20" x1="64.31" y1="288.47" x2="64.31" y2="87.27" gradientTransform="matrix(-0.78, 0, 0, 1, 489.57, 0)" gradientUnits="userSpaceOnUse"><stop offset="0" stop-color="#fff"/><stop offset="0.4" stop-color="#dd93d5"/><stop offset="0.82" stop-color="#bb2aac"/><stop offset="1" stop-color="#ae009c"/></linearGradient><linearGradient id="linear-gradient-21" x1="1558.13" y1="448.22" x2="1399.46" y2="238.4" gradientTransform="matrix(0.76, -0.22, 0.18, 0.97, -802.78, 188.45)" xlink:href="#linear-gradient-3"/><linearGradient id="linear-gradient-22" x1="1443.24" y1="212.46" x2="1379.94" y2="275.75" gradientTransform="matrix(0.76, -0.22, 0.18, 0.97, -802.78, 188.45)" gradientUnits="userSpaceOnUse"><stop offset="0" stop-color="#5e51ff"/><stop offset="0.12" stop-color="#5146db"/><stop offset="0.45" stop-color="#2f287e"/><stop offset="0.71" stop-color="#15123a"/><stop offset="0.9" stop-color="#060510"/><stop offset="1"/></linearGradient><linearGradient id="linear-gradient-23" x1="1558.16" y1="448.23" x2="1399.46" y2="238.36" gradientTransform="matrix(0.76, -0.22, 0.18, 0.97, -802.78, 188.45)" gradientUnits="userSpaceOnUse"><stop offset="0" stop-color="#fff"/><stop offset="1" stop-color="#8486ea"/></linearGradient><linearGradient id="linear-gradient-24" x1="1372.39" y1="142.29" x2="1468.01" y2="237.92" gradientTransform="matrix(0.76, -0.22, 0.18, 0.97, -802.78, 188.45)" gradientUnits="userSpaceOnUse"><stop offset="0" stop-color="#ffff81"/><stop offset="0.13" stop-color="#fff97c"/><stop offset="0.31" stop-color="#ffe86d"/><stop offset="0.51" stop-color="#ffcc54"/><stop offset="0.73" stop-color="#ffa532"/><stop offset="0.97" stop-color="#ff7306"/><stop offset="1" stop-color="#ff6c00"/></linearGradient><linearGradient id="linear-gradient-25" x1="1398.05" y1="133.07" x2="1415.21" y2="208.84" gradientTransform="matrix(0.76, -0.22, 0.18, 0.97, -802.78, 188.45)" gradientUnits="userSpaceOnUse"><stop offset="0" stop-color="#ffffb1"/><stop offset="0.09" stop-color="#f5f5aa"/><stop offset="0.23" stop-color="#dada97"/><stop offset="0.42" stop-color="#adad78"/><stop offset="0.64" stop-color="#70704e"/><stop offset="0.9" stop-color="#222218"/><stop offset="1"/></linearGradient><linearGradient id="linear-gradient-26" x1="1444.9" y1="281.36" x2="1463.77" y2="330.72" gradientTransform="matrix(0.76, -0.22, 0.18, 1.03, -807.08, 162.17)" xlink:href="#linear-gradient-12"/><clipPath id="clip-path"><path id="SVGID" class="cls-1" d="M330.31,155.07a19.24,19.24,0,0,1-3.82-7.91c-2.08-8.52-1-26.79,11.14-33.63,16.75-9.41,35.4,10.6,35.22,18.33s-11.07,21.59-22.39,26.44C341.25,162.23,334.8,160.42,330.31,155.07Z"/></clipPath><linearGradient id="linear-gradient-27" x1="1457.5" y1="307.65" x2="1429.25" y2="236.17" gradientTransform="matrix(0.76, -0.22, 0.18, 0.97, -802.78, 188.45)" gradientUnits="userSpaceOnUse"><stop offset="0" stop-color="#fff"/><stop offset="0.14" stop-color="#f8f8fc"/><stop offset="0.36" stop-color="#e3e5f2"/><stop offset="0.61" stop-color="#c2c6e3"/><stop offset="0.9" stop-color="#949bcd"/><stop offset="1" stop-color="#838bc5"/></linearGradient><linearGradient id="linear-gradient-28" x1="1320.76" y1="147.96" x2="1320.76" y2="103.51" gradientTransform="matrix(0.83, 0.11, -0.22, 0.91, -731.13, -132.92)" gradientUnits="userSpaceOnUse"><stop offset="0" stop-color="#006cff"/><stop offset="0.05" stop-color="#0063eb"/><stop offset="0.2" stop-color="#0049ae"/><stop offset="0.35" stop-color="#003379"/><stop offset="0.5" stop-color="#00214d"/><stop offset="0.64" stop-color="#00122c"/><stop offset="0.77" stop-color="#000814"/><stop offset="0.9" stop-color="#000205"/><stop offset="1"/></linearGradient><linearGradient id="linear-gradient-29" x1="1320.76" y1="146.25" x2="1320.76" y2="105.21" gradientTransform="matrix(0.83, 0.11, -0.22, 0.91, -731.13, -132.92)" gradientUnits="userSpaceOnUse"><stop offset="0" stop-color="aqua"/><stop offset="0.15" stop-color="#00e9ff"/><stop offset="0.45" stop-color="#00b0ff"/><stop offset="0.78" stop-color="#006cff"/></linearGradient><linearGradient id="linear-gradient-30" x1="1318.53" y1="138.76" x2="1318.53" y2="109.82" xlink:href="#linear-gradient-28"/><linearGradient id="linear-gradient-31" x1="507.28" y1="-1133.86" x2="488.63" y2="-1166.15" gradientTransform="matrix(0.09, 0.99, -0.77, 0.12, -602.12, -212.96)" gradientUnits="userSpaceOnUse"><stop offset="0"/><stop offset="0.1" stop-color="#222218"/><stop offset="0.36" stop-color="#70704e"/><stop offset="0.58" stop-color="#adad78"/><stop offset="0.77" stop-color="#dada97"/><stop offset="0.91" stop-color="#f5f5aa"/><stop offset="1" stop-color="#ffffb1"/></linearGradient><linearGradient id="linear-gradient-32" x1="1435.1" y1="186.94" x2="1461.52" y2="257.73" gradientTransform="matrix(0.76, -0.22, 0.18, 0.97, -802.78, 188.45)" gradientUnits="userSpaceOnUse"><stop offset="0.22" stop-color="#ff0"/><stop offset="0.23" stop-color="#f6f600"/><stop offset="0.34" stop-color="#acac00"/><stop offset="0.44" stop-color="#6f6f00"/><stop offset="0.53" stop-color="#3f3f00"/><stop offset="0.61" stop-color="#1d1d00"/><stop offset="0.68" stop-color="#080800"/><stop offset="0.72"/></linearGradient><linearGradient id="linear-gradient-33" x1="262.4" y1="124.31" x2="284.74" y2="181.55" gradientTransform="matrix(-0.78, 0, 0, 1, 489.57, 0)" xlink:href="#linear-gradient-22"/><linearGradient id="linear-gradient-34" x1="74.63" y1="413.96" x2="263.87" y2="395.04" xlink:href="#linear-gradient-4"/><linearGradient id="linear-gradient-35" x1="309.91" y1="438.73" x2="271.18" y2="398.34" gradientTransform="matrix(-0.78, 0, 0, 1, 489.57, 0)" gradientUnits="userSpaceOnUse"><stop offset="0" stop-color="#ff6c00"/><stop offset="0.24" stop-color="#ff9625"/><stop offset="0.6" stop-color="#ffcf57"/><stop offset="0.86" stop-color="#fff275"/><stop offset="1" stop-color="#ffff81"/></linearGradient><linearGradient id="linear-gradient-36" x1="241.01" y1="399" x2="276.05" y2="395.5" gradientTransform="matrix(-0.78, 0, 0, 1, 489.57, 0)" gradientUnits="userSpaceOnUse"><stop offset="0" stop-color="#ff4a3d"/><stop offset="0.11" stop-color="#ff5240"/><stop offset="0.28" stop-color="#ff6949"/><stop offset="0.5" stop-color="#ff8e57"/><stop offset="0.74" stop-color="#ffc26a"/><stop offset="1" stop-color="#ffff81"/></linearGradient><linearGradient id="linear-gradient-37" x1="107.23" y1="160.26" x2="76.77" y2="190.73" gradientTransform="matrix(-0.78, 0, 0, 1, 489.57, 0)" gradientUnits="userSpaceOnUse"><stop offset="0" stop-color="#ff0"/><stop offset="0.02" stop-color="#f6f600"/><stop offset="0.24" stop-color="#acac00"/><stop offset="0.44" stop-color="#6f6f00"/><stop offset="0.62" stop-color="#3f3f00"/><stop offset="0.78" stop-color="#1d1d00"/><stop offset="0.91" stop-color="#080800"/><stop offset="1"/></linearGradient><linearGradient id="linear-gradient-38" x1="138.18" y1="214.75" x2="101.47" y2="251.47" gradientTransform="matrix(-0.78, 0, 0, 1, 489.57, 0)" gradientUnits="userSpaceOnUse"><stop offset="0" stop-color="#ff0"/><stop offset="0.02" stop-color="#f6f600"/><stop offset="0.22" stop-color="#acac00"/><stop offset="0.4" stop-color="#6f6f00"/><stop offset="0.56" stop-color="#3f3f00"/><stop offset="0.71" stop-color="#1d1d00"/><stop offset="0.83" stop-color="#080800"/><stop offset="0.91"/></linearGradient><linearGradient id="linear-gradient-39" x1="225.21" y1="214.72" x2="209.76" y2="232.1" xlink:href="#linear-gradient-37"/><linearGradient id="linear-gradient-40" x1="134.87" y1="86.09" x2="92.49" y2="116.17" xlink:href="#linear-gradient-37"/><radialGradient id="radial-gradient" cx="161.01" cy="76.09" r="12.56" gradientTransform="matrix(-0.88, -0.48, -0.48, 0.88, 551.43, 363.8)" gradientUnits="userSpaceOnUse"><stop offset="0.3" stop-color="#ff00ea"/><stop offset="0.45" stop-color="#b200a4"/><stop offset="0.6" stop-color="#730069"/><stop offset="0.73" stop-color="#41003c"/><stop offset="0.85" stop-color="#1e001b"/><stop offset="0.94" stop-color="#080007"/><stop offset="1"/></radialGradient><radialGradient id="radial-gradient-2" cx="155.05" cy="-22.58" r="12.56" xlink:href="#radial-gradient"/><radialGradient id="radial-gradient-3" cx="223.54" cy="-173.51" r="12.56" xlink:href="#radial-gradient"/><radialGradient id="radial-gradient-4" cx="377.7" cy="119.47" r="12.56" xlink:href="#radial-gradient"/><radialGradient id="radial-gradient-5" cx="406.53" cy="46.05" r="12.56" xlink:href="#radial-gradient"/><radialGradient id="radial-gradient-6" cx="426.09" cy="127.22" r="12.56" xlink:href="#radial-gradient"/><radialGradient id="radial-gradient-7" cx="463.92" cy="76.09" r="12.56" xlink:href="#radial-gradient"/><radialGradient id="radial-gradient-8" cx="484.18" cy="92.36" r="12.56" xlink:href="#radial-gradient"/><radialGradient id="radial-gradient-9" cx="357.55" cy="132.14" r="12.56" xlink:href="#radial-gradient"/><radialGradient id="radial-gradient-10" cx="202.44" cy="-94.85" r="12.56" xlink:href="#radial-gradient"/><radialGradient id="radial-gradient-11" cx="174.7" cy="-38.26" r="6.27" xlink:href="#radial-gradient"/><radialGradient id="radial-gradient-12" cx="116.03" cy="-24.82" r="6.27" xlink:href="#radial-gradient"/><radialGradient id="radial-gradient-13" cx="234.77" cy="-160.28" r="6.27" xlink:href="#radial-gradient"/><radialGradient id="radial-gradient-14" cx="180.6" cy="63.54" r="6.27" xlink:href="#radial-gradient"/><radialGradient id="radial-gradient-15" cx="444.91" cy="94.91" r="6.27" xlink:href="#radial-gradient"/><radialGradient id="radial-gradient-16" cx="457.46" cy="163.92" r="6.27" xlink:href="#radial-gradient"/><radialGradient id="radial-gradient-17" cx="432.36" cy="159.44" r="6.27" xlink:href="#radial-gradient"/><radialGradient id="radial-gradient-18" cx="193.14" cy="96.05" r="12.56" gradientTransform="matrix(-0.99, 0.12, 0.12, 0.99, 534.28, -66.68)" xlink:href="#radial-gradient"/><radialGradient id="radial-gradient-19" cx="224.51" cy="132.75" r="6.27" gradientTransform="matrix(-0.99, 0.12, 0.12, 0.99, 534.28, -66.68)" xlink:href="#radial-gradient"/><radialGradient id="radial-gradient-20" cx="199.41" cy="128.27" r="6.27" gradientTransform="matrix(-0.99, 0.12, 0.12, 0.99, 534.28, -66.68)" xlink:href="#radial-gradient"/><radialGradient id="radial-gradient-21" cx="284.82" cy="63.53" r="6.27" xlink:href="#radial-gradient"/><radialGradient id="radial-gradient-22" cx="316.55" cy="137.14" r="6.27" xlink:href="#radial-gradient"/><radialGradient id="radial-gradient-23" cx="388.07" cy="63.09" r="6.27" xlink:href="#radial-gradient"/><radialGradient id="radial-gradient-24" cx="167.1" cy="-78.82" r="6.27" xlink:href="#radial-gradient"/><radialGradient id="radial-gradient-25" cx="178.79" cy="-100.23" r="6.27" xlink:href="#radial-gradient"/></defs><g class="cls-2"><g id="Layer_1" data-name="Layer 1"><path class="cls-3" d="M468.53,288.11s-8.35,38.16-48.3,28-104.14-59.87-104.14-59.87-19.94-28.39,16.16-43.89c0,0-17.63-14.16-3-28.55S466.15,237.42,468.53,288.11Z"/><path class="cls-4" d="M382.71,199.08l-60.26,47.85s20-24.88,13.27-29.68c-5.88-4.18-12.89.32-14.58,1.54a49.55,49.55,0,0,1,11.11-6.41,29.07,29.07,0,0,1-6.65-8.22c19.76,15.39,8.46-11.82,8.46-11.82s-.36-4-1-10.23C342,180.51,361.35,187.41,382.71,199.08Z"/><path class="cls-5" d="M384.31,322.44c-2-5.55,2.75-34.89-12.31-45.73s-38.19,11.69-39,21.05.84,19.57-3.4,35.1,0,19.14,3.18,25.31c0,0-16.42,1.33-19.77,14.81,0,0,81.3,35,95.94,37.94s17.82,2.55,35.64-4.26,7.85-30,2.75-36.79S389,335.41,384.31,322.44Z"/><path class="cls-6" d="M444.56,406.66c-17.82,6.81-21,7.23-35.64,4.26S313,373,313,373c3.35-13.48,19.77-14.81,19.77-14.81-3.18-6.17-7.42-9.79-3.18-25.31a82.8,82.8,0,0,0,2.58-14.17c21,24.51,62.91,69.58,88.68,71.91,35.05,3.17,28.53-17.3,28.37-17.79C454.32,381.77,460.34,400.63,444.56,406.66Z"/><path class="cls-7" d="M415.21,348.18s-22.11,48.76-47.46,24.61S415.21,348.18,415.21,348.18Z"/><path class="cls-8" d="M6.14,148.25c4.25-9.05,12.49-14.45,21.65-17.76,18.67-6.74,39.27-3.62,57.09,4.15A142.34,142.34,0,0,1,115,152.81a85.12,85.12,0,0,1,10.26,9.27,60,60,0,0,1,5.33-35.87c1.53-3.1,3.39-6.2,6.38-8.09a13.73,13.73,0,0,1,8.92-1.71c7,.82,13.32,5,18.42,9.64,5.59,5.09,10.16,11.3,14.28,17.61A126.54,126.54,0,0,1,189.4,164a106,106,0,0,1,8.5,44.92c-.69,17.42-6,36.57-18.11,49.57a1.73,1.73,0,0,1-.52.37c-3.79,11.9-7.39,24.14-13.94,34.84-2.93,4.78-6.57,10.22-11.9,12.55a15.88,15.88,0,0,1-9.33.78c4.73,5.65,8.51,12.49,5.75,19.84C146.7,335.23,137,338.7,128.78,337c-.19,0-.35-.12-.53-.16a37.07,37.07,0,0,1,3.39,6.34c3.08,7.44,4.42,16.9,1.34,24.57-2.95,7.33-10.43,10.64-18,9.63C106.39,376.25,100,370,95.48,363c-2.9-4.39-5.93-9.68-7.34-15.14a30.21,30.21,0,0,1-9,10.42A47,47,0,0,1,61,365.79a31.28,31.28,0,0,1-17.07-1.62,35.45,35.45,0,0,1-21.48-24.75,42.37,42.37,0,0,1,5.85-33.09A46.46,46.46,0,0,1,42,292.86C33.9,292,26.48,287.64,24.72,279A20.72,20.72,0,0,1,30,261.12c4.61-5,11.39-7.52,18-8.18a41.71,41.71,0,0,1,12.51.82,161.26,161.26,0,0,1-33.71-28,146.79,146.79,0,0,1-17.42-23C4.66,194.94.93,186.27.13,177.05A46,46,0,0,1,1.46,162.5,72.71,72.71,0,0,1,6.14,148.25Z"/><path class="cls-9" d="M179.79,258.49a1.73,1.73,0,0,1-.52.37c-3.79,11.9-7.39,24.14-13.94,34.84-2.93,4.78-6.57,10.22-11.9,12.55a15.88,15.88,0,0,1-9.33.78c4.73,5.65,8.51,12.49,5.75,19.84C146.7,335.23,137,338.7,128.78,337c-.19,0-.35-.12-.53-.16a37.07,37.07,0,0,1,3.39,6.34c3.08,7.44,4.42,16.9,1.34,24.57-2.95,7.33-10.43,10.64-18,9.63C106.39,376.25,100,370,95.48,363c-2.9-4.39-5.93-9.68-7.34-15.14a30.21,30.21,0,0,1-9,10.42A47,47,0,0,1,61,365.79a31.28,31.28,0,0,1-17.07-1.62,35.45,35.45,0,0,1-21.48-24.75,42.37,42.37,0,0,1,5.85-33.09A46.46,46.46,0,0,1,42,292.86C33.91,292,26.48,287.64,24.72,279A20.72,20.72,0,0,1,30,261.12c4.61-5,11.39-7.52,18-8.18a41.71,41.71,0,0,1,12.51.82,161.26,161.26,0,0,1-33.71-28,146.79,146.79,0,0,1-17.42-23C4.66,194.94.93,186.27.14,177.05A45.75,45.75,0,0,1,1.46,162.5a72.71,72.71,0,0,1,4.68-14.25c4.25-9.05,12.49-14.45,21.65-17.76a67.63,67.63,0,0,1,32.3-3,27.54,27.54,0,0,0-4.81,1.41C35.51,137,33.31,162.48,38,180.47c2.65,10.11,8.82,18.14,15.78,25.71C61,214,68.32,221.75,76.7,228.29,92,240.22,113.29,248.22,132,239.35a34.37,34.37,0,0,0,17.35-17.88c3.26-8.2,2-17,0-25.33a135.48,135.48,0,0,0,7,12.46c3.15,5,6.56,10.16,10.65,14.4,7.08,7.32,17.43,4.08,22.53-3.81,2.74-4.25,4.12-9.34,5.21-14.22a89.36,89.36,0,0,0,2-13.71c0-.53,0-1.06.06-1.59a98.35,98.35,0,0,1,1.19,19.25C197.21,226.34,191.93,245.49,179.79,258.49Z"/><path class="cls-10" d="M9.39,202.8c-.8-1.32-1.55-2.68-2.28-4,26.2,44.59,124,81.22,138.82,66.1s11.66-42.62,11.66-42.62c10.86,46,31.06,17.55,31.06,17.55l-2.54,10.31a55.84,55.84,0,0,1-6.32,8.39,1.73,1.73,0,0,1-.52.37c-3.79,11.9-7.39,24.14-13.94,34.84-2.93,4.78-6.57,10.22-11.9,12.55a15.88,15.88,0,0,1-9.33.78c4.73,5.65,8.51,12.49,5.75,19.84C146.7,335.23,137,338.7,128.78,337c-.19,0-.35-.12-.53-.16a37.07,37.07,0,0,1,3.39,6.34c3.08,7.44,4.42,16.9,1.34,24.57-2.95,7.33-10.43,10.64-18,9.63C106.39,376.25,100,370,95.48,363c-2.9-4.39-5.93-9.68-7.34-15.14a30.21,30.21,0,0,1-9,10.42A47,47,0,0,1,61,365.79a31.28,31.28,0,0,1-17.07-1.62A35,35,0,0,1,29.74,353.9c41.6,32.28,68.86-26.35,65.86-41.37S51,293.93,51,293.93s62.54-2.78,49-18.2-39.47-22-39.47-22a161.26,161.26,0,0,1-33.71-28A146.79,146.79,0,0,1,9.39,202.8Z"/><path class="cls-11" d="M98.13,319.61s-.51,46.43,13.4,28.17,5.67-64.86,5.67-64.86c34.24,8.22,45.3-26.23,45.3-26.23l9.32,23.91a89.65,89.65,0,0,1-6.49,13.1c-2.93,4.78-6.57,10.22-11.9,12.55a15.88,15.88,0,0,1-9.33.78c4.73,5.65,8.51,12.49,5.75,19.84C146.7,335.23,137,338.7,128.78,337c-.19,0-.35-.12-.53-.16a37.07,37.07,0,0,1,3.39,6.34c3.08,7.44,4.42,16.9,1.34,24.57-2.95,7.33-10.43,10.64-18,9.63C106.39,376.25,100,370,95.48,363c-2.9-4.39-5.93-9.68-7.34-15.14A75.42,75.42,0,0,0,98.13,319.61Z"/><path class="cls-12" d="M181,203.6c-20,9.27-57.51-53.39-51.12-75.71.25-.56.48-1.13.75-1.68.45-.91.94-1.81,1.47-2.69a17.71,17.71,0,0,0,1.7-2.43,13.36,13.36,0,0,1,3.21-3,13.73,13.73,0,0,1,8.92-1.71c7,.82,13.32,5,18.42,9.64,5.59,5.09,10.16,11.3,14.28,17.61a127.57,127.57,0,0,1,9.51,17.45C189.64,164.8,201.09,194.28,181,203.6Z"/><path class="cls-13" d="M55.28,128.93a27.54,27.54,0,0,1,4.81-1.41,94.52,94.52,0,0,1,24.79,7.12A142.34,142.34,0,0,1,115,152.81a85.12,85.12,0,0,1,10.26,9.27s24,23.25,14.92,48.48S79.71,230.82,39.86,185.8A40.8,40.8,0,0,1,38,180.47C33.31,162.48,35.51,137,55.28,128.93Z"/><path class="cls-14" d="M178.72,156.29c1.82-6.25-7.45-23.52-17.49-22.27S172.74,176.84,178.72,156.29Z"/><path class="cls-14" d="M125.6,176.91c-.47-10-27.68-33.84-33.36-24.75S126.59,198.55,125.6,176.91Z"/><path class="cls-14" d="M116.93,193c8.27.55-8.27-12-13.36-8S98.1,191.76,116.93,193Z"/><path class="cls-15" d="M330.19,192s9.39,2.84,9.39,23.62-23.36,32.11-32.92,32.71-90.07-16.87-126.3-1.65-58.14,55-35.78,90.36,105.39,63.06,184,50.54,112.56-49.2,105-112.71-24.6-97.21-24.6-97.21Z"/><path class="cls-7" d="M328.54,387.55c-58.86,9.38-120.21-3.83-156.69-25.9,27.37-19,61.44-28.52,61.44-28.52s-24.75,31.33,11,44.44,98.39,5.73,85.42-42.35c0,0,53,48.41,96.21-3.26C411.68,361.13,379.49,379.42,328.54,387.55Z"/><path class="cls-16" d="M328.54,387.55C250,400.07,167,372.34,144.58,337a59.33,59.33,0,0,1-6.83-15l81.53-29.26s8.94-14.77,31.6-6.72,23.85,45.82,23.85,45.82L328.49,314s-1.88-44.71,26.14-36.37,31.91,37.57,31.91,37.57,18.78-55.45,35.48-38.16c16.13,16.71,4,53.91,3.15,56.41C410.53,361.77,378.6,379.57,328.54,387.55Z"/><path class="cls-17" d="M329.55,59.22s-13.39-10.76-9.87-26.49,20.71-16.26,30.72,7.45S343.37,67.45,329.55,59.22Z"/><path class="cls-18" d="M339.48,53.69c-10-3.19-10.6-13.55-10.74-16.15s-7.46-4.37-6.67,2.81,13,15.63,13,15.63c-1.44,1-6.34.65-10.09-1.72a31,31,0,0,0,4.59,5c13.82,8.23,30.86,4.67,20.85-19a41.84,41.84,0,0,0-8.21-13C346.7,33,348.81,56.68,339.48,53.69Z"/><path class="cls-7" d="M338.28,203.85c-1.26-5-3.21-7.94-4.89-9.64-.41-.9-.77-1.76-1.14-2.62l62.34-11.35a116.15,116.15,0,0,1,21.68,15.9L414.79,192C420.53,196.8,371.85,262.53,338.28,203.85Z"/><path class="cls-19" d="M329.74,335.22c-2.1-5.83,2.91-36.67-13-48.08s-40.25,12.3-41.15,22.14.9,20.57-3.57,36.9-.9,25.49,25.28,41.81c0,0-6.57,0-10.1,14.14,0,0,53,23,68.45,26.11s18.78,2.69,37.57-4.47,8.27-31.53,2.9-38.68S334.66,348.86,329.74,335.22Z"/><path class="cls-20" d="M160.83,259.81c10.09-8.45,32.86-1.81,48.63,20.25s30.59,35.11,23.83,53.07c-5.67,15.05-31.61,26.24-20.58,35.18s40.31,25.94,50.42,37.87,9.14,35.18,9.14,35.18-16,10.74-32.42-5.36c0,0,0-11.33-3.88-17s-71.56-31.31-73.35-41.14,7.22-16.18-5.48-26.76-25-25.68-20.64-54S158.68,261.61,160.83,259.81Z"/><path class="cls-21" d="M313,246.93c31.09,5.63,13.38,47.63,13.38,47.63-.25-41.56-19.7-46.26-19.7-46.26a26.68,26.68,0,0,0,6.31-1.37Z"/><path class="cls-22" d="M272.27,441.36s-16,10.74-32.42-5.36c0,0,0-11.33-3.88-17s-71.56-31.31-73.35-41.14,7.22-16.18-5.48-26.76c-10.54-8.78-20.78-20.71-21.47-40.72a53.62,53.62,0,0,1,.82-13.23,60.67,60.67,0,0,1,4.95-16.73c-6.51,21.6,21,3.69,40.26,30.83,13.14,18.55,6.86,35.6,22.25,36.94,24.26,2.11,30.74-20.38,30.74-20.38-4,43.75,35.49,29.29,35.49,29.29,1.71,28.36,82.55,41.18,82.55,41.18,9.36,7.83,31.57,12.3,33.14,0s-20.58-24.15-38.47-35.56-25.93-17.89-36.8-17S284,361.61,284,361.61c7.53-12.75-3.27-21.92-3.27-21.92s27.05,10.06,38.48-2.23,8.17-31,8.17-31,8.58,39,33.85,36.77,25.49-23,25.49-23,3.36,21.23,17.21,17.65,20.73-33.09,20.73-33.09C402.36,308.22,406,278.65,406,278.65c-14.52-2-13-20.06-13-20.06-39.44,12.82-53.51-45.92-53.51-45.92-.85-18.1-9.32-20.7-9.32-20.7l78.71-14.34s17,33.71,24.6,97.21c3.66,30.57-2.35,54.9-18.29,73.34,14.67,9.49,29.53,18.25,32.1,21.69,5.1,6.8,15.07,30-2.75,36.79s-21,7.23-35.64,4.26c-1.23-.25-3-.75-5.05-1.41-.44,6-3.27,11.46-10.62,14.26-18.79,7.16-22.14,7.6-37.57,4.47s-68.45-26.11-68.45-26.11l5.48-11.53c-32.14,0-49.7-4-55.3-5.05,2.22,1.51,4.42,3.05,6.59,4.6-1.78-1.24-8-5.57-27.66-19.06-25-17.15-29.94,3.26,14.34,32.11,42.09,27.42,36.72,10.39,36.09,8.64C273,424.23,272.27,441.36,272.27,441.36Z"/><path class="cls-8" d="M317.46,66c.67-4.5,3.39-8.52,6.27-12.15,3.2-4,13.63-10.78,18.78-12.52,24.08-8.16,36.52,14.93,42.06,16.12,5,1.08,2-14.82,5.38-11.14A23.16,23.16,0,0,1,396.11,60c1.85-1.58,4.61-2.06,7.11-2.26a52.88,52.88,0,0,1,12.44.54,53.79,53.79,0,0,1,23.22,9.55c12.41,9,20.9,23.81,21.06,38.73.07,6.5-1.66,13.13-5.84,18.28,5.24.85,9.76,5.67,8.57,10.93-.95,4.14-5.12,6.82-9.41,7.11,7,5.38,13.09,12.35,14.71,20.94,1.77,9.34-1.76,18.4-6.66,26.46,4.31-1.64,9.29-2.26,11.79,1.62,1.53,2.38.48,5-1.48,6.82a35.14,35.14,0,0,1-5.4,3.91,31,31,0,0,1,18.87,3.41,28.45,28.45,0,0,1,13.34,16.32c4.84,14.92-2.13,30.19-12.1,41.69-4.9,5.64-10.82,10.58-17.89,13.52a13.69,13.69,0,0,1,9.3,8.84c1.85,5.34-.23,11-4.18,15-9.22,9.32-25.66,8-36.75,2.61-4.45-2.14-8.42-5.37-10.57-9.59a8.8,8.8,0,0,1-5.83,2.7c-4.38.27-8.13-2.75-10.25-6.11a19,19,0,0,1-1.07-17.57c-7.48.4-15.32-6.46-19.11-12-5.76-8.44-6.79-19.21-1.66-28.14a25.25,25.25,0,0,1,9.53-9.38c-2-1.76-4.49-4.57-3.73-7.12,1-3.52,2.57-5.1,6.23-5.55-2.32-2.11-3.38-10-1.93-15.07.86-7.12.9-10.73,11.22-25.88,17.6-25.82,9.4-40,9.4-40,1.62-.31,5.4-.69,7-.89,2.17-.27,1.93-2.31,1.73-4,0-.24-.06-.46-.08-.68a49.63,49.63,0,0,0-6.87-20.58c-7.79-13-21-21.21-35.75-25.89-8.23-2.62-16.68-4.08-25.16-5.68-7.57-1.44-38.69,1.67-44-4A1.64,1.64,0,0,1,317.46,66Z"/><path class="cls-23" d="M407.77,284.11c3,11.13,16.93,20.7,18.11-1.77s-12.71-13.64-12.71-13.64c34.29-38.17-5.4-47.57-5.4-47.57,15.77-7.35-2.07-11.34-2.07-11.34,50.06-16,49.78-50.34,45.64-62.34s-21.23-8-21.23-8c.57,21.25-16.15,34.82-16.15,34.82l-12.64,10a98.18,98.18,0,0,1,8.32-14c17.6-25.82,9.4-40,9.4-40,1.62-.31,5.4-.69,7-.89,2.17-.27,1.93-2.31,1.73-4,0-.24-.06-.46-.08-.68a49.63,49.63,0,0,0-6.87-20.58c-7.79-13-21-21.21-35.75-25.89-8.23-2.62-16.68-4.08-25.16-5.68-7.57-1.44-38.69,1.67-44-4A1.64,1.64,0,0,1,317.46,66a17.16,17.16,0,0,1,.94-3.49,7.18,7.18,0,0,1,3.61-.1c15.05,3.35,35-9.16,35.56-16.16s-11.63-5.37-11.63-5.37c.15-.22.33-.41.48-.62,21.53-4.58,32.92,16.07,38.15,17.19,5,1.08,2-14.82,5.38-11.14A23.16,23.16,0,0,1,396.11,60,10.84,10.84,0,0,1,401.72,58C388,68.09,443.94,95.4,448,86.88c1.85-3.87-.1-9-2.95-13.7,9,9,14.74,21.14,14.87,33.42.07,6.5-1.66,13.13-5.84,18.28,5.24.85,9.76,5.67,8.57,10.93-.95,4.14-5.12,6.82-9.41,7.11,7,5.38,13.09,12.35,14.71,20.94,1.77,9.34-1.76,18.4-6.66,26.46,4.31-1.64,9.29-2.26,11.79,1.62,1.53,2.38.48,5-1.48,6.82a35.14,35.14,0,0,1-5.4,3.91,31,31,0,0,1,18.87,3.41,28.45,28.45,0,0,1,13.34,16.32c4.84,14.92-2.13,30.19-12.1,41.69-4.9,5.64-10.82,10.58-17.89,13.52a13.69,13.69,0,0,1,9.3,8.84c1.85,5.34-.23,11-4.18,15-4.3,4.35-10.17,6.35-16.33,6.73-7.28,7.2-18.89,12.54-37,7.95C410,313.55,406,277.72,407.77,284.11Z"/><path class="cls-24" d="M388.32,79.41c-38.7-25.24-33.32-69.17-18-75.23s24.62,2.55,24,28.63a113,113,0,0,0,9.14,46.59Z"/><path class="cls-25" d="M388.32,79.41c-13-8.49-21.87-19.84-25.38-29.68a9.45,9.45,0,0,0,8.43,6.46s-7.61-15.56-5.53-25.06,7.42-9.53,10-6.33-8.3,30.33,5.31,39.81c5.12,3.57,13.55-3.32,14.89-10.38a108.12,108.12,0,0,0,7.46,25.17Z"/><path class="cls-26" d="M448.57,101.51c6.5,13.69-10.65,16.45-10.65,16.45s1.8,7.47,13.55,7.06c0,0-7.4,2.69-5.11,7.67s7.62,10.87,15.59,5a10.6,10.6,0,0,1-8.69,5.24,44.14,44.14,0,0,1,11.31,12.16h-.37s-1-3.32-4.77-.93-17,48.64,0,36.82c0,0-19.71,19.29,4.56,12.24,0,0-23.86,6.43-26.35,35.06-2,23.48,17.41,34.11,24.47,37.18-5.74-1.84-20.38-4.18-34,13,0,0,20.95-39.2-5.6-24.89,0,0,33.61-39.41-8.3-43.14,0,0,22.6-10.58,2.07-11,0,0,23.66-4.57,33.2-28s4.75-43.9-14.93-49c0,0,.93,6.31-12.92,3.26a5.09,5.09,0,0,1-1.06-.36,17,17,0,0,0-1.52-5c1.62-.31,5.4-.69,7-.89,2.17-.27,1.93-2.31,1.73-4,0-.24-.06-.46-.08-.68a49.14,49.14,0,0,0-6-19c3.44-10,7.51-18.58,7.51-18.58S442.07,87.81,448.57,101.51Z"/><path class="cls-27" d="M262.28,182.08c0-.38.06-.79.12-1.22,1.22-10.25,3.85-17.83,12.16-24,2.88-2.12,9.31-6.28,12.6-9.61,19.95-20.19,19.81-27.62,19.31-36.67S316.6,84.24,316.6,84.24l63.55-3.42c2.06.52,4.11,1.08,6.15,1.73a78.83,78.83,0,0,1,10.63,4.26c5.48,4.07,10,7.38,10,7.38a9.37,9.37,0,0,1,1.08-.43,47.27,47.27,0,0,1,11.33,12.72,45.85,45.85,0,0,1,6.36,19c0,.19,0,.4.07.62.18,1.56.4,3.45-1.6,3.7-1.51.18-3,.19-4.52.47,0,0,10.57,20.12-5.69,44-8.14,11.95-14.62,17.34-15.54,21.94a96.24,96.24,0,0,1-19.11,8c-18.64,5.56-32.93-9.81-32.93-9.81-10.88-2.59-24,1.9-27.68,5.48s-12.2,18.76-26.24,12.86-13.64-12.86-13.64-12.86-3.21,1-9.49-3.63S261.89,188,262.28,182.08Z"/><path class="cls-28" d="M285,159.4c17.41-3.28,36.35-29.6,29-37.46-4.61-5-12.3,8.81-12.3,8.81-2.61,4-6.61,8.88-12.78,15.07l-10.36,10.4-.15.24C274.78,162.67,279.11,160.5,285,159.4Z"/><path class="cls-29" d="M262.28,182.08c0-.29.05-.61.09-.93-.16,1.92-.23,13.49,21.8,10.67,15.94-2,12-16.3,12-16.3,43.81-6.89,49.9,13.21,76.56,6s30.77-44.11,30.77-44.11c-18.83-1.43-15.23-38.34-15.23-38.34-9.17,3.58-12.05-5.84-12.05-5.84-9.65,8.91-18.19-1.74-18.19-1.74-18,15.84-33.62,7.71-33.62,7.71s-5,14-12,16.4-4.83-4.76-4.83-4.76-1-1.59-2.66-4.32c2.86-9.56,11.67-22.26,11.67-22.26l63.55-3.42c2.06.52,4.11,1.08,6.15,1.73,13.61,4.33,25.85,11.9,33,23.93a45.85,45.85,0,0,1,6.36,19c0,.19,0,.4.07.62.18,1.56.4,3.45-1.6,3.7-1.51.18-3,.19-4.52.47,0,0,10.57,20.12-5.69,44-8.14,11.95-14.62,17.34-15.54,21.94a96.24,96.24,0,0,1-19.11,8c-18.64,5.56-32.93-9.81-32.93-9.81-10.88-2.59-24,1.9-27.68,5.48s-12.2,18.76-26.24,12.86-13.64-12.86-13.64-12.86-3.21,1-9.49-3.63S261.89,188,262.28,182.08Z"/><path class="cls-30" d="M318.18,90.55,274.4,4.46a3.05,3.05,0,0,1,5-3.44l74.29,81.36Z"/><path class="cls-31" d="M280.21,1.94S304.81,31.58,316,52.35s6.53,33.77-12.59,9.21l14.74,29,34.17-7.87-.22-2Z"/><path class="cls-32" d="M299.22,22.76l-1.93-2.11c2.17,16-11.22,6.76-11.22,6.76l1.71,3.36C298.9,37.28,300.09,29.07,299.22,22.76Z"/><path class="cls-32" d="M296.06,47l1.84,3.62c13.33,7.08,15.42-3.73,14.55-13.41l-2.65-2.91C311.76,52.62,301.71,49.91,296.06,47Z"/><path class="cls-32" d="M328.57,54.91,325.92,52c-1,20.77-13,18.52-19.27,15.87l1.8,3.52C325.87,77,328.77,64.6,328.57,54.91Z"/><path class="cls-33" d="M310.19,55.81c2.94-13.23-30-53.87-30-53.87L279.37,1a3.05,3.05,0,0,0-5,3.44L280.78,17S307.24,69,310.19,55.81Z"/><path class="cls-34" d="M327.63,152.41s-8-23.43-.33-35.26,28-18.55,40.66.52-4.3,43.87-15.95,46.11S329.61,159.84,327.63,152.41Z"/><path class="cls-35" d="M333.55,113A21.32,21.32,0,0,0,327,121.4a1.06,1.06,0,0,0-.14.34c-.12.25-.22.5-.32.75-1.16,2.32-5.15,7.15-16.84-.76,0,0,10.12,11.2,15.12,6.32a35.46,35.46,0,0,0,4.82,26.11s43.5-13.85,43.25-22.3S352.65,99.1,333.55,113Z"/><g class="cls-36"><path class="cls-37" d="M324.42,151.6s-7.85-26.52,9.85-38.33c22.66-15.11,39.47,12.52,39.29,20.25s-6.22,21.56-17.54,26.41S324.11,161.17,324.42,151.6Z"/><path class="cls-38" d="M356.71,134.75c-2.77,11.11-11.93,19.11-20.47,17.86S323,141.34,325.8,130.23s11.93-19.11,20.47-17.87S359.48,123.63,356.71,134.75Z"/><path class="cls-39" d="M355,134.5c-2.55,10.26-10.78,17.68-18.37,16.57s-11.68-10.33-9.12-20.59,10.78-17.69,18.37-16.58S357.56,124.23,355,134.5Z"/><path class="cls-40" d="M349.41,132.34c-1.8,7.24-7.6,12.47-13,11.69s-8.23-7.28-6.43-14.52,7.6-12.47,13-11.68S351.21,125.11,349.41,132.34Z"/><path class="cls-41" d="M320.08,149.88c-5.21-8.72,12.54-22,22.55-18.28,5.19,1.94,9.86,7.53,6.16,17.23C347.53,152.12,330.05,166.58,320.08,149.88Z"/><path class="cls-42" d="M325.64,145.87s-1.45-16.9,8.37-23c14.26-8.89,36.18-.49,38,12.89s9.16-14.91,9.16-14.91-2.36-13.85-6.1-13-42.46,1.66-42.46,1.66-20.73,29.88-19.3,32.58S325.64,145.87,325.64,145.87Z"/><path class="cls-43" d="M337.84,121.7c.78,2.77-4.65.56-4.1-.86S336.65,117.53,337.84,121.7Z"/></g><path class="cls-8" d="M440.81,95.29a17.1,17.1,0,0,0-22.72-6.5,10.14,10.14,0,0,0-3.59-8.6,8.76,8.76,0,0,0-9.19-1A21.59,21.59,0,0,0,394.58,69c-4-1.63-9.56-1.88-13.16.69-2-7.21-5.85-14.11-13.17-16.92-3.53-1.35-7.93-1.5-11.27.46S352.5,59,352.8,62.77c.06.68.15,1.4.27,2.14-5.26-1.78-11.74-.89-16.7,1.14-6.89,2.83-12.3,9.07-13.39,16.38A10.92,10.92,0,0,0,313.53,80c-5.84,1.24-9.72,6.32-11.9,11.56-2.12,5.08-3.38,12.21-.51,17.25a8.23,8.23,0,0,0,13.6,1.75c4-3.85,6-9.78,6.22-15.35,5.64,4.78,15.53,2.33,21.74.31a53.46,53.46,0,0,0,18.85-10.75,8.34,8.34,0,0,0,2.66,6.08c3.76,3.37,10.55,3.44,13.63-.92a7.52,7.52,0,0,0,.92-1.78A12.81,12.81,0,0,0,385.55,93a14,14,0,0,0,11.5-1.86,42.44,42.44,0,0,0-.4,11.81c.64,6.36,1.86,13.8,5.36,19.27a30.7,30.7,0,0,0,14.72,11.69A15,15,0,0,0,432.32,130a14.78,14.78,0,0,0,2.94-14.73,8.25,8.25,0,0,0,6.85-4.94C444.24,105.56,443.36,99.68,440.81,95.29Z"/><path class="cls-35" d="M278.59,178.5s6.52-9.05,9.45-9.14S289.55,174.74,278.59,178.5Z"/><path class="cls-7" d="M278.59,178.5s3.08-10.15,6.66-11.33a3.24,3.24,0,0,1,4.39,2.39,9.14,9.14,0,0,0-5.71-6.09c-2.85-1.16-5.73,3.54-5.73,3.54s2.13-3.91,4.63-4.84c5.15-1.93,8.09,6.25,8.85,10.33,0,0-1.32-1.73-4,1S278.59,178.5,278.59,178.5Z"/><path class="cls-44" d="M435.92,102.41c-6.76,2.55-16.09-4-16.09-4s24.49,19.94,7.35,27.62S399,115.17,398.83,115a29,29,0,0,0,3.18,7.24,30.7,30.7,0,0,0,14.72,11.69A15,15,0,0,0,432.32,130a14.78,14.78,0,0,0,2.94-14.73,8.25,8.25,0,0,0,6.85-4.94c2.13-4.74,1.25-10.62-1.3-15a17.08,17.08,0,0,0-13.71-8.41C436,87.52,442.63,99.88,435.92,102.41Z"/><path class="cls-44" d="M307.28,113.29a9,9,0,0,0,7.44-2.75c4-3.85,6-9.78,6.22-15.35,5.64,4.78,15.53,2.33,21.74.31a53.46,53.46,0,0,0,18.85-10.75,8.34,8.34,0,0,0,2.66,6.08c3.76,3.37,10.55,3.44,13.63-.92a7.52,7.52,0,0,0,.92-1.78A12.81,12.81,0,0,0,385.55,93a14,14,0,0,0,11.5-1.86s-15.2.84-15.93-15.66c0,0-12.19,22.19-20.15,2.89,0,0-30.21,29.11-41.58,12.81,0,0-6.91,30.93-18.64,16.79.13.27.22.57.37.83A8.91,8.91,0,0,0,307.28,113.29Z"/><path class="cls-45" d="M306.34,105.7c7.43.41,13.45-19.51,13.45-19.51s1.13,6,3.2.09c0,0-.36,9.87,17.67,1.41s12.75-22,12.75-22,3,8.42,9.84,9,19.45-14.15,5-21.91c-3.53-1.35-7.93-1.5-11.27.46S352.5,59,352.8,62.77c.06.68.15,1.4.27,2.14-5.26-1.78-11.74-.89-16.7,1.14-6.89,2.83-12.3,9.07-13.39,16.38A10.92,10.92,0,0,0,313.53,80c-5.84,1.24-9.72,6.32-11.9,11.56A30.68,30.68,0,0,0,300.18,96C300.1,96.67,299.2,105.31,306.34,105.7Z"/><path class="cls-14" d="M314.13,83.82c.35,3.82-7.24,13.09-9.51,9.67S313.39,75.58,314.13,83.82Z"/><path class="cls-43" d="M316.89,121.33c4,.47,10.61-4.67,11.64-13.51s-12.42-5.35-14.85,3.45S315.11,121.12,316.89,121.33Z"/><path class="cls-46" d="M316.89,121.33c4,.47,10.61-4.67,11.64-13.51a4.67,4.67,0,0,0-1-3.91c1.61,3.62-2,10.56-7.53,13.64s-7-2.77-7-2.83C312.38,120.35,315.38,121.15,316.89,121.33Z"/><path class="cls-47" d="M377.67,162c4.21,1.08,3-10.59-1.65-11.59C373.44,149.88,370.48,160.19,377.67,162Z"/><path class="cls-47" d="M389.12,159.58c-2.51,3.67-8.08-4.28-6.08-6.84S393,153.84,389.12,159.58Z"/><path class="cls-47" d="M379.81,148.14c-3.43-2-2.35-8,.77-8.65S388.32,153.19,379.81,148.14Z"/><path class="cls-48" d="M266.09,167.1c4.16-9,12.89-8.56,10.62,3.62S256.3,188.31,266.09,167.1Z"/><path class="cls-35" d="M303.18,184.82s1,9.85-5.51,12.19c-8.1,2.9-15.08-6.75-20.32-.41,0,0,2.69-1.31,4.89-.49a4.55,4.55,0,0,0-3.42,3.75s1.56-3.13,6-2.16S306.08,203.9,303.18,184.82Z"/><path class="cls-49" d="M393.25,423.77c-18.79,7.16-22.14,7.6-37.57,4.47s-68.45-26.11-68.45-26.11C290.76,388,297.33,388,297.33,388c15.88,10.29,22.92,10.4,53.73,19.78,63.87,19.46,45.09-22.68,45.09-22.68C401.52,392.24,412,416.62,393.25,423.77Z"/><path class="cls-50" d="M268.31,415.41c4.51,11.87,4,25.95,4,25.95s-16,10.74-32.42-5.36c0,0,0-11.33-3.88-17C270.52,433.23,270.4,421.8,268.31,415.41Z"/><path class="cls-51" d="M297.33,388a87.42,87.42,0,0,0,13.27,7.25C288.81,388.17,306,410,306,410.05c-10.71-4.44-18.75-7.92-18.75-7.92C290.76,388,297.33,388,297.33,388Z"/><path class="cls-7" d="M179.29,320.3c-.1,7.91-14.5-4.29-14.16-12.87C165.32,302.68,179.45,306.78,179.29,320.3Z"/><path class="cls-7" d="M172.19,337.11c5.53-.95-2.63-17.11-6.57-16S163.54,338.6,172.19,337.11Z"/><path class="cls-7" d="M160.9,311.7c-1.38-7.45-9.34-10.88-11.26-6.3S164.35,330.21,160.9,311.7Z"/><path class="cls-52" d="M420.23,167.59c8.5-9.61,30.48-2.75,16.17,15.51S383.32,209.34,420.23,167.59Z"/><path class="cls-53" d="M390.19,230.55c6.27-9.31,29.6-9.91,26.08,9.8S371.2,258.74,390.19,230.55Z"/><path class="cls-54" d="M317.9,221.63c7-7.35,18.91-6.18,10.68,7.93S304.76,235.48,317.9,221.63Z"/><path class="cls-55" d="M397.05,93.21c.9-9.3,23,2.28,21.51,15.59S393.38,131.11,397.05,93.21Z"/><path class="cls-14" d="M404.12,227.41c-3.94-.5-15.05,8.47-11.89,11.3S412.61,228.49,404.12,227.41Z"/><path class="cls-14" d="M431,165.32c-3.94-.5-11.24,4.58-8.08,7.41S439.5,166.4,431,165.32Z"/><path class="cls-14" d="M408.28,232.65c-2.48-.48-5.25,2.4-4,4.66S411.78,233.33,408.28,232.65Z"/><path class="cls-14" d="M327.28,219.15c-2.48-.48-9.48,1.66-8.26,3.91S330.78,219.82,327.28,219.15Z"/><path class="cls-56" d="M362.71,346.6a12.55,12.55,0,1,0,17.06-4.93A12.56,12.56,0,0,0,362.71,346.6Z"/><path class="cls-43" d="M370.53,350.91a3.62,3.62,0,1,0,4.92-1.42A3.63,3.63,0,0,0,370.53,350.91Z"/><path class="cls-57" d="M415.59,263.08a12.55,12.55,0,1,0,17.05-4.93A12.54,12.54,0,0,0,415.59,263.08Z"/><path class="cls-43" d="M423.41,267.39a3.62,3.62,0,1,0,4.92-1.42A3.62,3.62,0,0,0,423.41,267.39Z"/><path class="cls-58" d="M428.51,97.84a12.56,12.56,0,1,0,17.06-4.93A12.55,12.55,0,0,0,428.51,97.84Z"/><path class="cls-43" d="M436.33,102.16a3.63,3.63,0,1,0,4.92-1.43A3.62,3.62,0,0,0,436.33,102.16Z"/><path class="cls-59" d="M152,279.91A12.56,12.56,0,1,0,169.08,275,12.56,12.56,0,0,0,152,279.91Z"/><path class="cls-43" d="M159.84,284.23a3.63,3.63,0,1,0,4.93-1.43A3.62,3.62,0,0,0,159.84,284.23Z"/><path class="cls-60" d="M162.24,201.71a12.56,12.56,0,1,0,17.06-4.93A12.55,12.55,0,0,0,162.24,201.71Z"/><path class="cls-43" d="M170.06,206A3.63,3.63,0,1,0,175,204.6,3.63,3.63,0,0,0,170.06,206Z"/><path class="cls-61" d="M105.91,263.34A12.56,12.56,0,1,0,123,258.41,12.56,12.56,0,0,0,105.91,263.34Z"/><path class="cls-43" d="M113.73,267.65a3.63,3.63,0,1,0,4.92-1.42A3.63,3.63,0,0,0,113.73,267.65Z"/><path class="cls-62" d="M97.48,200.29a12.56,12.56,0,1,0,17.06-4.93A12.56,12.56,0,0,0,97.48,200.29Z"/><path class="cls-43" d="M105.3,204.6a3.63,3.63,0,1,0,4.93-1.42A3.62,3.62,0,0,0,105.3,204.6Z"/><path class="cls-63" d="M71.88,204.75a12.56,12.56,0,1,0,17.06-4.93A12.56,12.56,0,0,0,71.88,204.75Z"/><path class="cls-43" d="M79.7,209.06a3.63,3.63,0,1,0,4.93-1.42A3.63,3.63,0,0,0,79.7,209.06Z"/><path class="cls-64" d="M163.54,300.74a12.56,12.56,0,1,0,17.06-4.93A12.56,12.56,0,0,0,163.54,300.74Z"/><path class="cls-43" d="M171.36,305.06a3.63,3.63,0,1,0,4.93-1.43A3.62,3.62,0,0,0,171.36,305.06Z"/><path class="cls-65" d="M409,176.91A12.55,12.55,0,1,0,426.06,172,12.54,12.54,0,0,0,409,176.91Z"/><path class="cls-43" d="M416.82,181.22a3.62,3.62,0,1,0,4.92-1.42A3.63,3.63,0,0,0,416.82,181.22Z"/><path class="cls-66" d="M411.45,242.89a6.28,6.28,0,1,0,8.52-2.46A6.27,6.27,0,0,0,411.45,242.89Z"/><path class="cls-43" d="M415.36,245a1.81,1.81,0,1,0,2.46-.71A1.82,1.82,0,0,0,415.36,245Z"/><path class="cls-67" d="M456.34,283a6.27,6.27,0,1,0,8.52-2.46A6.27,6.27,0,0,0,456.34,283Z"/><path class="cls-43" d="M460.24,285.16a1.81,1.81,0,0,0,3.17,1.75,1.81,1.81,0,0,0-3.17-1.75Z"/><path class="cls-68" d="M417.8,107a6.27,6.27,0,1,0,8.52-2.46A6.27,6.27,0,0,0,417.8,107Z"/><path class="cls-43" d="M421.7,109.19a1.81,1.81,0,1,0,2.46-.71A1.82,1.82,0,0,0,421.7,109.19Z"/><path class="cls-69" d="M357.12,329.18a6.27,6.27,0,1,0,8.52-2.47A6.26,6.26,0,0,0,357.12,329.18Z"/><path class="cls-43" d="M361,331.33a1.81,1.81,0,1,0,2.46-.71A1.82,1.82,0,0,0,361,331.33Z"/><path class="cls-70" d="M110.53,229a6.27,6.27,0,1,0,8.52-2.46A6.28,6.28,0,0,0,110.53,229Z"/><path class="cls-43" d="M114.44,231.14a1.81,1.81,0,0,0,3.17,1.75,1.81,1.81,0,1,0-3.17-1.75Z"/><path class="cls-71" d="M66.22,283.35a6.27,6.27,0,1,0,8.52-2.46A6.28,6.28,0,0,0,66.22,283.35Z"/><path class="cls-43" d="M70.13,285.5a1.81,1.81,0,0,0,3.17,1.75,1.81,1.81,0,1,0-3.17-1.75Z"/><path class="cls-72" d="M90.36,291.55a6.27,6.27,0,1,0,8.52-2.46A6.26,6.26,0,0,0,90.36,291.55Z"/><path class="cls-43" d="M94.26,293.71a1.81,1.81,0,1,0,3.17,1.75,1.81,1.81,0,1,0-3.17-1.75Z"/><path class="cls-73" d="M341.78,53.66a12.56,12.56,0,1,0,10.94-14A12.56,12.56,0,0,0,341.78,53.66Z"/><path class="cls-43" d="M350.65,52.57a3.62,3.62,0,1,0,3.15-4A3.62,3.62,0,0,0,350.65,52.57Z"/><path class="cls-74" d="M321.34,93.13a6.27,6.27,0,1,0,5.46-7A6.28,6.28,0,0,0,321.34,93.13Z"/><path class="cls-43" d="M325.77,92.58a1.81,1.81,0,1,0,1.57-2A1.8,1.8,0,0,0,325.77,92.58Z"/><path class="cls-75" d="M345.71,85.64a6.27,6.27,0,1,0,5.46-7A6.28,6.28,0,0,0,345.71,85.64Z"/><path class="cls-43" d="M350.14,85.09a1.81,1.81,0,1,0,1.57-2A1.8,1.8,0,0,0,350.14,85.09Z"/><path class="cls-76" d="M265.87,278.84a6.27,6.27,0,1,0,8.52-2.46A6.27,6.27,0,0,0,265.87,278.84Z"/><path class="cls-43" d="M269.77,281a1.81,1.81,0,1,0,2.46-.71A1.82,1.82,0,0,0,269.77,281Z"/><path class="cls-77" d="M202.54,328a6.27,6.27,0,1,0,8.52-2.46A6.27,6.27,0,0,0,202.54,328Z"/><path class="cls-43" d="M206.44,330.12a1.81,1.81,0,1,0,2.46-.72A1.82,1.82,0,0,0,206.44,330.12Z"/><path class="cls-78" d="M175.67,228.57a6.27,6.27,0,1,0,8.52-2.46A6.28,6.28,0,0,0,175.67,228.57Z"/><path class="cls-43" d="M179.58,230.73A1.81,1.81,0,1,0,182,230,1.81,1.81,0,0,0,179.58,230.73Z"/><path class="cls-79" d="M437.7,211.05a6.27,6.27,0,1,0,8.52-2.46A6.27,6.27,0,0,0,437.7,211.05Z"/><path class="cls-43" d="M441.6,213.2a1.81,1.81,0,1,0,2.46-.71A1.82,1.82,0,0,0,441.6,213.2Z"/><path class="cls-80" d="M437.8,186.66a6.28,6.28,0,1,0,8.52-2.46A6.28,6.28,0,0,0,437.8,186.66Z"/><path class="cls-43" d="M441.71,188.81a1.81,1.81,0,1,0,2.46-.71A1.81,1.81,0,0,0,441.71,188.81Z"/><path class="cls-7" d="M355.68,428.24c-15.43-3.13-68.45-26.11-68.45-26.11s8,3.48,18.75,7.92c0,0-7.27-9.27-6.34-13.79,15.17,11.76,52.54,37.27,84.2,30.94C372.71,431,368.11,430.77,355.68,428.24Z"/><path class="cls-32" d="M239.85,436s0-11.33-3.88-17c4,1.64,7.47,2.92,10.57,3.92,0,0-.54,21.41,25.73,18.44C272.27,441.36,256.24,452.1,239.85,436Z"/><path class="cls-32" d="M299.64,396.26c-.93,4.52,6.33,13.78,6.34,13.79-10.71-4.44-18.75-7.92-18.75-7.92a29.88,29.88,0,0,1,3.91-9.56,15.76,15.76,0,0,1,1.57-2S295.26,392.87,299.64,396.26Z"/></g></g></svg>