<svg xmlns="http://www.w3.org/2000/svg" xmlns:xlink="http://www.w3.org/1999/xlink" viewBox="0 0 500 453.78"><defs><style>.cls-1{fill:none;}.cls-2{isolation:isolate;}.cls-3{fill:url(#linear-gradient);}.cls-101,.cls-102,.cls-103,.cls-14,.cls-16,.cls-19,.cls-21,.cls-24,.cls-25,.cls-26,.cls-28,.cls-31,.cls-33,.cls-37,.cls-39,.cls-4,.cls-45,.cls-46,.cls-5,.cls-7,.cls-75,.cls-76,.cls-8,.cls-84,.cls-88,.cls-89,.cls-9,.cls-90,.cls-96,.cls-99{mix-blend-mode:multiply;}.cls-102,.cls-103,.cls-14,.cls-16,.cls-21,.cls-25,.cls-31,.cls-34,.cls-37,.cls-39,.cls-4,.cls-45,.cls-46,.cls-5,.cls-7,.cls-75,.cls-76,.cls-8,.cls-83,.cls-88,.cls-89,.cls-9,.cls-90,.cls-96{opacity:0.36;}.cls-4{fill:url(#linear-gradient-2);}.cls-5{fill:#ff009c;}.cls-6{fill:#ae4ff9;}.cls-7{fill:url(#linear-gradient-3);}.cls-8{fill:url(#linear-gradient-4);}.cls-9{fill:url(#linear-gradient-5);}.cls-10,.cls-104,.cls-105,.cls-106,.cls-107,.cls-108,.cls-109,.cls-11,.cls-110,.cls-111,.cls-112,.cls-113,.cls-114,.cls-115,.cls-116,.cls-117,.cls-118,.cls-119,.cls-120,.cls-121,.cls-122,.cls-123,.cls-124,.cls-125,.cls-126,.cls-127,.cls-128,.cls-129,.cls-130,.cls-131,.cls-132,.cls-133,.cls-134,.cls-135,.cls-136,.cls-137,.cls-138,.cls-139,.cls-140,.cls-141,.cls-142,.cls-143,.cls-144,.cls-145,.cls-34,.cls-38,.cls-42,.cls-43,.cls-44,.cls-47,.cls-49,.cls-50,.cls-51,.cls-52,.cls-53,.cls-54,.cls-55,.cls-56,.cls-57,.cls-58,.cls-59,.cls-60,.cls-61,.cls-62,.cls-63,.cls-64,.cls-65,.cls-66,.cls-67,.cls-68,.cls-69,.cls-70,.cls-71,.cls-72,.cls-73,.cls-74,.cls-83,.cls-91,.cls-92,.cls-93,.cls-94,.cls-95{mix-blend-mode:screen;}.cls-10,.cls-11,.cls-26,.cls-28,.cls-35,.cls-38,.cls-42,.cls-43,.cls-44,.cls-85,.cls-91,.cls-92,.cls-93,.cls-94,.cls-95{opacity:0.72;}.cls-10{fill:url(#linear-gradient-6);}.cls-11{fill:url(#linear-gradient-7);}.cls-12,.cls-48{fill:#fff;}.cls-12{opacity:0.76;}.cls-13{fill:url(#linear-gradient-8);}.cls-14,.cls-84{fill:#8486ea;}.cls-15{fill:#5e51ff;opacity:0.74;}.cls-15,.cls-35,.cls-85{mix-blend-mode:color-dodge;}.cls-16{fill:url(#linear-gradient-9);}.cls-17{fill:url(#linear-gradient-10);}.cls-18{fill:url(#linear-gradient-11);}.cls-101,.cls-19,.cls-24{fill:#f01b47;}.cls-19{opacity:0.13;}.cls-20{fill:url(#linear-gradient-12);}.cls-21{fill:url(#linear-gradient-13);}.cls-22{fill:url(#linear-gradient-14);}.cls-23{fill:url(#linear-gradient-15);}.cls-24{opacity:0.05;}.cls-25{fill:url(#linear-gradient-16);}.cls-26{fill:url(#linear-gradient-17);}.cls-27{fill:#311851;}.cls-28{fill:url(#linear-gradient-18);}.cls-29{fill:#c1b7f2;}.cls-30{fill:url(#linear-gradient-19);}.cls-31{fill:url(#linear-gradient-20);}.cls-32{fill:url(#linear-gradient-21);}.cls-33{fill:#c90027;opacity:0.23;}.cls-34{fill:url(#linear-gradient-22);}.cls-35{fill:url(#linear-gradient-23);}.cls-36{fill:#9c93ec;opacity:0.46;}.cls-37{fill:#ae009c;}.cls-38{fill:url(#linear-gradient-24);}.cls-39{fill:url(#linear-gradient-25);}.cls-40{fill:#79284f;}.cls-41{fill:#ff5990;}.cls-42{fill:url(#linear-gradient-26);}.cls-43{fill:url(#linear-gradient-27);}.cls-44{fill:url(#linear-gradient-28);}.cls-45{fill:url(#linear-gradient-29);}.cls-46{fill:url(#linear-gradient-30);}.cls-47{fill:url(#radial-gradient);}.cls-49{fill:url(#radial-gradient-2);}.cls-50{fill:url(#radial-gradient-3);}.cls-51{fill:url(#radial-gradient-4);}.cls-52{fill:url(#radial-gradient-5);}.cls-53{fill:url(#radial-gradient-6);}.cls-54{fill:url(#radial-gradient-7);}.cls-55{fill:url(#radial-gradient-8);}.cls-56{fill:url(#radial-gradient-9);}.cls-57{fill:url(#radial-gradient-10);}.cls-58{fill:url(#radial-gradient-11);}.cls-59{fill:url(#radial-gradient-12);}.cls-60{fill:url(#radial-gradient-13);}.cls-61{fill:url(#radial-gradient-14);}.cls-62{fill:url(#radial-gradient-15);}.cls-63{fill:url(#radial-gradient-16);}.cls-64{fill:url(#radial-gradient-17);}.cls-65{fill:url(#radial-gradient-18);}.cls-66{fill:url(#radial-gradient-19);}.cls-67{fill:url(#radial-gradient-20);}.cls-68{fill:url(#radial-gradient-21);}.cls-69{fill:url(#radial-gradient-22);}.cls-70{fill:url(#radial-gradient-23);}.cls-71{fill:url(#radial-gradient-24);}.cls-72{fill:url(#radial-gradient-25);}.cls-73{fill:url(#radial-gradient-26);}.cls-74{fill:url(#radial-gradient-27);}.cls-75{fill:url(#linear-gradient-31);}.cls-76{fill:url(#linear-gradient-32);}.cls-77{clip-path:url(#clip-path);}.cls-78{clip-path:url(#clip-path-2);}.cls-79{fill:url(#linear-gradient-33);}.cls-80{fill:url(#linear-gradient-34);}.cls-81{fill:url(#linear-gradient-35);}.cls-82{fill:url(#linear-gradient-36);}.cls-83{fill:url(#linear-gradient-37);}.cls-84,.cls-99{opacity:0.63;}.cls-85{fill:url(#linear-gradient-38);}.cls-86{fill:url(#linear-gradient-39);}.cls-87{fill:url(#linear-gradient-40);}.cls-88{fill:url(#linear-gradient-41);}.cls-89{fill:url(#linear-gradient-42);}.cls-90{fill:url(#linear-gradient-43);}.cls-91{fill:url(#linear-gradient-44);}.cls-92{fill:url(#linear-gradient-45);}.cls-93{fill:url(#linear-gradient-46);}.cls-94{fill:url(#linear-gradient-47);}.cls-95{fill:url(#linear-gradient-48);}.cls-96{fill:url(#linear-gradient-49);}.cls-97{clip-path:url(#clip-path-3);}.cls-98{fill:url(#linear-gradient-50);}.cls-99{fill:url(#linear-gradient-51);}.cls-100{fill:url(#linear-gradient-52);}.cls-101{opacity:0.09;}.cls-102{fill:url(#linear-gradient-53);}.cls-103{fill:url(#linear-gradient-54);}.cls-104{fill:url(#radial-gradient-28);}.cls-105{fill:url(#radial-gradient-29);}.cls-106{fill:url(#radial-gradient-30);}.cls-107{fill:url(#radial-gradient-31);}.cls-108{fill:url(#radial-gradient-32);}.cls-109{fill:url(#radial-gradient-33);}.cls-110{fill:url(#radial-gradient-34);}.cls-111{fill:url(#radial-gradient-35);}.cls-112{fill:url(#radial-gradient-36);}.cls-113{fill:url(#radial-gradient-37);}.cls-114{fill:url(#radial-gradient-38);}.cls-115{fill:url(#radial-gradient-39);}.cls-116{fill:url(#radial-gradient-40);}.cls-117{fill:url(#radial-gradient-41);}.cls-118{fill:url(#radial-gradient-42);}.cls-119{fill:url(#radial-gradient-43);}.cls-120{fill:url(#radial-gradient-44);}.cls-121{fill:url(#radial-gradient-45);}.cls-122{fill:url(#radial-gradient-46);}.cls-123{fill:url(#radial-gradient-47);}.cls-124{fill:url(#radial-gradient-48);}.cls-125{fill:url(#radial-gradient-49);}.cls-126{fill:url(#radial-gradient-50);}.cls-127{fill:url(#radial-gradient-51);}.cls-128{fill:url(#radial-gradient-52);}.cls-129{fill:url(#radial-gradient-53);}.cls-130{fill:url(#radial-gradient-54);}.cls-131{fill:url(#radial-gradient-55);}.cls-132{fill:url(#radial-gradient-56);}.cls-133{fill:url(#radial-gradient-57);}.cls-134{fill:url(#radial-gradient-58);}.cls-135{fill:url(#radial-gradient-59);}.cls-136{fill:url(#radial-gradient-60);}.cls-137{fill:url(#radial-gradient-61);}.cls-138{fill:url(#radial-gradient-62);}.cls-139{fill:url(#radial-gradient-63);}.cls-140{fill:url(#radial-gradient-64);}.cls-141{fill:url(#radial-gradient-65);}.cls-142{fill:url(#radial-gradient-66);}.cls-143{fill:url(#radial-gradient-67);}.cls-144{fill:url(#radial-gradient-68);}.cls-145{fill:url(#radial-gradient-69);}</style><linearGradient id="linear-gradient" x1="118.37" y1="211.93" x2="359.4" y2="452.96" gradientTransform="matrix(-1.09, 0, 0, 1, 499.15, 0)" gradientUnits="userSpaceOnUse"><stop offset="0" stop-color="#fee6f1"/><stop offset="0.2" stop-color="#feddef"/><stop offset="0.56" stop-color="#ffd2ee"/><stop offset="0.98" stop-color="#ffcfed"/></linearGradient><linearGradient id="linear-gradient-2" x1="99.91" y1="215.35" x2="282.5" y2="262.76" gradientTransform="matrix(-1.09, 0, 0, 1, 499.15, 0)" gradientUnits="userSpaceOnUse"><stop offset="0.16" stop-color="#fff"/><stop offset="0.21" stop-color="#ffe8f6"/><stop offset="0.33" stop-color="#ffabdf"/><stop offset="0.46" stop-color="#ff77ca"/><stop offset="0.58" stop-color="#ff4cba"/><stop offset="0.7" stop-color="#ff2bad"/><stop offset="0.81" stop-color="#ff13a3"/><stop offset="0.91" stop-color="#ff059e"/><stop offset="1" stop-color="#ff009c"/></linearGradient><linearGradient id="linear-gradient-3" x1="352.41" y1="276.99" x2="371.48" y2="158.92" gradientTransform="matrix(-1.09, 0, 0, 1, 499.15, 0)" gradientUnits="userSpaceOnUse"><stop offset="0" stop-color="#ae009c"/><stop offset="0.12" stop-color="#b71ea7"/><stop offset="0.39" stop-color="#cf69c5"/><stop offset="0.78" stop-color="#f5e1f3"/><stop offset="0.88" stop-color="#fff"/></linearGradient><linearGradient id="linear-gradient-4" x1="382.73" y1="176.42" x2="322.69" y2="265.63" gradientTransform="matrix(-1.09, 0, 0, 1, 499.15, 0)" gradientUnits="userSpaceOnUse"><stop offset="0" stop-color="#fff"/><stop offset="0.09" stop-color="#fdf9fd"/><stop offset="0.22" stop-color="#f7e7f6"/><stop offset="0.36" stop-color="#eecaea"/><stop offset="0.52" stop-color="#e1a1db"/><stop offset="0.7" stop-color="#d16dc6"/><stop offset="0.88" stop-color="#bd2eae"/><stop offset="1" stop-color="#ae009c"/></linearGradient><linearGradient id="linear-gradient-5" x1="356.95" y1="200.04" x2="314.87" y2="263.53" gradientTransform="matrix(-1.09, 0, 0, 1, 499.15, 0)" gradientUnits="userSpaceOnUse"><stop offset="0" stop-color="#fff"/><stop offset="0.09" stop-color="#fdf9fd"/><stop offset="0.22" stop-color="#f8e8f6"/><stop offset="0.36" stop-color="#efcdeb"/><stop offset="0.52" stop-color="#e3a6dc"/><stop offset="0.68" stop-color="#d375c9"/><stop offset="0.85" stop-color="#c039b2"/><stop offset="1" stop-color="#ae009c"/></linearGradient><linearGradient id="linear-gradient-6" x1="321.13" y1="115.03" x2="348.66" y2="142.55" gradientTransform="matrix(-1.09, 0, 0, 1, 499.15, 0)" gradientUnits="userSpaceOnUse"><stop offset="0" stop-color="aqua"/><stop offset="0.09" stop-color="#00dbdb"/><stop offset="0.32" stop-color="#007e7e"/><stop offset="0.51" stop-color="#003a3a"/><stop offset="0.65" stop-color="#001010"/><stop offset="0.72"/></linearGradient><linearGradient id="linear-gradient-7" x1="329.3" y1="108.07" x2="404.09" y2="182.85" xlink:href="#linear-gradient-6"/><linearGradient id="linear-gradient-8" x1="112.94" y1="96.1" x2="341.63" y2="303.22" gradientTransform="matrix(-1.09, 0, 0, 1, 499.15, 0)" gradientUnits="userSpaceOnUse"><stop offset="0" stop-color="#ddd3eb"/><stop offset="0.02" stop-color="#dbd1eb"/><stop offset="0.63" stop-color="#a69cfa"/><stop offset="0.92" stop-color="#9288ff"/></linearGradient><linearGradient id="linear-gradient-9" x1="191" y1="282.87" x2="186.05" y2="217.5" gradientTransform="matrix(-1.09, 0, 0, 1, 499.15, 0)" gradientUnits="userSpaceOnUse"><stop offset="0" stop-color="#fff"/><stop offset="1" stop-color="#8486ea"/></linearGradient><linearGradient id="linear-gradient-10" x1="440.87" y1="167.31" x2="328.83" y2="412.62" gradientTransform="matrix(-0.97, -0.45, -0.49, 0.89, 627.6, 221.57)" gradientUnits="userSpaceOnUse"><stop offset="0" stop-color="#9288ff"/><stop offset="0.07" stop-color="#998ffd"/><stop offset="0.47" stop-color="#beb4f3"/><stop offset="0.79" stop-color="#d5cbed"/><stop offset="1" stop-color="#ddd3eb"/></linearGradient><linearGradient id="linear-gradient-11" x1="428.4" y1="345.95" x2="383.96" y2="345.95" gradientTransform="matrix(-0.97, -0.45, -0.49, 0.89, 627.6, 221.57)" gradientUnits="userSpaceOnUse"><stop offset="0.08" stop-color="#ff6c00"/><stop offset="0.23" stop-color="#ff7e10"/><stop offset="0.54" stop-color="#ffae3a"/><stop offset="0.97" stop-color="#fffa7d"/><stop offset="1" stop-color="#ffff81"/></linearGradient><linearGradient id="linear-gradient-12" x1="95.09" y1="377.65" x2="290.28" y2="141.08" gradientTransform="matrix(-1.09, 0, 0, 1, 499.15, 0)" gradientUnits="userSpaceOnUse"><stop offset="0" stop-color="#ddd3eb"/><stop offset="0.2" stop-color="#d5cbed"/><stop offset="0.52" stop-color="#beb4f3"/><stop offset="0.92" stop-color="#998ffd"/><stop offset="0.98" stop-color="#9288ff"/></linearGradient><linearGradient id="linear-gradient-13" x1="266.14" y1="387.61" x2="268.98" y2="189.52" gradientTransform="matrix(-1.09, 0, 0, 1, 499.15, 0)" gradientUnits="userSpaceOnUse"><stop offset="0" stop-color="#fff"/><stop offset="0.32" stop-color="#cdcdf6"/><stop offset="0.62" stop-color="#a5a7f0"/><stop offset="0.86" stop-color="#8d8fec"/><stop offset="1" stop-color="#8486ea"/></linearGradient><linearGradient id="linear-gradient-14" x1="139.27" y1="281.03" x2="76.33" y2="281.03" gradientTransform="matrix(-1.09, 0, 0, 1, 499.15, 0)" gradientUnits="userSpaceOnUse"><stop offset="0" stop-color="#ff6c00"/><stop offset="0.09" stop-color="#ff8113"/><stop offset="0.3" stop-color="#ffae3a"/><stop offset="0.5" stop-color="#ffd159"/><stop offset="0.69" stop-color="#ffea6f"/><stop offset="0.86" stop-color="#fffa7c"/><stop offset="1" stop-color="#ffff81"/></linearGradient><linearGradient id="linear-gradient-15" x1="162.48" y1="-161.73" x2="211" y2="-113.21" gradientTransform="matrix(-0.87, -0.6, -0.65, 0.8, 414.87, 283.05)" xlink:href="#linear-gradient-12"/><linearGradient id="linear-gradient-16" x1="193.68" y1="-154.37" x2="176.6" y2="-116.96" gradientTransform="matrix(-0.87, -0.6, -0.65, 0.8, 414.87, 283.05)" gradientUnits="userSpaceOnUse"><stop offset="0" stop-color="#8486ea"/><stop offset="1" stop-color="#fff"/></linearGradient><linearGradient id="linear-gradient-17" x1="219.58" y1="199.18" x2="206.3" y2="38.49" gradientTransform="matrix(-1.09, 0, 0, 1, 499.15, 0)" gradientUnits="userSpaceOnUse"><stop offset="0" stop-color="#fff"/><stop offset="0.03" stop-color="#fcf6fc"/><stop offset="0.52" stop-color="#d373c9"/><stop offset="0.85" stop-color="#b820a9"/><stop offset="1" stop-color="#ae009c"/></linearGradient><linearGradient id="linear-gradient-18" x1="238.47" y1="197.7" x2="226.76" y2="56.06" xlink:href="#linear-gradient-17"/><linearGradient id="linear-gradient-19" x1="287.87" y1="196.89" x2="152.8" y2="70.06" gradientTransform="matrix(-1.09, 0, 0, 1, 499.15, 0)" gradientUnits="userSpaceOnUse"><stop offset="0.02" stop-color="#9288ff"/><stop offset="0.08" stop-color="#998ffd"/><stop offset="0.48" stop-color="#beb4f3"/><stop offset="0.8" stop-color="#d5cbed"/><stop offset="1" stop-color="#ddd3eb"/></linearGradient><linearGradient id="linear-gradient-20" x1="223.77" y1="144.19" x2="149.94" y2="69.69" gradientTransform="matrix(-1.09, 0, 0, 1, 499.15, 0)" gradientUnits="userSpaceOnUse"><stop offset="0" stop-color="#fff"/><stop offset="0.08" stop-color="#ececfc"/><stop offset="0.27" stop-color="#c6c7f5"/><stop offset="0.46" stop-color="#a9abf0"/><stop offset="0.64" stop-color="#9596ed"/><stop offset="0.82" stop-color="#888aeb"/><stop offset="1" stop-color="#8486ea"/></linearGradient><linearGradient id="linear-gradient-21" x1="170.48" y1="-178.97" x2="222.43" y2="-127.01" gradientTransform="matrix(-0.87, -0.6, -0.65, 0.8, 414.87, 283.05)" gradientUnits="userSpaceOnUse"><stop offset="0" stop-color="#ffff81"/><stop offset="0.13" stop-color="#fff97c"/><stop offset="0.31" stop-color="#ffe86d"/><stop offset="0.51" stop-color="#ffcc54"/><stop offset="0.73" stop-color="#ffa532"/><stop offset="0.97" stop-color="#ff7306"/><stop offset="1" stop-color="#ff6c00"/></linearGradient><linearGradient id="linear-gradient-22" x1="186.25" y1="-187.17" x2="196.83" y2="-140.43" gradientTransform="matrix(-0.87, -0.6, -0.65, 0.8, 414.87, 283.05)" gradientUnits="userSpaceOnUse"><stop offset="0" stop-color="#ffffb1"/><stop offset="0.09" stop-color="#f5f5aa"/><stop offset="0.23" stop-color="#dada97"/><stop offset="0.42" stop-color="#adad78"/><stop offset="0.64" stop-color="#70704e"/><stop offset="0.9" stop-color="#222218"/><stop offset="1"/></linearGradient><linearGradient id="linear-gradient-23" x1="204.21" y1="-129.36" x2="158.84" y2="-83.98" gradientTransform="matrix(-0.87, -0.6, -0.65, 0.8, 414.87, 283.05)" gradientUnits="userSpaceOnUse"><stop offset="0" stop-color="#5e51ff"/><stop offset="0.12" stop-color="#5146db"/><stop offset="0.45" stop-color="#2f287e"/><stop offset="0.71" stop-color="#15123a"/><stop offset="0.9" stop-color="#060510"/><stop offset="1"/></linearGradient><linearGradient id="linear-gradient-24" x1="196.77" y1="-140.84" x2="207.72" y2="-111.5" gradientTransform="matrix(-0.87, -0.6, -0.65, 0.8, 414.87, 283.05)" gradientUnits="userSpaceOnUse"><stop offset="0.22" stop-color="aqua"/><stop offset="0.23" stop-color="#00f6f6"/><stop offset="0.34" stop-color="#00acac"/><stop offset="0.44" stop-color="#006f6f"/><stop offset="0.53" stop-color="#003f3f"/><stop offset="0.61" stop-color="#001d1d"/><stop offset="0.68" stop-color="#000808"/><stop offset="0.72"/></linearGradient><linearGradient id="linear-gradient-25" x1="65.96" y1="355.54" x2="264.71" y2="114.64" gradientTransform="matrix(-1.09, 0, 0, 1, 499.15, 0)" gradientUnits="userSpaceOnUse"><stop offset="0.31" stop-color="#fff"/><stop offset="0.44" stop-color="#e2e2fa"/><stop offset="0.7" stop-color="#afb1f1"/><stop offset="0.89" stop-color="#9092ec"/><stop offset="1" stop-color="#8486ea"/></linearGradient><linearGradient id="linear-gradient-26" x1="265.78" y1="181.34" x2="265.78" y2="150.53" gradientTransform="matrix(-1.09, 0, 0, 1, 499.15, 0)" gradientUnits="userSpaceOnUse"><stop offset="0"/><stop offset="0.09" stop-color="#000707"/><stop offset="0.22" stop-color="#001919"/><stop offset="0.37" stop-color="#003838"/><stop offset="0.53" stop-color="#006363"/><stop offset="0.72" stop-color="#009a9a"/><stop offset="0.91" stop-color="#00dcdc"/><stop offset="1" stop-color="aqua"/></linearGradient><linearGradient id="linear-gradient-27" x1="240.74" y1="182.9" x2="240.74" y2="155.33" xlink:href="#linear-gradient-26"/><linearGradient id="linear-gradient-28" x1="226.17" y1="162.01" x2="226.17" y2="116.85" xlink:href="#linear-gradient-26"/><linearGradient id="linear-gradient-29" x1="418.45" y1="490.08" x2="418.45" y2="128.12" gradientTransform="matrix(-0.97, -0.45, -0.49, 0.89, 627.6, 221.57)" gradientUnits="userSpaceOnUse"><stop offset="0.37" stop-color="#fff"/><stop offset="1" stop-color="#8486ea"/></linearGradient><linearGradient id="linear-gradient-30" x1="268.26" y1="263.31" x2="135.44" y2="263.31" gradientTransform="matrix(-1.09, 0, 0, 1, 499.15, 0)" gradientUnits="userSpaceOnUse"><stop offset="0.02" stop-color="#fff"/><stop offset="1" stop-color="#8486ea"/></linearGradient><radialGradient id="radial-gradient" cx="216.71" cy="170.92" r="8.62" gradientTransform="matrix(-1, 0, 0, 1, 499.22, 0)" gradientUnits="userSpaceOnUse"><stop offset="0.3" stop-color="#ff00ea"/><stop offset="0.45" stop-color="#b200a4"/><stop offset="0.6" stop-color="#730069"/><stop offset="0.73" stop-color="#41003c"/><stop offset="0.85" stop-color="#1e001b"/><stop offset="0.94" stop-color="#080007"/><stop offset="1"/></radialGradient><radialGradient id="radial-gradient-2" cx="255.87" cy="123.93" r="8.62" xlink:href="#radial-gradient"/><radialGradient id="radial-gradient-3" cx="192.68" cy="58.1" r="8.62" xlink:href="#radial-gradient"/><radialGradient id="radial-gradient-4" cx="277.98" cy="194.26" r="8.62" xlink:href="#radial-gradient"/><radialGradient id="radial-gradient-5" cx="362.03" cy="157.99" r="8.62" xlink:href="#radial-gradient"/><radialGradient id="radial-gradient-6" cx="395.18" cy="200.47" r="8.62" xlink:href="#radial-gradient"/><radialGradient id="radial-gradient-7" cx="421.15" cy="165.37" r="8.62" xlink:href="#radial-gradient"/><radialGradient id="radial-gradient-8" cx="241.67" cy="48.02" r="8.62" xlink:href="#radial-gradient"/><radialGradient id="radial-gradient-9" cx="269.36" cy="113.17" r="4.3" xlink:href="#radial-gradient"/><radialGradient id="radial-gradient-10" cx="241.73" cy="94.63" r="4.3" xlink:href="#radial-gradient"/><radialGradient id="radial-gradient-11" cx="200.38" cy="67.18" r="4.3" xlink:href="#radial-gradient"/><radialGradient id="radial-gradient-12" cx="226.68" cy="156.75" r="4.3" xlink:href="#radial-gradient"/><radialGradient id="radial-gradient-13" cx="408.1" cy="178.29" r="4.3" xlink:href="#radial-gradient"/><radialGradient id="radial-gradient-14" cx="225.33" cy="97.8" r="8.62" xlink:href="#radial-gradient"/><radialGradient id="radial-gradient-15" cx="399.49" cy="222.58" r="4.3" xlink:href="#radial-gradient"/><radialGradient id="radial-gradient-16" cx="268.45" cy="168.46" r="4.3" xlink:href="#radial-gradient"/><radialGradient id="radial-gradient-17" cx="251.22" cy="165.39" r="4.3" xlink:href="#radial-gradient"/><radialGradient id="radial-gradient-18" cx="298.21" cy="156.75" r="4.3" xlink:href="#radial-gradient"/><radialGradient id="radial-gradient-19" cx="319.99" cy="207.27" r="4.3" xlink:href="#radial-gradient"/><radialGradient id="radial-gradient-20" cx="349.36" cy="169.68" r="4.3" xlink:href="#radial-gradient"/><radialGradient id="radial-gradient-21" cx="225.43" cy="44.33" r="4.3" xlink:href="#radial-gradient"/><radialGradient id="radial-gradient-22" cx="371.42" cy="257.41" r="4.3" xlink:href="#radial-gradient"/><radialGradient id="radial-gradient-23" cx="354.19" cy="254.34" r="4.3" xlink:href="#radial-gradient"/><radialGradient id="radial-gradient-24" cx="223.05" cy="215.73" r="8.62" xlink:href="#radial-gradient"/><radialGradient id="radial-gradient-25" cx="266.28" cy="240.31" r="8.62" xlink:href="#radial-gradient"/><radialGradient id="radial-gradient-26" cx="353.67" cy="189.41" r="8.62" xlink:href="#radial-gradient"/><radialGradient id="radial-gradient-27" cx="214.97" cy="202.8" r="4.3" xlink:href="#radial-gradient"/><linearGradient id="linear-gradient-31" x1="282.32" y1="-49.38" x2="318.11" y2="-49.38" gradientTransform="matrix(-1, -0.4, -0.43, 0.92, 571.08, 256.03)" xlink:href="#linear-gradient-16"/><linearGradient id="linear-gradient-32" x1="355.77" y1="25.39" x2="355.77" y2="-3.74" gradientTransform="matrix(-0.62, -0.82, -0.89, 0.57, 526.37, 382.37)" xlink:href="#linear-gradient-16"/><clipPath id="clip-path"><path id="SVGID" class="cls-1" d="M284.5,76.16c3.87-1.38,8.47-1.08,13.38,2.65,13.22,10,7.32,31.08,7.32,31.08a5.45,5.45,0,0,1-.24.84c-1,3.08-4.36,4.82-8.49,5.31a137.23,137.23,0,0,0-23-28.35c.12-.37.27-.75.44-1.15C275.48,82.81,279.33,78,284.5,76.16Z"/></clipPath><clipPath id="clip-path-2"><path id="SVGID-2" data-name="SVGID" class="cls-1" d="M305.2,109.89s5.9-21.06-7.32-31.08c-13-9.84-23.75,4.12-24.71,10.07s.9,18.57,8.88,23.9S304.07,117.27,305.2,109.89Z"/></clipPath><linearGradient id="linear-gradient-33" x1="307.25" y1="-25.84" x2="289.19" y2="-71.55" gradientTransform="matrix(-1, -0.4, -0.43, 0.92, 571.08, 256.03)" gradientUnits="userSpaceOnUse"><stop offset="0" stop-color="#fff"/><stop offset="0.14" stop-color="#f8f8fc"/><stop offset="0.36" stop-color="#e3e5f2"/><stop offset="0.61" stop-color="#c2c6e3"/><stop offset="0.9" stop-color="#949bcd"/><stop offset="1" stop-color="#838bc5"/></linearGradient><linearGradient id="linear-gradient-34" x1="384.62" y1="-21.64" x2="384.62" y2="-55.8" gradientTransform="matrix(-1.03, -0.51, -0.3, 0.91, 669.26, 324.21)" gradientUnits="userSpaceOnUse"><stop offset="0" stop-color="#006cff"/><stop offset="0.05" stop-color="#0063eb"/><stop offset="0.2" stop-color="#0049ae"/><stop offset="0.35" stop-color="#003379"/><stop offset="0.5" stop-color="#00214d"/><stop offset="0.64" stop-color="#00122c"/><stop offset="0.77" stop-color="#000814"/><stop offset="0.9" stop-color="#000205"/><stop offset="1"/></linearGradient><linearGradient id="linear-gradient-35" x1="384.62" y1="-22.95" x2="384.62" y2="-54.49" gradientTransform="matrix(-1.03, -0.51, -0.3, 0.91, 669.26, 324.21)" gradientUnits="userSpaceOnUse"><stop offset="0" stop-color="aqua"/><stop offset="0.15" stop-color="#00e9ff"/><stop offset="0.45" stop-color="#00b0ff"/><stop offset="0.78" stop-color="#006cff"/></linearGradient><linearGradient id="linear-gradient-36" x1="384.62" y1="-27.6" x2="384.62" y2="-49.84" xlink:href="#linear-gradient-34"/><linearGradient id="linear-gradient-37" x1="130.16" y1="-221.89" x2="117.03" y2="-244.63" gradientTransform="matrix(-0.72, 0.75, 0.81, 0.66, 566.29, 164.95)" gradientUnits="userSpaceOnUse"><stop offset="0"/><stop offset="0.1" stop-color="#222218"/><stop offset="0.36" stop-color="#70704e"/><stop offset="0.58" stop-color="#adad78"/><stop offset="0.77" stop-color="#dada97"/><stop offset="0.91" stop-color="#f5f5aa"/><stop offset="1" stop-color="#ffffb1"/></linearGradient><linearGradient id="linear-gradient-38" x1="352.3" y1="6.26" x2="356.52" y2="30.4" gradientTransform="matrix(-0.62, -0.82, -0.89, 0.57, 526.37, 382.37)" gradientUnits="userSpaceOnUse"><stop offset="0" stop-color="#5e51ff"/><stop offset="0.1" stop-color="#574bed"/><stop offset="0.31" stop-color="#463cbe"/><stop offset="0.6" stop-color="#2a2472"/><stop offset="0.96" stop-color="#04030b"/><stop offset="1"/></linearGradient><linearGradient id="linear-gradient-39" x1="43.44" y1="204.09" x2="270.35" y2="431" xlink:href="#linear-gradient"/><linearGradient id="linear-gradient-40" x1="200.75" y1="194.93" x2="379.08" y2="373.27" xlink:href="#linear-gradient"/><linearGradient id="linear-gradient-41" x1="-5.26" y1="111.53" x2="622.96" y2="739.75" gradientTransform="matrix(-1.09, 0, 0, 1, 499.15, 0)" gradientUnits="userSpaceOnUse"><stop offset="0.2" stop-color="#fff"/><stop offset="0.22" stop-color="#fff2fa"/><stop offset="0.35" stop-color="#ffb3e1"/><stop offset="0.47" stop-color="#ff7ccc"/><stop offset="0.6" stop-color="#ff50bb"/><stop offset="0.71" stop-color="#ff2dad"/><stop offset="0.82" stop-color="#ff14a4"/><stop offset="0.92" stop-color="#ff059e"/><stop offset="1" stop-color="#ff009c"/></linearGradient><linearGradient id="linear-gradient-42" x1="152.5" y1="440.97" x2="152.5" y2="202.5" gradientTransform="matrix(-1.09, 0, 0, 1, 499.15, 0)" gradientUnits="userSpaceOnUse"><stop offset="0" stop-color="#ff009c"/><stop offset="0.12" stop-color="#ff049d"/><stop offset="0.24" stop-color="#ff0fa2"/><stop offset="0.34" stop-color="#ff21a9"/><stop offset="0.45" stop-color="#ff3bb3"/><stop offset="0.55" stop-color="#ff5dc0"/><stop offset="0.65" stop-color="#ff86d0"/><stop offset="0.75" stop-color="#ffb7e3"/><stop offset="0.85" stop-color="#ffeef8"/><stop offset="0.88" stop-color="#fff"/></linearGradient><linearGradient id="linear-gradient-43" x1="127.17" y1="220.77" x2="561.15" y2="654.76" gradientTransform="matrix(-1.09, 0, 0, 1, 499.15, 0)" gradientUnits="userSpaceOnUse"><stop offset="0.12" stop-color="#fff"/><stop offset="0.25" stop-color="#ffc1e7"/><stop offset="0.4" stop-color="#ff87d1"/><stop offset="0.53" stop-color="#ff57be"/><stop offset="0.66" stop-color="#ff31af"/><stop offset="0.78" stop-color="#ff16a5"/><stop offset="0.89" stop-color="#ff069e"/><stop offset="0.97" stop-color="#ff009c"/></linearGradient><linearGradient id="linear-gradient-44" x1="161.9" y1="275.11" x2="316.45" y2="429.66" xlink:href="#linear-gradient-6"/><linearGradient id="linear-gradient-45" x1="231.64" y1="220.35" x2="313.65" y2="302.37" xlink:href="#linear-gradient-6"/><linearGradient id="linear-gradient-46" x1="126.97" y1="242.28" x2="187.8" y2="303.12" xlink:href="#linear-gradient-6"/><linearGradient id="linear-gradient-47" x1="15.83" y1="289.34" x2="52.12" y2="325.63" xlink:href="#linear-gradient-6"/><linearGradient id="linear-gradient-48" x1="82.18" y1="321.27" x2="133.94" y2="373.03" gradientTransform="matrix(-1.09, 0, 0, 1, 499.15, 0)" gradientUnits="userSpaceOnUse"><stop offset="0" stop-color="aqua"/><stop offset="0.12" stop-color="#00dbdb"/><stop offset="0.45" stop-color="#007e7e"/><stop offset="0.71" stop-color="#003a3a"/><stop offset="0.9" stop-color="#001010"/><stop offset="1"/></linearGradient><linearGradient id="linear-gradient-49" x1="44.69" y1="122.63" x2="1491.27" y2="1569.21" gradientTransform="matrix(-1.09, 0, 0, 1, 499.15, 0)" gradientUnits="userSpaceOnUse"><stop offset="0" stop-color="#fff"/><stop offset="0.07" stop-color="#ffdff3"/><stop offset="0.22" stop-color="#ffa5dc"/><stop offset="0.36" stop-color="#ff72c8"/><stop offset="0.5" stop-color="#ff49b8"/><stop offset="0.64" stop-color="#ff29ac"/><stop offset="0.77" stop-color="#ff12a3"/><stop offset="0.89" stop-color="#ff059e"/><stop offset="1" stop-color="#ff009c"/></linearGradient><clipPath id="clip-path-3"><path id="SVGID-3" data-name="SVGID" class="cls-1" d="M393.06,269.86l-7.68-19.29s-1.49-3.84-8.37,3.15c0,0,1.2-19,23.63-14.27,21,4.41,21.76,59.37,21.76,59.37l-19.54,3.77Z"/></clipPath><linearGradient id="linear-gradient-50" x1="36.72" y1="261.1" x2="188.95" y2="351.59" gradientTransform="matrix(-1.08, 0.13, 0.14, 0.99, 452.77, -49.75)" xlink:href="#linear-gradient-12"/><linearGradient id="linear-gradient-51" x1="85.94" y1="413.28" x2="85.94" y2="162.43" gradientTransform="matrix(-1.08, 0.13, 0.14, 0.99, 452.77, -49.75)" gradientUnits="userSpaceOnUse"><stop offset="0.16" stop-color="#fff"/><stop offset="0.32" stop-color="#e2e2fa"/><stop offset="0.63" stop-color="#afb1f1"/><stop offset="0.87" stop-color="#9092ec"/><stop offset="1" stop-color="#8486ea"/></linearGradient><linearGradient id="linear-gradient-52" x1="89.38" y1="329.46" x2="46.17" y2="329.46" gradientTransform="matrix(-1.08, 0.13, 0.14, 0.99, 452.77, -49.75)" xlink:href="#linear-gradient-14"/><linearGradient id="linear-gradient-53" x1="88.22" y1="276.71" x2="158.19" y2="346.69" gradientTransform="matrix(-1.08, 0.13, 0.14, 0.99, 452.77, -49.75)" gradientUnits="userSpaceOnUse"><stop offset="0" stop-color="#8486ea"/><stop offset="0.98" stop-color="#fff"/></linearGradient><linearGradient id="linear-gradient-54" x1="85.94" y1="340.09" x2="85.94" y2="171.47" gradientTransform="matrix(-1.08, 0.13, 0.14, 0.99, 452.77, -49.75)" gradientUnits="userSpaceOnUse"><stop offset="0" stop-color="#fff"/><stop offset="0.19" stop-color="#e2e2fa"/><stop offset="0.56" stop-color="#afb1f1"/><stop offset="0.84" stop-color="#9092ec"/><stop offset="1" stop-color="#8486ea"/></linearGradient><radialGradient id="radial-gradient-28" cx="459.63" cy="131.1" r="8.62" gradientTransform="matrix(-0.56, -0.83, -0.83, 0.56, 624.6, 734.97)" xlink:href="#radial-gradient"/><radialGradient id="radial-gradient-29" cx="480.75" cy="85.35" r="8.62" gradientTransform="matrix(-0.56, -0.83, -0.83, 0.56, 624.6, 734.97)" xlink:href="#radial-gradient"/><radialGradient id="radial-gradient-30" cx="498.55" cy="10.51" r="8.62" gradientTransform="matrix(-0.56, -0.83, -0.83, 0.56, 624.6, 734.97)" xlink:href="#radial-gradient"/><radialGradient id="radial-gradient-31" cx="502.86" cy="155.68" r="8.62" gradientTransform="matrix(-0.56, -0.83, -0.83, 0.56, 624.6, 734.97)" xlink:href="#radial-gradient"/><radialGradient id="radial-gradient-32" cx="586.91" cy="119.41" r="8.62" gradientTransform="matrix(-0.56, -0.83, -0.83, 0.56, 624.6, 734.97)" xlink:href="#radial-gradient"/><radialGradient id="radial-gradient-33" cx="620.06" cy="161.89" r="8.62" gradientTransform="matrix(-0.56, -0.83, -0.83, 0.56, 624.6, 734.97)" xlink:href="#radial-gradient"/><radialGradient id="radial-gradient-34" cx="646.03" cy="126.79" r="8.62" gradientTransform="matrix(-0.56, -0.83, -0.83, 0.56, 624.6, 734.97)" xlink:href="#radial-gradient"/><radialGradient id="radial-gradient-35" cx="562.37" cy="83.2" r="8.62" gradientTransform="matrix(-0.56, -0.83, -0.83, 0.56, 624.6, 734.97)" xlink:href="#radial-gradient"/><radialGradient id="radial-gradient-36" cx="489.03" cy="164.38" r="8.62" gradientTransform="matrix(-0.56, -0.83, -0.83, 0.56, 624.6, 734.97)" xlink:href="#radial-gradient"/><radialGradient id="radial-gradient-37" cx="466.55" cy="9.45" r="8.62" gradientTransform="matrix(-0.56, -0.83, -0.83, 0.56, 624.6, 734.97)" xlink:href="#radial-gradient"/><radialGradient id="radial-gradient-38" cx="494.24" cy="74.59" r="4.3" gradientTransform="matrix(-0.56, -0.83, -0.83, 0.56, 624.6, 734.97)" xlink:href="#radial-gradient"/><radialGradient id="radial-gradient-39" cx="453.97" cy="83.82" r="4.3" gradientTransform="matrix(-0.56, -0.83, -0.83, 0.56, 624.6, 734.97)" xlink:href="#radial-gradient"/><radialGradient id="radial-gradient-40" cx="497.34" cy="-13.81" r="4.3" gradientTransform="matrix(-0.56, -0.83, -0.83, 0.56, 624.6, 734.97)" xlink:href="#radial-gradient"/><radialGradient id="radial-gradient-41" cx="454.54" cy="18.53" r="4.3" gradientTransform="matrix(-0.56, -0.83, -0.83, 0.56, 624.6, 734.97)" xlink:href="#radial-gradient"/><radialGradient id="radial-gradient-42" cx="451.56" cy="118.17" r="4.3" gradientTransform="matrix(-0.56, -0.83, -0.83, 0.56, 624.6, 734.97)" xlink:href="#radial-gradient"/><radialGradient id="radial-gradient-43" cx="632.98" cy="139.71" r="4.3" gradientTransform="matrix(-0.56, -0.83, -0.83, 0.56, 624.6, 734.97)" xlink:href="#radial-gradient"/><radialGradient id="radial-gradient-44" cx="696.68" cy="-22.71" r="8.62" gradientTransform="matrix(0.81, -0.59, -0.59, -0.81, -151.68, 777.07)" xlink:href="#radial-gradient"/><radialGradient id="radial-gradient-45" cx="729.82" cy="19.77" r="8.62" gradientTransform="matrix(0.81, -0.59, -0.59, -0.81, -151.68, 777.07)" xlink:href="#radial-gradient"/><radialGradient id="radial-gradient-46" cx="755.8" cy="-15.33" r="8.62" gradientTransform="matrix(0.81, -0.59, -0.59, -0.81, -151.68, 777.07)" xlink:href="#radial-gradient"/><radialGradient id="radial-gradient-47" cx="769.7" cy="-4.16" r="8.62" gradientTransform="matrix(0.81, -0.59, -0.59, -0.81, -151.68, 777.07)" xlink:href="#radial-gradient"/><radialGradient id="radial-gradient-48" cx="742.75" cy="-2.41" r="4.3" gradientTransform="matrix(0.81, -0.59, -0.59, -0.81, -151.68, 777.07)" xlink:href="#radial-gradient"/><radialGradient id="radial-gradient-49" cx="641.59" cy="187.08" r="4.3" gradientTransform="matrix(-0.56, -0.83, -0.83, 0.56, 624.6, 734.97)" xlink:href="#radial-gradient"/><radialGradient id="radial-gradient-50" cx="624.37" cy="184.01" r="4.3" gradientTransform="matrix(-0.56, -0.83, -0.83, 0.56, 624.6, 734.97)" xlink:href="#radial-gradient"/><radialGradient id="radial-gradient-51" cx="567.44" cy="179.87" r="8.62" gradientTransform="matrix(-0.56, -0.83, -0.83, 0.56, 624.6, 734.97)" xlink:href="#radial-gradient"/><radialGradient id="radial-gradient-52" cx="487.61" cy="-79.67" r="8.62" gradientTransform="matrix(-0.56, -0.83, -0.83, 0.56, 624.6, 734.97)" xlink:href="#radial-gradient"/><radialGradient id="radial-gradient-53" cx="462.01" cy="-52.23" r="8.62" gradientTransform="matrix(-0.56, -0.83, -0.83, 0.56, 624.6, 734.97)" xlink:href="#radial-gradient"/><radialGradient id="radial-gradient-54" cx="474.76" cy="-47.75" r="4.3" gradientTransform="matrix(-0.56, -0.83, -0.83, 0.56, 624.6, 734.97)" xlink:href="#radial-gradient"/><radialGradient id="radial-gradient-55" cx="588.98" cy="205.06" r="4.3" gradientTransform="matrix(-0.56, -0.83, -0.83, 0.56, 624.6, 734.97)" xlink:href="#radial-gradient"/><radialGradient id="radial-gradient-56" cx="571.75" cy="201.98" r="4.3" gradientTransform="matrix(-0.56, -0.83, -0.83, 0.56, 624.6, 734.97)" xlink:href="#radial-gradient"/><radialGradient id="radial-gradient-57" cx="523.09" cy="118.17" r="4.3" gradientTransform="matrix(-0.56, -0.83, -0.83, 0.56, 624.6, 734.97)" xlink:href="#radial-gradient"/><radialGradient id="radial-gradient-58" cx="544.87" cy="168.69" r="4.3" gradientTransform="matrix(-0.56, -0.83, -0.83, 0.56, 624.6, 734.97)" xlink:href="#radial-gradient"/><radialGradient id="radial-gradient-59" cx="574.24" cy="131.1" r="4.3" gradientTransform="matrix(-0.56, -0.83, -0.83, 0.56, 624.6, 734.97)" xlink:href="#radial-gradient"/><radialGradient id="radial-gradient-60" cx="489.03" cy="46.75" r="4.3" gradientTransform="matrix(-0.56, -0.83, -0.83, 0.56, 624.6, 734.97)" xlink:href="#radial-gradient"/><radialGradient id="radial-gradient-61" cx="595.63" cy="213.93" r="4.3" gradientTransform="matrix(-0.56, -0.83, -0.83, 0.56, 624.6, 734.97)" xlink:href="#radial-gradient"/><radialGradient id="radial-gradient-62" cx="678" cy="235.39" r="8.62" gradientTransform="matrix(-0.95, -0.3, -0.3, 0.95, 752.13, 316.18)" xlink:href="#radial-gradient"/><radialGradient id="radial-gradient-63" cx="430.47" cy="109.97" r="8.62" gradientTransform="matrix(-0.95, -0.3, -0.3, 0.95, 752.13, 316.18)" xlink:href="#radial-gradient"/><radialGradient id="radial-gradient-64" cx="676.79" cy="211.08" r="4.3" gradientTransform="matrix(-0.95, -0.3, -0.3, 0.95, 752.13, 316.18)" xlink:href="#radial-gradient"/><radialGradient id="radial-gradient-65" cx="633.98" cy="243.42" r="4.31" gradientTransform="matrix(-0.95, -0.3, -0.3, 0.95, 752.13, 316.18)" xlink:href="#radial-gradient"/><radialGradient id="radial-gradient-66" cx="672.31" cy="165.69" r="8.62" gradientTransform="matrix(-0.95, -0.3, -0.3, 0.95, 752.13, 316.18)" xlink:href="#radial-gradient"/><radialGradient id="radial-gradient-67" cx="506.26" cy="138.48" r="8.62" gradientTransform="matrix(-0.88, -0.48, -0.48, 0.88, 737.86, 419.4)" xlink:href="#radial-gradient"/><radialGradient id="radial-gradient-68" cx="453.5" cy="136.27" r="4.3" gradientTransform="matrix(-0.95, -0.3, -0.3, 0.95, 752.13, 316.18)" xlink:href="#radial-gradient"/><radialGradient id="radial-gradient-69" cx="668.48" cy="271.64" r="4.31" gradientTransform="matrix(-0.95, -0.3, -0.3, 0.95, 752.13, 316.18)" xlink:href="#radial-gradient"/></defs><g class="cls-2"><g id="Layer_1" data-name="Layer 1"><path class="cls-3" d="M7.62,326.72a11.83,11.83,0,0,1,2.64-.73,32.29,32.29,0,0,1-7.08-10C1.24,311.53.89,306.75.84,301.91a97.23,97.23,0,0,1,.7-15.07C3,277,8.24,269.25,16.13,263.34c7.72-5.8,17.33-10,27.12-9.9a35.38,35.38,0,0,1,10.46,1.74c-1.79-8,.55-16.91,7.16-22.08,8.44-6.62,21.05-5.25,28.62,1.85.37-1.29.65-2.62,1-4a19.81,19.81,0,0,1,4.34-9c4.48-4.9,11.56-6.78,17.67-8.67a404.71,404.71,0,0,1,46.32-11.22c15.86-2.93,31.88-4.09,48-4.63,16.42-.56,32.85-.93,49.27-1.38l48.89-1.33a3.21,3.21,0,0,1,1.66-1.05c13.63-3.86,27.42,4.53,35.26,15.3a33.22,33.22,0,0,1,6.34,23.69A20.77,20.77,0,0,1,367.32,234a22,22,0,0,1,10.34,17.75c5.5-3.8,12.25-5.32,18.95-2.17,8.61,4,13.71,13.89,14.3,23.23a16.44,16.44,0,0,1,2.44.88c2,.9,4.06,1.75,6.14,2.49s3.92,1.3,5.92,1.85c3.57-6.49,10.63-10.12,17.91-10.47,8.2-.41,16.35,3.17,23,7.66,13.71,9.22,22.81,23.55,28,39s8.21,33.66,2.63,49.37A45.21,45.21,0,0,1,465.23,392a50.71,50.71,0,0,1-27.63-1.21c-.85-.29-1.71-.6-2.57-.93a10.16,10.16,0,0,1-3.8,9.86c-4.15,3-11.06,1.87-15.27-.44a13,13,0,0,1-1.63-1.05,35.2,35.2,0,0,1-14.62,28.46c-15,10.7-36.21,11.13-52.89,4.46a65.84,65.84,0,0,1-11.42-5.95,11.8,11.8,0,0,1-3.18,8.63,19.44,19.44,0,0,1-5.84,3.83c-2.52,1.19-5,2.23-7.82,1.77-4.44-.72-8.78-3.76-12.15-6.59A36.74,36.74,0,0,1,298,422.5a34.77,34.77,0,0,1-1.63-3.37,52.53,52.53,0,0,1-3.11,6.29A58.71,58.71,0,0,1,269,448.33c-11.14,5.55-23,6.54-35.15,4.42-13.09-2.28-26.39-6.55-36.89-14.94-8.56-6.84-14.73-16-20-25.52-2.89,14-14.11,25.31-29.05,26.25-15.93,1-28.87-11.76-35.74-24.91a29.82,29.82,0,0,1-3.72-14.3,53,53,0,0,1-42.63,17.06A58.1,58.1,0,0,1,36.42,405.9C27,399.2,21.13,390.39,17.3,379.6c-2.77-7.81-4.12-17.32-.93-25C8.76,354,1.49,348.15.15,340A12.35,12.35,0,0,1,7.62,326.72Z"/><path class="cls-4" d="M324.31,247.59l-3.86,1.07c5.43-8.3,8.26-18.44,7.52-30.5a100.92,100.92,0,0,0-4.55-23.57A41.4,41.4,0,0,1,341.84,209a33.22,33.22,0,0,1,6.34,23.69A20.77,20.77,0,0,1,367.32,234a22,22,0,0,1,10.34,17.75S375.4,236,356.3,240.47c-9.87,2.3-6.73,11.67-1.39,20.19-3.82-4.83-7.19-9-9-11C340.23,243.13,336.41,244.24,324.31,247.59Z"/><path class="cls-5" d="M416.56,295.64c-4.51,24.61-27.66-29.52-30.78-38.26s-8.77-3.66-8.77-3.66c2.48-5.61,6.87-10.09,13.24-11.44C404.08,259.55,419.06,282,416.56,295.64Z"/><path class="cls-5" d="M256.66,291.24c7,2.79,14.22,3.2,23.66.46-33.33,22-40-12.84-40-12.84s-7.56-3.83-10.9,3.34l-.67-7.17,1,.15a159.75,159.75,0,0,0,16.11,1.61C246,283.74,248.35,288,256.66,291.24Z"/><path class="cls-5" d="M359.37,291.74s11.84.76,14.73-2.93c0,0,3.85,9.25-1.88,9.92-4.77.55-41.27-20.81-72.93-14.82,15.13-7.15,34.89-17.37,34.89-17.37Z"/><path class="cls-5" d="M56.36,356.4l33.89-63.14a18.74,18.74,0,0,1,16.91-10,67.62,67.62,0,0,0,20.08-2.76,150.85,150.85,0,0,0,21.39-7.72S132.57,284.58,107.26,285s-39.34,84.86-55.58,76.87c-8.39-4.13-9.21-8.3-8-11.36C45.76,352.87,51.76,358.85,56.36,356.4Z"/><path class="cls-6" d="M32,153.26c1.1-6.27,5.25-11,10.32-14.54,10.33-7.28,23.51-8.82,35.76-7.05a91.2,91.2,0,0,1,21.56,6.1,54.15,54.15,0,0,1,7.86,4,38.19,38.19,0,0,1-2.75-22.93,12.14,12.14,0,0,1,2.56-6,8.81,8.81,0,0,1,5.19-2.55c4.43-.66,9,.84,12.93,2.83a57.55,57.55,0,0,1,11.73,8.42,81.33,81.33,0,0,1,10.06,10.68A67.54,67.54,0,0,1,160,158.31c2.5,10.82,2.48,23.46-2.79,33.49a1.44,1.44,0,0,1-.26.32c-.33,7.94-.48,16.06-2.71,23.74-1,3.42-2.32,7.38-5.2,9.7a10,10,0,0,1-5.6,2.05c3.85,2.67,7.33,6.24,6.86,11.22-.53,5.67-5.88,9.42-11.24,9.77-.11,0-.23,0-.35,0a23.57,23.57,0,0,1,3.15,3.32c3.14,4.06,5.56,9.64,5,14.87-.58,5-4.61,8.29-9.45,8.94-5.45.74-10.41-2-14.38-5.54a33.75,33.75,0,0,1-7-8.07,19.1,19.1,0,0,1-3.8,7.92,29.76,29.76,0,0,1-9.86,7.63,19.89,19.89,0,0,1-10.76,1.88,22.58,22.58,0,0,1-17.36-11.6,27,27,0,0,1-2-21.3,29.66,29.66,0,0,1,6.18-10.59c-5.13.86-10.43-.59-13-5.63a13.21,13.21,0,0,1,.22-11.83c2-3.86,5.73-6.53,9.71-8.06a27,27,0,0,1,7.82-1.6,102.46,102.46,0,0,1-25.4-11.52,92.5,92.5,0,0,1-14.56-11.19c-4.23-4-8-8.73-10-14.26a28.86,28.86,0,0,1-1.63-9.16A46.86,46.86,0,0,1,32,153.26Z"/><path class="cls-7" d="M157.23,191.8a1.44,1.44,0,0,1-.26.32c-.33,7.94-.48,16.06-2.71,23.74-1,3.42-2.32,7.38-5.2,9.7a10,10,0,0,1-5.6,2.05c3.85,2.67,7.33,6.24,6.86,11.22-.53,5.67-5.88,9.42-11.24,9.77-.11,0-.23,0-.35,0a23.57,23.57,0,0,1,3.15,3.32c3.14,4.06,5.56,9.64,5,14.87-.58,5-4.61,8.29-9.45,8.94-5.45.74-10.41-2-14.38-5.54a33.75,33.75,0,0,1-7-8.07,19.1,19.1,0,0,1-3.8,7.92,29.76,29.76,0,0,1-9.86,7.63,19.88,19.88,0,0,1-10.76,1.88,22.58,22.58,0,0,1-17.36-11.6,27,27,0,0,1-2-21.3,29.66,29.66,0,0,1,6.18-10.59c-5.13.86-10.43-.59-13-5.63a13.21,13.21,0,0,1,.22-11.83c2-3.86,5.73-6.53,9.71-8.06a27,27,0,0,1,7.82-1.6,102.46,102.46,0,0,1-25.4-11.52,92.5,92.5,0,0,1-14.56-11.19c-4.23-4-8-8.73-10-14.26a28.86,28.86,0,0,1-1.63-9.16,46.86,46.86,0,0,1,.47-9.54c1.1-6.27,5.25-11,10.32-14.54a43,43,0,0,1,19.34-7.25A17.43,17.43,0,0,0,59,133.14c-10.79,8.28-7.85,24.3-1.93,34.55,3.32,5.77,8.46,9.66,14,13.15a123.12,123.12,0,0,0,17.78,9.73c11.39,4.76,25.82,6.1,35.81-2.49a21.84,21.84,0,0,0,7.65-13.9c.63-5.59-1.63-10.75-4.26-15.55a88.35,88.35,0,0,0,6.36,6.48,57.46,57.46,0,0,0,9,7c5.58,3.31,11.39-.42,13.2-6.12a27.76,27.76,0,0,0,.81-9.61,57.16,57.16,0,0,0-1.08-8.75c-.07-.33-.16-.66-.23-1a62.19,62.19,0,0,1,4,11.62C162.52,169.13,162.5,181.77,157.23,191.8Z"/><path class="cls-8" d="M43.21,186.22c-.71-.68-1.4-1.38-2.08-2.09,23.58,23,89.83,29,96.37,17.27s0-28.13,0-28.13c14.39,26.42,22,5.56,22,5.56l.17,6.76a36.69,36.69,0,0,1-2.47,6.21,1.44,1.44,0,0,1-.26.32c-.33,7.94-.48,16.06-2.71,23.74-1,3.42-2.32,7.38-5.2,9.7a10,10,0,0,1-5.6,2.05c3.85,2.67,7.33,6.24,6.86,11.22-.53,5.67-5.88,9.42-11.24,9.77-.11,0-.23,0-.35,0a23.57,23.57,0,0,1,3.15,3.32c3.14,4.06,5.56,9.64,5,14.87-.58,5-4.61,8.29-9.45,8.94-5.45.74-10.41-2-14.38-5.54a33.75,33.75,0,0,1-7-8.07,19.1,19.1,0,0,1-3.8,7.92,29.76,29.76,0,0,1-9.86,7.63,19.88,19.88,0,0,1-10.76,1.88,22.36,22.36,0,0,1-10.44-3.93c31,12.84,37.87-27.75,33.51-36.47s-30.54-3.93-30.54-3.93S122,223,111.11,215.8s-27.94-6.87-27.94-6.87a102.46,102.46,0,0,1-25.4-11.52A92.5,92.5,0,0,1,43.21,186.22Z"/><path class="cls-9" d="M117.34,243.06s7.48,28.61,13,15.05-7.41-40.78-7.41-40.78c22.41-.71,23.41-23.73,23.41-23.73l9.75,13.12a56.8,56.8,0,0,1-1.79,9.14c-1,3.42-2.32,7.38-5.2,9.7a10,10,0,0,1-5.6,2.05c3.85,2.67,7.33,6.24,6.86,11.22-.53,5.67-5.88,9.42-11.24,9.77-.11,0-.23,0-.35,0a23.57,23.57,0,0,1,3.15,3.32c3.14,4.06,5.56,9.64,5,14.87-.58,5-4.61,8.29-9.45,8.94-5.45.74-10.41-2-14.38-5.54a33.75,33.75,0,0,1-7-8.07A48.07,48.07,0,0,0,117.34,243.06Z"/><path class="cls-10" d="M148.73,157.89C138,166.94,104.44,134.76,104.61,120c.06-.39.1-.78.18-1.16.12-.64.27-1.27.45-1.9a11,11,0,0,0,.64-1.78,8.61,8.61,0,0,1,1.47-2.37,8.81,8.81,0,0,1,5.19-2.55c4.43-.66,9,.84,12.93,2.83a57.55,57.55,0,0,1,11.73,8.42,82.22,82.22,0,0,1,8.78,9.12C147.53,132.6,159.52,148.78,148.73,157.89Z"/><path class="cls-11" d="M59,133.14a17.43,17.43,0,0,1,2.72-1.67,60.59,60.59,0,0,1,16.42.2,91.2,91.2,0,0,1,21.56,6.1,54.15,54.15,0,0,1,7.86,4S126.16,152,124.85,169s-33.74,22.61-65.78,1.65a25.83,25.83,0,0,1-2-3C51.13,157.44,48.19,141.42,59,133.14Z"/><path class="cls-12" d="M139.4,129.21c.06-4.14-8.53-13.2-14.49-10.74S139.18,142.84,139.4,129.21Z"/><path class="cls-12" d="M110.23,150.8c-2-6.08-22.68-16.14-24.64-9.6S114.48,163.92,110.23,150.8Z"/><path class="cls-12" d="M107.62,162.14c5.17-1-7.11-6-9.55-2.67S95.84,164.54,107.62,162.14Z"/><path class="cls-13" d="M307.77,160.15s18.42,28.67,20.2,58c3.52,57.7-73.7,71.92-134.21,47.08-17.93-7.36-71.8-5.33-72.49-18.76-1.45-28.14,16-44.64,24.82-58.27,13-20,43.27-18.91,43.27-18.91l58.54,17.39L239,101.86l33.94.38,40.79,24.85Z"/><path class="cls-14" d="M299.73,174.37c-11.06-.84-16.65-13.39-13.33-23.67-17.17-4-31.25-26.8-31.25-26.8l-14-1.67L239,101.86l33.94.38,21,12.77c11.7,11.58,20,24.44,10.11,32,2,.32,4,.73,5.93,1.17l-2.16,12s1.6,2.49,3.89,6.73C311.66,166.89,310.79,175.22,299.73,174.37Z"/><path class="cls-15" d="M180.66,245.21c33.58-44.63,65.65,1.36,65.65,1.36l30.57-16.25s-12.42-34.4,4.78-33.19,29.6,24.71,29.6,24.71-8.9-29.74,2.88-28S328,218.16,328,218.16c3.51,57.7-73.71,71.92-134.22,47.08-8.61-3.53-21.46-4.47-32.59-5.8l2-33Z"/><path class="cls-16" d="M261.44,266.31l24.44-30.95s12.5,16.61,21.89,13.27,5.42-20.86,5.42-20.86c6.67,19.88,13.21,5.44,14.08,3.36a46.34,46.34,0,0,1-15.68,27.62c-8.45,5.41-17.67,10.82-22.45,12C279,273.31,261.44,266.31,261.44,266.31Z"/><path class="cls-17" d="M42.83,349.56s7.85,9.87,13.53,6.84l33.89-63.14a18.74,18.74,0,0,1,16.91-10,67.62,67.62,0,0,0,20.08-2.76c20.08-5.62,46-17.06,53.42-35.31s-9.19-37.65-26-42.11-27.46,11.47-31.35,18.82-19.59,38.39-30.1,38.88-12.24-7-18.16,8.36S42.83,349.56,42.83,349.56Z"/><path class="cls-18" d="M64.63,341l-8.27,15.4c-5.68,3-13.53-6.84-13.53-6.84s4.1-10.13,9.42-23.33C53,360,64.62,341,64.63,341Z"/><path class="cls-19" d="M49.64,332.71c.35-.88.72-1.78,1.09-2.71l1.52-3.77a78.57,78.57,0,0,0,1,11.72c-3.63,12.09-3.87,19.5,3.15,18.45-5.68,3-13.53-6.84-13.53-6.84l1.53-3.77.37-.93C45.94,341.89,47.64,337.67,49.64,332.71Z"/><path class="cls-20" d="M284.05,260.06s8-17.7-2.23-34.58S252,200.4,237.07,209s12,25.91,10.4,46.93-5.3,29.54,9.19,35.27c9,3.56,18.15,3.27,32-2.53s45.51-22.17,45.51-22.17l25.19,25.2s17.41,1.14,15.18-5.9c0,0-22.85-29.65-28.59-36.18s-9.55-5.42-21.65-2.07S324.31,247.59,284.05,260.06Z"/><path class="cls-21" d="M75.06,269.16c5.92-15.34,7.65-7.87,18.16-8.36s26.21-31.53,30.1-38.88a53.51,53.51,0,0,1,5.43-8.29c5.46-10.14,12.64-18.19,17.34-25.42,7.92-12.19,22.28-16.54,32.28-18.08a66,66,0,0,1,11-.83l58.54,17.39L239,101.86l21.58.24,51.09,30.45.2,4.9-4.09,22.7.11.16c.49.78,2.59,4.19,5.27,9.39,0,0,1.72,9.35-10.95,13.17S275,164,270.38,151.89c0,0,7.68,29.92-11.65,31.41,0,0-8.14,20.37-26.15,7.21,0,0-18.44,11.76-37.54,7.47-12.21-2.74-15.76-9.95-16.75-14.81a202.32,202.32,0,0,0-24.95,19.66c-.87.81-1.74,1.63-2.61,2.47A163.81,163.81,0,0,0,138,218.9a111.21,111.21,0,0,0-16.78,26.74c-.62,1.45-1.21,2.91-1.75,4.39-6.58,18.26,3.89,23.68,18,22a61.42,61.42,0,0,0,14.1-3.56,73.16,73.16,0,0,0,16-8.32l.45-.31a41.36,41.36,0,0,0,9.9-9.49c.14-.2.3-.4.44-.61a19.76,19.76,0,0,0,2.29-4.54c.56-.74,1.11-1.45,1.66-2.13,1.33,3.83,6.07,13.39,21.32,17.17,14.92,3.71,31.38-10.57,34.71-22.52,1-3.48.83-6.76-.79-9.35a176.62,176.62,0,0,0,14.22,15.29c8,7.53,17.63,14.91,24.63,14.36,14-1.12,5.41-32.55,5.41-32.55l.12.18c6.45,10.67,6.29,24.76,2.11,34.4,0,0-20.38,5.45-26,10.86a5.65,5.65,0,0,0-1.61,5.95c1.46,4.44,8.52,8.26,20.89,5.36,18.09-4.25,53.33-24,53.33-24s36.1,40.75,43.85,27.58c2.23,7-15.18,5.9-15.18,5.9l-25.19-25.2s-31.66,16.37-45.51,22.17-23,6.09-32,2.53c-8.31-3.28-10.62-7.5-10.8-14.45-2.07-.09-4.15-.24-6.24-.42l-1-.11c-1.74-.16-3.48-.35-5.23-.58l-1.56-.21c-1.58-.22-3.15-.46-4.72-.73l-1.89-.34c-1.47-.27-2.93-.56-4.4-.87l-2.09-.45c-1.4-.32-2.79-.66-4.19-1l-2.2-.56c-1.37-.37-2.74-.78-4.11-1.19-.73-.21-1.45-.42-2.18-.65-1.43-.45-2.86-.94-4.29-1.43l-1.89-.65c-2-.74-4.06-1.51-6.07-2.34-.95-.39-2-.74-3-1.07l-.65-.21-.19-.06-1.43-.37-.72-.19c-.71-.18-1.42-.36-2.15-.52-1.62-.35-3.3-.67-5-.95-2.41-.4-4.88-.75-7.38-1.05l-4.13-.49A83.11,83.11,0,0,1,152.35,271a134.63,134.63,0,0,1-16,6.63c-3.12,1.08-6.2,2-9.15,2.87a67.62,67.62,0,0,1-20.08,2.76,18.74,18.74,0,0,0-16.91,10l-1.57,2.92-.35.06s5.91-14.65,0-20.4-54.84,86.93-32,80.56c-5.68,3-13.53-6.84-13.53-6.84S69.14,284.5,75.06,269.16Z"/><path class="cls-22" d="M362.45,270.25c6.41,8.21,12.1,15.59,12.1,15.59,2.23,7-15.18,5.9-15.18,5.9L344.59,277C372.28,284.84,362.45,270.25,362.45,270.25Z"/><path class="cls-23" d="M343.65,71.33s11.83.53,17.16-9.2S357.5,44.29,341.53,52,332.76,69.31,343.65,71.33Z"/><path class="cls-24" d="M352.24,278.75c8.92,7.67,18.55,13.48,22.31,7.09,2.23,7-15.18,5.9-15.18,5.9L344.59,277A75.19,75.19,0,0,0,352.24,278.75Z"/><path class="cls-25" d="M339.17,60c6.6,2.88,10.43,0,11.69-1.3s5.84,1.13,2.17,4.49-12.61,0-12.61,0c.31,1.15.53,3.94,7.87,7.67a21.23,21.23,0,0,1-4.64.47c-10.89-2-18.09-11.62-2.12-19.33a28.76,28.76,0,0,1,10.18-3C346.73,50,333,57.29,339.17,60Z"/><path class="cls-6" d="M186.48,171.94a9.77,9.77,0,0,1,3.86-5.83,8,8,0,0,1,3.57-1.38c-1.56-1.37-2.59-3.23-2-5.38a3.93,3.93,0,0,1,1.15-1.95,4.4,4.4,0,0,1,2.49-1,9.92,9.92,0,0,1,2.31,0,22.08,22.08,0,0,1-3.92-4.43c-2.36-3.6-3.65-8.36-.43-11.86,2.8-3,7.48-4,11.46-3.8a19.23,19.23,0,0,1,11.1,4.34,28.75,28.75,0,0,1,5.26,6.36,23.47,23.47,0,0,1,1.46,2.44c-.14-2,.08-3.85,2-4.95a4.64,4.64,0,0,1,1.33-.49c-2.16-1.56-4.27-3.2-6.27-4.95a30,30,0,0,1-8.47-11,16.64,16.64,0,0,1,0-13.46,17.76,17.76,0,0,1,9-8.23,29,29,0,0,1,12.41-2c-4-1.3-8-2.7-10.76-6.15-3-3.72-5.25-8.47-5.3-13.31a14.91,14.91,0,0,1,5.91-11.74,20.21,20.21,0,0,1,8.84-3.84,9.47,9.47,0,0,1-2.38-1.92c-1.79-2.09-.83-4.44,1.21-5.91s4.72-1.8,7.2-1.86H239a11.84,11.84,0,0,1-1.22-9.67c1.47-5.1,5.15-9.73,9.07-13.21a35.74,35.74,0,0,1,31.43-8.1,24.27,24.27,0,0,1,8.93,3.55,6.86,6.86,0,0,1,3,5.43A3.67,3.67,0,0,1,293,39.34c9.27-5.65,20.3-9.09,31.11-6.37,10.05,2.52,18.24,10.47,19,21.12a17.82,17.82,0,0,1-3.7,12.55,16.41,16.41,0,0,1,8.08,10c.73,2.7,0,5.92-2.64,7.27a7.17,7.17,0,0,1-3.41.71,14.8,14.8,0,0,1,3.09,6.29,8.08,8.08,0,0,1-5.07,9.44c-3.92,1.6-8.27,0-11.19-2.8a17,17,0,0,1-4.27-7.5c-10.32-2.82-20.76-5.55-31.31-7.34-5.45-.92-11.42-1.84-16.89-.62s-10.32,3.94-15,6.66c-2.64,1.54-5.26,3.12-7.82,4.79s-4.9,3.69-4.81,6.84a1,1,0,0,1-.23.67c1.31,11.4,6.8,21.91,11.41,32.32,4.81,10.87,9.93,24,6.16,36a19.22,19.22,0,0,1-9.72,11.73,2.27,2.27,0,0,1,.06,1,8.35,8.35,0,0,1-2.3,3.66,16.2,16.2,0,0,1-15.27,4.68,9.33,9.33,0,0,1-5.37-3.08,32.5,32.5,0,0,1-4,2.39,24.54,24.54,0,0,1-7.87,2.22,49.8,49.8,0,0,1-15.79-.42C196.37,189.75,184.12,182.88,186.48,171.94Z"/><path class="cls-26" d="M186.48,171.94a9.77,9.77,0,0,1,3.86-5.83,8,8,0,0,1,3.57-1.38c-1.56-1.37-2.59-3.23-2-5.38a3.93,3.93,0,0,1,1.15-1.95,4.4,4.4,0,0,1,2.49-1,9.92,9.92,0,0,1,2.31,0,22.08,22.08,0,0,1-3.92-4.43c-2.36-3.6-3.65-8.36-.43-11.86,2.8-3,7.48-4,11.46-3.8a19.23,19.23,0,0,1,11.1,4.34,28.75,28.75,0,0,1,5.26,6.36,23.47,23.47,0,0,1,1.46,2.44c-.14-2,.08-3.85,2-4.95a4.64,4.64,0,0,1,1.33-.49c-2.16-1.56-4.27-3.2-6.27-4.95a30,30,0,0,1-8.47-11,16.64,16.64,0,0,1,0-13.46,17.76,17.76,0,0,1,9-8.23,29,29,0,0,1,12.41-2c-4-1.3-8-2.7-10.76-6.15-3-3.72-5.25-8.47-5.3-13.31a14.91,14.91,0,0,1,5.91-11.74,20.21,20.21,0,0,1,8.84-3.84,9.47,9.47,0,0,1-2.38-1.92c-1.79-2.09-.83-4.44,1.21-5.91s4.72-1.8,7.2-1.86H239a11.84,11.84,0,0,1-1.22-9.67c1.47-5.1,5.15-9.73,9.07-13.21a35.74,35.74,0,0,1,31.43-8.1,24.27,24.27,0,0,1,8.93,3.55,6.86,6.86,0,0,1,3,5.43A3.67,3.67,0,0,1,293,39.34c8.89-5.41,19.4-8.79,29.78-6.66-14.19-1.65,7.81,16.49,10.11,26.83s5.58,7.21,5.58,7.21,1.18,12.33,5.68,13.18c3.68.69,3.59-2,3.44-2.92.58,2.62-.14,5.63-2.71,6.92a7.17,7.17,0,0,1-3.41.71,14.8,14.8,0,0,1,3.09,6.29,8.08,8.08,0,0,1-5.07,9.44c-3.92,1.6-8.27,0-11.19-2.8a17,17,0,0,1-4.27-7.5c-10.32-2.82-20.76-5.55-31.31-7.34-5.45-.92-11.42-1.84-16.89-.62s-10.32,3.94-15,6.66c-2.64,1.54-5.26,3.12-7.82,4.79s-4.9,3.69-4.81,6.84a1,1,0,0,1-.23.67c1.31,11.4,6.8,21.91,11.41,32.32,3.35,7.58,6.84,16.25,7.38,24.86a8,8,0,0,1-.25-.94c-4.07-26.54-19.5-21.86-22.87-7.11S252,175.44,252,175.44c-36.38-22-21.2,5.09-21.2,5.09-8.34-13.53-39.12-17.73-38.17-5.31.93,12.07,18.9,16.85,19.93,17.12a46,46,0,0,1-7.22-.8C196.37,189.75,184.12,182.88,186.48,171.94Z"/><path class="cls-27" d="M332.93,98.31s-1.44,8.1,12.2,5.68c0,0-12.42,5.5-13.07-1.57S332.93,98.31,332.93,98.31Z"/><path class="cls-28" d="M242.33,143.27c-10.51,15.82,2.3,26.41,2.3,26.41-33.2-17-18.18,3.59-18.18,3.59-12.38-10.24-28.55-9.11-28.55-9.11,13.86-1.68,1.86-7.41,1.86-7.41,29.25,12.41,24-4.31,24-4.31,21.21,11.3,4.89-9.17,4.89-9.17,15,4.36,31.44-28.08,8.95-38.15s1.81-35.47,1.81-35.47c-12.51-5.41,9.56-12.15,9.56-12.15C245.39,43.59,257.6,41,257.6,41l38.52,33.1s-1.33,3.36-3.43,8.57c-5.43-.91-11.37-1.83-16.82-.61s-10.32,3.94-15,6.66c-2.64,1.54-5.26,3.12-7.82,4.79s-4.9,3.69-4.81,6.84a1,1,0,0,1-.23.67c1.31,11.4,6.8,21.91,11.41,32.32,1.37,3.11,2.76,6.41,4,9.81C260.5,137.31,252.24,128.36,242.33,143.27Z"/><path class="cls-29" d="M331.9,93.91s1.72,4.08,5.93.61,3.1-11.93-1.66-13.09S331.9,93.91,331.9,93.91Z"/><path class="cls-14" d="M337.83,94.52c-4.21,3.47-5.93-.61-5.93-.61a46.28,46.28,0,0,1,.26-5.94,4.06,4.06,0,0,1,1.53,1.9c2.91,6.64,5.9,2.28,6,2.14A6.87,6.87,0,0,1,337.83,94.52Z"/><path class="cls-30" d="M250.6,68.12c16.28-29.74,30.49-25.68,30.49-25.68a77.85,77.85,0,0,0,18.82-26.76C306.82-.91,315.06-3.74,323,4.39s-1,37.28-32.39,42.31l46.24,23.66s2.95,15.5.09,21.06-6.21,8.61.76,26.88c4.38,11.47,5.54,14.55,5.8,15.25.05,0,3.23-.57,4.25,1.88s-4.15,7.64-4.14,11.73-3.17,5.79-8.41,6.93-7-.38-7-.38c-1.67-2.81-4.83-3.74-9.37-4.4-1.3,1.28-5.76,5.72-6.24,7.28a2.65,2.65,0,0,0-.07.83c.11,2.29,1.78,6.73-3,9.52-5.5,3.19-16.72.8-19.59-8.12s2.39-16.12-1.43-21-10.83-4.73-10.83-4.73c.57,0,1.12,0,1.66-.06a21.1,21.1,0,0,1-15.56-4.8C253.61,119.55,234.33,97.85,250.6,68.12Z"/><path class="cls-31" d="M250.6,68.12c16.28-29.74,30.49-25.68,30.49-25.68a74.27,74.27,0,0,0,11.76-13.75c-1.14,4.82-.73,8.43,3.49,7.62,11.22-2.15,12-22.27,14.5-23.56s5.86.22,4.51,6.78-10.5,14.22-10.5,14.22a25.48,25.48,0,0,0,10.08,1.39c-5.69,5.44-13.71,9.87-24.29,11.56l44.67,22.85-4,16.14s-.15,7.63-5.13,2.4S325.25,76,325.25,76C309.24,71.33,304,62.19,304,62.19c-11.06,4.62-12.6-3.39-12.6-3.39a7.48,7.48,0,0,1-9.69.16c-5.14,19.75-21,20.45-21,20.45s-9.52,20.13-1.58,33.69,20.69,17.4,32.17,16.29c2.67-.26,6.83-2.65,6.83-2.65a50.26,50.26,0,0,1,16.08,4.75s-9.48,5.91,6.75,13.74c14.72,7.11,20.2,6.49,20.84,6.19-1.44,1.25-3.65,2.05-6.51,2.67-5.24,1.14-7-.38-7-.38-1.67-2.81-4.83-3.74-9.37-4.4-1.3,1.28-5.76,5.72-6.24,7.28a2.65,2.65,0,0,0-.07.83c.11,2.29,1.78,6.73-3,9.52-5.5,3.19-16.72.8-19.59-8.12s2.39-16.12-1.43-21-10.83-4.73-10.83-4.73c.57,0,1.12,0,1.66-.06a21.1,21.1,0,0,1-15.56-4.8C253.61,119.55,234.33,97.85,250.6,68.12Z"/><path class="cls-32" d="M328.76,64.24l51.69-41.9a2.1,2.1,0,0,0-2.16-3.56L308.73,49.16Z"/><path class="cls-33" d="M377.51,19.12s-23.8,11.76-36.68,21.68-13.58,19.43,5.34,9.33L328.76,64.24l-19.3-14.53.69-1.17Z"/><path class="cls-19" d="M359.7,26.9l1.8-.79c-5.85,9.47,5.17,7.4,5.17,7.4l-2,1.63C355.83,36.13,357.38,30.62,359.7,26.9Z"/><path class="cls-19" d="M354.89,43.06l-2.18,1.77c-10.38.72-8.66-6.68-5.4-12.52l2.49-1.09C343.44,42.17,350.52,43.28,354.89,43.06Z"/><path class="cls-19" d="M332.21,38.9l2.49-1.08c-5.22,13.34,3,15.29,7.67,15.39l-2.11,1.71C327.72,53.56,329.37,45,332.21,38.9Z"/><path class="cls-34" d="M343.53,44.62c1.86-9.15,34-25.5,34-25.5l.78-.34a2.1,2.1,0,0,1,2.16,3.56l-7.53,6.1S341.68,53.77,343.53,44.62Z"/><path class="cls-6" d="M255.32,42.28a11.24,11.24,0,0,1,15.37,2.18,6.64,6.64,0,0,1,4.45-4.21,5.77,5.77,0,0,1,5.77,1.89,14.18,14.18,0,0,1,9.17-3.27c2.83.09,6.23,1.43,7.71,3.93,3.11-3.79,7.28-6.9,12.42-6.63a8.8,8.8,0,0,1,6.64,3.29c1.51,2.1,1.14,4.67,0,6.83-.21.39-.46.8-.73,1.21,3.63.35,7.28,2.61,9.71,5.15a14.28,14.28,0,0,1,3.66,13.41,7.15,7.15,0,0,1,6.32,1.06c3.18,2.3,4.15,6.39,4.06,10.11s-1.24,8.23-4.31,10.49a5.81,5.81,0,0,1-4.89,1,5.89,5.89,0,0,1-3.74-3.64,14.81,14.81,0,0,1,.37-10.87c-4.65,1.36-9.93-2.75-13.12-5.62a35.1,35.1,0,0,1-8.44-11.49,5.52,5.52,0,0,1-3.22,2.94c-3.15,1-7.25-.76-7.93-4.2a4.82,4.82,0,0,1-.08-1.31,8.44,8.44,0,0,1-5.38,1.09,9.17,9.17,0,0,1-6.41-4.19,27.48,27.48,0,0,1-2.91,7.19c-2.09,3.65-4.81,7.79-8.37,10.14a20.09,20.09,0,0,1-12,3.07,9.85,9.85,0,0,1-8.3-6.52,9.7,9.7,0,0,1,2.18-9.62,5.42,5.42,0,0,1-2.79-4.8A11.13,11.13,0,0,1,255.32,42.28Z"/><path class="cls-27" d="M328.24,153.71a6.35,6.35,0,0,0-2.28-3.32s.78-.11,3.86,1.22c0,0-3.76-2.94-13.33-3.46A10.86,10.86,0,0,1,305.87,139s3.39-2.93,3.75-.36c0,0,3.54-8.8-4.77,0,0,0-.51,8.88,7.59,9.9S325.86,149.72,328.24,153.71Z"/><path class="cls-27" d="M341,144.69s3.65-7.48,5.11-6.78S341,144.69,341,144.69Z"/><path class="cls-14" d="M328,136.77s-1.21-8.19-4-10.18-4,.27-4,.27,1.21-2.64,5.56-2.46c2.52.1,4.29,4.36,4.29,4.36s-.32-4.43-2.27-5.9c-4-3-8.49,2.77-9.66,5.42,0,0,1.33-.8,3.2,2S328,136.77,328,136.77Z"/><path class="cls-14" d="M343.53,134.69c-2.23,1.49-4.64,5.91-5,6.63.51-1,4.29-8.49,2.51-14.4,1.73,4.55,2.33,6.15,2.51,6.63,0,0,.15.42,0,0,.05,0,3.23-.57,4.25,1.88A3.14,3.14,0,0,0,343.53,134.69Z"/><path class="cls-35" d="M330.57,132c-7.94-9.28-12.47-32.5-5.78-35.65s9.12,8.85,9.12,8.85a66.36,66.36,0,0,0,3.82,13.06c1.6,4.18,2.75,7.21,3.6,9.45a1.48,1.48,0,0,1,0,.19C341.91,132.87,338.51,141.32,330.57,132Z"/><path class="cls-36" d="M269.38,109.7c-3,.45-1.32-7.47,1.94-7.83C273.12,101.66,274.44,108.94,269.38,109.7Z"/><path class="cls-36" d="M261.7,107.22c1.47,2.69,5.84-2.37,4.64-4.26S259.41,103,261.7,107.22Z"/><path class="cls-36" d="M268.88,100c2.49-1.15,2.16-5.32.07-6S262.69,102.9,268.88,100Z"/><path class="cls-37" d="M256.35,47.86c3.38,3.34,10.71,1.93,10.71,1.93s-20,5.41-11.79,14.6,19.85,1,20,.92a18.88,18.88,0,0,1-3.84,3.5,20.09,20.09,0,0,1-12,3.07,9.85,9.85,0,0,1-8.3-6.52,9.7,9.7,0,0,1,2.18-9.62,5.42,5.42,0,0,1-2.79-4.8,11.36,11.36,0,0,1,15.26-10C260.29,38.91,253,44.55,256.35,47.86Z"/><path class="cls-37" d="M330.63,88.77a5.89,5.89,0,0,1-3.74-3.64,14.81,14.81,0,0,1,.37-10.87c-4.65,1.36-9.93-2.75-13.12-5.62a35.1,35.1,0,0,1-8.44-11.49,5.52,5.52,0,0,1-3.22,2.94c-3.15,1-7.25-.76-7.93-4.2a4.82,4.82,0,0,1-.08-1.31,8.44,8.44,0,0,1-5.38,1.09,9.17,9.17,0,0,1-6.41-4.19s8.9,4.57,13.75-5.14c0,0,1.38,16.57,11.31,7.13,0,0,10.35,25.53,21.53,18.79,0,0-4.12,20.41,6.7,15.06-.15.13-.29.28-.45.4A5.81,5.81,0,0,1,330.63,88.77Z"/><path class="cls-38" d="M333.21,84.47c-4.56-1.74-2.85-15.3-2.85-15.3s-2.29,3.32-1.95-.8c0,0-2.41,6-11-3.88s-1.77-16.61-1.77-16.61-4.07,4.24-8.31,2.77S299.47,37,310.21,36.17a8.8,8.8,0,0,1,6.64,3.29c1.51,2.1,1.14,4.67,0,6.83-.21.39-.46.8-.73,1.21,3.63.35,7.28,2.61,9.71,5.15a14.28,14.28,0,0,1,3.66,13.41,7.15,7.15,0,0,1,6.32,1.06c3.18,2.3,4.15,6.39,4.06,10.11a19.7,19.7,0,0,1-.33,3.06C339.37,80.72,337.6,86.14,333.21,84.47Z"/><path class="cls-12" d="M334.39,69.26c-1.23,2.2.84,9.79,3.12,8.34S337,64.51,334.39,69.26Z"/><path class="cls-15" d="M315.87,89.39c-3,.13-6.7-4.35-5.62-11.43s10.07-3.5,10,3.64S317.21,89.33,315.87,89.39Z"/><path class="cls-29" d="M315.87,89.39c-3,.13-6.7-4.35-5.62-11.43a4.72,4.72,0,0,1,1.51-3c-1.91,2.78-.71,8.5,2.63,11.28s5.64-1.78,5.66-1.82C319.34,88.88,317,89.34,315.87,89.39Z"/><path class="cls-39" d="M342.84,246.74a18,18,0,0,1,3.12,2.92c5.74,6.53,28.59,36.18,28.59,36.18,2.23,7-15.18,5.9-15.18,5.9l-25.19-25.2C362.31,265.5,342.94,246.83,342.84,246.74Z"/><path class="cls-40" d="M302.92,157.07c-2.39-5.57,1.92-18.15,1.92-18.15,0,1.59.41,8.67,7.6,9.57,3.4.43,6.28.72,8.68,1.21-.71-.14-1.45-.27-2.25-.39-1.3,1.28-5.76,5.72-6.24,7.28a14.64,14.64,0,0,0-1.51,4.14C310.24,164,305.31,162.64,302.92,157.07Z"/><path class="cls-41" d="M302.92,157.07c-1.27-2.95-.65-7.85.21-11.82,10.59,6,7.91,15.29,7.59,16.28C309.27,163.66,305.07,162.1,302.92,157.07Z"/><path class="cls-27" d="M328,136.77s-4.21-8.52-6.64-9.54S319.37,130.55,328,136.77Z"/><path class="cls-42" d="M220.19,171.78c.2.13,7.61,5.09,4.62,8.86s-44.53-9.08-24.23-12.52l1-.2A38.17,38.17,0,0,1,220.19,171.78Z"/><path class="cls-43" d="M241.58,169.8c1.3.7,9.62,5.48,3.6,10-6.51,4.94-12.74,4.69-17.27-6.57C226.83,168.29,228.32,163.64,241.58,169.8Z"/><path class="cls-44" d="M249.81,139.84s7.41-4.54,12,5.92-5.58,19.18-13.8,15.32c-4.75-2.22-4.72-8.06-3.86-12.58A16.48,16.48,0,0,1,249.81,139.84Z"/><path class="cls-12" d="M250,147c.67,3.45,11.29,10.32,12.8,6.89S248.59,139.53,250,147Z"/><path class="cls-12" d="M253.29,142c.28,2.21,3.48,3.75,5,2.09S252.9,138.9,253.29,142Z"/><path class="cls-12" d="M232.45,169.7c.28,2.22,3.47,3.75,5,2.1S232.05,166.57,232.45,169.7Z"/><path class="cls-45" d="M74,323.49,56.36,356.4c-5.68,3-13.53-6.84-13.53-6.84s11.89-29.39,21.48-53.32C57.91,341.78,74,323.49,74,323.49Z"/><path class="cls-46" d="M256.66,291.24c-.82-.32-1.57-.66-2.28-1l-.34-.16c-.65-.33-1.24-.67-1.8-1l-.38-.25a15.12,15.12,0,0,1-1.45-1.07,3.73,3.73,0,0,1-.3-.26,11.91,11.91,0,0,1-1.07-1.06l-.26-.29A12.45,12.45,0,0,1,248,285c-.08-.14-.18-.27-.26-.42a12.86,12.86,0,0,1-.62-1.23c-.07-.18-.15-.37-.21-.55a13.36,13.36,0,0,1-.42-1.31c-.06-.21-.1-.42-.14-.64s-.14-.68-.19-1-.1-.71-.13-1.08-.07-.67-.08-1,0-.61,0-.93c-.13-5.17.93-11.85,1.61-20.82.63-8.33-3.23-16.07-7.18-22.92,5.47,9,19.15,29.47,30,29.22,11.32-.26,14.59-5.44,15.41-7.37a41.05,41.05,0,0,1-1.25,4.13c-.14.35-.27.7-.41,1,0,0-42.09,8.37-31.75,19.59s31.2.89,31.2.89c19.47-6,47.2-22.28,47.2-22.28a14.31,14.31,0,0,0,3.48,8.28s-31.66,16.37-45.51,22.17S265.65,294.8,256.66,291.24Z"/><path class="cls-14" d="M165.45,232c-3.81,5.09-7.37-9.64-3.09-15C164.73,214,172,223.33,165.45,232Z"/><path class="cls-14" d="M152.88,239.56c4,2,6.4-12.34,3.34-13.51S146.57,236.43,152.88,239.56Z"/><path class="cls-14" d="M157.6,217.74c2.62-5.49-.92-11.48-4.33-9.42S151.07,231.37,157.6,217.74Z"/><path class="cls-47" d="M273.88,170.92a8.62,8.62,0,1,0,8.62-8.62A8.62,8.62,0,0,0,273.88,170.92Z"/><path class="cls-48" d="M280,170.92a2.49,2.49,0,1,0,2.49-2.48A2.49,2.49,0,0,0,280,170.92Z"/><path class="cls-49" d="M234.73,123.93a8.62,8.62,0,1,0,8.62-8.62A8.61,8.61,0,0,0,234.73,123.93Z"/><path class="cls-48" d="M240.86,123.93a2.49,2.49,0,1,0,2.49-2.49A2.49,2.49,0,0,0,240.86,123.93Z"/><circle class="cls-50" cx="306.54" cy="58.1" r="8.62"/><circle class="cls-48" cx="306.54" cy="58.1" r="2.49"/><circle class="cls-51" cx="221.24" cy="194.26" r="8.62"/><circle class="cls-48" cx="221.24" cy="194.26" r="2.49"/><path class="cls-52" d="M128.57,158a8.62,8.62,0,1,0,8.62-8.62A8.62,8.62,0,0,0,128.57,158Z"/><path class="cls-48" d="M134.7,158a2.49,2.49,0,1,0,2.49-2.49A2.48,2.48,0,0,0,134.7,158Z"/><path class="cls-53" d="M95.42,200.47a8.62,8.62,0,1,0,8.62-8.62A8.62,8.62,0,0,0,95.42,200.47Z"/><circle class="cls-48" cx="104.04" cy="200.47" r="2.49"/><path class="cls-54" d="M69.45,165.37a8.62,8.62,0,1,0,8.61-8.62A8.61,8.61,0,0,0,69.45,165.37Z"/><path class="cls-48" d="M75.58,165.37a2.49,2.49,0,1,0,2.48-2.49A2.49,2.49,0,0,0,75.58,165.37Z"/><path class="cls-55" d="M248.93,48a8.62,8.62,0,1,0,8.62-8.62A8.62,8.62,0,0,0,248.93,48Z"/><circle class="cls-48" cx="257.55" cy="48.02" r="2.49"/><path class="cls-56" d="M225.55,113.17a4.31,4.31,0,1,0,4.3-4.31A4.31,4.31,0,0,0,225.55,113.17Z"/><path class="cls-48" d="M228.61,113.17a1.25,1.25,0,1,0,1.24-1.25A1.25,1.25,0,0,0,228.61,113.17Z"/><path class="cls-57" d="M253.18,94.63a4.31,4.31,0,1,0,4.31-4.3A4.31,4.31,0,0,0,253.18,94.63Z"/><path class="cls-48" d="M256.25,94.63a1.24,1.24,0,1,0,1.24-1.24A1.23,1.23,0,0,0,256.25,94.63Z"/><path class="cls-58" d="M294.53,67.18a4.31,4.31,0,1,0,4.3-4.31A4.3,4.3,0,0,0,294.53,67.18Z"/><path class="cls-48" d="M297.59,67.18a1.25,1.25,0,1,0,1.24-1.24A1.25,1.25,0,0,0,297.59,67.18Z"/><path class="cls-59" d="M268.24,156.75a4.31,4.31,0,1,0,4.3-4.31A4.29,4.29,0,0,0,268.24,156.75Z"/><path class="cls-48" d="M271.3,156.75a1.24,1.24,0,1,0,1.24-1.25A1.24,1.24,0,0,0,271.3,156.75Z"/><path class="cls-60" d="M86.81,178.29a4.31,4.31,0,1,0,4.3-4.3A4.3,4.3,0,0,0,86.81,178.29Z"/><path class="cls-48" d="M89.87,178.29a1.24,1.24,0,1,0,1.24-1.24A1.24,1.24,0,0,0,89.87,178.29Z"/><path class="cls-61" d="M265.27,97.8a8.62,8.62,0,1,0,8.61-8.62A8.61,8.61,0,0,0,265.27,97.8Z"/><path class="cls-48" d="M271.4,97.8a2.49,2.49,0,1,0,2.48-2.49A2.48,2.48,0,0,0,271.4,97.8Z"/><path class="cls-62" d="M95.43,222.58a4.31,4.31,0,1,0,4.3-4.3A4.3,4.3,0,0,0,95.43,222.58Z"/><path class="cls-48" d="M98.49,222.58a1.24,1.24,0,1,0,1.24-1.24A1.24,1.24,0,0,0,98.49,222.58Z"/><path class="cls-63" d="M226.46,168.46a4.31,4.31,0,1,0,4.3-4.3A4.3,4.3,0,0,0,226.46,168.46Z"/><circle class="cls-48" cx="230.76" cy="168.46" r="1.24"/><path class="cls-64" d="M243.69,165.39a4.31,4.31,0,1,0,4.3-4.31A4.3,4.3,0,0,0,243.69,165.39Z"/><path class="cls-48" d="M246.75,165.39a1.25,1.25,0,1,0,1.24-1.24A1.24,1.24,0,0,0,246.75,165.39Z"/><path class="cls-65" d="M196.7,156.75a4.31,4.31,0,1,0,4.3-4.31A4.3,4.3,0,0,0,196.7,156.75Z"/><circle class="cls-48" cx="201" cy="156.75" r="1.24"/><path class="cls-66" d="M174.92,207.27a4.31,4.31,0,1,0,4.31-4.3A4.31,4.31,0,0,0,174.92,207.27Z"/><path class="cls-48" d="M178,207.27a1.24,1.24,0,1,0,1.24-1.24A1.24,1.24,0,0,0,178,207.27Z"/><path class="cls-67" d="M145.55,169.68a4.31,4.31,0,1,0,4.3-4.3A4.31,4.31,0,0,0,145.55,169.68Z"/><path class="cls-48" d="M148.61,169.68a1.25,1.25,0,1,0,1.24-1.24A1.24,1.24,0,0,0,148.61,169.68Z"/><path class="cls-68" d="M269.48,44.33a4.31,4.31,0,1,0,4.3-4.3A4.31,4.31,0,0,0,269.48,44.33Z"/><path class="cls-48" d="M272.54,44.33a1.25,1.25,0,1,0,1.24-1.24A1.25,1.25,0,0,0,272.54,44.33Z"/><path class="cls-69" d="M123.49,257.41a4.31,4.31,0,1,0,4.31-4.3A4.3,4.3,0,0,0,123.49,257.41Z"/><path class="cls-48" d="M126.56,257.41a1.24,1.24,0,1,0,1.24-1.24A1.23,1.23,0,0,0,126.56,257.41Z"/><path class="cls-70" d="M140.72,254.34A4.31,4.31,0,1,0,145,250,4.3,4.3,0,0,0,140.72,254.34Z"/><circle class="cls-48" cx="145.03" cy="254.34" r="1.24"/><path class="cls-71" d="M267.55,215.73a8.62,8.62,0,1,0,8.62-8.62A8.62,8.62,0,0,0,267.55,215.73Z"/><circle class="cls-48" cx="276.17" cy="215.73" r="2.49"/><path class="cls-72" d="M224.32,240.31a8.62,8.62,0,1,0,8.62-8.62A8.62,8.62,0,0,0,224.32,240.31Z"/><path class="cls-48" d="M230.45,240.31a2.49,2.49,0,1,0,2.49-2.49A2.5,2.5,0,0,0,230.45,240.31Z"/><path class="cls-73" d="M136.93,189.41a8.62,8.62,0,1,0,8.62-8.62A8.62,8.62,0,0,0,136.93,189.41Z"/><circle class="cls-48" cx="145.55" cy="189.41" r="2.49"/><path class="cls-74" d="M279.94,202.8a4.31,4.31,0,1,0,4.31-4.31A4.3,4.3,0,0,0,279.94,202.8Z"/><path class="cls-48" d="M283,202.8a1.25,1.25,0,1,0,1.25-1.24A1.25,1.25,0,0,0,283,202.8Z"/><path class="cls-75" d="M304.62,111.67s9.05-15.93,4.75-25.73-19-17.8-31.08-5.76S287.85,94,296.44,97.35,302.16,116.8,304.62,111.67Z"/><path class="cls-27" d="M303.91,81.6A17.45,17.45,0,0,1,307.75,89s0,.13.07.28.09.4.14.61c.55,2,2.91,6.22,13,1.82,0,0-9.35,7.14-12.48,2.69.2,8.7-3.66,16.86-3.66,16.86L273.87,86.72C275.27,80.28,290.42,66.45,303.91,81.6Z"/><path class="cls-76" d="M298.34,125.3s2.16-3.09-1.87-9.26-3-11.25-3-11.25L277.66,87.05l-4.2.64A18.19,18.19,0,0,0,268.09,84s4.63.22,6.22,1.79,6.76-1.45,6.76-1.45l18.56,31.06S301.38,121.5,298.34,125.3Z"/><g class="cls-77"><g class="cls-78"><path class="cls-79" d="M305.2,109.89S311.84,90.68,300,79.1c-15.21-14.81-26.61,5-27.58,11s1.69,17.4,9.67,22.73S304.07,117.27,305.2,109.89Z"/><path class="cls-80" d="M272.32,86c-3.37,8.3.2,17.82,8,21.25s16.79-.51,20.16-8.81-.2-17.82-8-21.26S275.69,77.73,272.32,86Z"/><path class="cls-81" d="M273.87,86.72c-3.11,7.66,0,16.36,6.88,19.41s15-.68,18.15-8.35,0-16.36-6.88-19.41S277,79.05,273.87,86.72Z"/><path class="cls-82" d="M277.57,88.35c-2.2,5.41,0,11.53,4.85,13.69s10.6-.48,12.79-5.89,0-11.53-4.85-13.69S279.76,82.94,277.57,88.35Z"/><path class="cls-83" d="M297.22,114.06c8.8-2.88.78-19.94-9.5-22.55-5.33-1.35-12.08-.16-14,7.72C273.14,101.91,280.35,119.57,297.22,114.06Z"/><path class="cls-84" d="M304.81,113.83s1.33-12.24-3.75-20.91c-7.37-12.59-19-13.62-27.41-6.19s-1-14.09-1-14.09,9-7.48,11.75-5.12,34.63,22,34.63,22,2,28.88-.53,29.86S304.81,113.83,304.81,113.83Z"/><path class="cls-48" d="M286.32,81.72c0-2.26-4.11.25-3.3,1.28S286.31,85.14,286.32,81.72Z"/></g></g><path class="cls-85" d="M285.78,101.57c9.65,13.87,8.58,22-6.07,9S273.34,83.69,285.78,101.57Z"/><path class="cls-86" d="M264.68,292.35c4.58-3.41,11-5.67,16.64-6.69.61-.11,1.24-.18,1.87-.23-1.3-3.78-1.09-7.72,2.44-11a8.52,8.52,0,0,1,9.6-1.54,26,26,0,0,1,3.49-9.58,22.5,22.5,0,0,1,15.59-10.49c7.09-1.05,13.53,2.15,19.06,6.32a54.72,54.72,0,0,1,12.27,13,14.14,14.14,0,0,1,8,5.88c2.23,3.26,3,7.2,3.16,11.12,4.41-.19,8.72,1.2,12.84,3.07a67.18,67.18,0,0,1,14.64,8.59c9.26,7.57,10.07,19.06,8.38,30.13-.85,5.51-2.22,11.22-5.42,15.9a30.6,30.6,0,0,1-11.93,9.86,91.84,91.84,0,0,1-15.52,6,32.43,32.43,0,0,1-18.49-.35,53.43,53.43,0,0,1-25.6-15.81c-4.72,5.69-13.81,8-20.6,9-10.17,1.52-20.85-.21-28.88-7-8.2-6.94-11.46-18.92-11.87-29.27C254,309.55,256.48,298.47,264.68,292.35Z"/><path class="cls-87" d="M163.71,251.71a12,12,0,0,1,3.75,3.21,33.29,33.29,0,0,1,8.14-9.29c7.65-6.19,16.67-9.26,26.34-6.09A38.42,38.42,0,0,1,223,256.76c13,22.89,7.49,50.46-.55,51.19a85.07,85.07,0,0,1-46.55-9.39A81,81,0,0,1,154,281.94a3.17,3.17,0,0,1-.92-2.57c-6.12-5.9-8.25-15.93-3.52-23.38C152.7,251.11,158.39,248.85,163.71,251.71Z"/><path class="cls-88" d="M121.18,336.51s20.79,21.8,39.23,9.38,7.69-30.57,7.69-30.57c19.43,1,11.13-25.8,11.13-25.8s15.29,36.31,38.23,18.72c11.79-9,12.93-22.37,11.26-33.21a153.14,153.14,0,0,0,17.14,1.74c.17,7,2.48,11.18,10.8,14.47a32.23,32.23,0,0,0,8.47,2.14c-11.23,13.27,4.1,38.41,17.37,31.81,12.86-6.39,6.3-25.44,3.81-31.5,2.13,4.58,8.13,15.47,14.26,8.57s3.52-16.22,2.21-19.77c2.71,6.45,14.54,32.19,31.4,32.19,19.28,0,17-12.42,17-12.42,13.38,17.2,35.67.21,23.55-7.54a44.21,44.21,0,0,0-6.6-3.35c3.94-.63,7.48-2.11,6.4-5.53,0,0-.27-.45-7.38-9.53,10.71,2.5,9.83-18.9,9.83-18.9-7.64,23,13.37,38.16,25.79,27s1.44-28.8,1.44-28.8a30.44,30.44,0,0,1,6.68,17.2,16.44,16.44,0,0,1,2.44.88c2,.9,4.06,1.75,6.14,2.49s3.92,1.3,5.92,1.85a19,19,0,0,1,6.35-6.74C417.21,282.54,419,318.5,419,318.5s-15.89-20.17-32.13-6.79-6.41,32-6.41,32-31.53-22-52.41-12.42-14.78,38.54-14.78,38.54c-11.18-26.3-24.76,1.91-24.76,1.91,1-16.24-8.68-40.13-24.93-37.26S252.16,357,252.16,357s-29.62-42.62-51.59-27.33-26.38,42-26.38,42-4.51-13.38-22.77-19.11S119,363.9,119,363.9C128.59,351.34,121.18,336.51,121.18,336.51Z"/><path class="cls-89" d="M324.31,247.59l-3.87,1.07a46,46,0,0,0,6.64-16.38c5.24,13.8,19.26,5.54,19.26,5.54A26.81,26.81,0,0,0,345,248.59C339.75,243.27,335.7,244.44,324.31,247.59Z"/><path class="cls-90" d="M7.62,326.72a11.83,11.83,0,0,1,2.64-.73,32.29,32.29,0,0,1-7.08-10C1.24,311.53.89,306.75.84,301.91a97.23,97.23,0,0,1,.7-15.07,33.92,33.92,0,0,1,10-19.53c-35.45,49.13,57.79,29.83,51.11-2.63-4.66-22.64,4.81-27.62,11-28.56a15.72,15.72,0,0,0,4.74-.07,29.66,29.66,0,0,0-6.18,10.59,27,27,0,0,0,2,21.3c.26.47.56.89.85,1.33-6,15.53-32.19,80.29-32.19,80.29s7.85,9.87,13.53,6.84l33.89-63.14a18.74,18.74,0,0,1,16.91-10,67.62,67.62,0,0,0,20.08-2.76,150.85,150.85,0,0,0,21.39-7.72,18.08,18.08,0,0,1,1-16.81c3.1-4.88,8.79-7.14,14.11-4.28a12,12,0,0,1,3.75,3.21,33.29,33.29,0,0,1,8.14-9.29,32.54,32.54,0,0,1,13.11-6.71c-21.56,7.26-13.79,34.36-13.79,34.36s-11.21-21.57-18.87-11.57,8.2,50.42,8.2,50.42c-31.61-15.43-40.06,3.05-42.29,12.4,3.48-28.62-17.36-45.24-25.14-34.37-8.2,11.47-44.34,100.32-18.76,105.1s41.3-22.3,41.3-22.3-2.87,55.42,30.49,50.64,26.51-46.82,26.51-46.82,35,69.56,75.94,65,38.82-52.86,38.82-52.86.85,10.51,12.52,11.46,12.21-23.88,12.21-23.88c6.69,32.48,49.68,61.14,80.26,40.12s-6.69-64-6.69-64S404.71,366,413.3,366c7.94,0,5.3-27.63,4.84-31.91.62,5.09,6.45,43,43.89,37.64,40.12-5.73,35.74-45.44,35.74-45.46,2.78,12.36,3.42,25.57-.76,37.35A45.21,45.21,0,0,1,465.23,392a50.71,50.71,0,0,1-27.63-1.21c-.85-.29-1.71-.6-2.57-.93a10.16,10.16,0,0,1-3.8,9.86c-4.15,3-11.06,1.87-15.27-.44a13,13,0,0,1-1.63-1.05,35.2,35.2,0,0,1-14.62,28.46c-15,10.7-36.21,11.13-52.89,4.46a65.84,65.84,0,0,1-11.42-5.95,11.8,11.8,0,0,1-3.18,8.63,19.44,19.44,0,0,1-5.84,3.83c-2.52,1.19-5,2.23-7.82,1.77-4.44-.72-8.78-3.76-12.15-6.59A36.74,36.74,0,0,1,298,422.5a34.77,34.77,0,0,1-1.63-3.37,52.53,52.53,0,0,1-3.11,6.29A58.71,58.71,0,0,1,269,448.33c-11.14,5.55-23,6.54-35.15,4.42-13.09-2.28-26.39-6.55-36.89-14.94-8.56-6.84-14.73-16-20-25.52-2.89,14-14.11,25.31-29.05,26.25-15.93,1-28.87-11.76-35.74-24.91a29.82,29.82,0,0,1-3.72-14.3,53,53,0,0,1-42.63,17.06A58.1,58.1,0,0,1,36.42,405.9C27,399.2,21.13,390.39,17.3,379.6c-2.77-7.81-4.12-17.32-.93-25C8.76,354,1.49,348.15.15,340A12.35,12.35,0,0,1,7.62,326.72Z"/><path class="cls-91" d="M200.57,329.65c22-15.29,51.59,27.33,51.59,27.33s-4.78-19.69,11.46-22.55c7.77-1.37,14.05,3.38,18.37,10.49,9,35.37-15.82,39.19-24.42,22.95,0,0,17.75,37.26-25,31.53-42.4-5.69-62.47-32.95-42.37-60.4A57.25,57.25,0,0,1,200.57,329.65Z"/><path class="cls-92" d="M218.75,284.38C202.48,304.17,154,252,188.68,238.93a24.22,24.22,0,0,1,13.26.61,38.09,38.09,0,0,1,13.3,7.73C218.4,250.34,233.38,266.57,218.75,284.38Z"/><path class="cls-12" d="M239,352.48c-.83-6.35-19.35-20-22.48-13.94S240.78,366.16,239,352.48Z"/><path class="cls-12" d="M469.57,289.87c-.82-6.34-19.35-20-22.48-13.93S471.35,303.55,469.57,289.87Z"/><path class="cls-12" d="M234.36,363.15c5.27-.09-5.89-7.2-8.9-4.37S222.34,363.36,234.36,363.15Z"/><path class="cls-12" d="M366.17,342.06c5.28-.09-5.89-7.2-8.9-4.37S354.15,342.27,366.17,342.06Z"/><path class="cls-12" d="M278.17,347.8c.07-4.14-8.53-13.2-14.48-10.74S278,361.43,278.17,347.8Z"/><path class="cls-12" d="M214.05,253.69c.07-4.14-3.16-9.81-9.11-7.36S213.83,267.31,214.05,253.69Z"/><path class="cls-93" d="M339.91,289.78c-12.07,14.68-48.07-24-22.3-33.72a17.91,17.91,0,0,1,9.83.45,28.54,28.54,0,0,1,9.87,5.73C339.65,264.53,350.77,276.57,339.91,289.78Z"/><path class="cls-12" d="M336.43,267c0-3.07-2.35-7.28-6.77-5.46S336.26,277.12,336.43,267Z"/><path class="cls-12" d="M368.9,343.9c-4,1.07-8.57,5.73-4.58,10.78S382.06,340.37,368.9,343.9Z"/><path class="cls-94" d="M463.67,274.3a59.42,59.42,0,0,1,25.48,30.48c5,13.58,6.64,31.17-12,40.62C446.78,360.8,413.63,244.76,463.67,274.3Z"/><path class="cls-95" d="M366,335.81c12.33,5.59,21.88,14.33,26.83,24.65,5.27,11,7,25.2-12.62,32.83C348.17,405.75,313.26,311.92,366,335.81Z"/><path class="cls-96" d="M7.62,326.72a11.83,11.83,0,0,1,2.64-.73,32.29,32.29,0,0,1-7.08-10C1.24,311.53.89,306.75.84,301.91a97.23,97.23,0,0,1,.7-15.07C3,277,8.24,269.25,16.13,263.34c7.72-5.8,17.33-10,27.12-9.9a35.38,35.38,0,0,1,10.46,1.74c-1.79-8,.55-16.91,7.16-22.08a19.37,19.37,0,0,1,4.56-2.65c2.55,5,7.84,6.46,13,5.6a29.66,29.66,0,0,0-6.18,10.59,27,27,0,0,0,2,21.3c.26.47.56.89.85,1.33-.19.49-.39,1-.62,1.59l-.06.16c-.67,1.71-1.48,3.78-2.42,6.15l0,.12c-.63,1.59-1.31,3.31-2,5.13,0,.11-.09.24-.14.35-3.66,9.19-8.37,20.92-12.82,32-.19.48-.38.95-.58,1.43-.78,1.95-1.56,3.88-2.32,5.76-1,2.53-2,5-2.93,7.29s-1.86,4.6-2.69,6.67l-.9,2.23c-.36.9-.71,1.75-1,2.56l-1.6,3.94c-.39,1-.74,1.83-1,2.54l-.52,1.28-.45,1.1s7.85,9.87,13.53,6.84l33.89-63.14a18.74,18.74,0,0,1,16.91-10,67.62,67.62,0,0,0,20.08-2.76c1.54-.43,3.12-.91,4.72-1.41l1.37-.44c1.25-.4,2.52-.83,3.8-1.28l1.24-.43c1.65-.6,3.3-1.22,5-1.89l.85-.36c1.38-.56,2.76-1.16,4.13-1.78l.32-.13,1.08-.51-1.09.5a18.46,18.46,0,0,1,0-15,15.94,15.94,0,0,1,1-1.81c3.1-4.88,8.79-7.14,14.11-4.28a12,12,0,0,1,3.75,3.21,33.29,33.29,0,0,1,8.14-9.29,37.51,37.51,0,0,1,6.24-4.14,25.15,25.15,0,0,1,20.1-2A38.42,38.42,0,0,1,223,256.76a59.57,59.57,0,0,1,6.7,18.39c-.89-.14-1.78-.26-2.68-.41.9.15,1.79.31,2.69.44.68.11,1.36.19,2,.29l1.56.21c1.75.23,3.49.42,5.23.58l1,.11c2.09.18,4.17.33,6.24.42,0,.32,0,.62,0,.93s0,.69.08,1,.08.73.13,1.08.11.69.19,1,.08.43.14.64c.12.45.26.89.41,1.31l.22.55c.19.42.39.83.62,1.23.08.15.18.28.27.42a9.63,9.63,0,0,0,.81,1.12l.26.3a11.91,11.91,0,0,0,1.07,1.06,3.73,3.73,0,0,0,.3.26,15.12,15.12,0,0,0,1.45,1.07l.38.25c.56.34,1.15.68,1.8,1l.34.16c.71.35,1.46.69,2.28,1a47.57,47.57,0,0,0,8.47,2.14s-.44,12.39,6.56,12.39c13.61,0,13.38-17.2,12.73-16.91,0,0,4.21,5.84,9.93,5.12,10.14-1.27,5.23-15.91,5.26-15.92.82-.39,6.13,2.75,6.95,2.35,0,17.74,19.09,39.92,41.22,30.56,0,0-22.52,13.62,0,18.59,0,0-26.16-2.45-26.66,22.28s50.46,84.6,96.32,32.38c0,0-4.16,22.09,13.79,15.52-4.15,3-11.06,1.87-15.27-.44a13,13,0,0,1-1.63-1.05,35.2,35.2,0,0,1-14.62,28.46c-15,10.7-36.21,11.13-52.89,4.46a65.84,65.84,0,0,1-11.42-5.95,11.8,11.8,0,0,1-3.18,8.63,19.44,19.44,0,0,1-5.84,3.83c-2.52,1.19-5,2.23-7.82,1.77-4.44-.72-8.78-3.76-12.15-6.59A36.74,36.74,0,0,1,298,422.5a34.77,34.77,0,0,1-1.63-3.37,52.53,52.53,0,0,1-3.11,6.29A58.71,58.71,0,0,1,269,448.33c-11.14,5.55-23,6.54-35.15,4.42-13.09-2.28-26.39-6.55-36.89-14.94-8.56-6.84-14.73-16-20-25.52-2.89,14-14.11,25.31-29.05,26.25-15.93,1-28.87-11.76-35.74-24.91a29.82,29.82,0,0,1-3.72-14.3,53,53,0,0,1-42.63,17.06A58.1,58.1,0,0,1,36.42,405.9C27,399.2,21.13,390.39,17.3,379.6c-2.77-7.81-4.12-17.32-.93-25C8.76,354,1.49,348.15.15,340A12.35,12.35,0,0,1,7.62,326.72Z"/><g class="cls-97"><path class="cls-98" d="M371.45,257.42s-2.44-19.21-18.57-25-21.75,11.14-17,25.6,5.34,17,3.12,29.12,12.26,26.79,20.72,26.27,25.36-27.89,33.37-43.55l13.15,24.64s4.67,4.6,13.11-.37c0,0-10.72-37.56-13.06-45.79s-14.19-11-19.38-6.61S371.45,257.42,371.45,257.42Z"/><path class="cls-99" d="M407.88,287.06c5.39,7,8.08,9.57,10.78,4.73.42,1.47.66,2.34.66,2.34-8.44,5-13.11.37-13.11.37L402.76,288l-9.7-18.17c-1.88-4.13-3.63-8.9-5-13C388,256.86,399.42,276.14,407.88,287.06Z"/><path class="cls-100" d="M415,279l4.31,15.1c-8.44,5-13.11.37-13.11.37l-8-15C417.27,292.4,415,279,415,279Z"/><path class="cls-101" d="M408.38,288.23c6,8.29,10.94,5.9,10.94,5.9-8.44,5-13.11.37-13.11.37l-8-15a48.15,48.15,0,0,0,7.38,4.24A49.81,49.81,0,0,0,408.38,288.23Z"/><path class="cls-102" d="M339,287.14c1.77-9.65,1.72-13.24-.73-21.55,0-.19-.05-.38-.09-.57l.28,0c1,6,2.88,9.47,5.93,8.69,15.19-3.89,27.09-16.33,27.09-16.33s-8.39,8.64-14.82,16.94c0,0-18.8,17.37-5.83,15.86s27-19.33,27-19.33a95,95,0,0,0,10.19-14c1.4,4.1,3.15,8.87,5,13-8,15.66-24.91,43-33.37,43.55a8.26,8.26,0,0,1-1.39-.06l-.46-.06a10,10,0,0,1-1.12-.26c-.3-.08-.61-.17-.91-.28C347.47,309.82,337.07,297.57,339,287.14Z"/><path class="cls-103" d="M406.32,255.88a36.34,36.34,0,0,0-.63-9,9.66,9.66,0,0,1,.57,1.5c.37,1.32,1,3.38,1.68,5.92l5.54,19.39c3,10.68,5.84,20.48,5.84,20.48-8.44,5-13.11.37-13.11.37L402.76,288l-9.7-18.17c-1.88-4.13-3.63-8.9-5-13C388,256.86,405.06,270.92,406.32,255.88Z"/></g><path class="cls-104" d="M253.42,420.84a8.62,8.62,0,1,0,12,2.3A8.62,8.62,0,0,0,253.42,420.84Z"/><path class="cls-48" d="M256.86,425.92a2.49,2.49,0,1,0,3.46.66A2.47,2.47,0,0,0,256.86,425.92Z"/><path class="cls-105" d="M279.45,377.69a8.62,8.62,0,1,0,12,2.3A8.62,8.62,0,0,0,279.45,377.69Z"/><path class="cls-48" d="M282.89,382.77a2.49,2.49,0,1,0,3.46.66A2.48,2.48,0,0,0,282.89,382.77Z"/><path class="cls-106" d="M331.43,321a8.62,8.62,0,1,0,12,2.3A8.62,8.62,0,0,0,331.43,321Z"/><path class="cls-48" d="M334.87,326.06a2.49,2.49,0,1,0,3.46.66A2.48,2.48,0,0,0,334.87,326.06Z"/><path class="cls-107" d="M208.83,398.84a8.62,8.62,0,1,0,12,2.3A8.62,8.62,0,0,0,208.83,398.84Z"/><path class="cls-48" d="M212.27,403.91a2.49,2.49,0,1,0,3.45.67A2.49,2.49,0,0,0,212.27,403.91Z"/><path class="cls-108" d="M191.71,308.91a8.62,8.62,0,1,0,12,2.3A8.62,8.62,0,0,0,191.71,308.91Z"/><path class="cls-48" d="M195.15,314a2.49,2.49,0,1,0,3.45.66A2.48,2.48,0,0,0,195.15,314Z"/><path class="cls-109" d="M138,305.29a8.62,8.62,0,1,0,12,2.3A8.62,8.62,0,0,0,138,305.29Z"/><path class="cls-48" d="M141.39,310.37a2.49,2.49,0,1,0,3.45.66A2.48,2.48,0,0,0,141.39,310.37Z"/><path class="cls-110" d="M152.44,264.1a8.62,8.62,0,1,0,12,2.3A8.62,8.62,0,0,0,152.44,264.1Z"/><path class="cls-48" d="M155.88,269.18a2.49,2.49,0,1,0,3.46.66A2.47,2.47,0,0,0,155.88,269.18Z"/><path class="cls-111" d="M235.46,308.91a8.62,8.62,0,1,0,12,2.3A8.62,8.62,0,0,0,235.46,308.91Z"/><path class="cls-48" d="M238.9,314a2.49,2.49,0,1,0,3.45.66A2.48,2.48,0,0,0,238.9,314Z"/><path class="cls-112" d="M209.38,415.17a8.62,8.62,0,1,0,12,2.3A8.62,8.62,0,0,0,209.38,415.17Z"/><path class="cls-48" d="M212.82,420.24a2.49,2.49,0,1,0,3.46.67A2.49,2.49,0,0,0,212.82,420.24Z"/><path class="cls-113" d="M350.26,346.88a8.62,8.62,0,1,0,12,2.3A8.62,8.62,0,0,0,350.26,346.88Z"/><path class="cls-48" d="M353.7,352a2.49,2.49,0,1,0,3.46.67A2.48,2.48,0,0,0,353.7,352Z"/><path class="cls-114" d="M283.22,364.06a4.31,4.31,0,1,0,6,1.15A4.3,4.3,0,0,0,283.22,364.06Z"/><path class="cls-48" d="M284.93,366.59a1.26,1.26,0,0,0-.33,1.73,1.24,1.24,0,1,0,.33-1.73Z"/><path class="cls-115" d="M298.17,402.58a4.31,4.31,0,1,0,6,1.15A4.3,4.3,0,0,0,298.17,402.58Z"/><path class="cls-48" d="M299.89,405.11a1.24,1.24,0,1,0,1.39,2.06,1.24,1.24,0,0,0-1.39-2.06Z"/><path class="cls-116" d="M354.66,311.91a4.31,4.31,0,1,0,6,1.15A4.31,4.31,0,0,0,354.66,311.91Z"/><path class="cls-48" d="M356.38,314.45a1.24,1.24,0,1,0,1.72.33A1.24,1.24,0,0,0,356.38,314.45Z"/><path class="cls-117" d="M351.9,365.49a4.31,4.31,0,1,0,6,1.15A4.31,4.31,0,0,0,351.9,365.49Z"/><path class="cls-48" d="M353.62,368a1.24,1.24,0,1,0,1.39,2.06,1.24,1.24,0,0,0-1.39-2.06Z"/><path class="cls-118" d="M271.08,423.84a4.31,4.31,0,1,0,6,1.15A4.31,4.31,0,0,0,271.08,423.84Z"/><path class="cls-48" d="M272.8,426.38a1.24,1.24,0,1,0,1.72.33A1.24,1.24,0,0,0,272.8,426.38Z"/><path class="cls-119" d="M151.48,285.72a4.31,4.31,0,1,0,6,1.15A4.31,4.31,0,0,0,151.48,285.72Z"/><path class="cls-48" d="M153.2,288.26a1.24,1.24,0,1,0,1.72.33A1.24,1.24,0,0,0,153.2,288.26Z"/><path class="cls-120" d="M432.66,381.45a8.62,8.62,0,1,0-1.92,12A8.63,8.63,0,0,0,432.66,381.45Z"/><path class="cls-48" d="M427.7,385.05a2.49,2.49,0,1,0-.56,3.47A2.5,2.5,0,0,0,427.7,385.05Z"/><path class="cls-121" d="M434.56,327.6a8.62,8.62,0,1,0-1.92,12A8.63,8.63,0,0,0,434.56,327.6Z"/><path class="cls-48" d="M429.6,331.2a2.49,2.49,0,1,0-.55,3.48A2.49,2.49,0,0,0,429.6,331.2Z"/><path class="cls-122" d="M476.19,340.77a8.62,8.62,0,1,0-1.91,12A8.62,8.62,0,0,0,476.19,340.77Z"/><path class="cls-48" d="M471.23,344.37a2.49,2.49,0,1,0-.55,3.48A2.49,2.49,0,0,0,471.23,344.37Z"/><path class="cls-123" d="M480.89,323.57a8.62,8.62,0,1,0-1.91,12A8.6,8.6,0,0,0,480.89,323.57Z"/><path class="cls-48" d="M475.93,327.17a2.49,2.49,0,1,0-.55,3.47A2.48,2.48,0,0,0,475.93,327.17Z"/><path class="cls-124" d="M454.55,340.5a4.31,4.31,0,1,0-1,6A4.31,4.31,0,0,0,454.55,340.5Z"/><path class="cls-48" d="M452.07,342.3a1.24,1.24,0,1,0-.27,1.73A1.24,1.24,0,0,0,452.07,342.3Z"/><path class="cls-125" d="M107.44,305.16a4.31,4.31,0,1,0,6,1.15A4.3,4.3,0,0,0,107.44,305.16Z"/><path class="cls-48" d="M109.16,307.7a1.24,1.24,0,1,0,1.72.33A1.24,1.24,0,0,0,109.16,307.7Z"/><path class="cls-126" d="M119.64,317.7a4.31,4.31,0,1,0,6,1.15A4.32,4.32,0,0,0,119.64,317.7Z"/><path class="cls-48" d="M121.36,320.24A1.24,1.24,0,0,0,121,322a1.25,1.25,0,0,0,2.06-1.4A1.24,1.24,0,0,0,121.36,320.24Z"/><path class="cls-127" d="M152.58,358.94a8.62,8.62,0,1,0,12,2.3A8.62,8.62,0,0,0,152.58,358.94Z"/><path class="cls-48" d="M156,364a2.49,2.49,0,1,0,3.46.67A2.5,2.5,0,0,0,156,364Z"/><path class="cls-128" d="M412.23,279.46a8.62,8.62,0,1,0,12,2.3A8.62,8.62,0,0,0,412.23,279.46Z"/><path class="cls-48" d="M415.67,284.53a2.49,2.49,0,1,0,3.45.66A2.49,2.49,0,0,0,415.67,284.53Z"/><path class="cls-129" d="M403.87,316a8.62,8.62,0,1,0,12,2.3A8.62,8.62,0,0,0,403.87,316Z"/><path class="cls-48" d="M407.31,321.11a2.49,2.49,0,1,0,3.46.67A2.49,2.49,0,0,0,407.31,321.11Z"/><path class="cls-130" d="M395.43,311.57a4.31,4.31,0,1,0,6,1.15A4.31,4.31,0,0,0,395.43,311.57Z"/><path class="cls-48" d="M397.15,314.1a1.24,1.24,0,0,0-.33,1.73,1.24,1.24,0,1,0,.33-1.73Z"/><path class="cls-131" d="M122.07,358.81a4.3,4.3,0,1,0,6,1.15A4.3,4.3,0,0,0,122.07,358.81Z"/><path class="cls-48" d="M123.78,361.34a1.25,1.25,0,1,0,1.73.33A1.25,1.25,0,0,0,123.78,361.34Z"/><path class="cls-132" d="M134.27,371.35a4.31,4.31,0,1,0,6,1.15A4.31,4.31,0,0,0,134.27,371.35Z"/><path class="cls-48" d="M136,373.88a1.24,1.24,0,1,0,1.73.34A1.24,1.24,0,0,0,136,373.88Z"/><path class="cls-133" d="M231,364.62a4.31,4.31,0,1,0,6,1.15A4.32,4.32,0,0,0,231,364.62Z"/><path class="cls-48" d="M232.67,367.15a1.25,1.25,0,1,0,1.73.34A1.24,1.24,0,0,0,232.67,367.15Z"/><path class="cls-134" d="M176.91,374.93a4.31,4.31,0,1,0,6,1.15A4.31,4.31,0,0,0,176.91,374.93Z"/><path class="cls-48" d="M178.63,377.46a1.24,1.24,0,0,0-.33,1.73,1.24,1.24,0,1,0,.33-1.73Z"/><path class="cls-135" d="M191.56,329.53a4.3,4.3,0,1,0,6,1.15A4.29,4.29,0,0,0,191.56,329.53Z"/><path class="cls-48" d="M193.27,332.06a1.25,1.25,0,1,0,1.73.33A1.25,1.25,0,0,0,193.27,332.06Z"/><path class="cls-136" d="M309.19,352.76a4.31,4.31,0,1,0,6,1.15A4.31,4.31,0,0,0,309.19,352.76Z"/><path class="cls-48" d="M310.91,355.3a1.24,1.24,0,1,0,1.72.33A1.23,1.23,0,0,0,310.91,355.3Z"/><path class="cls-137" d="M111,358.28a4.31,4.31,0,1,0,6,1.15A4.31,4.31,0,0,0,111,358.28Z"/><path class="cls-48" d="M112.71,360.82a1.24,1.24,0,1,0,1.72.33A1.23,1.23,0,0,0,112.71,360.82Z"/><circle class="cls-138" cx="34.77" cy="337.1" r="8.62"/><path class="cls-48" d="M32.4,336.35a2.49,2.49,0,1,0,3.12-1.63A2.48,2.48,0,0,0,32.4,336.35Z"/><path class="cls-139" d="M300.3,289.22a8.62,8.62,0,1,0,10.81-5.64A8.62,8.62,0,0,0,300.3,289.22Z"/><path class="cls-48" d="M306.15,291.06a2.49,2.49,0,1,0,3.12-1.63A2.49,2.49,0,0,0,306.15,291.06Z"/><path class="cls-140" d="M39.12,313a4.3,4.3,0,1,0,5.4-2.82A4.3,4.3,0,0,0,39.12,313Z"/><path class="cls-48" d="M42,313.9a1.24,1.24,0,0,0,2.37.74A1.24,1.24,0,1,0,42,313.9Z"/><path class="cls-141" d="M70.24,356.68a4.3,4.3,0,1,0,5.4-2.82A4.29,4.29,0,0,0,70.24,356.68Z"/><path class="cls-48" d="M73.16,357.6a1.22,1.22,0,0,0,.81,1.55,1.24,1.24,0,0,0,1.56-.81,1.24,1.24,0,1,0-2.37-.74Z"/><path class="cls-142" d="M52.9,269.74a8.62,8.62,0,1,0,10.81-5.64A8.62,8.62,0,0,0,52.9,269.74Z"/><path class="cls-48" d="M58.75,271.58A2.49,2.49,0,1,0,61.87,270,2.48,2.48,0,0,0,58.75,271.58Z"/><circle class="cls-143" cx="227.68" cy="296.24" r="8.62" transform="translate(-54.04 50.82) rotate(-11.39)"/><path class="cls-48" d="M225.3,295.49a2.49,2.49,0,1,0,3.13-1.62A2.49,2.49,0,0,0,225.3,295.49Z"/><path class="cls-144" d="M274.55,308.68a4.31,4.31,0,1,0,5.4-2.82A4.31,4.31,0,0,0,274.55,308.68Z"/><path class="cls-48" d="M277.47,309.6a1.25,1.25,0,0,0,.82,1.56,1.25,1.25,0,0,0,.74-2.38A1.25,1.25,0,0,0,277.47,309.6Z"/><path class="cls-145" d="M28.86,373.23a4.3,4.3,0,1,0,5.4-2.81A4.31,4.31,0,0,0,28.86,373.23Z"/><path class="cls-48" d="M31.78,374.15a1.24,1.24,0,1,0,1.56-.81A1.24,1.24,0,0,0,31.78,374.15Z"/></g></g></svg>