<svg xmlns="http://www.w3.org/2000/svg" xmlns:xlink="http://www.w3.org/1999/xlink" viewBox="0 0 500 500"><defs><style>.cls-1{isolation:isolate;}.cls-10,.cls-11,.cls-12,.cls-13,.cls-14,.cls-15,.cls-17,.cls-18,.cls-19,.cls-2,.cls-20,.cls-21,.cls-22,.cls-23,.cls-24,.cls-25,.cls-26,.cls-27,.cls-28,.cls-3,.cls-31,.cls-32,.cls-33,.cls-34,.cls-35,.cls-36,.cls-37,.cls-38,.cls-39,.cls-4,.cls-40,.cls-41,.cls-42,.cls-43,.cls-44,.cls-5,.cls-6,.cls-7,.cls-8,.cls-9{fill-rule:evenodd;}.cls-2{fill:url(#linear-gradient);}.cls-3{fill:url(#_ÂÁ_Ï_ÌÌ_È_ËÂÌÚ_92);}.cls-4{fill:url(#_ÂÁ_Ï_ÌÌ_È_ËÂÌÚ_77);}.cls-5{fill:url(#_ÂÁ_Ï_ÌÌ_È_ËÂÌÚ_91);}.cls-6{fill:url(#_ÂÁ_Ï_ÌÌ_È_ËÂÌÚ_101);}.cls-10,.cls-12,.cls-13,.cls-15,.cls-17,.cls-36,.cls-38,.cls-40,.cls-41,.cls-7{mix-blend-mode:multiply;}.cls-10,.cls-17,.cls-38,.cls-41,.cls-7{opacity:0.79;}.cls-7{fill:url(#_ÂÁ_Ï_ÌÌ_È_ËÂÌÚ_146);}.cls-8{fill:url(#_ÂÁ_Ï_ÌÌ_È_ËÂÌÚ_2);}.cls-9{fill:url(#_ÂÁ_Ï_ÌÌ_È_ËÂÌÚ_101-2);}.cls-10{fill:url(#_ÂÁ_Ï_ÌÌ_È_ËÂÌÚ_139);}.cls-11{fill:url(#_ÂÁ_Ï_ÌÌ_È_ËÂÌÚ_4);}.cls-12{fill:#7c4f90;opacity:0.5;}.cls-13,.cls-15,.cls-36,.cls-37,.cls-40{opacity:0.58;}.cls-13{fill:url(#_ÂÁ_Ï_ÌÌ_È_ËÂÌÚ_139-2);}.cls-14{fill:url(#_ÂÁ_Ï_ÌÌ_È_ËÂÌÚ_5);}.cls-15{fill:url(#_ÂÁ_Ï_ÌÌ_È_ËÂÌÚ_127);}.cls-16{fill:url(#_ÂÁ_Ï_ÌÌ_È_ËÂÌÚ_213);}.cls-17{fill:url(#_ÂÁ_Ï_ÌÌ_È_ËÂÌÚ_156);}.cls-18{fill:url(#_ÂÁ_Ï_ÌÌ_È_ËÂÌÚ_4-2);}.cls-19{fill:url(#_ÂÁ_Ï_ÌÌ_È_ËÂÌÚ_56);}.cls-20{fill:url(#_ÂÁ_Ï_ÌÌ_È_ËÂÌÚ_46);}.cls-21{fill:url(#_ÂÁ_Ï_ÌÌ_È_ËÂÌÚ_77-2);}.cls-22{fill:url(#_ÂÁ_Ï_ÌÌ_È_ËÂÌÚ_77-3);}.cls-23{fill:#4f5195;}.cls-24{fill:url(#_ÂÁ_Ï_ÌÌ_È_ËÂÌÚ_91-2);}.cls-25{fill:url(#_ÂÁ_Ï_ÌÌ_È_ËÂÌÚ_101-3);}.cls-26{fill:url(#_ÂÁ_Ï_ÌÌ_È_ËÂÌÚ_92-2);}.cls-27{fill:#a19ddd;}.cls-28{fill:url(#_ÂÁ_Ï_ÌÌ_È_ËÂÌÚ_118);}.cls-29{fill:url(#_ÂÁ_Ï_ÌÌ_È_ËÂÌÚ_109);}.cls-30{fill:#180833;}.cls-31{fill:#220d33;}.cls-32{fill:#b64f6d;}.cls-33,.cls-44,.cls-45{fill:#fff;}.cls-34{fill:url(#_ÂÁ_Ï_ÌÌ_È_ËÂÌÚ_101-4);}.cls-35{fill:#b5526f;}.cls-36{fill:url(#_ÂÁ_Ï_ÌÌ_È_ËÂÌÚ_29);}.cls-37{mix-blend-mode:screen;fill:url(#_ÂÁ_Ï_ÌÌ_È_ËÂÌÚ_132);}.cls-38{fill:url(#_ÂÁ_Ï_ÌÌ_È_ËÂÌÚ_139-3);}.cls-39{fill:url(#_ÂÁ_Ï_ÌÌ_È_ËÂÌÚ_3);}.cls-40{fill:url(#_ÂÁ_Ï_ÌÌ_È_ËÂÌÚ_127-2);}.cls-41{fill:url(#_ÂÁ_Ï_ÌÌ_È_ËÂÌÚ_139-4);}.cls-42{fill:url(#_ÂÁ_Ï_ÌÌ_È_ËÂÌÚ_2-2);}.cls-43{fill:#ff63b8;}.cls-44,.cls-45{mix-blend-mode:soft-light;}.cls-46{fill:#7a5aff;}</style><linearGradient id="linear-gradient" x1="375.02" y1="466.54" x2="124.98" y2="33.46" gradientUnits="userSpaceOnUse"><stop offset="0" stop-color="#111114"/><stop offset="1" stop-color="#303035"/></linearGradient><linearGradient id="_ÂÁ_Ï_ÌÌ_È_ËÂÌÚ_92" x1="197.51" y1="497.15" x2="197.51" y2="439.29" gradientUnits="userSpaceOnUse"><stop offset="0.03" stop-color="#84a1ff"/><stop offset="0.98" stop-color="#5b72ec"/></linearGradient><linearGradient id="_ÂÁ_Ï_ÌÌ_È_ËÂÌÚ_77" x1="200.32" y1="460.46" x2="200.32" y2="352.07" gradientUnits="userSpaceOnUse"><stop offset="0.02" stop-color="#ffa451"/><stop offset="0.97" stop-color="#ff515e"/></linearGradient><linearGradient id="_ÂÁ_Ï_ÌÌ_È_ËÂÌÚ_91" x1="195.35" y1="496.29" x2="195.35" y2="401.95" gradientUnits="userSpaceOnUse"><stop offset="0.03" stop-color="#d36fff"/><stop offset="0.98" stop-color="#a240ec"/></linearGradient><linearGradient id="_ÂÁ_Ï_ÌÌ_È_ËÂÌÚ_101" x1="197.79" y1="481.76" x2="197.79" y2="380.39" gradientUnits="userSpaceOnUse"><stop offset="0.02" stop-color="#ff7288"/><stop offset="0.97" stop-color="#ff11a1"/></linearGradient><linearGradient id="_ÂÁ_Ï_ÌÌ_È_ËÂÌÚ_146" x1="215.83" y1="497.15" x2="215.83" y2="360.94" gradientUnits="userSpaceOnUse"><stop offset="0" stop-color="#fff"/><stop offset="0.99" stop-color="#943bac"/></linearGradient><linearGradient id="_ÂÁ_Ï_ÌÌ_È_ËÂÌÚ_2" x1="232.62" y1="499.32" x2="232.62" y2="423.32" gradientUnits="userSpaceOnUse"><stop offset="0.02" stop-color="#5bc9ec"/><stop offset="0.97" stop-color="#84a1ff"/></linearGradient><linearGradient id="_ÂÁ_Ï_ÌÌ_È_ËÂÌÚ_101-2" x1="180.96" y1="239.43" x2="180.96" y2="156.65" xlink:href="#_ÂÁ_Ï_ÌÌ_È_ËÂÌÚ_101"/><linearGradient id="_ÂÁ_Ï_ÌÌ_È_ËÂÌÚ_139" x1="182.57" y1="239.43" x2="182.57" y2="158.93" gradientUnits="userSpaceOnUse"><stop offset="0" stop-color="#fff"/><stop offset="0.99" stop-color="#8259ac"/></linearGradient><linearGradient id="_ÂÁ_Ï_ÌÌ_È_ËÂÌÚ_4" x1="334.1" y1="500" x2="334.1" y2="262.18" gradientUnits="userSpaceOnUse"><stop offset="0.02" stop-color="#e4deec"/><stop offset="1" stop-color="#cfbfeb"/></linearGradient><linearGradient id="_ÂÁ_Ï_ÌÌ_È_ËÂÌÚ_139-2" x1="344.45" y1="484.9" x2="344.45" y2="262.18" xlink:href="#_ÂÁ_Ï_ÌÌ_È_ËÂÌÚ_139"/><linearGradient id="_ÂÁ_Ï_ÌÌ_È_ËÂÌÚ_5" x1="268.07" y1="400.56" x2="268.07" y2="152.26" gradientUnits="userSpaceOnUse"><stop offset="0" stop-color="#cfbfeb"/><stop offset="0.98" stop-color="#e4deec"/></linearGradient><linearGradient id="_ÂÁ_Ï_ÌÌ_È_ËÂÌÚ_127" x1="277.7" y1="400.56" x2="277.7" y2="152.26" gradientUnits="userSpaceOnUse"><stop offset="0" stop-color="#cad6ff"/><stop offset="0.99" stop-color="#9775ba"/></linearGradient><linearGradient id="_ÂÁ_Ï_ÌÌ_È_ËÂÌÚ_213" x1="219.59" y1="200.56" x2="219.59" y2="32.11" gradientTransform="matrix(0.99, 0.15, -0.14, 0.93, 2.63, -22.16)" gradientUnits="userSpaceOnUse"><stop offset="0" stop-color="#ff8757"/><stop offset="0.98" stop-color="#ffb34c"/></linearGradient><linearGradient id="_ÂÁ_Ï_ÌÌ_È_ËÂÌÚ_156" x1="219.85" y1="200.56" x2="219.85" y2="32.39" gradientTransform="matrix(0.99, 0.15, -0.14, 0.93, 2.63, -22.16)" gradientUnits="userSpaceOnUse"><stop offset="0" stop-color="#fff"/><stop offset="0.99" stop-color="#b10bac"/></linearGradient><linearGradient id="_ÂÁ_Ï_ÌÌ_È_ËÂÌÚ_4-2" x1="361.13" y1="279.78" x2="361.13" y2="174.28" gradientTransform="translate(-19.65 -27.85) rotate(-6.21)" xlink:href="#_ÂÁ_Ï_ÌÌ_È_ËÂÌÚ_4"/><linearGradient id="_ÂÁ_Ï_ÌÌ_È_ËÂÌÚ_56" x1="297.01" y1="219.86" x2="297.01" y2="92.07" gradientUnits="userSpaceOnUse"><stop offset="0.02" stop-color="#a272ec"/><stop offset="0.97" stop-color="#d36fff"/></linearGradient><linearGradient id="_ÂÁ_Ï_ÌÌ_È_ËÂÌÚ_46" x1="315.3" y1="199.32" x2="315.3" y2="112.96" gradientUnits="userSpaceOnUse"><stop offset="0.02" stop-color="#5b72ec"/><stop offset="0.97" stop-color="#84a1ff"/></linearGradient><linearGradient id="_ÂÁ_Ï_ÌÌ_È_ËÂÌÚ_77-2" x1="155.06" y1="221.45" x2="155.06" y2="160.49" xlink:href="#_ÂÁ_Ï_ÌÌ_È_ËÂÌÚ_77"/><linearGradient id="_ÂÁ_Ï_ÌÌ_È_ËÂÌÚ_77-3" x1="447.57" y1="404.02" x2="447.57" y2="400.54" xlink:href="#_ÂÁ_Ï_ÌÌ_È_ËÂÌÚ_77"/><linearGradient id="_ÂÁ_Ï_ÌÌ_È_ËÂÌÚ_91-2" x1="387.3" y1="488.04" x2="387.3" y2="288.48" xlink:href="#_ÂÁ_Ï_ÌÌ_È_ËÂÌÚ_91"/><linearGradient id="_ÂÁ_Ï_ÌÌ_È_ËÂÌÚ_101-3" x1="397.12" y1="463.42" x2="397.12" y2="316.53" xlink:href="#_ÂÁ_Ï_ÌÌ_È_ËÂÌÚ_101"/><linearGradient id="_ÂÁ_Ï_ÌÌ_È_ËÂÌÚ_92-2" x1="379.76" y1="411.62" x2="379.76" y2="199.31" xlink:href="#_ÂÁ_Ï_ÌÌ_È_ËÂÌÚ_92"/><linearGradient id="_ÂÁ_Ï_ÌÌ_È_ËÂÌÚ_118" x1="274.27" y1="310.04" x2="274.27" y2="255.02" gradientUnits="userSpaceOnUse"><stop offset="0" stop-color="#fff"/><stop offset="1" stop-color="#bdbfff"/></linearGradient><linearGradient id="_ÂÁ_Ï_ÌÌ_È_ËÂÌÚ_109" x1="280.59" y1="304.95" x2="280.59" y2="253.62" gradientTransform="translate(279.67 -116.6) rotate(45)" gradientUnits="userSpaceOnUse"><stop offset="0.01" stop-color="#634f90"/><stop offset="1" stop-color="#3b0643"/></linearGradient><linearGradient id="_ÂÁ_Ï_ÌÌ_È_ËÂÌÚ_101-4" x1="240.65" y1="222.99" x2="292.91" y2="222.99" xlink:href="#_ÂÁ_Ï_ÌÌ_È_ËÂÌÚ_101"/><linearGradient id="_ÂÁ_Ï_ÌÌ_È_ËÂÌÚ_29" x1="193.11" y1="348.18" x2="208.91" y2="348.18" gradientUnits="userSpaceOnUse"><stop offset="0.01" stop-color="#9775ba"/><stop offset="1" stop-color="#ffeadb"/></linearGradient><linearGradient id="_ÂÁ_Ï_ÌÌ_È_ËÂÌÚ_132" x1="153.24" y1="325.21" x2="229.74" y2="325.21" gradientUnits="userSpaceOnUse"><stop offset="0" stop-color="#ffeadb"/><stop offset="0.99"/></linearGradient><linearGradient id="_ÂÁ_Ï_ÌÌ_È_ËÂÌÚ_139-3" x1="297.44" y1="219.86" x2="297.44" y2="92.31" xlink:href="#_ÂÁ_Ï_ÌÌ_È_ËÂÌÚ_139"/><linearGradient id="_ÂÁ_Ï_ÌÌ_È_ËÂÌÚ_3" x1="362.65" y1="213.76" x2="362.65" y2="114.73" gradientUnits="userSpaceOnUse"><stop offset="0.02" stop-color="#ff9fa6"/><stop offset="1" stop-color="#ff88c7"/></linearGradient><linearGradient id="_ÂÁ_Ï_ÌÌ_È_ËÂÌÚ_127-2" x1="363.83" y1="193" x2="363.83" y2="114.73" xlink:href="#_ÂÁ_Ï_ÌÌ_È_ËÂÌÚ_127"/><linearGradient id="_ÂÁ_Ï_ÌÌ_È_ËÂÌÚ_139-4" x1="400.61" y1="463.34" x2="400.61" y2="199.32" xlink:href="#_ÂÁ_Ï_ÌÌ_È_ËÂÌÚ_139"/><linearGradient id="_ÂÁ_Ï_ÌÌ_È_ËÂÌÚ_2-2" x1="397.85" y1="364.11" x2="397.85" y2="245.73" xlink:href="#_ÂÁ_Ï_ÌÌ_È_ËÂÌÚ_2"/></defs><g class="cls-1"><g id="Layer_1" data-name="Layer 1"><path class="cls-2" d="M500,250a248.94,248.94,0,0,1-51.8,152.39c-.19.26-.4.51-.6.77s-.44.57-.67.86h0q-5.22,6.66-10.86,12.94l-.36.4c-1.8,2-3.63,4-5.51,5.91-1.09,1.16-2.22,2.3-3.34,3.43a250.55,250.55,0,0,1-41.29,33.38c-.91.59-1.83,1.18-2.75,1.75s-1.61,1-2.43,1.51a1.25,1.25,0,0,1-.12.08,248.87,248.87,0,0,1-44.51,21.48q-4.53,1.67-9.12,3.14A250.19,250.19,0,0,1,250,500q-4.27,0-8.5-.14c-3.39-.12-6.76-.29-10.11-.54-3.07-.23-6.14-.51-9.19-.85q-5.05-.56-10.06-1.32c-1.78-.27-3.55-.55-5.31-.86a248.39,248.39,0,0,1-43.32-11.66c-2.5-.92-5-1.87-7.43-2.87-1.75-.71-3.48-1.44-5.21-2.18-3.58-1.54-7.11-3.18-10.6-4.89q-4.19-2-8.28-4.24l-2-1.1-2.15-1.2q-6.45-3.61-12.66-7.61l-.12-.08c-1.32-.84-2.62-1.69-3.91-2.57A249.72,249.72,0,0,1,0,250C0,111.93,111.92,0,250,0S500,111.93,500,250Z"/><path class="cls-3" d="M231.51,439.29s0,0,0,.06a237.64,237.64,0,0,0-11.94,30.56c-2.55,7.91-5.15,17.09-7.4,27.24-1.78-.27-3.55-.55-5.31-.86a248.39,248.39,0,0,1-43.32-11.66q2.78-2.06,5.34-4.34c1.93-1.69,3.8-3.37,5.67-4.93a255.58,255.58,0,0,1,35.1-25.23,146.66,146.66,0,0,1,20-10.08l0,0c1.07-.44,1.72-.67,1.87-.72Z"/><path class="cls-4" d="M289.54,352.07l-6.24,9.32h0l-.63.94-2.35,3.51-.62.94-3,4.5-1.09,1.62-12.51,18.7,0,0h0a44.47,44.47,0,0,1-26,14.44c-4.57.7-12.28,1-21.56,1.6-8.44.54-18.21,1.23-28.06,2.6l-.66.1a71.22,71.22,0,0,1,12-10.48,49.63,49.63,0,0,1-12.16-.62c-4.75,3.66-29.89,8.18-43.16,19.51-12,10.29-23.35,31.43-28.4,41.66-1.32-.84-2.62-1.69-3.91-2.57,5-14.43,13.56-32,28.21-46.5a70,70,0,0,1,22-14.48.25.25,0,0,0,.1,0,104.13,104.13,0,0,1,15.29-5.06c16.56-4.17,34.07-5.06,49.09-6.78q4.13-.46,8-1.05h0c1.44-.22,2.84-.46,4.21-.72h0a64.85,64.85,0,0,0,11.61-3.17,105.53,105.53,0,0,0,29.31-17.54q1-.82,1.86-1.62A79,79,0,0,0,289.54,352.07Z"/><path class="cls-5" d="M258.7,402c-1.22,2.9-2.45,5.84-3.66,8.7l-.54,1.28h0l0,0-2.93,7h0a41.15,41.15,0,0,0-5.86,4.37.36.36,0,0,1-.09.08l-.08.06-.2.18-.28.23-.68.61c-.08.09-.17.16-.25.24-.38.34-.81.74-1.28,1.2l-.59.58-.39.39-.41.41-.1.1-.4.41c-1.74,1.79-3.61,3.88-5.55,6.3l-.05.06-.91,1.16c-.32.41-.64.82-1,1.25-.65.86-1.29,1.75-1.94,2.68,0,0,0,0,0,.06-1.84,2.64-3.71,5.54-5.55,8.78-.57,1-1.13,2-1.7,3.08a1.51,1.51,0,0,1-.11.22c-.2.36-.39.73-.58,1.11a136,136,0,0,0-8.25,19.95c-3,9.08-5.56,17-8.46,23.8a248.39,248.39,0,0,1-43.32-11.66c-2.5-.92-5-1.87-7.43-2.87-1.75-.71-3.48-1.44-5.21-2.18-3.58-1.54-7.11-3.18-10.6-4.89q-4.19-2-8.28-4.24c12.34-6.41,25.12-13.18,37.61-19.85,17.79-9.51,35-18.85,49.43-26.76C242.45,411,258.7,402,258.7,402Z"/><path class="cls-6" d="M267.78,380.39l-4.7,11.22,0,0-.35.82c-.11.28-.23.55-.34.83-1.19,2.81-2.42,5.73-3.65,8.66s-2.45,5.84-3.66,8.7l-.54,1.28h0l0,0c-.93.43-14.78,7.17-24.85,28.06l0,0c-.81,1.61-1.54,3.27-2.28,5.05-.37.87-.73,1.72-1.14,2.57l-.23.46c-.57,1-1.13,2-1.7,3.08a1.51,1.51,0,0,1-.11.22c-.2.36-.39.73-.58,1.11-9.81,16-27.56,23.92-54.69,27.75q-6.07.85-12.77,1.47c-1.75-.71-3.48-1.44-5.21-2.18-3.58-1.54-7.11-3.18-10.6-4.89q-4.19-2-8.28-4.24l-2-1.1-2.15-1.2c1.69-1.06,3.39-2.14,5.08-3.24,20.79-13.41,37.47-37.1,52.25-52.88h0c.5-.57,1-1.1,1.53-1.64a71.22,71.22,0,0,1,12-10.48h0c.39-.26.77-.5,1.16-.73l.2-.11c.68-.41,1.36-.81,2-1.19a128.86,128.86,0,0,1,29-11.7h0q2.83-.78,5.55-1.42a172.85,172.85,0,0,1,20-3.51h0c6.47-.75,10.63-.85,11-.86Z"/><path class="cls-7" d="M280.79,360.94l-.28,1.53-.37,1.89-.31,1.68-.14.75-3,4.5-1.09,1.62-12.51,18.7,0,0-.35.82c-.11.28-.23.55-.34.83-1.19,2.81-2.42,5.73-3.65,8.66l0,0L255,410.65l-.54,1.28h0l0,0-2.93,7h0a41.15,41.15,0,0,0-5.86,4.37.36.36,0,0,1-.09.08l-.08.06-.2.18-.28.23-.68.61c-.08.09-.17.16-.25.24-.38.34-.81.74-1.28,1.2l-.59.58-.39.39-.41.41-.1.1-.4.41c-1.74,1.79-3.61,3.88-5.55,6.3l-.05.06-.91,1.16c-.32.41-.64.82-1,1.25-.65.86-1.29,1.75-1.94,2.68,0,0,0,0,0,.06a237.64,237.64,0,0,0-11.94,30.56c-2.55,7.91-5.15,17.09-7.4,27.24-1.78-.27-3.55-.55-5.31-.86a248.39,248.39,0,0,1-43.32-11.66c-2.5-.92-5-1.87-7.43-2.87-1.75-.71-3.48-1.44-5.21-2.18,8.68-1.3,16.61-2.53,23.65-4.22,7.54-1.81,14-4.18,19.25-7.71,6.44-4.33,11.74-10.61,15.85-17.52A71.57,71.57,0,0,0,219,423.84c1-7.48,0-13.48-3.11-15.82a3.32,3.32,0,0,0-.5-.33c-9.24-6.11-28.06,2.6-28.06,2.6a16.19,16.19,0,0,1-2.19,1.74c.5-.57,1-1.1,1.53-1.64a71.22,71.22,0,0,1,12-10.48,49.63,49.63,0,0,1-12.16-.62l.15-.12a2.26,2.26,0,0,0,.41-.41,1.66,1.66,0,0,0,.2-.4c.14-.48-.14-1-1-1.45a14.94,14.94,0,0,0-6.13-1.76c-7.74-.8-17.78,1.5-18.82,1.73a104.13,104.13,0,0,1,15.29-5.06c16.56-4.17,34.07-5.06,49.09-6.78q4.13-.46,8-1.05h0c1.44-.22,2.84-.46,4.21-.72h0a64.85,64.85,0,0,0,11.61-3.17,105.53,105.53,0,0,0,29.31-17.54Q279.9,361.74,280.79,360.94Z"/><path class="cls-8" d="M227.5,480.3c1.26,6.33,2.83,12.78,3.89,19-3.07-.23-6.14-.51-9.19-.85-.25-11.13-2.64-19.83-2.66-28.56a37.33,37.33,0,0,1,4.13-17.6c.16-.3.3-.59.45-.88a1.51,1.51,0,0,0,.11-.22c.63-1.22,1.28-2.39,1.93-3.54a99,99,0,0,1,5.32-8.37c.66-.94,1.31-1.83,2-2.69.31-.43.63-.84,1-1.25l.91-1.16.05-.06c2-2.54,4-4.64,5.55-6.3l.4-.41.1-.1.41-.41.39-.39.59-.58c.47-.46.9-.86,1.28-1.2.08-.08.17-.15.25-.24l.68-.61.28-.23.2-.18.08-.06a.36.36,0,0,0,.09-.08l0,0C245.05,424.13,222.1,453.08,227.5,480.3Z"/><path class="cls-9" d="M204.46,187c-22.85,18.19-32.07,52.48-32.07,52.48a.32.32,0,0,1-.08-.14,1.37,1.37,0,0,0-.14-.26c-2.51-3.91-22.37-36.32-11.48-53a16.26,16.26,0,0,1,3.91-4.24c14.14-11,21-19.12,23.81-22.89a24.66,24.66,0,0,0,1.58-2.28l8.86,18.6Z"/><path class="cls-10" d="M204.46,187c-22.85,18.19-32.07,52.48-32.07,52.48a.32.32,0,0,1-.08-.14,1.37,1.37,0,0,0-.14-.26c-.78-1.77-3.4-9.34.33-25.51,4.32-18.75,15.61-36.35,6.75-35.65s-18.56,8.19-18.56,8.19a16.26,16.26,0,0,1,3.91-4.24c14.14-11,21-19.12,23.81-22.89l10.44,16.32Z"/><path class="cls-11" d="M430.2,423.27c-1.09,1.16-2.22,2.3-3.34,3.43a250.55,250.55,0,0,1-41.29,33.38c-.91.59-1.83,1.18-2.75,1.75s-1.61,1-2.43,1.51a1.25,1.25,0,0,1-.12.08,248.87,248.87,0,0,1-44.51,21.48q-4.53,1.67-9.12,3.14A250.19,250.19,0,0,1,250,500q-4.27,0-8.5-.14c-3.6-14.63-4.11-29.63-2.95-39.48,1.6-13.59,4.13-20.56,13-41.4h0c.95-2.26,1.95-4.62,3-7h0l.54-1.28c1.21-2.86,2.44-5.8,3.66-8.7s2.46-5.85,3.65-8.66c.11-.28.23-.55.34-.83l.34-.81,4.73-11.26c1.25-3,2.34-5.57,3.17-7.57l1.86-4.44c1.57-.46,3.13-1,4.66-1.49h0l2.37-.85.48-.19c3.17-1.19,6.24-2.53,9.25-4h0c20.72-10.08,37.93-26.12,51.4-42.42h0a256.65,256.65,0,0,0,24.22-35.1h0a220,220,0,0,0,11.34-22.13s1.16,3.1,3.16,8.49l.72,1.95h0l.8,2.14c3.33,9,8.16,22.27,13.55,37.43.6,1.68,1.2,3.38,1.82,5.1h0q1.88,5.32,3.82,10.88c.09.26.18.52.28.79.66,1.92,1.34,3.87,2,5.83l.27.79c.91,2.63,1.83,5.29,2.74,8,2.75,8,5.49,16.18,8.12,24.2,2.48,7.58,4.86,15,7,22.16,3.57,11.6,6.62,22.3,8.78,31.18C429.86,421.83,430,422.56,430.2,423.27Z"/><path class="cls-12" d="M271.31,372.68s48.36,3,81.63,0S398.41,310,398.41,310L382.9,267.67Z"/><path class="cls-13" d="M430.2,423.27c-1.09,1.16-2.22,2.3-3.34,3.43a250.55,250.55,0,0,1-41.29,33.38c-.91.59-1.83,1.18-2.75,1.75s-1.61,1-2.43,1.51a1.25,1.25,0,0,1-.12.08,248.87,248.87,0,0,1-44.51,21.48c5.06-10.71,10.51-21.61,15.44-31.22,8.87-17.3,16-30.38,16-30.38C315.36,434.82,258.7,402,258.7,402c1.23-2.93,2.46-5.85,3.65-8.66.11-.28.23-.55.34-.83l.34-.81,4.73-11.26c1.25-3,2.34-5.57,3.17-7.57l1.86-4.44c1.57-.46,3.13-1,4.66-1.49h0l2.37-.85.48-.19c3.17-1.19,6.24-2.53,9.25-4h0c20.72-10.08,37.93-26.12,51.4-42.42h0a256.65,256.65,0,0,0,24.22-35.1h0a220,220,0,0,0,11.34-22.13s1.16,3.1,3.16,8.49l.72,1.95h0l.8,2.14c3.33,9,8.16,22.27,13.55,37.43.6,1.68,1.2,3.38,1.82,5.1h0q1.88,5.32,3.82,10.88c.09.26.18.52.28.79.66,1.92,1.34,3.87,2,5.83l.27.79c.91,2.63,1.83,5.29,2.74,8,2.75,8,5.49,16.18,8.12,24.2,2.48,7.58,4.86,15,7,22.16,3.57,11.6,6.62,22.3,8.78,31.18C429.86,421.83,430,422.56,430.2,423.27Z"/><path class="cls-14" d="M346.31,352.93c-21.71,13.44-63.49,15.73-75,19.75s-32.37,24.14-43.74,26.87-23.81-.92-23.81-.92-14.25,2.1-18.9,0-30.41-27-31.59-48.17c-1-18.86,23.77-37.39,24.84-46.51s-7.72-44.73-5.61-66.44,32.11-66,75.55-79c59.21-17.72,117.12,2.81,130.63,55.51S371.11,337.54,346.31,352.93Z"/><path class="cls-15" d="M346.31,352.93c-21.71,13.44-63.49,15.73-75,19.75s-32.37,24.14-43.74,26.87-23.81-.92-23.81-.92-14.25,2.1-18.9,0C224.25,394.9,241,371.79,249.68,366s68.65,1,80.87-17.83,23.43-76.7-3.14-101.72S226,216.32,202.23,219.85c-18,2.68-29.73,17.66-29.73,17.66,2.1-21.66,32.11-66,75.55-79,59.21-17.72,117.12,2.81,130.63,55.51S371.11,337.54,346.31,352.93Z"/><path class="cls-16" d="M252.29,180.12s-18,27.43-52.46,19.37c0,0-15.54-15.16-12.57-38.32l.47-3.06S165.55,145.88,173,108.5c0,0-21.06-38.17-14.89-76.25a3.92,3.92,0,0,1,.48.34c3.66,2.43,27.53,19.25,27.12,39.06,0,0,41.49,20.26,30.6,52.06C216.31,123.71,251.83,153,252.29,180.12Z"/><path class="cls-17" d="M252.29,180.12s-18,27.43-52.46,19.37c0,0,39.81-18.73,37.65-38.34s-19-27.56-26-25.92-24.23,25.94-24.23,25.94l.47-3.06s25-30.8,22.5-47-18.67-31.54-23.95-29.24c-5,2.18-12.31,23.66-13.2,26.33,1-3.35,9.79-35.09,7.22-48.35-2.43-12.7-18.69-25.07-21.71-27.27,3.66,2.43,27.53,19.25,27.12,39.06,0,0,41.49,20.26,30.6,52.06C216.31,123.71,251.83,153,252.29,180.12Z"/><path class="cls-18" d="M317.78,173.06s6-3.11,12.16-17.5,36.62-51.46,76.4-54.38c0,0-7.57,46.9-13.65,71.83s-31.05,39.1-39.74,40.05S315.3,213.18,317.78,173.06Z"/><path class="cls-19" d="M353,215.52c-30.78,13.28-100-6-107.26-30a112.42,112.42,0,0,1-3.76-20.71c-2.55-25.43.29-57.58,12.4-65.07,15.87-9.78,36.13-7.46,36.13-7.46,18.27,21.56,38.76,42,41,44.29-2.21-1.92-20.26-17.23-22.55-16.9s-19.23,18.53-5.24,56.66S353,215.52,353,215.52Z"/><path class="cls-20" d="M337.68,143s-15.51-16.29-29.5-28.53-29.76,54.35,9.6,84.87c0,0-12.18-50.93-2.48-60s19.67,7.5,19.67,7.5Z"/><path class="cls-21" d="M187.23,160.49s-2.72,6.23-34,12.53-32.49,29.2-29,48.43c0,0,4.2-23.43,23.26-33S183.94,174.54,187.23,160.49Z"/><path class="cls-22" d="M448.2,402.39c-.19.26-.4.51-.6.77s-.44.57-.67.86c.36-1.17.64-2.07.8-2.67s.22-.81.22-.81S448,401.19,448.2,402.39Z"/><path class="cls-23" d="M337.68,143S324.87,129.92,316,129.92c-12,0-.93,56.14-.93,56.14S327,158,337.68,143Z"/><path class="cls-24" d="M447.73,401.35c0,.6-.08,1.21-.13,1.81-.21.29-.44.57-.67.86h0q-5.22,6.66-10.86,12.94l-.36.4c-1.8,2-3.63,4-5.51,5.91-1.09,1.16-2.22,2.3-3.34,3.43a250.55,250.55,0,0,1-41.29,33.38c-.91.59-1.83,1.18-2.75,1.75s-1.61,1-2.43,1.51a1.25,1.25,0,0,1-.12.08,248.87,248.87,0,0,1-44.51,21.48q-4.53,1.67-9.12,3.14c1.43-3.22,3-6.46,4.87-9.69,4.67-8.28,11.76-16.41,19.69-24.67,9.53-9.94,20.28-20.08,29.54-30.95l0,0c10-11.62,18.18-24.12,21.35-38.07a149.85,149.85,0,0,0,3.81-30c.09-4,0-7.7-.19-11.07a115.53,115.53,0,0,0-1.58-13.64,0,0,0,0,1,0,0c-.07-.41-.15-.78-.22-1.14s-.13-.71-.2-1a57.7,57.7,0,0,0-1.61-6.5l1.55-14.11h0l2-18.63s0,0,0,0c.47.61,4.06,5.22,8.94,12.48,3.62,5.39,8,12.26,12.27,20,7.89,14.22,15.66,31.45,18.69,48.23A131.92,131.92,0,0,1,447.73,401.35Z"/><path class="cls-25" d="M413.85,367.76c-1.74,41.25-21,77.64-31,94.07-.81.52-1.61,1-2.43,1.51a1.25,1.25,0,0,1-.12.08c1.66-5.5,3-14.14,1.37-26.57a116.6,116.6,0,0,1-.88-14.15c-.14-21.12,4-42.4,4-42.4s.15-.24.21-.36v0s0-.07.07-.1l.05-.07c.53-.89,1-1.77,1.55-2.64h0l.15-.25c.52-.91,1-1.81,1.51-2.71,0-.07.07-.13.1-.19.85-1.57,1.66-3.13,2.43-4.66l.32-.64v0l.32-.65,0-.07A148.35,148.35,0,0,0,403,335.6c.46-2,.84-3.93,1.16-5.68.16-.88.3-1.73.43-2.53a85.37,85.37,0,0,0,1.1-10.5h0c0-.18,0-.29,0-.34h0q1.83,4.68,3.2,9.35A127.85,127.85,0,0,1,413.85,367.76Z"/><path class="cls-26" d="M405.69,316.54v.26c-.44,3.87-1,7.9-1.77,12a155.64,155.64,0,0,1-12.29,39c-.15.33-.29.63-.44.93-.85,1.73-1.77,3.5-2.73,5.27-.59,1-1.18,2.11-1.77,3.18-.48.85-1,1.7-1.48,2.54l0,0a5.22,5.22,0,0,0-.37.59c-7.93,12.74-18.34,23.85-31.63,31.26-.07,0-.11.08-.15.08h0c1-2.07,34.62-73.34,29.93-117.45-1.25-11.7-2.69-23.44-4.1-34.36l-.33-2.44c-3.36-25.84-6.64-46.8-7.45-51.86l-.19-1.14,6-5.06s14.29,59.35,25.21,77.11c1.63,2.62,2.88,6.79,3.62,12.1A119.79,119.79,0,0,1,405.69,316.54Z"/><path class="cls-27" d="M251.91,308.94s14.66,5.43,33.54,1.1S308,284.71,308,284.71,283.23,303.06,251.91,308.94Z"/><path class="cls-27" d="M241.06,273.2a40.86,40.86,0,0,1,16.77-23.31c13.75-9.09,45.11.35,50.53,20.34C308.36,270.23,263.68,266,241.06,273.2Z"/><path class="cls-28" d="M244.89,305.49c4.07,4.54,19.58,6.7,36.72,1.63S304.86,292.61,307,288.5s1.92-16.53,1.4-18.27-11.36-13.58-27.63-15c-13.67-1.22-34.09,4-39.67,18C238,281,241.39,301.6,244.89,305.49Z"/><circle class="cls-29" cx="280.59" cy="279.29" r="25.67" transform="translate(-115.3 280.21) rotate(-45)"/><circle class="cls-30" cx="281.46" cy="279.29" r="18.27" transform="translate(-86.07 130.48) rotate(-22.74)"/><path class="cls-31" d="M240.23,276.42s2.77-14.06,27.84-18.08a47.55,47.55,0,0,1,40.29,11.89s10.66-3.68,17.13-12.42c0,0-11.86,6-19.41,3.85,0,0-17.31-12.24-39.16-8S240.23,276.42,240.23,276.42Z"/><path class="cls-32" d="M241.92,298.21s.29,11.26,2.27,11.83,13.26.37,13.26.37S245.13,309.24,241.92,298.21Z"/><path class="cls-33" d="M259.07,287.09a2.94,2.94,0,1,1-2.94-2.93A2.94,2.94,0,0,1,259.07,287.09Z"/><path class="cls-34" d="M245,216.49c-4.57.35-6.52,8.91-.81,11.69s28.32-.19,34,0,13.45,2.21,14.68,1.2S268.92,214.64,245,216.49Z"/><path class="cls-35" d="M249.67,366A123.25,123.25,0,0,1,238,383.27h0c-.41.5-.83,1-1.25,1.49a45.4,45.4,0,0,1-9.93,9c-4.66,2.84-12.57,4.66-20.32,5.57-2.65.31-5.28.51-7.76.62h0a49.63,49.63,0,0,1-12.16-.62,5.19,5.19,0,0,1-1.68-.65l0,0h0c.2,0,1,.09,2.23.14a83.42,83.42,0,0,0,15-.88,86.37,86.37,0,0,0,15.11-3.61,46.64,46.64,0,0,0,13.93-8.09h0c.89-.71,1.75-1.44,2.59-2.19h0A103.86,103.86,0,0,0,249.67,366Z"/><path class="cls-35" d="M193.11,354.62s-1.89-6.95,1.9-10.27,13.9-2.68,13.9-2.68S196.43,342.3,193.11,354.62Z"/><path class="cls-36" d="M193.11,354.62s15.33,1.81,15.8-12.95C208.91,341.67,193.67,341.82,193.11,354.62Z"/><path class="cls-37" d="M153.24,345.93s29.64-4,47.53-11.54,29.48-27,28.95-28.9-48.78-.54-48.78-.54S157,330,153.24,345.93Z"/><path class="cls-38" d="M353,215.52c-30.78,13.28-100-6-107.26-30a112.42,112.42,0,0,1-3.76-20.71c6.34,51.48,55.06,42.63,55.06,42.63s-19.11-15.39-17-49.5,10.48-65.66,10.48-65.66c18.27,21.56,38.76,42,41,44.29-2.21-1.92-22-21.49-24.3-21-6.29,1.4-20.4,23.07-6.41,61.2S353,215.52,353,215.52Z"/><path class="cls-39" d="M397.28,147.34c-2.62,14.32-5.87,29.13-7.75,34.63-3.95,11.73-26.87,34.36-47.28,31.55C325.78,211.27,324,201.68,324,201.68s.74-3.25,2.25-8.38a1.72,1.72,0,0,0,.11-.3c3.95-13.21,13.07-38.46,28.2-53.59,21.23-21.22,43-25.65,46.14-24.51C402.37,115.49,400.23,131.1,397.28,147.34Z"/><path class="cls-40" d="M397.28,147.34c-1.51-3.87-5.83-13.54-11.81-14.35-7.53-1.07-44.18,20.63-59.1,60,3.95-13.21,13.07-38.46,28.2-53.59,21.23-21.22,43-25.65,46.14-24.51C402.37,115.49,400.23,131.1,397.28,147.34Z"/><path class="cls-41" d="M448.2,402.39c-.19.26-.4.51-.6.77s-.44.57-.67.86h0q-5.22,6.66-10.86,12.94c5.57-21.07,6.48-41.54.07-41.44-5,.08-10.66,7.1-15.24,14.4a149.13,149.13,0,0,0-8.71,16.38,187.6,187.6,0,0,1-26.62,53.78c-.91.59-1.83,1.18-2.75,1.75s-1.61,1-2.43,1.51a431.06,431.06,0,0,0,20.8-55.12c10-34,10-54.37,4.73-53.59-4.66.63-17.39,19.93-20.46,24.62l-.07.11-.18.29,0,0,0,.06-.05.07s0,.07-.07.1v0a2.12,2.12,0,0,0-.13.2l-.05.09,0,0c-10.41,19.51-28.09,29.43-31.34,31.1h0l0,0-.18.1-.06,0c-.07,0-.11.08-.15.08,22.48-17.2,42.12-52,47.24-82.46.06-.32.11-.65.16-1a80.54,80.54,0,0,0,.88-19.77v0c-2.23-24.49-13.12-39.07-18.89-45.2h0a34,34,0,0,0-3.58-3.39l-.34-2.44-7.25-50.57,0-.14-.37-2.29.21-.18h0l3.3-2.76,1.85-1.54,0,0,0,0,.64-.53s0,0,0,0,0,0,0,0,0,0,0,.06,0,0,0,0a.15.15,0,0,0,0,.06.06.06,0,0,0,0,0s0,0,0,0a0,0,0,0,0,0,0,1.36,1.36,0,0,0,0,.17,1.55,1.55,0,0,1,.05.23.17.17,0,0,1,0,.1l0,.11a.24.24,0,0,0,0,.08,2.25,2.25,0,0,0,0,.22c0,.12.06.26.1.41s.05.22.08.34c.07.27.15.57.23.9l.17.68c.06.24.13.5.19.76.12.47.25,1,.38,1.53l.15.55a.22.22,0,0,0,0,.08l.12.47a0,0,0,0,0,0,0l.31,1.21c.05.21.11.42.17.63s.11.46.17.69.13.51.2.77.13.5.2.76.13.51.2.77c.36,1.39.75,2.87,1.17,4.43l.36,1.35c.25.92.5,1.86.77,2.81.13.49.26,1,.4,1.45.19.74.4,1.48.61,2.23.14.5.27,1,.42,1.52s.23.79.33,1.2.21.74.33,1.12c.29,1,.58,2.09.89,3.15l.42,1.44c.13.45.26.91.4,1.38l.3,1,.78,2.61c.08.27.16.54.25.81.21.74.44,1.47.66,2.2,0,.09.05.17.08.25.17.55.33,1.1.51,1.64s.38,1.25.58,1.88l.33,1,.33,1v.06a.16.16,0,0,1,0,.06l.06.17a1.54,1.54,0,0,0,.05.17c0,.16.1.31.14.46s.18.55.27.81c.17.55.35,1.08.52,1.61.05.14.09.28.14.41l.45,1.39.47,1.38.27.79.32,1c.17.49.34,1,.5,1.43.09.26.18.51.28.77.25.73.5,1.44.77,2.16v0l.46,1.26.18.49c.14.39.29.78.44,1.16.27.72.54,1.42.81,2.11s.54,1.37.82,2c.17.45.35.89.54,1.31.09.21.18.43.26.64.18.42.36.83.55,1.25s.35.8.53,1.19.26.59.4.87c.2.44.4.85.6,1.26l.59,1.19q.13.27.27.51c.08.17.17.34.26.5s.26.49.4.73l.38.67v0l.25.41c.09.14.17.28.25.42.21.33.4.69.59,1.06.1.19.19.38.28.58s.16.35.25.54h0c.06.16.13.31.19.48s.14.33.2.5l.09.27a2,2,0,0,1,.1.26l.18.54.15.44s0,0,0,.06.08.22.11.33.13.44.19.66a.38.38,0,0,0,0,.1c.06.26.13.53.2.8s.16.62.23.94.11.51.17.78c.25,1.18.46,2.43.65,3.76.47.61,4.06,5.22,8.94,12.48,3.62,5.39,8,12.26,12.27,20,7.89,14.22,15.66,31.45,18.69,48.23a131.92,131.92,0,0,1,2.1,32.11c.15-.51.22-.81.22-.81S448,401.19,448.2,402.39Z"/><path class="cls-42" d="M389.82,245.73s7.88,26.07,34.1,38,26.23,33.57-7.34,40.21-63.64,40.21-63.64,40.21,14.24-31.68,35.49-47.6c15.48-11.59,35-16.56,32.52-24.25C418.94,285.92,396.28,287.5,389.82,245.73Z"/><path class="cls-43" d="M291.08,323c-4.32-4.18,21.06-27.36,29.75-25.18S325.18,319,314.92,323,294.28,326.14,291.08,323Z"/><path class="cls-44" d="M186.57,414.75s-5.31,19.26-17,35.85a70.18,70.18,0,0,1-12.54,13.88,74.75,74.75,0,0,1-16.79,10.21q-4.19-2-8.28-4.24l-2-1.1c4.91-3.22,10.28-6.9,15.84-11C167.61,442.35,186.57,414.75,186.57,414.75Z"/><path class="cls-44" d="M183.5,88.35a214,214,0,0,0-4.63,30.41c-1.43,17.38,7.67,36,7.67,36s-15.95-15.2-13.21-35S183.5,88.35,183.5,88.35Z"/><path class="cls-44" d="M158.59,32.59s-4.32,43.2,14.49,75.62C173.08,108.21,168,56.34,158.59,32.59Z"/><path class="cls-44" d="M205.26,144.51s-11.54,12.05-14.68,20.82,4.12,22.23,4.12,22.23S194.22,165.3,205.26,144.51Z"/><path class="cls-44" d="M268.07,96.28s-11.3,2-17.23,10.43-16.21,58.36,3.49,84.26c0,0-10.82-28.81-3.49-61.05S268.07,96.28,268.07,96.28Z"/><path class="cls-44" d="M172.5,181.63s-10,1.76-11.81,14.54,5.9,28,5.9,28S160.7,202.8,172.5,181.63Z"/><path class="cls-44" d="M176.34,239.43a143.15,143.15,0,0,0,0,20.38c.74,12.9,5.5,40.93,4.6,45.14s-23.66,27.79-25.88,41,23.28,42.69,23.28,42.69-16.64-30.35-13.9-44.68,24-31,24.86-39.61S175.59,271.48,176.34,239.43Z"/><path class="cls-31" d="M299.73,263.9s11.62-3,17.9-13.36c0,0-11.59,7.35-24.72,10.19Z"/><path class="cls-44" d="M440.59,387.37a209.6,209.6,0,0,1-4.88,30c-1.8,2-3.63,4-5.51,5.91-1.09,1.16-2.22,2.3-3.34,3.43,1-1.91,2-3.78,2.82-5.6C438.45,402.79,440.4,388.85,440.59,387.37Z"/><path class="cls-33" d="M175.52,108.59S172,122.93,173.34,129C173.34,129,184.26,124,175.52,108.59Z"/><path class="cls-33" d="M190.4,165.91s2.28-8.12,7.63-11C198,154.94,200.07,166.12,190.4,165.91Z"/><path class="cls-33" d="M160.41,33.51s7.18,13.72,6.87,24.89-4.22,18.11-4.22,18.11S155.25,53.54,160.41,33.51Z"/><path class="cls-45" d="M266.78,262.18l1.29,13.21s14.79,7.14,31.56,5.81L302,267.67S289.39,254.82,266.78,262.18Z"/><circle class="cls-46" cx="382.9" cy="384.05" r="111.98"/><path d="M347.28,323.45c17.36,0,28.93,13.5,28.93,37.42,0,26.43-13.88,39.54-30.08,39.54-15.63,0-29.13-12.73-29.32-37.8,0-25.08,13.69-39.16,30.28-39.16Zm-1,10.22c-10.42,0-16,12.54-16,28.36-.39,15.81,5.59,28.16,16.2,28.16,11.19,0,16.2-12,16.2-28.55,0-15.23-4.43-28-16.2-28ZM345,453.26l73.68-130h10.8l-73.87,130Zm84.09-77.92c17.36,0,28.74,13.5,28.74,37.42,0,26.42-13.89,39.53-29.9,39.53-15.62,0-29.12-12.53-29.31-37.61,0-25.26,13.69-39.34,30.28-39.34Zm-1,10.22c-10.42,0-16.2,12.54-16.2,28.35-.2,16,6,28.16,16.39,28.16,11.19,0,16.2-12,16.2-28.54,0-15.24-4.43-28-16.2-28Z"/></g></g></svg>